<svg version="1.1" xmlns="http://www.w3.org/2000/svg" xmlns:xlink="http://www.w3.org/1999/xlink" width="1718" height="1854"><defs/><g><g transform="translate(-86,-46) scale(1,1)"><rect fill="#ffffff" stroke="none" x="168" y="56" width="156" height="45"/></g><g transform="translate(-86,-46) scale(1,1)"><path fill="none" stroke="#000000" d="M 168 56 L 324 56 L 324 101 L 168 101 L 168 56 Z Z" stroke-miterlimit="10"/></g><g transform="translate(-86,-46) scale(1,1)"><g><path fill="none" stroke="none"/><text fill="#000000" stroke="none" font-family="Arial" font-size="13px" font-style="normal" font-weight="normal" text-decoration="none" x="177.5" y="78.5">options.NewCMServer()</text></g></g><g transform="translate(-86,-46) scale(1,1)"><rect fill="#ffffff" stroke="none" x="168" y="173" width="74" height="32"/></g><g transform="translate(-86,-46) scale(1,1)"><path fill="none" stroke="#000000" d="M 168 173 L 242 173 L 242 205 L 168 205 L 168 173 Z Z" stroke-miterlimit="10"/></g><g transform="translate(-86,-46) scale(1,1)"><g><path fill="none" stroke="none"/><text fill="#000000" stroke="none" font-family="Arial" font-size="13px" font-style="normal" font-weight="normal" text-decoration="none" x="181" y="195.5">app.Run</text></g></g><g transform="translate(-86,-46) scale(1,1)"><path fill="none" stroke="#000000" d="M 226 101 L 226 173" stroke-miterlimit="10"/></g><g transform="translate(-86,-46) scale(1,1)"><path fill="#000000" stroke="none" d="M 221.790482243984 162.83732514237585 L 226 173 L 230.209517756016 162.83732514237585"/></g><g transform="translate(-86,-46) scale(1,1)"><path fill="none" stroke="#000000" d="M 221.790482243984 162.83732514237585 L 226 173 L 230.209517756016 162.83732514237585 L 221.790482243984 162.83732514237585" stroke-miterlimit="10"/></g><g transform="translate(-86,-46) scale(1,1)"><rect fill="#ffffff" stroke="none" x="168" y="277" width="207" height="32"/></g><g transform="translate(-86,-46) scale(1,1)"><path fill="none" stroke="#000000" d="M 168 277 L 375 277 L 375 309 L 168 309 L 168 277 Z Z" stroke-miterlimit="10"/></g><g transform="translate(-86,-46) scale(1,1)"><g><path fill="none" stroke="none"/><text fill="#000000" stroke="none" font-family="Arial" font-size="13px" font-style="normal" font-weight="normal" text-decoration="none" x="177.5" y="299.5">clientcmd.BuildConfigFromFlags</text></g></g><g transform="translate(-86,-46) scale(1,1)"><path fill="none" stroke="#000000" d="M 198 205 L 198 277" stroke-miterlimit="10"/></g><g transform="translate(-86,-46) scale(1,1)"><path fill="#000000" stroke="none" d="M 193.790482243984 266.83732514237585 L 198 277 L 202.209517756016 266.83732514237585"/></g><g transform="translate(-86,-46) scale(1,1)"><path fill="none" stroke="#000000" d="M 193.790482243984 266.83732514237585 L 198 277 L 202.209517756016 266.83732514237585 L 193.790482243984 266.83732514237585" stroke-miterlimit="10"/></g><g transform="translate(-86,-46) scale(1,1)"><rect fill="#ffffff" stroke="none" x="168" y="381" width="150" height="32"/></g><g transform="translate(-86,-46) scale(1,1)"><path fill="none" stroke="#000000" d="M 168 381 L 318 381 L 318 413 L 168 413 L 168 381 Z Z" stroke-miterlimit="10"/></g><g transform="translate(-86,-46) scale(1,1)"><g><path fill="none" stroke="none"/><text fill="#000000" stroke="none" font-family="Arial" font-size="13px" font-style="normal" font-weight="normal" text-decoration="none" x="177.5" y="403.5">client.New(kubeconfig)</text></g></g><g transform="translate(-86,-46) scale(1,1)"><path fill="none" stroke="#000000" d="M 251 309 L 251 381" stroke-miterlimit="10"/></g><g transform="translate(-86,-46) scale(1,1)"><path fill="#000000" stroke="none" d="M 246.790482243984 370.83732514237585 L 251 381 L 255.209517756016 370.83732514237585"/></g><g transform="translate(-86,-46) scale(1,1)"><path fill="none" stroke="#000000" d="M 246.790482243984 370.83732514237585 L 251 381 L 255.209517756016 370.83732514237585 L 246.790482243984 370.83732514237585" stroke-miterlimit="10"/></g><g transform="translate(-86,-46) scale(1,1)"><rect fill="#ffffff" stroke="none" x="168" y="485" width="159" height="32"/></g><g transform="translate(-86,-46) scale(1,1)"><path fill="none" stroke="#000000" d="M 168 485 L 327 485 L 327 517 L 168 517 L 168 485 Z Z" stroke-miterlimit="10"/></g><g transform="translate(-86,-46) scale(1,1)"><g><path fill="none" stroke="none"/><text fill="#000000" stroke="none" font-family="Arial" font-size="13px" font-style="normal" font-weight="normal" text-decoration="none" x="177.5" y="507.5">server.ListenAndServe()</text></g></g><g transform="translate(-86,-46) scale(1,1)"><path fill="none" stroke="#000000" d="M 229 413 L 229 485" stroke-miterlimit="10"/></g><g transform="translate(-86,-46) scale(1,1)"><path fill="#000000" stroke="none" d="M 224.790482243984 474.83732514237585 L 229 485 L 233.209517756016 474.83732514237585"/></g><g transform="translate(-86,-46) scale(1,1)"><path fill="none" stroke="#000000" d="M 224.790482243984 474.83732514237585 L 229 485 L 233.209517756016 474.83732514237585 L 224.790482243984 474.83732514237585" stroke-miterlimit="10"/></g><g transform="translate(-86,-46) scale(1,1)"><rect fill="#ffffff" stroke="none" x="168" y="589" width="109" height="32"/></g><g transform="translate(-86,-46) scale(1,1)"><path fill="none" stroke="#000000" d="M 168 589 L 277 589 L 277 621 L 168 621 L 168 589 Z Z" stroke-miterlimit="10"/></g><g transform="translate(-86,-46) scale(1,1)"><g><path fill="none" stroke="none"/><text fill="#000000" stroke="none" font-family="Arial" font-size="13px" font-style="normal" font-weight="normal" text-decoration="none" x="177.5" y="611.5">StartControllers</text></g></g><g transform="translate(-86,-46) scale(1,1)"><path fill="none" stroke="#000000" d="M 232 517 L 232 589" stroke-miterlimit="10"/></g><g transform="translate(-86,-46) scale(1,1)"><path fill="#000000" stroke="none" d="M 227.790482243984 578.8373251423759 L 232 589 L 236.209517756016 578.8373251423759"/></g><g transform="translate(-86,-46) scale(1,1)"><path fill="none" stroke="#000000" d="M 227.790482243984 578.8373251423759 L 232 589 L 236.209517756016 578.8373251423759 L 227.790482243984 578.8373251423759" stroke-miterlimit="10"/></g><g transform="translate(-86,-46) scale(1,1)"><rect fill="#ffffff" stroke="none" x="464" y="528" width="256" height="32"/></g><g transform="translate(-86,-46) scale(1,1)"><path fill="none" stroke="#000000" d="M 464 528 L 720 528 L 720 560 L 464 560 L 464 528 Z Z" stroke-miterlimit="10"/></g><g transform="translate(-86,-46) scale(1,1)"><g><path fill="none" stroke="none"/><text fill="#000000" stroke="none" font-family="Arial" font-size="13px" font-style="normal" font-weight="normal" text-decoration="none" x="473.5" y="550.5">endpointcontroller.NewEndpointController</text></g></g><g transform="translate(-86,-46) scale(1,1)"><path fill="none" stroke="#000000" d="M 277 603 L 584 603 M 584 603 A 8 8 0 0 0 592 595 L 592 560" stroke-miterlimit="10"/></g><g transform="translate(-86,-46) scale(1,1)"><path fill="#000000" stroke="none" d="M 596.209517756016 570.1626748576241 L 592 560 L 587.790482243984 570.1626748576241"/></g><g transform="translate(-86,-46) scale(1,1)"><path fill="none" stroke="#000000" d="M 596.209517756016 570.1626748576241 L 592 560 L 587.790482243984 570.1626748576241 L 596.209517756016 570.1626748576241" stroke-miterlimit="10"/></g><g transform="translate(-86,-46) scale(1,1)"><rect fill="#ffffff" stroke="none" x="456" y="656" width="274" height="32"/></g><g transform="translate(-86,-46) scale(1,1)"><path fill="none" stroke="#000000" d="M 456 656 L 730 656 L 730 688 L 456 688 L 456 656 Z Z" stroke-miterlimit="10"/></g><g transform="translate(-86,-46) scale(1,1)"><g><path fill="none" stroke="none"/><text fill="#000000" stroke="none" font-family="Arial" font-size="13px" font-style="normal" font-weight="normal" text-decoration="none" x="465.5" y="678.5">replicationcontroller.NewReplicationManager</text></g></g><g transform="translate(-86,-46) scale(1,1)"><path fill="none" stroke="#000000" d="M 277 608 L 584 608 M 584 608 A 8 8 0 0 1 592 616 L 592 656" stroke-miterlimit="10"/></g><g transform="translate(-86,-46) scale(1,1)"><path fill="#000000" stroke="none" d="M 587.790482243984 645.8373251423759 L 592 656 L 596.209517756016 645.8373251423759"/></g><g transform="translate(-86,-46) scale(1,1)"><path fill="none" stroke="#000000" d="M 587.790482243984 645.8373251423759 L 592 656 L 596.209517756016 645.8373251423759 L 587.790482243984 645.8373251423759" stroke-miterlimit="10"/></g><g transform="translate(-86,-46) scale(1,1)"><rect fill="#ffffff" stroke="none" x="120" y="733" width="199" height="32"/></g><g transform="translate(-86,-46) scale(1,1)"><path fill="none" stroke="#000000" d="M 120 733 L 319 733 L 319 765 L 120 765 L 120 733 Z Z" stroke-miterlimit="10"/></g><g transform="translate(-86,-46) scale(1,1)"><g><path fill="none" stroke="none"/><text fill="#000000" stroke="none" font-family="Arial" font-size="13px" font-style="normal" font-weight="normal" text-decoration="none" x="129.5" y="755.5">cloudprovider.InitCloudProvider</text></g></g><g transform="translate(-86,-46) scale(1,1)"><path fill="none" stroke="#000000" d="M 230 621 L 230 733" stroke-miterlimit="10"/></g><g transform="translate(-86,-46) scale(1,1)"><path fill="#000000" stroke="none" d="M 225.790482243984 722.8373251423759 L 230 733 L 234.209517756016 722.8373251423759"/></g><g transform="translate(-86,-46) scale(1,1)"><path fill="none" stroke="#000000" d="M 225.790482243984 722.8373251423759 L 230 733 L 234.209517756016 722.8373251423759 L 225.790482243984 722.8373251423759" stroke-miterlimit="10"/></g><g transform="translate(-86,-46) scale(1,1)"><rect fill="#ffffff" stroke="none" x="120" y="837" width="214" height="32"/></g><g transform="translate(-86,-46) scale(1,1)"><path fill="none" stroke="#000000" d="M 120 837 L 334 837 L 334 869 L 120 869 L 120 837 Z Z" stroke-miterlimit="10"/></g><g transform="translate(-86,-46) scale(1,1)"><g><path fill="none" stroke="none"/><text fill="#000000" stroke="none" font-family="Arial" font-size="13px" font-style="normal" font-weight="normal" text-decoration="none" x="129.5" y="859.5">nodecontroller.NewNodeController</text></g></g><g transform="translate(-86,-46) scale(1,1)"><path fill="none" stroke="#000000" d="M 200 765 L 200 837" stroke-miterlimit="10"/></g><g transform="translate(-86,-46) scale(1,1)"><path fill="#000000" stroke="none" d="M 195.790482243984 826.8373251423759 L 200 837 L 204.209517756016 826.8373251423759"/></g><g transform="translate(-86,-46) scale(1,1)"><path fill="none" stroke="#000000" d="M 195.790482243984 826.8373251423759 L 200 837 L 204.209517756016 826.8373251423759 L 195.790482243984 826.8373251423759" stroke-miterlimit="10"/></g><g transform="translate(-86,-46) scale(1,1)"><rect fill="#ffffff" stroke="none" x="152" y="941" width="143" height="32"/></g><g transform="translate(-86,-46) scale(1,1)"><path fill="none" stroke="#000000" d="M 152 941 L 295 941 L 295 973 L 152 973 L 152 941 Z Z" stroke-miterlimit="10"/></g><g transform="translate(-86,-46) scale(1,1)"><g><path fill="none" stroke="none"/><text fill="#000000" stroke="none" font-family="Arial" font-size="13px" font-style="normal" font-weight="normal" text-decoration="none" x="161.5" y="963.5">servicecontroller.New</text></g></g><g transform="translate(-86,-46) scale(1,1)"><rect fill="#ffffff" stroke="none" x="488" y="944" width="328" height="32"/></g><g transform="translate(-86,-46) scale(1,1)"><path fill="none" stroke="#000000" d="M 488 944 L 816 944 L 816 976 L 488 976 L 488 944 Z Z" stroke-miterlimit="10"/></g><g transform="translate(-86,-46) scale(1,1)"><g><path fill="none" stroke="none"/><text fill="#000000" stroke="none" font-family="Arial" font-size="13px" font-style="normal" font-weight="normal" text-decoration="none" x="497.5" y="966.5">resourcequotacontroller.NewResourceQuotaController</text></g></g><g transform="translate(-86,-46) scale(1,1)"><rect fill="#ffffff" stroke="none" x="144" y="1005" width="129" height="32"/></g><g transform="translate(-86,-46) scale(1,1)"><path fill="none" stroke="#000000" d="M 144 1005 L 273 1005 L 273 1037 L 144 1037 L 144 1005 Z Z" stroke-miterlimit="10"/></g><g transform="translate(-86,-46) scale(1,1)"><g><path fill="none" stroke="none"/><text fill="#000000" stroke="none" font-family="Arial" font-size="13px" font-style="normal" font-weight="normal" text-decoration="none" x="153.5" y="1027.5">wait.PollImmediate</text></g></g><g transform="translate(-86,-46) scale(1,1)"><rect fill="#ffffff" stroke="none" x="144" y="1109" width="262" height="32"/></g><g transform="translate(-86,-46) scale(1,1)"><path fill="none" stroke="#000000" d="M 144 1109 L 406 1109 L 406 1141 L 144 1141 L 144 1109 Z Z" stroke-miterlimit="10"/></g><g transform="translate(-86,-46) scale(1,1)"><g><path fill="none" stroke="none"/><text fill="#000000" stroke="none" font-family="Arial" font-size="13px" font-style="normal" font-weight="normal" text-decoration="none" x="153.5" y="1131.5">kubeClient.Discovery().ServerResources()</text></g></g><g transform="translate(-86,-46) scale(1,1)"><path fill="none" stroke="#000000" d="M 196 1037 L 196 1109" stroke-miterlimit="10"/></g><g transform="translate(-86,-46) scale(1,1)"><path fill="#000000" stroke="none" d="M 191.790482243984 1098.837325142376 L 196 1109 L 200.209517756016 1098.837325142376"/></g><g transform="translate(-86,-46) scale(1,1)"><path fill="none" stroke="#000000" d="M 191.790482243984 1098.837325142376 L 196 1109 L 200.209517756016 1098.837325142376 L 191.790482243984 1098.837325142376" stroke-miterlimit="10"/></g><g transform="translate(-86,-46) scale(1,1)"><rect fill="#ffffff" stroke="none" x="144" y="1213" width="292" height="32"/></g><g transform="translate(-86,-46) scale(1,1)"><path fill="none" stroke="#000000" d="M 144 1213 L 436 1213 L 436 1245 L 144 1245 L 144 1213 Z Z" stroke-miterlimit="10"/></g><g transform="translate(-86,-46) scale(1,1)"><g><path fill="none" stroke="none"/><text fill="#000000" stroke="none" font-family="Arial" font-size="13px" font-style="normal" font-weight="normal" text-decoration="none" x="153.5" y="1235.5">namespacecontroller.NewNamespaceController</text></g></g><g transform="translate(-86,-46) scale(1,1)"><path fill="none" stroke="#000000" d="M 250 1141 L 250 1213" stroke-miterlimit="10"/></g><g transform="translate(-86,-46) scale(1,1)"><path fill="#000000" stroke="none" d="M 245.790482243984 1202.837325142376 L 250 1213 L 254.209517756016 1202.837325142376"/></g><g transform="translate(-86,-46) scale(1,1)"><path fill="none" stroke="#000000" d="M 245.790482243984 1202.837325142376 L 250 1213 L 254.209517756016 1202.837325142376 L 245.790482243984 1202.837325142376" stroke-miterlimit="10"/></g><g transform="translate(-86,-46) scale(1,1)"><path fill="#ffffff" stroke="none" d="M 128 1331.5 L 184.5 1317 L 241 1331.5 L 184.5 1346 L 128 1331.5"/></g><g transform="translate(-86,-46) scale(1,1)"><path fill="none" stroke="#000000" d="M 128 1331.5 L 184.5 1317 L 241 1331.5 L 184.5 1346 L 128 1331.5 L 128 1331.5" stroke-miterlimit="10"/></g><g transform="translate(-86,-46) scale(1,1)"><g><path fill="none" stroke="none"/><text fill="#000000" stroke="none" font-family="Arial" font-size="13px" font-style="normal" font-weight="normal" text-decoration="none" x="158" y="1338">v1beta1?</text></g></g><g transform="translate(-86,-46) scale(1,1)"><rect fill="#ffffff" stroke="none" x="128" y="1418" width="242" height="32"/></g><g transform="translate(-86,-46) scale(1,1)"><path fill="none" stroke="#000000" d="M 128 1418 L 370 1418 L 370 1450 L 128 1450 L 128 1418 Z Z" stroke-miterlimit="10"/></g><g transform="translate(-86,-46) scale(1,1)"><g><path fill="none" stroke="none"/><text fill="#000000" stroke="none" font-family="Arial" font-size="13px" font-style="normal" font-weight="normal" text-decoration="none" x="137.5" y="1440.5">podautoscaler.NewHorizontalController</text></g></g><g transform="translate(-86,-46) scale(1,1)"><path fill="none" stroke="#000000" d="M 174 1346 L 174 1418" stroke-miterlimit="10"/></g><g transform="translate(-86,-46) scale(1,1)"><path fill="#000000" stroke="none" d="M 169.790482243984 1407.837325142376 L 174 1418 L 178.209517756016 1407.837325142376"/></g><g transform="translate(-86,-46) scale(1,1)"><path fill="none" stroke="#000000" d="M 169.790482243984 1407.837325142376 L 174 1418 L 178.209517756016 1407.837325142376 L 169.790482243984 1407.837325142376" stroke-miterlimit="10"/></g><g transform="translate(-86,-46) scale(1,1)"><rect fill="#ffffff" stroke="none" x="600" y="1496" width="224" height="32"/></g><g transform="translate(-86,-46) scale(1,1)"><path fill="none" stroke="#000000" d="M 600 1496 L 824 1496 L 824 1528 L 600 1528 L 600 1496 Z Z" stroke-miterlimit="10"/></g><g transform="translate(-86,-46) scale(1,1)"><g><path fill="none" stroke="none"/><text fill="#000000" stroke="none" font-family="Arial" font-size="13px" font-style="normal" font-weight="normal" text-decoration="none" x="609.5" y="1518.5">daemon.NewDaemonSetsController</text></g></g><g transform="translate(-86,-46) scale(1,1)"><path fill="none" stroke="#000000" d="M 368 1450 L 368 1504 M 368 1504 A 8 8 0 0 0 376 1512 L 600 1512" stroke-miterlimit="10"/></g><g transform="translate(-86,-46) scale(1,1)"><path fill="#000000" stroke="none" d="M 589.8373251423759 1516.2095177560159 L 600 1512 L 589.8373251423758 1507.7904822439841"/></g><g transform="translate(-86,-46) scale(1,1)"><path fill="none" stroke="#000000" d="M 589.8373251423759 1516.2095177560159 L 600 1512 L 589.8373251423758 1507.7904822439841 L 589.8373251423759 1516.2095177560159" stroke-miterlimit="10"/></g><g transform="translate(-86,-46) scale(1,1)"><rect fill="#ffffff" stroke="none" x="600" y="1424" width="141" height="32"/></g><g transform="translate(-86,-46) scale(1,1)"><path fill="none" stroke="#000000" d="M 600 1424 L 741 1424 L 741 1456 L 600 1456 L 600 1424 Z Z" stroke-miterlimit="10"/></g><g transform="translate(-86,-46) scale(1,1)"><g><path fill="none" stroke="none"/><text fill="#000000" stroke="none" font-family="Arial" font-size="13px" font-style="normal" font-weight="normal" text-decoration="none" x="609.5" y="1446.5">job.NewJobController</text></g></g><g transform="translate(-86,-46) scale(1,1)"><path fill="none" stroke="#000000" d="M 370 1440 L 600 1440" stroke-miterlimit="10"/></g><g transform="translate(-86,-46) scale(1,1)"><path fill="#000000" stroke="none" d="M 589.8373251423759 1444.2095177560159 L 600 1440 L 589.8373251423758 1435.7904822439841"/></g><g transform="translate(-86,-46) scale(1,1)"><path fill="none" stroke="#000000" d="M 589.8373251423759 1444.2095177560159 L 600 1440 L 589.8373251423758 1435.7904822439841 L 589.8373251423759 1444.2095177560159" stroke-miterlimit="10"/></g><g transform="translate(-86,-46) scale(1,1)"><rect fill="#ffffff" stroke="none" x="600" y="1360" width="239" height="32"/></g><g transform="translate(-86,-46) scale(1,1)"><path fill="none" stroke="#000000" d="M 600 1360 L 839 1360 L 839 1392 L 600 1392 L 600 1360 Z Z" stroke-miterlimit="10"/></g><g transform="translate(-86,-46) scale(1,1)"><g><path fill="none" stroke="none"/><text fill="#000000" stroke="none" font-family="Arial" font-size="13px" font-style="normal" font-weight="normal" text-decoration="none" x="609.5" y="1382.5">deployment.NewDeploymentController</text></g></g><g transform="translate(-86,-46) scale(1,1)"><path fill="none" stroke="#000000" d="M 370 1418 L 370 1384 M 370 1384 A 8 8 0 0 1 378 1376 L 600 1376" stroke-miterlimit="10"/></g><g transform="translate(-86,-46) scale(1,1)"><path fill="#000000" stroke="none" d="M 589.8373251423759 1380.2095177560159 L 600 1376 L 589.8373251423758 1371.7904822439841"/></g><g transform="translate(-86,-46) scale(1,1)"><path fill="none" stroke="#000000" d="M 589.8373251423759 1380.2095177560159 L 600 1376 L 589.8373251423758 1371.7904822439841 L 589.8373251423759 1380.2095177560159" stroke-miterlimit="10"/></g><g transform="translate(-86,-46) scale(1,1)"><rect fill="#ffffff" stroke="none" x="96" y="1546" width="373" height="32"/></g><g transform="translate(-86,-46) scale(1,1)"><path fill="none" stroke="#000000" d="M 96 1546 L 469 1546 L 469 1578 L 96 1578 L 96 1546 Z Z" stroke-miterlimit="10"/></g><g transform="translate(-86,-46) scale(1,1)"><g><path fill="none" stroke="none"/><text fill="#000000" stroke="none" font-family="Arial" font-size="13px" font-style="normal" font-weight="normal" text-decoration="none" x="105.5" y="1568.5">persistentvolumecontroller.NewPersistentVolumeClaimBinder</text></g></g><g transform="translate(-86,-46) scale(1,1)"><path fill="none" stroke="#000000" d="M 200 1450 L 200 1546" stroke-miterlimit="10"/></g><g transform="translate(-86,-46) scale(1,1)"><path fill="#000000" stroke="none" d="M 195.790482243984 1535.837325142376 L 200 1546 L 204.209517756016 1535.837325142376"/></g><g transform="translate(-86,-46) scale(1,1)"><path fill="none" stroke="#000000" d="M 195.790482243984 1535.837325142376 L 200 1546 L 204.209517756016 1535.837325142376 L 195.790482243984 1535.837325142376" stroke-miterlimit="10"/></g><g transform="translate(-86,-46) scale(1,1)"><rect fill="#ffffff" stroke="none" x="96" y="1650" width="354" height="32"/></g><g transform="translate(-86,-46) scale(1,1)"><path fill="none" stroke="#000000" d="M 96 1650 L 450 1650 L 450 1682 L 96 1682 L 96 1650 Z Z" stroke-miterlimit="10"/></g><g transform="translate(-86,-46) scale(1,1)"><g><path fill="none" stroke="none"/><text fill="#000000" stroke="none" font-family="Arial" font-size="13px" font-style="normal" font-weight="normal" text-decoration="none" x="105.5" y="1672.5">persistentvolumecontroller.NewPersistentVolumeRecycler</text></g></g><g transform="translate(-86,-46) scale(1,1)"><rect fill="#ffffff" stroke="none" x="96" y="1754" width="423" height="32"/></g><g transform="translate(-86,-46) scale(1,1)"><path fill="none" stroke="#000000" d="M 96 1754 L 519 1754 L 519 1786 L 96 1786 L 96 1754 Z Z" stroke-miterlimit="10"/></g><g transform="translate(-86,-46) scale(1,1)"><g><path fill="none" stroke="none"/><text fill="#000000" stroke="none" font-family="Arial" font-size="13px" font-style="normal" font-weight="normal" text-decoration="none" x="105.5" y="1776.5">persistentvolumecontroller.NewPersistentVolumeProvisionerController</text></g></g><g transform="translate(-86,-46) scale(1,1)"><rect fill="#ffffff" stroke="none" x="96" y="1858" width="287" height="32"/></g><g transform="translate(-86,-46) scale(1,1)"><path fill="none" stroke="#000000" d="M 96 1858 L 383 1858 L 383 1890 L 96 1890 L 96 1858 Z Z" stroke-miterlimit="10"/></g><g transform="translate(-86,-46) scale(1,1)"><g><path fill="none" stroke="none"/><text fill="#000000" stroke="none" font-family="Arial" font-size="13px" font-style="normal" font-weight="normal" text-decoration="none" x="105.5" y="1880.5">serviceaccountcontroller.NewTokensController</text></g></g><g transform="translate(-86,-46) scale(1,1)"><path fill="none" stroke="#000000" d="M 227 869 L 227 941" stroke-miterlimit="10"/></g><g transform="translate(-86,-46) scale(1,1)"><path fill="#000000" stroke="none" d="M 222.790482243984 930.8373251423759 L 227 941 L 231.209517756016 930.8373251423759"/></g><g transform="translate(-86,-46) scale(1,1)"><path fill="none" stroke="#000000" d="M 222.790482243984 930.8373251423759 L 227 941 L 231.209517756016 930.8373251423759 L 222.790482243984 930.8373251423759" stroke-miterlimit="10"/></g><g transform="translate(-86,-46) scale(1,1)"><path fill="none" stroke="#000000" d="M 295 960 L 488 960" stroke-miterlimit="10"/></g><g transform="translate(-86,-46) scale(1,1)"><path fill="#000000" stroke="none" d="M 477.83732514237585 964.209517756016 L 488 960 L 477.83732514237585 955.790482243984"/></g><g transform="translate(-86,-46) scale(1,1)"><path fill="none" stroke="#000000" d="M 477.83732514237585 964.209517756016 L 488 960 L 477.83732514237585 955.790482243984 L 477.83732514237585 964.209517756016" stroke-miterlimit="10"/></g><g transform="translate(-86,-46) scale(1,1)"><path fill="none" stroke="#000000" d="M 222 973 L 222 1005" stroke-miterlimit="10"/></g><g transform="translate(-86,-46) scale(1,1)"><path fill="#000000" stroke="none" d="M 217.790482243984 994.8373251423759 L 222 1005 L 226.209517756016 994.8373251423759"/></g><g transform="translate(-86,-46) scale(1,1)"><path fill="none" stroke="#000000" d="M 217.790482243984 994.8373251423759 L 222 1005 L 226.209517756016 994.8373251423759 L 217.790482243984 994.8373251423759" stroke-miterlimit="10"/></g><g transform="translate(-86,-46) scale(1,1)"><path fill="none" stroke="#000000" d="M 176 1245 L 176 1317" stroke-miterlimit="10"/></g><g transform="translate(-86,-46) scale(1,1)"><path fill="#000000" stroke="none" d="M 171.790482243984 1306.837325142376 L 176 1317 L 180.209517756016 1306.837325142376"/></g><g transform="translate(-86,-46) scale(1,1)"><path fill="none" stroke="#000000" d="M 171.790482243984 1306.837325142376 L 176 1317 L 180.209517756016 1306.837325142376 L 171.790482243984 1306.837325142376" stroke-miterlimit="10"/></g><g transform="translate(-86,-46) scale(1,1)"><path fill="none" stroke="#000000" d="M 281 1578 L 281 1650" stroke-miterlimit="10"/></g><g transform="translate(-86,-46) scale(1,1)"><path fill="#000000" stroke="none" d="M 276.790482243984 1639.837325142376 L 281 1650 L 285.209517756016 1639.837325142376"/></g><g transform="translate(-86,-46) scale(1,1)"><path fill="none" stroke="#000000" d="M 276.790482243984 1639.837325142376 L 281 1650 L 285.209517756016 1639.837325142376 L 276.790482243984 1639.837325142376" stroke-miterlimit="10"/></g><g transform="translate(-86,-46) scale(1,1)"><path fill="none" stroke="#000000" d="M 276 1682 L 276 1754" stroke-miterlimit="10"/></g><g transform="translate(-86,-46) scale(1,1)"><path fill="#000000" stroke="none" d="M 271.790482243984 1743.837325142376 L 276 1754 L 280.209517756016 1743.837325142376"/></g><g transform="translate(-86,-46) scale(1,1)"><path fill="none" stroke="#000000" d="M 271.790482243984 1743.837325142376 L 276 1754 L 280.209517756016 1743.837325142376 L 271.790482243984 1743.837325142376" stroke-miterlimit="10"/></g><g transform="translate(-86,-46) scale(1,1)"><path fill="none" stroke="#000000" d="M 302 1786 L 302 1858" stroke-miterlimit="10"/></g><g transform="translate(-86,-46) scale(1,1)"><path fill="#000000" stroke="none" d="M 297.790482243984 1847.837325142376 L 302 1858 L 306.209517756016 1847.837325142376"/></g><g transform="translate(-86,-46) scale(1,1)"><path fill="none" stroke="#000000" d="M 297.790482243984 1847.837325142376 L 302 1858 L 306.209517756016 1847.837325142376 L 297.790482243984 1847.837325142376" stroke-miterlimit="10"/></g><g transform="translate(-86,-46) scale(1,1)"><rect fill="#ffffff" stroke="none" x="1000" y="656" width="142" height="32"/></g><g transform="translate(-86,-46) scale(1,1)"><path fill="none" stroke="#000000" d="M 1000 656 L 1142 656 L 1142 688 L 1000 688 L 1000 656 Z Z" stroke-miterlimit="10"/></g><g transform="translate(-86,-46) scale(1,1)"><g><path fill="none" stroke="none"/><text fill="#000000" stroke="none" font-family="Arial" font-size="13px" font-style="normal" font-weight="normal" text-decoration="none" x="1009.5" y="678.5">&amp;ReplicationManager</text></g></g><g transform="translate(-86,-46) scale(1,1)"><rect fill="#ffffff" stroke="none" x="1000" y="758" width="361" height="45"/></g><g transform="translate(-86,-46) scale(1,1)"><path fill="none" stroke="#000000" d="M 1000 758 L 1361 758 L 1361 803 L 1000 803 L 1000 758 Z Z" stroke-miterlimit="10"/></g><g transform="translate(-86,-46) scale(1,1)"><g><path fill="none" stroke="none"/><text fill="#000000" stroke="none" font-family="Arial" font-size="13px" font-style="normal" font-weight="normal" text-decoration="none" x="1080" y="780.5">rm.rcStore.Store, rm.rcController =</text><text fill="#000000" stroke="none" font-family="Arial" font-size="13px" font-style="normal" font-weight="normal" text-decoration="none" x="1112" y="793.5">framework.NewInformer</text></g></g><g transform="translate(-86,-46) scale(1,1)"><path fill="none" stroke="#000000" d="M 1057 688 L 1057 758" stroke-miterlimit="10"/></g><g transform="translate(-86,-46) scale(1,1)"><path fill="#000000" stroke="none" d="M 1052.7904822439841 747.8373251423759 L 1057 758 L 1061.2095177560159 747.8373251423759"/></g><g transform="translate(-86,-46) scale(1,1)"><path fill="none" stroke="#000000" d="M 1052.7904822439841 747.8373251423759 L 1057 758 L 1061.2095177560159 747.8373251423759 L 1052.7904822439841 747.8373251423759" stroke-miterlimit="10"/></g><g transform="translate(-86,-46) scale(1,1)"><rect fill="#ffffff" stroke="none" x="1072" y="864" width="116" height="32"/></g><g transform="translate(-86,-46) scale(1,1)"><path fill="none" stroke="#000000" d="M 1072 864 L 1188 864 L 1188 896 L 1072 896 L 1072 864 Z Z" stroke-miterlimit="10"/></g><g transform="translate(-86,-46) scale(1,1)"><g><path fill="none" stroke="none"/><text fill="#000000" stroke="none" font-family="Arial" font-size="13px" font-style="normal" font-weight="normal" text-decoration="none" x="1081.5" y="886.5">cache.ListWatch</text></g></g><g transform="translate(-86,-46) scale(1,1)"><path fill="none" stroke="#000000" d="M 1126 803 L 1126 864" stroke-miterlimit="10"/></g><g transform="translate(-86,-46) scale(1,1)"><path fill="#000000" stroke="none" d="M 1121.7904822439841 853.8373251423759 L 1126 864 L 1130.2095177560159 853.8373251423759"/></g><g transform="translate(-86,-46) scale(1,1)"><path fill="none" stroke="#000000" d="M 1121.7904822439841 853.8373251423759 L 1126 864 L 1130.2095177560159 853.8373251423759 L 1121.7904822439841 853.8373251423759" stroke-miterlimit="10"/></g><g transform="translate(-86,-46) scale(1,1)"><rect fill="#ffffff" stroke="none" x="1072" y="966" width="417" height="32"/></g><g transform="translate(-86,-46) scale(1,1)"><path fill="none" stroke="#000000" d="M 1072 966 L 1489 966 L 1489 998 L 1072 998 L 1072 966 Z Z" stroke-miterlimit="10"/></g><g transform="translate(-86,-46) scale(1,1)"><g><path fill="none" stroke="none"/><text fill="#000000" stroke="none" font-family="Arial" font-size="13px" font-style="normal" font-weight="normal" text-decoration="none" x="1081.5" y="988.5">rm.kubeClient.ReplicationControllers(api.NamespaceAll).List(options)</text></g></g><g transform="translate(-86,-46) scale(1,1)"><path fill="none" stroke="#000000" d="M 1119 896 L 1119 966" stroke-miterlimit="10"/></g><g transform="translate(-86,-46) scale(1,1)"><path fill="#000000" stroke="none" d="M 1114.7904822439841 955.8373251423759 L 1119 966 L 1123.2095177560159 955.8373251423759"/></g><g transform="translate(-86,-46) scale(1,1)"><path fill="none" stroke="#000000" d="M 1114.7904822439841 955.8373251423759 L 1119 966 L 1123.2095177560159 955.8373251423759 L 1114.7904822439841 955.8373251423759" stroke-miterlimit="10"/></g><g transform="translate(-86,-46) scale(1,1)"><rect fill="#ffffff" stroke="none" x="1072" y="1068" width="433" height="32"/></g><g transform="translate(-86,-46) scale(1,1)"><path fill="none" stroke="#000000" d="M 1072 1068 L 1505 1068 L 1505 1100 L 1072 1100 L 1072 1068 Z Z" stroke-miterlimit="10"/></g><g transform="translate(-86,-46) scale(1,1)"><g><path fill="none" stroke="none"/><text fill="#000000" stroke="none" font-family="Arial" font-size="13px" font-style="normal" font-weight="normal" text-decoration="none" x="1081.5" y="1090.5">rm.kubeClient.ReplicationControllers(api.NamespaceAll).Watch(options)</text></g></g><g transform="translate(-86,-46) scale(1,1)"><path fill="none" stroke="#000000" d="M 1241 998 L 1241 1068" stroke-miterlimit="10"/></g><g transform="translate(-86,-46) scale(1,1)"><path fill="#000000" stroke="none" d="M 1236.7904822439841 1057.837325142376 L 1241 1068 L 1245.2095177560159 1057.837325142376"/></g><g transform="translate(-86,-46) scale(1,1)"><path fill="none" stroke="#000000" d="M 1236.7904822439841 1057.837325142376 L 1241 1068 L 1245.2095177560159 1057.837325142376 L 1236.7904822439841 1057.837325142376" stroke-miterlimit="10"/></g><g transform="translate(-86,-46) scale(1,1)"><rect fill="#ffffff" stroke="none" x="1072" y="1170" width="252" height="32"/></g><g transform="translate(-86,-46) scale(1,1)"><path fill="none" stroke="#000000" d="M 1072 1170 L 1324 1170 L 1324 1202 L 1072 1202 L 1072 1170 Z Z" stroke-miterlimit="10"/></g><g transform="translate(-86,-46) scale(1,1)"><g><path fill="none" stroke="none"/><text fill="#000000" stroke="none" font-family="Arial" font-size="13px" font-style="normal" font-weight="normal" text-decoration="none" x="1081.5" y="1192.5">framework.ResourceEventHandlerFuncs</text></g></g><g transform="translate(-86,-46) scale(1,1)"><path fill="none" stroke="#000000" d="M 1247 1100 L 1247 1170" stroke-miterlimit="10"/></g><g transform="translate(-86,-46) scale(1,1)"><path fill="#000000" stroke="none" d="M 1242.7904822439841 1159.837325142376 L 1247 1170 L 1251.2095177560159 1159.837325142376"/></g><g transform="translate(-86,-46) scale(1,1)"><path fill="none" stroke="#000000" d="M 1242.7904822439841 1159.837325142376 L 1247 1170 L 1251.2095177560159 1159.837325142376 L 1242.7904822439841 1159.837325142376" stroke-miterlimit="10"/></g><g transform="translate(-86,-46) scale(1,1)"><path fill="none" stroke="#000000" d="M 730 672 L 1000 672" stroke-miterlimit="10"/></g><g transform="translate(-86,-46) scale(1,1)"><path fill="#000000" stroke="none" d="M 989.8373251423759 676.209517756016 L 1000 672 L 989.8373251423758 667.790482243984"/></g><g transform="translate(-86,-46) scale(1,1)"><path fill="none" stroke="#000000" d="M 989.8373251423759 676.209517756016 L 1000 672 L 989.8373251423758 667.790482243984 L 989.8373251423759 676.209517756016" stroke-miterlimit="10"/></g><g transform="translate(-86,-46) scale(1,1)"><rect fill="#ffffff" stroke="none" x="1160" y="1256" width="206" height="45"/></g><g transform="translate(-86,-46) scale(1,1)"><path fill="none" stroke="#000000" d="M 1160 1256 L 1366 1256 L 1366 1301 L 1160 1301 L 1160 1256 Z Z" stroke-miterlimit="10"/></g><g transform="translate(-86,-46) scale(1,1)"><g><path fill="none" stroke="none"/><text fill="#000000" stroke="none" font-family="Arial" font-size="13px" font-style="normal" font-weight="normal" text-decoration="none" x="1235" y="1278.5">AddFunc:</text><text fill="#000000" stroke="none" font-family="Arial" font-size="13px" font-style="normal" font-weight="normal" text-decoration="none" x="1199.5" y="1291.5">rm.enqueueController,</text></g></g><g transform="translate(-86,-46) scale(1,1)"><path fill="none" stroke="#000000" d="M 1174 1202 L 1174 1256" stroke-miterlimit="10"/></g><g transform="translate(-86,-46) scale(1,1)"><path fill="#000000" stroke="none" d="M 1169.7904822439841 1245.837325142376 L 1174 1256 L 1178.2095177560159 1245.837325142376"/></g><g transform="translate(-86,-46) scale(1,1)"><path fill="none" stroke="#000000" d="M 1169.7904822439841 1245.837325142376 L 1174 1256 L 1178.2095177560159 1245.837325142376 L 1169.7904822439841 1245.837325142376" stroke-miterlimit="10"/></g><g transform="translate(-86,-46) scale(1,1)"><rect fill="#ffffff" stroke="none" x="1384" y="1256" width="129" height="32"/></g><g transform="translate(-86,-46) scale(1,1)"><path fill="none" stroke="#000000" d="M 1384 1256 L 1513 1256 L 1513 1288 L 1384 1288 L 1384 1256 Z Z" stroke-miterlimit="10"/></g><g transform="translate(-86,-46) scale(1,1)"><g><path fill="none" stroke="none"/><text fill="#000000" stroke="none" font-family="Arial" font-size="13px" font-style="normal" font-weight="normal" text-decoration="none" x="1393.5" y="1278.5">rm.queue.Add(key)</text></g></g><g transform="translate(-86,-46) scale(1,1)"><path fill="none" stroke="#000000" d="M 1366 1272 L 1384 1272" stroke-miterlimit="10"/></g><g transform="translate(-86,-46) scale(1,1)"><path fill="#000000" stroke="none" d="M 1373.837325142376 1276.2095177560159 L 1384 1272 L 1373.837325142376 1267.7904822439841"/></g><g transform="translate(-86,-46) scale(1,1)"><path fill="none" stroke="#000000" d="M 1373.837325142376 1276.2095177560159 L 1384 1272 L 1373.837325142376 1267.7904822439841 L 1373.837325142376 1276.2095177560159" stroke-miterlimit="10"/></g><g transform="translate(-86,-46) scale(1,1)"><rect fill="#ffffff" stroke="none" x="1584" y="1248" width="210" height="71"/></g><g transform="translate(-86,-46) scale(1,1)"><path fill="none" stroke="#000000" d="M 1584 1248 L 1794 1248 L 1794 1319 L 1584 1319 L 1584 1248 Z Z" stroke-miterlimit="10"/></g><g transform="translate(-86,-46) scale(1,1)"><g><path fill="none" stroke="none"/><text fill="#000000" stroke="none" font-family="Arial" font-size="13px" font-style="normal" font-weight="normal" text-decoration="none" x="1610" y="1270.5">q.queue = append(q.queue,</text><text fill="#000000" stroke="none" font-family="Arial" font-size="13px" font-style="normal" font-weight="normal" text-decoration="none" x="1674.5" y="1283.5">item)</text></g></g><g transform="translate(-86,-46) scale(1,1)"><path fill="none" stroke="#000000" d="M 1513 1264 L 1584 1264" stroke-miterlimit="10"/></g><g transform="translate(-86,-46) scale(1,1)"><path fill="#000000" stroke="none" d="M 1573.837325142376 1268.2095177560159 L 1584 1264 L 1573.837325142376 1259.7904822439841"/></g><g transform="translate(-86,-46) scale(1,1)"><path fill="none" stroke="#000000" d="M 1573.837325142376 1268.2095177560159 L 1584 1264 L 1573.837325142376 1259.7904822439841 L 1573.837325142376 1268.2095177560159" stroke-miterlimit="10"/></g><g transform="translate(-86,-46) scale(1,1)"><rect fill="#ffffff" stroke="none" x="1584" y="1352" width="106" height="32"/></g><g transform="translate(-86,-46) scale(1,1)"><path fill="none" stroke="#000000" d="M 1584 1352 L 1690 1352 L 1690 1384 L 1584 1384 L 1584 1352 Z Z" stroke-miterlimit="10"/></g><g transform="translate(-86,-46) scale(1,1)"><g><path fill="none" stroke="none"/><text fill="#000000" stroke="none" font-family="Arial" font-size="13px" font-style="normal" font-weight="normal" text-decoration="none" x="1593.5" y="1374.5">q.cond.Signal()</text></g></g><g transform="translate(-86,-46) scale(1,1)"><path fill="none" stroke="#000000" d="M 1621 1319 L 1621 1352" stroke-miterlimit="10"/></g><g transform="translate(-86,-46) scale(1,1)"><path fill="#000000" stroke="none" d="M 1616.7904822439841 1341.837325142376 L 1621 1352 L 1625.2095177560159 1341.837325142376"/></g><g transform="translate(-86,-46) scale(1,1)"><path fill="none" stroke="#000000" d="M 1616.7904822439841 1341.837325142376 L 1621 1352 L 1625.2095177560159 1341.837325142376 L 1616.7904822439841 1341.837325142376" stroke-miterlimit="10"/></g><g transform="translate(-86,-46) scale(1,1)"><g><path fill="none" stroke="none"/><text fill="#000000" stroke="none" font-family="Arial" font-size="18px" font-style="normal" font-weight="normal" text-decoration="none" x="589" y="143">Controller manager watches APIServer, and update datastore when</text><text fill="#000000" stroke="none" font-family="Arial" font-size="18px" font-style="normal" font-weight="normal" text-decoration="none" x="589" y="161">resource changes</text></g></g><g transform="translate(-86,-46) scale(1,1)"><path fill="#ffffff" stroke="none" d="M 1406 758 L 1733 758 L 1743 768 L 1743 871 L 1406 871 L 1406 758"/></g><g transform="translate(-86,-46) scale(1,1)"><path fill="none" stroke="#000000" d="M 1406 758 L 1733 758 L 1743 768 L 1743 871 L 1406 871 L 1406 758 L 1406 758" stroke-miterlimit="10"/></g><g transform="translate(-86,-46) scale(1,1)"><path fill="none" stroke="#000000" d="M 1733 758 L 1733 768 L 1743 768 L 1733 758" stroke-miterlimit="10"/></g><g transform="translate(-86,-46) scale(1,1)"><g><path fill="none" stroke="none"/><text fill="#000000" stroke="none" font-family="Arial" font-size="13px" font-style="normal" font-weight="normal" text-decoration="none" x="1411" y="776">framework.ResourceEventHandlerFuncs{</text></g></g><g transform="translate(-86,-46) scale(1,1)"><g><path fill="none" stroke="none"/><text fill="#000000" stroke="none" font-family="Arial" font-size="13px" font-style="normal" font-weight="normal" text-decoration="none" x="1411" y="791">			AddFunc: e.enqueueService,</text></g></g><g transform="translate(-86,-46) scale(1,1)"><g><path fill="none" stroke="none"/><text fill="#000000" stroke="none" font-family="Arial" font-size="13px" font-style="normal" font-weight="normal" text-decoration="none" x="1411" y="806">			UpdateFunc: func(old, cur interface{}) {</text></g></g><g transform="translate(-86,-46) scale(1,1)"><g><path fill="none" stroke="none"/><text fill="#000000" stroke="none" font-family="Arial" font-size="13px" font-style="normal" font-weight="normal" text-decoration="none" x="1411" y="821">				e.enqueueService(cur)</text></g></g><g transform="translate(-86,-46) scale(1,1)"><g><path fill="none" stroke="none"/><text fill="#000000" stroke="none" font-family="Arial" font-size="13px" font-style="normal" font-weight="normal" text-decoration="none" x="1411" y="836">			},</text></g></g><g transform="translate(-86,-46) scale(1,1)"><g><path fill="none" stroke="none"/><text fill="#000000" stroke="none" font-family="Arial" font-size="13px" font-style="normal" font-weight="normal" text-decoration="none" x="1411" y="851">			DeleteFunc: e.enqueueService,</text></g></g><g transform="translate(-86,-46) scale(1,1)"><g><path fill="none" stroke="none"/><text fill="#000000" stroke="none" font-family="Arial" font-size="13px" font-style="normal" font-weight="normal" text-decoration="none" x="1411" y="866">		}</text></g></g><g transform="translate(-86,-46) scale(1,1)"><path fill="none" stroke="#000000" d="M 1362 796 L 1405 800" stroke-miterlimit="10" stroke-dasharray="3"/></g><g transform="translate(-86,-46) scale(1,1)"><rect fill="#ffffff" stroke="none" x="1520" y="1144" width="127" height="32"/></g><g transform="translate(-86,-46) scale(1,1)"><path fill="none" stroke="#000000" d="M 1520 1144 L 1647 1144 L 1647 1176 L 1520 1176 L 1520 1144 Z Z" stroke-miterlimit="10"/></g><g transform="translate(-86,-46) scale(1,1)"><g><path fill="none" stroke="none"/><text fill="#000000" stroke="none" font-family="Arial" font-size="13px" font-style="normal" font-weight="normal" text-decoration="none" x="1529.5" y="1166.5">h.OnAdd(d.Object)</text></g></g><g transform="translate(-86,-46) scale(1,1)"><path fill="none" stroke="#000000" d="M 1224 1170 L 1224 1168 M 1224 1168 A 8 8 0 0 1 1232 1160 L 1520 1160" stroke-miterlimit="10"/></g><g transform="translate(-86,-46) scale(1,1)"><path fill="#000000" stroke="none" d="M 1509.837325142376 1164.2095177560159 L 1520 1160 L 1509.837325142376 1155.7904822439841"/></g><g transform="translate(-86,-46) scale(1,1)"><path fill="none" stroke="#000000" d="M 1509.837325142376 1164.2095177560159 L 1520 1160 L 1509.837325142376 1155.7904822439841 L 1509.837325142376 1164.2095177560159" stroke-miterlimit="10"/></g></g></svg>