<svg version="1.1" xmlns="http://www.w3.org/2000/svg" xmlns:xlink="http://www.w3.org/1999/xlink" width="1717" height="2084"><defs/><g><g transform="translate(-22,-30) scale(1,1)"><rect fill="#ffffff" stroke="none" x="448" y="40" width="150" height="32"/></g><g transform="translate(-22,-30) scale(1,1)"><path fill="none" stroke="#000000" d="M 448 40 L 598 40 L 598 72 L 448 72 L 448 40 Z Z" stroke-miterlimit="10"/></g><g transform="translate(-22,-30) scale(1,1)"><g><path fill="none" stroke="none"/><text fill="#000000" stroke="none" font-family="Arial" font-size="13px" font-style="normal" font-weight="normal" text-decoration="none" x="457.5" y="62.5">options.NewAPIServer</text></g></g><g transform="translate(-22,-30) scale(1,1)"><path fill="#ffffff" stroke="none" d="M 640 40 L 789 40 L 799 50 L 799 71 L 640 71 L 640 40"/></g><g transform="translate(-22,-30) scale(1,1)"><path fill="none" stroke="#000000" d="M 640 40 L 789 40 L 799 50 L 799 71 L 640 71 L 640 40 L 640 40" stroke-miterlimit="10"/></g><g transform="translate(-22,-30) scale(1,1)"><path fill="none" stroke="#000000" d="M 789 40 L 789 50 L 799 50 L 789 40" stroke-miterlimit="10"/></g><g transform="translate(-22,-30) scale(1,1)"><g><path fill="none" stroke="none"/><text fill="#000000" stroke="none" font-family="Arial" font-size="13px" font-style="normal" font-weight="normal" text-decoration="none" x="645" y="58">apiserver.go : Main</text></g></g><g transform="translate(-22,-30) scale(1,1)"><path fill="none" stroke="#000000" d="M 599 56 L 639 56" stroke-miterlimit="10" stroke-dasharray="3"/></g><g transform="translate(-22,-30) scale(1,1)"><rect fill="#ffffff" stroke="none" x="448" y="120" width="84" height="32"/></g><g transform="translate(-22,-30) scale(1,1)"><path fill="none" stroke="#000000" d="M 448 120 L 532 120 L 532 152 L 448 152 L 448 120 Z Z" stroke-miterlimit="10"/></g><g transform="translate(-22,-30) scale(1,1)"><g><path fill="none" stroke="none"/><text fill="#000000" stroke="none" font-family="Arial" font-size="13px" font-style="normal" font-weight="normal" text-decoration="none" x="457.5" y="142.5">Server.Run</text></g></g><g transform="translate(-22,-30) scale(1,1)"><path fill="none" stroke="#000000" d="M 509 72 L 509 120" stroke-miterlimit="10"/></g><g transform="translate(-22,-30) scale(1,1)"><path fill="#000000" stroke="none" d="M 504.790482243984 109.83732514237585 L 509 120 L 513.209517756016 109.83732514237585"/></g><g transform="translate(-22,-30) scale(1,1)"><path fill="none" stroke="#000000" d="M 504.790482243984 109.83732514237585 L 509 120 L 513.209517756016 109.83732514237585 L 504.790482243984 109.83732514237585" stroke-miterlimit="10"/></g><g transform="translate(-22,-30) scale(1,1)"><rect fill="#ffffff" stroke="none" x="616" y="120" width="168" height="32"/></g><g transform="translate(-22,-30) scale(1,1)"><path fill="none" stroke="#000000" d="M 616 120 L 784 120 L 784 152 L 616 152 L 616 120 Z Z" stroke-miterlimit="10"/></g><g transform="translate(-22,-30) scale(1,1)"><g><path fill="none" stroke="none"/><text fill="#000000" stroke="none" font-family="Arial" font-size="13px" font-style="normal" font-weight="normal" text-decoration="none" x="644" y="142.5">validateParameters</text></g></g><g transform="translate(-22,-30) scale(1,1)"><path fill="none" stroke="#000000" d="M 532 136 L 616 136" stroke-miterlimit="10"/></g><g transform="translate(-22,-30) scale(1,1)"><path fill="#000000" stroke="none" d="M 605.8373251423759 140.209517756016 L 616 136 L 605.8373251423758 131.790482243984"/></g><g transform="translate(-22,-30) scale(1,1)"><path fill="none" stroke="#000000" d="M 605.8373251423759 140.209517756016 L 616 136 L 605.8373251423758 131.790482243984 L 605.8373251423759 140.209517756016" stroke-miterlimit="10"/></g><g transform="translate(-22,-30) scale(1,1)"><path fill="#ffffff" stroke="none" d="M 854 120 L 1053 120 L 1063 130 L 1063 195 L 854 195 L 854 120"/></g><g transform="translate(-22,-30) scale(1,1)"><path fill="none" stroke="#000000" d="M 854 120 L 1053 120 L 1063 130 L 1063 195 L 854 195 L 854 120 L 854 120" stroke-miterlimit="10"/></g><g transform="translate(-22,-30) scale(1,1)"><path fill="none" stroke="#000000" d="M 1053 120 L 1053 130 L 1063 130 L 1053 120" stroke-miterlimit="10"/></g><g transform="translate(-22,-30) scale(1,1)"><g><path fill="none" stroke="none"/><text fill="#000000" stroke="none" font-family="Arial" font-size="13px" font-style="normal" font-weight="normal" text-decoration="none" x="859" y="138">clusterIPRange,</text><text fill="#000000" stroke="none" font-family="Arial" font-size="13px" font-style="normal" font-weight="normal" text-decoration="none" x="859" y="151">AdvertiseAddress,</text><text fill="#000000" stroke="none" font-family="Arial" font-size="13px" font-style="normal" font-weight="normal" text-decoration="none" x="859" y="164">EtcdServerList, </text><text fill="#000000" stroke="none" font-family="Arial" font-size="13px" font-style="normal" font-weight="normal" text-decoration="none" x="859" y="177">KubernetesServiceNodePort,</text><text fill="#000000" stroke="none" font-family="Arial" font-size="13px" font-style="normal" font-weight="normal" text-decoration="none" x="859" y="190">capabilities, cloudProvider, </text></g></g><g transform="translate(-22,-30) scale(1,1)"><path fill="none" stroke="#000000" d="M 785 143 L 853 149" stroke-miterlimit="10" stroke-dasharray="3"/></g><g transform="translate(-22,-30) scale(1,1)"><rect fill="#ffffff" stroke="none" x="616" y="222" width="192" height="32"/></g><g transform="translate(-22,-30) scale(1,1)"><path fill="none" stroke="#000000" d="M 616 222 L 808 222 L 808 254 L 616 254 L 616 222 Z Z" stroke-miterlimit="10"/></g><g transform="translate(-22,-30) scale(1,1)"><g><path fill="none" stroke="none"/><text fill="#000000" stroke="none" font-family="Arial" font-size="13px" font-style="normal" font-weight="normal" text-decoration="none" x="629" y="244.5">Setup ssh tunneler if needed</text></g></g><g transform="translate(-22,-30) scale(1,1)"><path fill="none" stroke="#000000" d="M 684 152 L 684 222" stroke-miterlimit="10"/></g><g transform="translate(-22,-30) scale(1,1)"><path fill="#000000" stroke="none" d="M 679.790482243984 211.83732514237585 L 684 222 L 688.209517756016 211.83732514237585"/></g><g transform="translate(-22,-30) scale(1,1)"><path fill="none" stroke="#000000" d="M 679.790482243984 211.83732514237585 L 684 222 L 688.209517756016 211.83732514237585 L 679.790482243984 211.83732514237585" stroke-miterlimit="10"/></g><g transform="translate(-22,-30) scale(1,1)"><rect fill="#ffffff" stroke="none" x="544" y="324" width="341" height="32"/></g><g transform="translate(-22,-30) scale(1,1)"><path fill="none" stroke="#000000" d="M 544 324 L 885 324 L 885 356 L 544 356 L 544 324 Z Z" stroke-miterlimit="10"/></g><g transform="translate(-22,-30) scale(1,1)"><g><path fill="none" stroke="none"/><text fill="#000000" stroke="none" font-family="Arial" font-size="13px" font-style="normal" font-weight="normal" text-decoration="none" x="553.5" y="346.5">kubeletclient.NewStaticKubeletClient(&amp;s.KubeletConfig)</text></g></g><g transform="translate(-22,-30) scale(1,1)"><path fill="none" stroke="#000000" d="M 694 254 L 694 324" stroke-miterlimit="10"/></g><g transform="translate(-22,-30) scale(1,1)"><path fill="#000000" stroke="none" d="M 689.790482243984 313.83732514237585 L 694 324 L 698.209517756016 313.83732514237585"/></g><g transform="translate(-22,-30) scale(1,1)"><path fill="none" stroke="#000000" d="M 689.790482243984 313.83732514237585 L 694 324 L 698.209517756016 313.83732514237585 L 689.790482243984 313.83732514237585" stroke-miterlimit="10"/></g><g transform="translate(-22,-30) scale(1,1)"><rect fill="#ffffff" stroke="none" x="520" y="392" width="256" height="32"/></g><g transform="translate(-22,-30) scale(1,1)"><path fill="none" stroke="#000000" d="M 520 392 L 776 392 L 776 424 L 520 424 L 520 392 Z Z" stroke-miterlimit="10"/></g><g transform="translate(-22,-30) scale(1,1)"><g><path fill="none" stroke="none"/><text fill="#000000" stroke="none" font-family="Arial" font-size="13px" font-style="normal" font-weight="normal" text-decoration="none" x="589.5" y="414.5">parseRuntimeConfig</text></g></g><g transform="translate(-22,-30) scale(1,1)"><path fill="none" stroke="#000000" d="M 682 356 L 682 392" stroke-miterlimit="10"/></g><g transform="translate(-22,-30) scale(1,1)"><path fill="#000000" stroke="none" d="M 677.790482243984 381.83732514237585 L 682 392 L 686.209517756016 381.83732514237585"/></g><g transform="translate(-22,-30) scale(1,1)"><path fill="none" stroke="#000000" d="M 677.790482243984 381.83732514237585 L 682 392 L 686.209517756016 381.83732514237585 L 677.790482243984 381.83732514237585" stroke-miterlimit="10"/></g><g transform="translate(-22,-30) scale(1,1)"><rect fill="#ffffff" stroke="none" x="528" y="464" width="155" height="32"/></g><g transform="translate(-22,-30) scale(1,1)"><path fill="none" stroke="#000000" d="M 528 464 L 683 464 L 683 496 L 528 496 L 528 464 Z Z" stroke-miterlimit="10"/></g><g transform="translate(-22,-30) scale(1,1)"><g><path fill="none" stroke="none"/><text fill="#000000" stroke="none" font-family="Arial" font-size="13px" font-style="normal" font-weight="normal" text-decoration="none" x="537.5" y="486.5">client.New(clientConfig)</text></g></g><g transform="translate(-22,-30) scale(1,1)"><path fill="none" stroke="#000000" d="M 624 424 L 624 464" stroke-miterlimit="10"/></g><g transform="translate(-22,-30) scale(1,1)"><path fill="#000000" stroke="none" d="M 619.790482243984 453.83732514237585 L 624 464 L 628.209517756016 453.83732514237585"/></g><g transform="translate(-22,-30) scale(1,1)"><path fill="none" stroke="#000000" d="M 619.790482243984 453.83732514237585 L 624 464 L 628.209517756016 453.83732514237585 L 619.790482243984 453.83732514237585" stroke-miterlimit="10"/></g><g transform="translate(-22,-30) scale(1,1)"><rect fill="#ffffff" stroke="none" x="528" y="544" width="268" height="32"/></g><g transform="translate(-22,-30) scale(1,1)"><path fill="none" stroke="#000000" d="M 528 544 L 796 544 L 796 576 L 528 576 L 528 544 Z Z" stroke-miterlimit="10"/></g><g transform="translate(-22,-30) scale(1,1)"><g><path fill="none" stroke="none"/><text fill="#000000" stroke="none" font-family="Arial" font-size="13px" font-style="normal" font-weight="normal" text-decoration="none" x="537.5" y="566.5">genericapiserver.NewStorageDestinations()</text></g></g><g transform="translate(-22,-30) scale(1,1)"><path fill="none" stroke="#000000" d="M 590 496 L 590 544" stroke-miterlimit="10"/></g><g transform="translate(-22,-30) scale(1,1)"><path fill="#000000" stroke="none" d="M 585.790482243984 533.8373251423759 L 590 544 L 594.209517756016 533.8373251423759"/></g><g transform="translate(-22,-30) scale(1,1)"><path fill="none" stroke="#000000" d="M 585.790482243984 533.8373251423759 L 590 544 L 594.209517756016 533.8373251423759 L 585.790482243984 533.8373251423759" stroke-miterlimit="10"/></g><g transform="translate(-22,-30) scale(1,1)"><rect fill="#ffffff" stroke="none" x="448" y="646" width="544" height="45"/></g><g transform="translate(-22,-30) scale(1,1)"><path fill="none" stroke="#000000" d="M 448 646 L 992 646 L 992 691 L 448 691 L 448 646 Z Z" stroke-miterlimit="10"/></g><g transform="translate(-22,-30) scale(1,1)"><g><path fill="none" stroke="none"/><text fill="#000000" stroke="none" font-family="Arial" font-size="13px" font-style="normal" font-weight="normal" text-decoration="none" x="606" y="668.5">newEtcd(s.EtcdServerList, api.Codecs,</text><text fill="#000000" stroke="none" font-family="Arial" font-size="13px" font-style="normal" font-weight="normal" text-decoration="none" x="508" y="681.5">storageVersions[legacyV1Group.GroupVersion.Group], s.EtcdPathPrefix)</text></g></g><g transform="translate(-22,-30) scale(1,1)"><path fill="none" stroke="#000000" d="M 637 576 L 637 646" stroke-miterlimit="10"/></g><g transform="translate(-22,-30) scale(1,1)"><path fill="#000000" stroke="none" d="M 632.790482243984 635.8373251423759 L 637 646 L 641.209517756016 635.8373251423759"/></g><g transform="translate(-22,-30) scale(1,1)"><path fill="none" stroke="#000000" d="M 632.790482243984 635.8373251423759 L 637 646 L 641.209517756016 635.8373251423759 L 632.790482243984 635.8373251423759" stroke-miterlimit="10"/></g><g transform="translate(-22,-30) scale(1,1)"><path fill="#ffffff" stroke="none" d="M 904 488 L 1215 488 L 1225 498 L 1225 545 L 904 545 L 904 488"/></g><g transform="translate(-22,-30) scale(1,1)"><path fill="none" stroke="#000000" d="M 904 488 L 1215 488 L 1225 498 L 1225 545 L 904 545 L 904 488 L 904 488" stroke-miterlimit="10"/></g><g transform="translate(-22,-30) scale(1,1)"><path fill="none" stroke="#000000" d="M 1215 488 L 1215 498 L 1225 498 L 1215 488" stroke-miterlimit="10"/></g><g transform="translate(-22,-30) scale(1,1)"><g><path fill="none" stroke="none"/><text fill="#000000" stroke="none" font-family="Arial" font-size="13px" font-style="normal" font-weight="normal" text-decoration="none" x="909" y="506">apiCodec to encode/decode different ContentType</text><text fill="#000000" stroke="none" font-family="Arial" font-size="13px" font-style="normal" font-weight="normal" text-decoration="none" x="909" y="519">EtcdServerList is for etcd server ip storageVersions</text><text fill="#000000" stroke="none" font-family="Arial" font-size="13px" font-style="normal" font-weight="normal" text-decoration="none" x="909" y="532">and EtcdPathPrefix determines the relative path</text></g></g><g transform="translate(-22,-30) scale(1,1)"><path fill="none" stroke="#000000" d="M 773 645 L 996 547" stroke-miterlimit="10" stroke-dasharray="3"/></g><g transform="translate(-22,-30) scale(1,1)"><rect fill="#ffffff" stroke="none" x="488" y="752" width="336" height="32"/></g><g transform="translate(-22,-30) scale(1,1)"><path fill="none" stroke="#000000" d="M 488 752 L 824 752 L 824 784 L 488 784 L 488 752 Z Z" stroke-miterlimit="10"/></g><g transform="translate(-22,-30) scale(1,1)"><g><path fill="none" stroke="none"/><text fill="#000000" stroke="none" font-family="Arial" font-size="13px" font-style="normal" font-weight="normal" text-decoration="none" x="506.5" y="774.5">	storageDestinations.AddAPIGroup("", etcdStorage)</text></g></g><g transform="translate(-22,-30) scale(1,1)"><path fill="none" stroke="#000000" d="M 622 691 L 622 752" stroke-miterlimit="10"/></g><g transform="translate(-22,-30) scale(1,1)"><path fill="#000000" stroke="none" d="M 617.790482243984 741.8373251423759 L 622 752 L 626.209517756016 741.8373251423759"/></g><g transform="translate(-22,-30) scale(1,1)"><path fill="none" stroke="#000000" d="M 617.790482243984 741.8373251423759 L 622 752 L 626.209517756016 741.8373251423759 L 617.790482243984 741.8373251423759" stroke-miterlimit="10"/></g><g transform="translate(-22,-30) scale(1,1)"><rect fill="#ffffff" stroke="none" x="1152" y="640" width="128" height="32"/></g><g transform="translate(-22,-30) scale(1,1)"><path fill="none" stroke="#000000" d="M 1152 640 L 1280 640 L 1280 672 L 1152 672 L 1152 640 Z Z" stroke-miterlimit="10"/></g><g transform="translate(-22,-30) scale(1,1)"><g><path fill="none" stroke="none"/><text fill="#000000" stroke="none" font-family="Arial" font-size="13px" font-style="normal" font-weight="normal" text-decoration="none" x="1161.5" y="662.5">runtime.NewCodec</text></g></g><g transform="translate(-22,-30) scale(1,1)"><path fill="none" stroke="#000000" d="M 992 656 L 1152 656" stroke-miterlimit="10"/></g><g transform="translate(-22,-30) scale(1,1)"><path fill="#000000" stroke="none" d="M 1141.837325142376 660.209517756016 L 1152 656 L 1141.837325142376 651.790482243984"/></g><g transform="translate(-22,-30) scale(1,1)"><path fill="none" stroke="#000000" d="M 1141.837325142376 660.209517756016 L 1152 656 L 1141.837325142376 651.790482243984 L 1141.837325142376 660.209517756016" stroke-miterlimit="10"/></g><g transform="translate(-22,-30) scale(1,1)"><rect fill="#ffffff" stroke="none" x="1008" y="736" width="181" height="32"/></g><g transform="translate(-22,-30) scale(1,1)"><path fill="none" stroke="#000000" d="M 1008 736 L 1189 736 L 1189 768 L 1008 768 L 1008 736 Z Z" stroke-miterlimit="10"/></g><g transform="translate(-22,-30) scale(1,1)"><g><path fill="none" stroke="none"/><text fill="#000000" stroke="none" font-family="Arial" font-size="13px" font-style="normal" font-weight="normal" text-decoration="none" x="1017.5" y="758.5">storageConfig.NewStorage()</text></g></g><g transform="translate(-22,-30) scale(1,1)"><path fill="none" stroke="#000000" d="M 1168 672 L 1168 736" stroke-miterlimit="10"/></g><g transform="translate(-22,-30) scale(1,1)"><path fill="#000000" stroke="none" d="M 1163.7904822439841 725.8373251423759 L 1168 736 L 1172.2095177560159 725.8373251423759"/></g><g transform="translate(-22,-30) scale(1,1)"><path fill="none" stroke="#000000" d="M 1163.7904822439841 725.8373251423759 L 1168 736 L 1172.2095177560159 725.8373251423759 L 1163.7904822439841 725.8373251423759" stroke-miterlimit="10"/></g><g transform="translate(-22,-30) scale(1,1)"><rect fill="#ffffff" stroke="none" x="1248" y="728" width="312" height="45"/></g><g transform="translate(-22,-30) scale(1,1)"><path fill="none" stroke="#000000" d="M 1248 728 L 1560 728 L 1560 773 L 1248 773 L 1248 728 Z Z" stroke-miterlimit="10"/></g><g transform="translate(-22,-30) scale(1,1)"><g><path fill="none" stroke="none"/><text fill="#000000" stroke="none" font-family="Arial" font-size="13px" font-style="normal" font-weight="normal" text-decoration="none" x="1266" y="750.5">NewEtcdStorage(etcdClient, c.Codec, c.Prefix),</text><text fill="#000000" stroke="none" font-family="Arial" font-size="13px" font-style="normal" font-weight="normal" text-decoration="none" x="1397.5" y="763.5">nil</text></g></g><g transform="translate(-22,-30) scale(1,1)"><path fill="none" stroke="#000000" d="M 1189 768 L 1248 768" stroke-miterlimit="10"/></g><g transform="translate(-22,-30) scale(1,1)"><path fill="#000000" stroke="none" d="M 1237.837325142376 772.209517756016 L 1248 768 L 1237.837325142376 763.790482243984"/></g><g transform="translate(-22,-30) scale(1,1)"><path fill="none" stroke="#000000" d="M 1237.837325142376 772.209517756016 L 1248 768 L 1237.837325142376 763.790482243984 L 1237.837325142376 772.209517756016" stroke-miterlimit="10"/></g><g transform="translate(-22,-30) scale(1,1)"><rect fill="#ffffff" stroke="none" x="1256" y="824" width="240" height="32"/></g><g transform="translate(-22,-30) scale(1,1)"><path fill="none" stroke="#000000" d="M 1256 824 L 1496 824 L 1496 856 L 1256 856 L 1256 824 Z Z" stroke-miterlimit="10"/></g><g transform="translate(-22,-30) scale(1,1)"><g><path fill="none" stroke="none"/><text fill="#000000" stroke="none" font-family="Arial" font-size="13px" font-style="normal" font-weight="normal" text-decoration="none" x="1265.5" y="846.5">util.NewCache(maxEtcdCacheEntries)</text></g></g><g transform="translate(-22,-30) scale(1,1)"><path fill="none" stroke="#000000" d="M 1347 773 L 1347 824" stroke-miterlimit="10"/></g><g transform="translate(-22,-30) scale(1,1)"><path fill="#000000" stroke="none" d="M 1342.7904822439841 813.8373251423759 L 1347 824 L 1351.2095177560159 813.8373251423759"/></g><g transform="translate(-22,-30) scale(1,1)"><path fill="none" stroke="#000000" d="M 1342.7904822439841 813.8373251423759 L 1347 824 L 1351.2095177560159 813.8373251423759 L 1342.7904822439841 813.8373251423759" stroke-miterlimit="10"/></g><g transform="translate(-22,-30) scale(1,1)"><path fill="#ffffff" stroke="none" d="M 1016 816 L 1190 816 L 1200 826 L 1200 864 L 1016 864 L 1016 816"/></g><g transform="translate(-22,-30) scale(1,1)"><path fill="none" stroke="#000000" d="M 1016 816 L 1190 816 L 1200 826 L 1200 864 L 1016 864 L 1016 816 L 1016 816" stroke-miterlimit="10"/></g><g transform="translate(-22,-30) scale(1,1)"><path fill="none" stroke="#000000" d="M 1190 816 L 1190 826 L 1200 826 L 1190 816" stroke-miterlimit="10"/></g><g transform="translate(-22,-30) scale(1,1)"><g><path fill="none" stroke="none"/><text fill="#000000" stroke="none" font-family="Arial" font-size="13px" font-style="normal" font-weight="normal" text-decoration="none" x="1021" y="834">make(map[uint64]interface{})</text></g></g><g transform="translate(-22,-30) scale(1,1)"><path fill="none" stroke="#000000" d="M 1255 840 L 1202 840" stroke-miterlimit="10" stroke-dasharray="3"/></g><g transform="translate(-22,-30) scale(1,1)"><rect fill="#ffffff" stroke="none" x="552" y="824" width="168" height="32"/></g><g transform="translate(-22,-30) scale(1,1)"><path fill="none" stroke="#000000" d="M 552 824 L 720 824 L 720 856 L 552 856 L 552 824 Z Z" stroke-miterlimit="10"/></g><g transform="translate(-22,-30) scale(1,1)"><g><path fill="none" stroke="none"/><text fill="#000000" stroke="none" font-family="Arial" font-size="13px" font-style="normal" font-weight="normal" text-decoration="none" x="598" y="846.5">load RSA file</text></g></g><g transform="translate(-22,-30) scale(1,1)"><path fill="none" stroke="#000000" d="M 624 784 L 624 824" stroke-miterlimit="10"/></g><g transform="translate(-22,-30) scale(1,1)"><path fill="#000000" stroke="none" d="M 619.790482243984 813.8373251423759 L 624 824 L 628.209517756016 813.8373251423759"/></g><g transform="translate(-22,-30) scale(1,1)"><path fill="none" stroke="#000000" d="M 619.790482243984 813.8373251423759 L 624 824 L 628.209517756016 813.8373251423759 L 619.790482243984 813.8373251423759" stroke-miterlimit="10"/></g><g transform="translate(-22,-30) scale(1,1)"><rect fill="#ffffff" stroke="none" x="552" y="888" width="153" height="32"/></g><g transform="translate(-22,-30) scale(1,1)"><path fill="none" stroke="#000000" d="M 552 888 L 705 888 L 705 920 L 552 920 L 552 888 Z Z" stroke-miterlimit="10"/></g><g transform="translate(-22,-30) scale(1,1)"><g><path fill="none" stroke="none"/><text fill="#000000" stroke="none" font-family="Arial" font-size="13px" font-style="normal" font-weight="normal" text-decoration="none" x="561.5" y="910.5">ServiceAccountLookup</text></g></g><g transform="translate(-22,-30) scale(1,1)"><path fill="none" stroke="#000000" d="M 620 856 L 620 888" stroke-miterlimit="10"/></g><g transform="translate(-22,-30) scale(1,1)"><path fill="#000000" stroke="none" d="M 615.790482243984 877.8373251423759 L 620 888 L 624.209517756016 877.8373251423759"/></g><g transform="translate(-22,-30) scale(1,1)"><path fill="none" stroke="#000000" d="M 615.790482243984 877.8373251423759 L 620 888 L 624.209517756016 877.8373251423759 L 615.790482243984 877.8373251423759" stroke-miterlimit="10"/></g><g transform="translate(-22,-30) scale(1,1)"><rect fill="#ffffff" stroke="none" x="552" y="960" width="123" height="32"/></g><g transform="translate(-22,-30) scale(1,1)"><path fill="none" stroke="#000000" d="M 552 960 L 675 960 L 675 992 L 552 992 L 552 960 Z Z" stroke-miterlimit="10"/></g><g transform="translate(-22,-30) scale(1,1)"><g><path fill="none" stroke="none"/><text fill="#000000" stroke="none" font-family="Arial" font-size="13px" font-style="normal" font-weight="normal" text-decoration="none" x="561.5" y="982.5">authenticator.New</text></g></g><g transform="translate(-22,-30) scale(1,1)"><path fill="none" stroke="#000000" d="M 614 920 L 614 960" stroke-miterlimit="10"/></g><g transform="translate(-22,-30) scale(1,1)"><path fill="#000000" stroke="none" d="M 609.790482243984 949.8373251423759 L 614 960 L 618.209517756016 949.8373251423759"/></g><g transform="translate(-22,-30) scale(1,1)"><path fill="none" stroke="#000000" d="M 609.790482243984 949.8373251423759 L 614 960 L 618.209517756016 949.8373251423759 L 609.790482243984 949.8373251423759" stroke-miterlimit="10"/></g><g transform="translate(-22,-30) scale(1,1)"><rect fill="#ffffff" stroke="none" x="872" y="904" width="230" height="32"/></g><g transform="translate(-22,-30) scale(1,1)"><path fill="none" stroke="#000000" d="M 872 904 L 1102 904 L 1102 936 L 872 936 L 872 904 Z Z" stroke-miterlimit="10"/></g><g transform="translate(-22,-30) scale(1,1)"><g><path fill="none" stroke="none"/><text fill="#000000" stroke="none" font-family="Arial" font-size="13px" font-style="normal" font-weight="normal" text-decoration="none" x="881.5" y="926.5">newAuthenticatorFromBasicAuthFile</text></g></g><g transform="translate(-22,-30) scale(1,1)"><path fill="none" stroke="#000000" d="M 675 960 L 680 960 M 680 960 A 8 8 0 0 0 688 952 L 688 936 M 688 936 A 8 8 0 0 1 696 928 L 872 928" stroke-miterlimit="10"/></g><g transform="translate(-22,-30) scale(1,1)"><path fill="#000000" stroke="none" d="M 861.8373251423759 932.209517756016 L 872 928 L 861.8373251423758 923.790482243984"/></g><g transform="translate(-22,-30) scale(1,1)"><path fill="none" stroke="#000000" d="M 861.8373251423759 932.209517756016 L 872 928 L 861.8373251423758 923.790482243984 L 861.8373251423759 932.209517756016" stroke-miterlimit="10"/></g><g transform="translate(-22,-30) scale(1,1)"><rect fill="#ffffff" stroke="none" x="1112" y="904" width="221" height="32"/></g><g transform="translate(-22,-30) scale(1,1)"><path fill="none" stroke="#000000" d="M 1112 904 L 1333 904 L 1333 936 L 1112 936 L 1112 904 Z Z" stroke-miterlimit="10"/></g><g transform="translate(-22,-30) scale(1,1)"><g><path fill="none" stroke="none"/><text fill="#000000" stroke="none" font-family="Arial" font-size="13px" font-style="normal" font-weight="normal" text-decoration="none" x="1121.5" y="926.5">newAuthenticatorFromClientCAFile</text></g></g><g transform="translate(-22,-30) scale(1,1)"><path fill="none" stroke="#000000" d="M 675 968 L 1104 968 M 1104 968 A 8 8 0 0 0 1112 960 L 1112 936" stroke-miterlimit="10"/></g><g transform="translate(-22,-30) scale(1,1)"><path fill="#000000" stroke="none" d="M 1116.2095177560159 946.1626748576241 L 1112 936 L 1107.7904822439841 946.1626748576241"/></g><g transform="translate(-22,-30) scale(1,1)"><path fill="none" stroke="#000000" d="M 1116.2095177560159 946.1626748576241 L 1112 936 L 1107.7904822439841 946.1626748576241 L 1116.2095177560159 946.1626748576241" stroke-miterlimit="10"/></g><g transform="translate(-22,-30) scale(1,1)"><rect fill="#ffffff" stroke="none" x="1343" y="904" width="206" height="32"/></g><g transform="translate(-22,-30) scale(1,1)"><path fill="none" stroke="#000000" d="M 1343 904 L 1549 904 L 1549 936 L 1343 936 L 1343 904 Z Z" stroke-miterlimit="10"/></g><g transform="translate(-22,-30) scale(1,1)"><g><path fill="none" stroke="none"/><text fill="#000000" stroke="none" font-family="Arial" font-size="13px" font-style="normal" font-weight="normal" text-decoration="none" x="1352.5" y="926.5">newAuthenticatorFromTokenFile</text></g></g><g transform="translate(-22,-30) scale(1,1)"><path fill="none" stroke="#000000" d="M 675 970 L 1335 970 M 1335 970 A 8 8 0 0 0 1343 962 L 1343 936" stroke-miterlimit="10"/></g><g transform="translate(-22,-30) scale(1,1)"><path fill="#000000" stroke="none" d="M 1347.2095177560159 946.1626748576241 L 1343 936 L 1338.7904822439841 946.1626748576241"/></g><g transform="translate(-22,-30) scale(1,1)"><path fill="none" stroke="#000000" d="M 1347.2095177560159 946.1626748576241 L 1343 936 L 1338.7904822439841 946.1626748576241 L 1347.2095177560159 946.1626748576241" stroke-miterlimit="10"/></g><g transform="translate(-22,-30) scale(1,1)"><rect fill="#ffffff" stroke="none" x="848" y="1008" width="242" height="32"/></g><g transform="translate(-22,-30) scale(1,1)"><path fill="none" stroke="#000000" d="M 848 1008 L 1090 1008 L 1090 1040 L 848 1040 L 848 1008 Z Z" stroke-miterlimit="10"/></g><g transform="translate(-22,-30) scale(1,1)"><g><path fill="none" stroke="none"/><text fill="#000000" stroke="none" font-family="Arial" font-size="13px" font-style="normal" font-weight="normal" text-decoration="none" x="857.5" y="1030.5">newAuthenticatorFromOIDCIssuerURL</text></g></g><g transform="translate(-22,-30) scale(1,1)"><path fill="none" stroke="#000000" d="M 675 972 L 961 972 M 961 972 A 8 8 0 0 1 969 980 L 969 1008" stroke-miterlimit="10"/></g><g transform="translate(-22,-30) scale(1,1)"><path fill="#000000" stroke="none" d="M 964.790482243984 997.8373251423759 L 969 1008 L 973.209517756016 997.8373251423759"/></g><g transform="translate(-22,-30) scale(1,1)"><path fill="none" stroke="#000000" d="M 964.790482243984 997.8373251423759 L 969 1008 L 973.209517756016 997.8373251423759 L 964.790482243984 997.8373251423759" stroke-miterlimit="10"/></g><g transform="translate(-22,-30) scale(1,1)"><rect fill="#ffffff" stroke="none" x="1120" y="1008" width="211" height="32"/></g><g transform="translate(-22,-30) scale(1,1)"><path fill="none" stroke="#000000" d="M 1120 1008 L 1331 1008 L 1331 1040 L 1120 1040 L 1120 1008 Z Z" stroke-miterlimit="10"/></g><g transform="translate(-22,-30) scale(1,1)"><g><path fill="none" stroke="none"/><text fill="#000000" stroke="none" font-family="Arial" font-size="13px" font-style="normal" font-weight="normal" text-decoration="none" x="1129.5" y="1030.5">newServiceAccountAuthenticator</text></g></g><g transform="translate(-22,-30) scale(1,1)"><path fill="none" stroke="#000000" d="M 675 972 L 1149 972 M 1149 972 A 8 8 0 0 1 1157 980 L 1157 1008" stroke-miterlimit="10"/></g><g transform="translate(-22,-30) scale(1,1)"><path fill="#000000" stroke="none" d="M 1152.7904822439841 997.8373251423759 L 1157 1008 L 1161.2095177560159 997.8373251423759"/></g><g transform="translate(-22,-30) scale(1,1)"><path fill="none" stroke="#000000" d="M 1152.7904822439841 997.8373251423759 L 1157 1008 L 1161.2095177560159 997.8373251423759 L 1152.7904822439841 997.8373251423759" stroke-miterlimit="10"/></g><g transform="translate(-22,-30) scale(1,1)"><rect fill="#ffffff" stroke="none" x="1344" y="1008" width="229" height="32"/></g><g transform="translate(-22,-30) scale(1,1)"><path fill="none" stroke="#000000" d="M 1344 1008 L 1573 1008 L 1573 1040 L 1344 1040 L 1344 1008 Z Z" stroke-miterlimit="10"/></g><g transform="translate(-22,-30) scale(1,1)"><g><path fill="none" stroke="none"/><text fill="#000000" stroke="none" font-family="Arial" font-size="13px" font-style="normal" font-weight="normal" text-decoration="none" x="1353.5" y="1030.5">newAuthenticatorFromKeystoneURL</text></g></g><g transform="translate(-22,-30) scale(1,1)"><path fill="none" stroke="#000000" d="M 675 972 L 1437 972 M 1437 972 A 8 8 0 0 1 1445 980 L 1445 1008" stroke-miterlimit="10"/></g><g transform="translate(-22,-30) scale(1,1)"><path fill="#000000" stroke="none" d="M 1440.7904822439841 997.8373251423759 L 1445 1008 L 1449.2095177560159 997.8373251423759"/></g><g transform="translate(-22,-30) scale(1,1)"><path fill="none" stroke="#000000" d="M 1440.7904822439841 997.8373251423759 L 1445 1008 L 1449.2095177560159 997.8373251423759 L 1440.7904822439841 997.8373251423759" stroke-miterlimit="10"/></g><g transform="translate(-22,-30) scale(1,1)"><rect fill="#ffffff" stroke="none" x="472" y="1072" width="303" height="32"/></g><g transform="translate(-22,-30) scale(1,1)"><path fill="none" stroke="#000000" d="M 472 1072 L 775 1072 L 775 1104 L 472 1104 L 472 1072 Z Z" stroke-miterlimit="10"/></g><g transform="translate(-22,-30) scale(1,1)"><g><path fill="none" stroke="none"/><text fill="#000000" stroke="none" font-family="Arial" font-size="13px" font-style="normal" font-weight="normal" text-decoration="none" x="481.5" y="1094.5">apiserver.NewAuthorizerFromAuthorizationConfig</text></g></g><g transform="translate(-22,-30) scale(1,1)"><path fill="none" stroke="#000000" d="M 616 992 L 616 1072" stroke-miterlimit="10"/></g><g transform="translate(-22,-30) scale(1,1)"><path fill="#000000" stroke="none" d="M 611.790482243984 1061.837325142376 L 616 1072 L 620.209517756016 1061.837325142376"/></g><g transform="translate(-22,-30) scale(1,1)"><path fill="none" stroke="#000000" d="M 611.790482243984 1061.837325142376 L 616 1072 L 620.209517756016 1061.837325142376 L 611.790482243984 1061.837325142376" stroke-miterlimit="10"/></g><g transform="translate(-22,-30) scale(1,1)"><rect fill="#ffffff" stroke="none" x="832" y="1126" width="176" height="32"/></g><g transform="translate(-22,-30) scale(1,1)"><path fill="none" stroke="#000000" d="M 832 1126 L 1008 1126 L 1008 1158 L 832 1158 L 832 1126 Z Z" stroke-miterlimit="10"/></g><g transform="translate(-22,-30) scale(1,1)"><g><path fill="none" stroke="none"/><text fill="#000000" stroke="none" font-family="Arial" font-size="13px" font-style="normal" font-weight="normal" text-decoration="none" x="841.5" y="1148.5">NewAlwaysAllowAuthorizer</text></g></g><g transform="translate(-22,-30) scale(1,1)"><path fill="none" stroke="#000000" d="M 775 1088 L 864 1088 M 864 1088 A 8 8 0 0 1 872 1096 L 872 1126" stroke-miterlimit="10"/></g><g transform="translate(-22,-30) scale(1,1)"><path fill="#000000" stroke="none" d="M 867.790482243984 1115.837325142376 L 872 1126 L 876.209517756016 1115.837325142376"/></g><g transform="translate(-22,-30) scale(1,1)"><path fill="none" stroke="#000000" d="M 867.790482243984 1115.837325142376 L 872 1126 L 876.209517756016 1115.837325142376 L 867.790482243984 1115.837325142376" stroke-miterlimit="10"/></g><g transform="translate(-22,-30) scale(1,1)"><rect fill="#ffffff" stroke="none" x="1040" y="1126" width="175" height="32"/></g><g transform="translate(-22,-30) scale(1,1)"><path fill="none" stroke="#000000" d="M 1040 1126 L 1215 1126 L 1215 1158 L 1040 1158 L 1040 1126 Z Z" stroke-miterlimit="10"/></g><g transform="translate(-22,-30) scale(1,1)"><g><path fill="none" stroke="none"/><text fill="#000000" stroke="none" font-family="Arial" font-size="13px" font-style="normal" font-weight="normal" text-decoration="none" x="1049.5" y="1148.5">NewAlwaysDenyAuthorizer</text></g></g><g transform="translate(-22,-30) scale(1,1)"><path fill="none" stroke="#000000" d="M 775 1086 L 1072 1086 M 1072 1086 A 8 8 0 0 1 1080 1094 L 1080 1126" stroke-miterlimit="10"/></g><g transform="translate(-22,-30) scale(1,1)"><path fill="#000000" stroke="none" d="M 1075.7904822439841 1115.837325142376 L 1080 1126 L 1084.2095177560159 1115.837325142376"/></g><g transform="translate(-22,-30) scale(1,1)"><path fill="none" stroke="#000000" d="M 1075.7904822439841 1115.837325142376 L 1080 1126 L 1084.2095177560159 1115.837325142376 L 1075.7904822439841 1115.837325142376" stroke-miterlimit="10"/></g><g transform="translate(-22,-30) scale(1,1)"><rect fill="#ffffff" stroke="none" x="1256" y="1126" width="106" height="32"/></g><g transform="translate(-22,-30) scale(1,1)"><path fill="none" stroke="#000000" d="M 1256 1126 L 1362 1126 L 1362 1158 L 1256 1158 L 1256 1126 Z Z" stroke-miterlimit="10"/></g><g transform="translate(-22,-30) scale(1,1)"><g><path fill="none" stroke="none"/><text fill="#000000" stroke="none" font-family="Arial" font-size="13px" font-style="normal" font-weight="normal" text-decoration="none" x="1265.5" y="1148.5">abacAuthorizer</text></g></g><g transform="translate(-22,-30) scale(1,1)"><path fill="none" stroke="#000000" d="M 775 1086 L 1288 1086 M 1288 1086 A 8 8 0 0 1 1296 1094 L 1296 1126" stroke-miterlimit="10"/></g><g transform="translate(-22,-30) scale(1,1)"><path fill="#000000" stroke="none" d="M 1291.7904822439841 1115.837325142376 L 1296 1126 L 1300.2095177560159 1115.837325142376"/></g><g transform="translate(-22,-30) scale(1,1)"><path fill="none" stroke="#000000" d="M 1291.7904822439841 1115.837325142376 L 1296 1126 L 1300.2095177560159 1115.837325142376 L 1291.7904822439841 1115.837325142376" stroke-miterlimit="10"/></g><g transform="translate(-22,-30) scale(1,1)"><rect fill="#ffffff" stroke="none" x="536" y="1176" width="180" height="32"/></g><g transform="translate(-22,-30) scale(1,1)"><path fill="none" stroke="#000000" d="M 536 1176 L 716 1176 L 716 1208 L 536 1208 L 536 1176 Z Z" stroke-miterlimit="10"/></g><g transform="translate(-22,-30) scale(1,1)"><g><path fill="none" stroke="none"/><text fill="#000000" stroke="none" font-family="Arial" font-size="13px" font-style="normal" font-weight="normal" text-decoration="none" x="545.5" y="1198.5">admission.NewFromPlugins</text></g></g><g transform="translate(-22,-30) scale(1,1)"><path fill="none" stroke="#000000" d="M 616 1104 L 616 1176" stroke-miterlimit="10"/></g><g transform="translate(-22,-30) scale(1,1)"><path fill="#000000" stroke="none" d="M 611.790482243984 1165.837325142376 L 616 1176 L 620.209517756016 1165.837325142376"/></g><g transform="translate(-22,-30) scale(1,1)"><path fill="none" stroke="#000000" d="M 611.790482243984 1165.837325142376 L 616 1176 L 620.209517756016 1165.837325142376 L 611.790482243984 1165.837325142376" stroke-miterlimit="10"/></g><g transform="translate(-22,-30) scale(1,1)"><path fill="#ffffff" stroke="none" d="M 786 1176 L 957 1176 L 967 1186 L 967 1225 L 786 1225 L 786 1176"/></g><g transform="translate(-22,-30) scale(1,1)"><path fill="none" stroke="#000000" d="M 786 1176 L 957 1176 L 967 1186 L 967 1225 L 786 1225 L 786 1176 L 786 1176" stroke-miterlimit="10"/></g><g transform="translate(-22,-30) scale(1,1)"><path fill="none" stroke="#000000" d="M 957 1176 L 957 1186 L 967 1186 L 957 1176" stroke-miterlimit="10"/></g><g transform="translate(-22,-30) scale(1,1)"><g><path fill="none" stroke="none"/><text fill="#000000" stroke="none" font-family="Arial" font-size="13px" font-style="normal" font-weight="normal" text-decoration="none" x="791" y="1194">chain of admission handlers</text></g></g><g transform="translate(-22,-30) scale(1,1)"><path fill="none" stroke="#000000" d="M 717 1195 L 785 1198" stroke-miterlimit="10" stroke-dasharray="3"/></g><g transform="translate(-22,-30) scale(1,1)"><rect fill="#ffffff" stroke="none" x="536" y="1278" width="109" height="32"/></g><g transform="translate(-22,-30) scale(1,1)"><path fill="none" stroke="#000000" d="M 536 1278 L 645 1278 L 645 1310 L 536 1310 L 536 1278 Z Z" stroke-miterlimit="10"/></g><g transform="translate(-22,-30) scale(1,1)"><g><path fill="none" stroke="none"/><text fill="#000000" stroke="none" font-family="Arial" font-size="13px" font-style="normal" font-weight="normal" text-decoration="none" x="545.5" y="1300.5">&amp;master.Config</text></g></g><g transform="translate(-22,-30) scale(1,1)"><path fill="none" stroke="#000000" d="M 609 1208 L 609 1278" stroke-miterlimit="10"/></g><g transform="translate(-22,-30) scale(1,1)"><path fill="#000000" stroke="none" d="M 604.790482243984 1267.837325142376 L 609 1278 L 613.209517756016 1267.837325142376"/></g><g transform="translate(-22,-30) scale(1,1)"><path fill="none" stroke="#000000" d="M 604.790482243984 1267.837325142376 L 609 1278 L 613.209517756016 1267.837325142376 L 604.790482243984 1267.837325142376" stroke-miterlimit="10"/></g><g transform="translate(-22,-30) scale(1,1)"><rect fill="#ffffff" stroke="none" x="728" y="1280" width="155" height="32"/></g><g transform="translate(-22,-30) scale(1,1)"><path fill="none" stroke="#000000" d="M 728 1280 L 883 1280 L 883 1312 L 728 1312 L 728 1280 Z Z" stroke-miterlimit="10"/></g><g transform="translate(-22,-30) scale(1,1)"><g><path fill="none" stroke="none"/><text fill="#000000" stroke="none" font-family="Arial" font-size="13px" font-style="normal" font-weight="normal" text-decoration="none" x="737.5" y="1302.5">genericapiserver.Config</text></g></g><g transform="translate(-22,-30) scale(1,1)"><path fill="none" stroke="#000000" d="M 645 1288 L 728 1288" stroke-miterlimit="10"/></g><g transform="translate(-22,-30) scale(1,1)"><path fill="#000000" stroke="none" d="M 717.8373251423759 1292.2095177560159 L 728 1288 L 717.8373251423758 1283.7904822439841"/></g><g transform="translate(-22,-30) scale(1,1)"><path fill="none" stroke="#000000" d="M 717.8373251423759 1292.2095177560159 L 728 1288 L 717.8373251423758 1283.7904822439841 L 717.8373251423759 1292.2095177560159" stroke-miterlimit="10"/></g><g transform="translate(-22,-30) scale(1,1)"><path fill="#ffffff" stroke="none" d="M 953 1280 L 1117 1280 L 1127 1290 L 1127 1311 L 953 1311 L 953 1280"/></g><g transform="translate(-22,-30) scale(1,1)"><path fill="none" stroke="#000000" d="M 953 1280 L 1117 1280 L 1127 1290 L 1127 1311 L 953 1311 L 953 1280 L 953 1280" stroke-miterlimit="10"/></g><g transform="translate(-22,-30) scale(1,1)"><path fill="none" stroke="#000000" d="M 1117 1280 L 1117 1290 L 1127 1290 L 1117 1280" stroke-miterlimit="10"/></g><g transform="translate(-22,-30) scale(1,1)"><g><path fill="none" stroke="none"/><text fill="#000000" stroke="none" font-family="Arial" font-size="13px" font-style="normal" font-weight="normal" text-decoration="none" x="958" y="1298">Include all above variables</text></g></g><g transform="translate(-22,-30) scale(1,1)"><path fill="none" stroke="#000000" d="M 884 1296 L 952 1296" stroke-miterlimit="10" stroke-dasharray="3"/></g><g transform="translate(-22,-30) scale(1,1)"><rect fill="#ffffff" stroke="none" x="560" y="1360" width="131" height="32"/></g><g transform="translate(-22,-30) scale(1,1)"><path fill="none" stroke="#000000" d="M 560 1360 L 691 1360 L 691 1392 L 560 1392 L 560 1360 Z Z" stroke-miterlimit="10"/></g><g transform="translate(-22,-30) scale(1,1)"><g><path fill="none" stroke="none"/><text fill="#000000" stroke="none" font-family="Arial" font-size="13px" font-style="normal" font-weight="normal" text-decoration="none" x="569.5" y="1382.5">master.New(config)</text></g></g><g transform="translate(-22,-30) scale(1,1)"><path fill="none" stroke="#000000" d="M 597 1310 L 597 1360" stroke-miterlimit="10"/></g><g transform="translate(-22,-30) scale(1,1)"><path fill="#000000" stroke="none" d="M 592.790482243984 1349.837325142376 L 597 1360 L 601.209517756016 1349.837325142376"/></g><g transform="translate(-22,-30) scale(1,1)"><path fill="none" stroke="#000000" d="M 592.790482243984 1349.837325142376 L 597 1360 L 601.209517756016 1349.837325142376 L 592.790482243984 1349.837325142376" stroke-miterlimit="10"/></g><g transform="translate(-22,-30) scale(1,1)"><rect fill="#ffffff" stroke="none" x="792" y="1368" width="199" height="32"/></g><g transform="translate(-22,-30) scale(1,1)"><path fill="none" stroke="#000000" d="M 792 1368 L 991 1368 L 991 1400 L 792 1400 L 792 1368 Z Z" stroke-miterlimit="10"/></g><g transform="translate(-22,-30) scale(1,1)"><g><path fill="none" stroke="none"/><text fill="#000000" stroke="none" font-family="Arial" font-size="13px" font-style="normal" font-weight="normal" text-decoration="none" x="801.5" y="1390.5">genericapiserver.New(c.Config)</text></g></g><g transform="translate(-22,-30) scale(1,1)"><path fill="none" stroke="#000000" d="M 691 1392 L 792 1392" stroke-miterlimit="10"/></g><g transform="translate(-22,-30) scale(1,1)"><path fill="#000000" stroke="none" d="M 781.8373251423759 1396.2095177560159 L 792 1392 L 781.8373251423758 1387.7904822439841"/></g><g transform="translate(-22,-30) scale(1,1)"><path fill="none" stroke="#000000" d="M 781.8373251423759 1396.2095177560159 L 792 1392 L 781.8373251423758 1387.7904822439841 L 781.8373251423759 1396.2095177560159" stroke-miterlimit="10"/></g><g transform="translate(-22,-30) scale(1,1)"><rect fill="#ffffff" stroke="none" x="1224" y="1392" width="143" height="32"/></g><g transform="translate(-22,-30) scale(1,1)"><path fill="none" stroke="#000000" d="M 1224 1392 L 1367 1392 L 1367 1424 L 1224 1424 L 1224 1392 Z Z" stroke-miterlimit="10"/></g><g transform="translate(-22,-30) scale(1,1)"><g><path fill="none" stroke="none"/><text fill="#000000" stroke="none" font-family="Arial" font-size="13px" font-style="normal" font-weight="normal" text-decoration="none" x="1233.5" y="1414.5">NewHandlerContainer</text></g></g><g transform="translate(-22,-30) scale(1,1)"><path fill="none" stroke="#000000" d="M 991 1392 L 1224 1392" stroke-miterlimit="10"/></g><g transform="translate(-22,-30) scale(1,1)"><path fill="#000000" stroke="none" d="M 1213.837325142376 1396.2095177560159 L 1224 1392 L 1213.837325142376 1387.7904822439841"/></g><g transform="translate(-22,-30) scale(1,1)"><path fill="none" stroke="#000000" d="M 1213.837325142376 1396.2095177560159 L 1224 1392 L 1213.837325142376 1387.7904822439841 L 1213.837325142376 1396.2095177560159" stroke-miterlimit="10"/></g><g transform="translate(-22,-30) scale(1,1)"><rect fill="#ffffff" stroke="none" x="1472" y="1392" width="146" height="32"/></g><g transform="translate(-22,-30) scale(1,1)"><path fill="none" stroke="#000000" d="M 1472 1392 L 1618 1392 L 1618 1424 L 1472 1424 L 1472 1392 Z Z" stroke-miterlimit="10"/></g><g transform="translate(-22,-30) scale(1,1)"><g><path fill="none" stroke="none"/><text fill="#000000" stroke="none" font-family="Arial" font-size="13px" font-style="normal" font-weight="normal" text-decoration="none" x="1481.5" y="1414.5">InstallRecoverHandler</text></g></g><g transform="translate(-22,-30) scale(1,1)"><path fill="none" stroke="#000000" d="M 1367 1408 L 1472 1408" stroke-miterlimit="10"/></g><g transform="translate(-22,-30) scale(1,1)"><path fill="#000000" stroke="none" d="M 1461.837325142376 1412.2095177560159 L 1472 1408 L 1461.837325142376 1403.7904822439841"/></g><g transform="translate(-22,-30) scale(1,1)"><path fill="none" stroke="#000000" d="M 1461.837325142376 1412.2095177560159 L 1472 1408 L 1461.837325142376 1403.7904822439841 L 1461.837325142376 1412.2095177560159" stroke-miterlimit="10"/></g><g transform="translate(-22,-30) scale(1,1)"><rect fill="#ffffff" stroke="none" x="1472" y="1456" width="135" height="32"/></g><g transform="translate(-22,-30) scale(1,1)"><path fill="none" stroke="#000000" d="M 1472 1456 L 1607 1456 L 1607 1488 L 1472 1488 L 1472 1456 Z Z" stroke-miterlimit="10"/></g><g transform="translate(-22,-30) scale(1,1)"><g><path fill="none" stroke="none"/><text fill="#000000" stroke="none" font-family="Arial" font-size="13px" font-style="normal" font-weight="normal" text-decoration="none" x="1481.5" y="1478.5">logStackOnRecover</text></g></g><g transform="translate(-22,-30) scale(1,1)"><path fill="none" stroke="#000000" d="M 1531 1424 L 1531 1456" stroke-miterlimit="10"/></g><g transform="translate(-22,-30) scale(1,1)"><path fill="#000000" stroke="none" d="M 1526.7904822439841 1445.837325142376 L 1531 1456 L 1535.2095177560159 1445.837325142376"/></g><g transform="translate(-22,-30) scale(1,1)"><path fill="none" stroke="#000000" d="M 1526.7904822439841 1445.837325142376 L 1531 1456 L 1535.2095177560159 1445.837325142376 L 1526.7904822439841 1445.837325142376" stroke-miterlimit="10"/></g><g transform="translate(-22,-30) scale(1,1)"><rect fill="#ffffff" stroke="none" x="1144" y="1488" width="295" height="32"/></g><g transform="translate(-22,-30) scale(1,1)"><path fill="none" stroke="#000000" d="M 1144 1488 L 1439 1488 L 1439 1520 L 1144 1520 L 1144 1488 Z Z" stroke-miterlimit="10"/></g><g transform="translate(-22,-30) scale(1,1)"><g><path fill="none" stroke="none"/><text fill="#000000" stroke="none" font-family="Arial" font-size="13px" font-style="normal" font-weight="normal" text-decoration="none" x="1153.5" y="1510.5">s.HandlerContainer.Router(restful.CurlyRouter{})</text></g></g><g transform="translate(-22,-30) scale(1,1)"><path fill="none" stroke="#000000" d="M 1296 1424 L 1296 1488" stroke-miterlimit="10"/></g><g transform="translate(-22,-30) scale(1,1)"><path fill="#000000" stroke="none" d="M 1291.7904822439841 1477.837325142376 L 1296 1488 L 1300.2095177560159 1477.837325142376"/></g><g transform="translate(-22,-30) scale(1,1)"><path fill="none" stroke="#000000" d="M 1291.7904822439841 1477.837325142376 L 1296 1488 L 1300.2095177560159 1477.837325142376 L 1291.7904822439841 1477.837325142376" stroke-miterlimit="10"/></g><g transform="translate(-22,-30) scale(1,1)"><path fill="#ffffff" stroke="none" d="M 1512 1504 L 1661 1504 L 1671 1514 L 1671 1540 L 1512 1540 L 1512 1504"/></g><g transform="translate(-22,-30) scale(1,1)"><path fill="none" stroke="#000000" d="M 1512 1504 L 1661 1504 L 1671 1514 L 1671 1540 L 1512 1540 L 1512 1504 L 1512 1504" stroke-miterlimit="10"/></g><g transform="translate(-22,-30) scale(1,1)"><path fill="none" stroke="#000000" d="M 1661 1504 L 1661 1514 L 1671 1514 L 1661 1504" stroke-miterlimit="10"/></g><g transform="translate(-22,-30) scale(1,1)"><g><path fill="none" stroke="none"/><text fill="#000000" stroke="none" font-family="Arial" font-size="13px" font-style="normal" font-weight="normal" text-decoration="none" x="1517" y="1522">CurlyRouter is  from</text><text fill="#000000" stroke="none" font-family="Arial" font-size="13px" font-style="normal" font-weight="normal" text-decoration="none" x="1517" y="1535">go-restful package</text></g></g><g transform="translate(-22,-30) scale(1,1)"><path fill="none" stroke="#000000" d="M 1440 1513 L 1511 1517" stroke-miterlimit="10" stroke-dasharray="3"/></g><g transform="translate(-22,-30) scale(1,1)"><rect fill="#ffffff" stroke="none" x="1216" y="1584" width="74" height="32"/></g><g transform="translate(-22,-30) scale(1,1)"><path fill="none" stroke="#000000" d="M 1216 1584 L 1290 1584 L 1290 1616 L 1216 1616 L 1216 1584 Z Z" stroke-miterlimit="10"/></g><g transform="translate(-22,-30) scale(1,1)"><g><path fill="none" stroke="none"/><text fill="#000000" stroke="none" font-family="Arial" font-size="13px" font-style="normal" font-weight="normal" text-decoration="none" x="1239" y="1606.5">s.init</text></g></g><g transform="translate(-22,-30) scale(1,1)"><path fill="none" stroke="#000000" d="M 1263 1520 L 1263 1584" stroke-miterlimit="10"/></g><g transform="translate(-22,-30) scale(1,1)"><path fill="#000000" stroke="none" d="M 1258.7904822439841 1573.837325142376 L 1263 1584 L 1267.2095177560159 1573.837325142376"/></g><g transform="translate(-22,-30) scale(1,1)"><path fill="none" stroke="#000000" d="M 1258.7904822439841 1573.837325142376 L 1263 1584 L 1267.2095177560159 1573.837325142376 L 1258.7904822439841 1573.837325142376" stroke-miterlimit="10"/></g><g transform="translate(-22,-30) scale(1,1)"><rect fill="#ffffff" stroke="none" x="1136" y="1664" width="490" height="58"/></g><g transform="translate(-22,-30) scale(1,1)"><path fill="none" stroke="#000000" d="M 1136 1664 L 1626 1664 L 1626 1722 L 1136 1722 L 1136 1664 Z Z" stroke-miterlimit="10"/></g><g transform="translate(-22,-30) scale(1,1)"><g><path fill="none" stroke="none"/><text fill="#000000" stroke="none" font-family="Arial" font-size="13px" font-style="normal" font-weight="normal" text-decoration="none" x="1188" y="1686.5">s.mux.HandleFunc("/", apiserver.IndexHandler(s.HandlerContainer,</text><text fill="#000000" stroke="none" font-family="Arial" font-size="13px" font-style="normal" font-weight="normal" text-decoration="none" x="1340.5" y="1699.5">s.MuxHelper))</text></g></g><g transform="translate(-22,-30) scale(1,1)"><path fill="none" stroke="#000000" d="M 1248 1616 L 1248 1664" stroke-miterlimit="10"/></g><g transform="translate(-22,-30) scale(1,1)"><path fill="#000000" stroke="none" d="M 1243.7904822439841 1653.837325142376 L 1248 1664 L 1252.2095177560159 1653.837325142376"/></g><g transform="translate(-22,-30) scale(1,1)"><path fill="none" stroke="#000000" d="M 1243.7904822439841 1653.837325142376 L 1248 1664 L 1252.2095177560159 1653.837325142376 L 1243.7904822439841 1653.837325142376" stroke-miterlimit="10"/></g><g transform="translate(-22,-30) scale(1,1)"><rect fill="#ffffff" stroke="none" x="1136" y="1768" width="304" height="32"/></g><g transform="translate(-22,-30) scale(1,1)"><path fill="none" stroke="#000000" d="M 1136 1768 L 1440 1768 L 1440 1800 L 1136 1800 L 1136 1768 Z Z" stroke-miterlimit="10"/></g><g transform="translate(-22,-30) scale(1,1)"><g><path fill="none" stroke="none"/><text fill="#000000" stroke="none" font-family="Arial" font-size="13px" font-style="normal" font-weight="normal" text-decoration="none" x="1149" y="1790.5">handler := http.Handler(s.mux.(*http.ServeMux))</text></g></g><g transform="translate(-22,-30) scale(1,1)"><path fill="none" stroke="#000000" d="M 1231 1722 L 1231 1768" stroke-miterlimit="10"/></g><g transform="translate(-22,-30) scale(1,1)"><path fill="#000000" stroke="none" d="M 1226.7904822439841 1757.837325142376 L 1231 1768 L 1235.2095177560159 1757.837325142376"/></g><g transform="translate(-22,-30) scale(1,1)"><path fill="none" stroke="#000000" d="M 1226.7904822439841 1757.837325142376 L 1231 1768 L 1235.2095177560159 1757.837325142376 L 1226.7904822439841 1757.837325142376" stroke-miterlimit="10"/></g><g transform="translate(-22,-30) scale(1,1)"><rect fill="#ffffff" stroke="none" x="1136" y="1824" width="472" height="32"/></g><g transform="translate(-22,-30) scale(1,1)"><path fill="none" stroke="#000000" d="M 1136 1824 L 1608 1824 L 1608 1856 L 1136 1856 L 1136 1824 Z Z" stroke-miterlimit="10"/></g><g transform="translate(-22,-30) scale(1,1)"><g><path fill="none" stroke="none"/><text fill="#000000" stroke="none" font-family="Arial" font-size="13px" font-style="normal" font-weight="normal" text-decoration="none" x="1162" y="1846.5">handler = apiserver.CORS(handler, allowedOriginRegexps, nil, nil, "true")</text></g></g><g transform="translate(-22,-30) scale(1,1)"><path fill="none" stroke="#000000" d="M 1259 1800 L 1259 1824" stroke-miterlimit="10"/></g><g transform="translate(-22,-30) scale(1,1)"><path fill="#000000" stroke="none" d="M 1254.7904822439841 1813.837325142376 L 1259 1824 L 1263.2095177560159 1813.837325142376"/></g><g transform="translate(-22,-30) scale(1,1)"><path fill="none" stroke="#000000" d="M 1254.7904822439841 1813.837325142376 L 1259 1824 L 1263.2095177560159 1813.837325142376 L 1254.7904822439841 1813.837325142376" stroke-miterlimit="10"/></g><g transform="translate(-22,-30) scale(1,1)"><rect fill="#ffffff" stroke="none" x="1136" y="1888" width="490" height="58"/></g><g transform="translate(-22,-30) scale(1,1)"><path fill="none" stroke="#000000" d="M 1136 1888 L 1626 1888 L 1626 1946 L 1136 1946 L 1136 1888 Z Z" stroke-miterlimit="10"/></g><g transform="translate(-22,-30) scale(1,1)"><g><path fill="none" stroke="none"/><text fill="#000000" stroke="none" font-family="Arial" font-size="13px" font-style="normal" font-weight="normal" text-decoration="none" x="1183.5" y="1910.5">handler = apiserver.WithAuthorizationCheck(handler, attributeGetter,</text><text fill="#000000" stroke="none" font-family="Arial" font-size="13px" font-style="normal" font-weight="normal" text-decoration="none" x="1345" y="1923.5">s.authorizer)</text></g></g><g transform="translate(-22,-30) scale(1,1)"><path fill="none" stroke="#000000" d="M 1232 1856 L 1232 1888" stroke-miterlimit="10"/></g><g transform="translate(-22,-30) scale(1,1)"><path fill="#000000" stroke="none" d="M 1227.7904822439841 1877.837325142376 L 1232 1888 L 1236.2095177560159 1877.837325142376"/></g><g transform="translate(-22,-30) scale(1,1)"><path fill="none" stroke="#000000" d="M 1227.7904822439841 1877.837325142376 L 1232 1888 L 1236.2095177560159 1877.837325142376 L 1227.7904822439841 1877.837325142376" stroke-miterlimit="10"/></g><g transform="translate(-22,-30) scale(1,1)"><rect fill="#ffffff" stroke="none" x="1136" y="1976" width="540" height="45"/></g><g transform="translate(-22,-30) scale(1,1)"><path fill="none" stroke="#000000" d="M 1136 1976 L 1676 1976 L 1676 2021 L 1136 2021 L 1136 1976 Z Z" stroke-miterlimit="10"/></g><g transform="translate(-22,-30) scale(1,1)"><g><path fill="none" stroke="none"/><text fill="#000000" stroke="none" font-family="Arial" font-size="13px" font-style="normal" font-weight="normal" text-decoration="none" x="1202" y="1998.5">handler, err := api.NewRequestContextFilter(s.RequestContextMapper,</text><text fill="#000000" stroke="none" font-family="Arial" font-size="13px" font-style="normal" font-weight="normal" text-decoration="none" x="1351.5" y="2011.5">s.InsecureHandler)</text></g></g><g transform="translate(-22,-30) scale(1,1)"><path fill="none" stroke="#000000" d="M 1266 1946 L 1266 1976" stroke-miterlimit="10"/></g><g transform="translate(-22,-30) scale(1,1)"><path fill="#000000" stroke="none" d="M 1261.7904822439841 1965.837325142376 L 1266 1976 L 1270.2095177560159 1965.837325142376"/></g><g transform="translate(-22,-30) scale(1,1)"><path fill="none" stroke="#000000" d="M 1261.7904822439841 1965.837325142376 L 1266 1976 L 1270.2095177560159 1965.837325142376 L 1261.7904822439841 1965.837325142376" stroke-miterlimit="10"/></g><g transform="translate(-22,-30) scale(1,1)"><rect fill="#ffffff" stroke="none" x="888" y="1496" width="80" height="32"/></g><g transform="translate(-22,-30) scale(1,1)"><path fill="none" stroke="#000000" d="M 888 1496 L 968 1496 L 968 1528 L 888 1528 L 888 1496 Z Z" stroke-miterlimit="10"/></g><g transform="translate(-22,-30) scale(1,1)"><g><path fill="none" stroke="none"/><text fill="#000000" stroke="none" font-family="Arial" font-size="13px" font-style="normal" font-weight="normal" text-decoration="none" x="897.5" y="1518.5">master.init</text></g></g><g transform="translate(-22,-30) scale(1,1)"><path fill="none" stroke="#000000" d="M 912 1400 L 912 1496" stroke-miterlimit="10"/></g><g transform="translate(-22,-30) scale(1,1)"><path fill="#000000" stroke="none" d="M 907.790482243984 1485.837325142376 L 912 1496 L 916.209517756016 1485.837325142376"/></g><g transform="translate(-22,-30) scale(1,1)"><path fill="none" stroke="#000000" d="M 907.790482243984 1485.837325142376 L 912 1496 L 916.209517756016 1485.837325142376 L 907.790482243984 1485.837325142376" stroke-miterlimit="10"/></g><g transform="translate(-22,-30) scale(1,1)"><rect fill="#ffffff" stroke="none" x="440" y="1512" width="200" height="34"/></g><g transform="translate(-22,-30) scale(1,1)"><path fill="none" stroke="#000000" d="M 440 1512 L 640 1512 L 640 1546 L 440 1546 L 440 1512 Z Z" stroke-miterlimit="10"/></g><g transform="translate(-22,-30) scale(1,1)"><g><path fill="none" stroke="none"/><text fill="#000000" stroke="none" font-family="Arial" font-size="13px" font-style="normal" font-weight="normal" text-decoration="none" x="467" y="1534.5">setup ssh health checker</text></g></g><g transform="translate(-22,-30) scale(1,1)"><path fill="none" stroke="#000000" d="M 696 1544 L 640 1544" stroke-miterlimit="10"/></g><g transform="translate(-22,-30) scale(1,1)"><path fill="#000000" stroke="none" d="M 650.1626748576241 1539.7904822439841 L 640 1544 L 650.1626748576241 1548.2095177560159"/></g><g transform="translate(-22,-30) scale(1,1)"><path fill="none" stroke="#000000" d="M 650.1626748576241 1539.7904822439841 L 640 1544 L 650.1626748576241 1548.2095177560159 L 650.1626748576241 1539.7904822439841" stroke-miterlimit="10"/></g><g transform="translate(-22,-30) scale(1,1)"><rect fill="#ffffff" stroke="none" x="696" y="1512" width="83" height="32"/></g><g transform="translate(-22,-30) scale(1,1)"><path fill="none" stroke="#000000" d="M 696 1512 L 779 1512 L 779 1544 L 696 1544 L 696 1512 Z Z" stroke-miterlimit="10"/></g><g transform="translate(-22,-30) scale(1,1)"><g><path fill="none" stroke="none"/><text fill="#000000" stroke="none" font-family="Arial" font-size="13px" font-style="normal" font-weight="normal" text-decoration="none" x="705.5" y="1534.5">InstallAPIs</text></g></g><g transform="translate(-22,-30) scale(1,1)"><path fill="none" stroke="#000000" d="M 888 1528 L 779 1528" stroke-miterlimit="10"/></g><g transform="translate(-22,-30) scale(1,1)"><path fill="#000000" stroke="none" d="M 789.1626748576241 1523.7904822439841 L 779 1528 L 789.1626748576241 1532.2095177560159"/></g><g transform="translate(-22,-30) scale(1,1)"><path fill="none" stroke="#000000" d="M 789.1626748576241 1523.7904822439841 L 779 1528 L 789.1626748576241 1532.2095177560159 L 789.1626748576241 1523.7904822439841" stroke-miterlimit="10"/></g><g transform="translate(-22,-30) scale(1,1)"><rect fill="#ffffff" stroke="none" x="304" y="1616" width="480" height="45"/></g><g transform="translate(-22,-30) scale(1,1)"><path fill="none" stroke="#000000" d="M 304 1616 L 784 1616 L 784 1661 L 304 1661 L 304 1616 Z Z" stroke-miterlimit="10"/></g><g transform="translate(-22,-30) scale(1,1)"><g><path fill="none" stroke="none"/><text fill="#000000" stroke="none" font-family="Arial" font-size="13px" font-style="normal" font-weight="normal" text-decoration="none" x="320" y="1638.5">apiserver.InstallSupport(m.MuxHelper, m.RootWebService, c.EnableProfiling,</text><text fill="#000000" stroke="none" font-family="Arial" font-size="13px" font-style="normal" font-weight="normal" text-decoration="none" x="493" y="1651.5">healthzChecks...)</text></g></g><g transform="translate(-22,-30) scale(1,1)"><path fill="none" stroke="#000000" d="M 520 1546 L 520 1616" stroke-miterlimit="10"/></g><g transform="translate(-22,-30) scale(1,1)"><path fill="#000000" stroke="none" d="M 515.790482243984 1605.837325142376 L 520 1616 L 524.209517756016 1605.837325142376"/></g><g transform="translate(-22,-30) scale(1,1)"><path fill="none" stroke="#000000" d="M 515.790482243984 1605.837325142376 L 520 1616 L 524.209517756016 1605.837325142376 L 515.790482243984 1605.837325142376" stroke-miterlimit="10"/></g><g transform="translate(-22,-30) scale(1,1)"><rect fill="#ffffff" stroke="none" x="440" y="1811" width="360" height="32"/></g><g transform="translate(-22,-30) scale(1,1)"><path fill="none" stroke="#000000" d="M 440 1811 L 800 1811 L 800 1843 L 440 1843 L 440 1811 Z Z" stroke-miterlimit="10"/></g><g transform="translate(-22,-30) scale(1,1)"><g><path fill="none" stroke="none"/><text fill="#000000" stroke="none" font-family="Arial" font-size="13px" font-style="normal" font-weight="normal" text-decoration="none" x="465" y="1833.5">apiGroupsInfo = append(apiGroupsInfo, apiGroupInfo)</text></g></g><g transform="translate(-22,-30) scale(1,1)"><path fill="none" stroke="#000000" d="M 658 1789 L 658 1811" stroke-miterlimit="10"/></g><g transform="translate(-22,-30) scale(1,1)"><path fill="#000000" stroke="none" d="M 653.790482243984 1800.837325142376 L 658 1811 L 662.209517756016 1800.837325142376"/></g><g transform="translate(-22,-30) scale(1,1)"><path fill="none" stroke="#000000" d="M 653.790482243984 1800.837325142376 L 658 1811 L 662.209517756016 1800.837325142376 L 653.790482243984 1800.837325142376" stroke-miterlimit="10"/></g><g transform="translate(-22,-30) scale(1,1)"><rect fill="#ffffff" stroke="none" x="600" y="1913" width="222" height="32"/></g><g transform="translate(-22,-30) scale(1,1)"><path fill="none" stroke="#000000" d="M 600 1913 L 822 1913 L 822 1945 L 600 1945 L 600 1913 Z Z" stroke-miterlimit="10"/></g><g transform="translate(-22,-30) scale(1,1)"><g><path fill="none" stroke="none"/><text fill="#000000" stroke="none" font-family="Arial" font-size="13px" font-style="normal" font-weight="normal" text-decoration="none" x="609.5" y="1935.5">m.InstallAPIGroups(apiGroupsInfo)</text></g></g><g transform="translate(-22,-30) scale(1,1)"><path fill="none" stroke="#000000" d="M 624 1843 L 624 1913" stroke-miterlimit="10"/></g><g transform="translate(-22,-30) scale(1,1)"><path fill="#000000" stroke="none" d="M 619.790482243984 1902.837325142376 L 624 1913 L 628.209517756016 1902.837325142376"/></g><g transform="translate(-22,-30) scale(1,1)"><path fill="none" stroke="#000000" d="M 619.790482243984 1902.837325142376 L 624 1913 L 628.209517756016 1902.837325142376 L 619.790482243984 1902.837325142376" stroke-miterlimit="10"/></g><g transform="translate(-22,-30) scale(1,1)"><rect fill="#ffffff" stroke="none" x="264" y="1912" width="307" height="32"/></g><g transform="translate(-22,-30) scale(1,1)"><path fill="none" stroke="#000000" d="M 264 1912 L 571 1912 L 571 1944 L 264 1944 L 264 1912 Z Z" stroke-miterlimit="10"/></g><g transform="translate(-22,-30) scale(1,1)"><g><path fill="none" stroke="none"/><text fill="#000000" stroke="none" font-family="Arial" font-size="13px" font-style="normal" font-weight="normal" text-decoration="none" x="273.5" y="1934.5">apiGroupVersion.InstallREST(s.HandlerContainer)</text></g></g><g transform="translate(-22,-30) scale(1,1)"><path fill="none" stroke="#000000" d="M 600 1928 L 571 1928" stroke-miterlimit="10"/></g><g transform="translate(-22,-30) scale(1,1)"><path fill="#000000" stroke="none" d="M 581.1626748576241 1923.7904822439841 L 571 1928 L 581.1626748576241 1932.2095177560159"/></g><g transform="translate(-22,-30) scale(1,1)"><path fill="none" stroke="#000000" d="M 581.1626748576241 1923.7904822439841 L 571 1928 L 581.1626748576241 1932.2095177560159 L 581.1626748576241 1923.7904822439841" stroke-miterlimit="10"/></g><g transform="translate(-22,-30) scale(1,1)"><rect fill="#ffffff" stroke="none" x="336" y="2000" width="127" height="32"/></g><g transform="translate(-22,-30) scale(1,1)"><path fill="none" stroke="#000000" d="M 336 2000 L 463 2000 L 463 2032 L 336 2032 L 336 2000 Z Z" stroke-miterlimit="10"/></g><g transform="translate(-22,-30) scale(1,1)"><g><path fill="none" stroke="none"/><text fill="#000000" stroke="none" font-family="Arial" font-size="13px" font-style="normal" font-weight="normal" text-decoration="none" x="345.5" y="2022.5">installer.Install(ws)</text></g></g><g transform="translate(-22,-30) scale(1,1)"><path fill="none" stroke="#000000" d="M 388 1944 L 388 2000" stroke-miterlimit="10"/></g><g transform="translate(-22,-30) scale(1,1)"><path fill="#000000" stroke="none" d="M 383.790482243984 1989.837325142376 L 388 2000 L 392.209517756016 1989.837325142376"/></g><g transform="translate(-22,-30) scale(1,1)"><path fill="none" stroke="#000000" d="M 383.790482243984 1989.837325142376 L 388 2000 L 392.209517756016 1989.837325142376 L 383.790482243984 1989.837325142376" stroke-miterlimit="10"/></g><g transform="translate(-22,-30) scale(1,1)"><rect fill="#ffffff" stroke="none" x="568" y="1688" width="189" height="32"/></g><g transform="translate(-22,-30) scale(1,1)"><path fill="none" stroke="#000000" d="M 568 1688 L 757 1688 L 757 1720 L 568 1720 L 568 1688 Z Z" stroke-miterlimit="10"/></g><g transform="translate(-22,-30) scale(1,1)"><g><path fill="none" stroke="none"/><text fill="#000000" stroke="none" font-family="Arial" font-size="13px" font-style="normal" font-weight="normal" text-decoration="none" x="577.5" y="1710.5">m.initV1ResourcesStorage(c)</text></g></g><g transform="translate(-22,-30) scale(1,1)"><path fill="none" stroke="#000000" d="M 604 1661 L 604 1688" stroke-miterlimit="10"/></g><g transform="translate(-22,-30) scale(1,1)"><path fill="#000000" stroke="none" d="M 599.790482243984 1677.837325142376 L 604 1688 L 608.209517756016 1677.837325142376"/></g><g transform="translate(-22,-30) scale(1,1)"><path fill="none" stroke="#000000" d="M 599.790482243984 1677.837325142376 L 604 1688 L 608.209517756016 1677.837325142376 L 599.790482243984 1677.837325142376" stroke-miterlimit="10"/></g><g transform="translate(-22,-30) scale(1,1)"><rect fill="#ffffff" stroke="none" x="560" y="1744" width="325" height="45"/></g><g transform="translate(-22,-30) scale(1,1)"><path fill="none" stroke="#000000" d="M 560 1744 L 885 1744 L 885 1789 L 560 1789 L 560 1744 Z Z" stroke-miterlimit="10"/></g><g transform="translate(-22,-30) scale(1,1)"><g><path fill="none" stroke="none"/><text fill="#000000" stroke="none" font-family="Arial" font-size="13px" font-style="normal" font-weight="normal" text-decoration="none" x="655.5" y="1766.5">extensionResources :=</text><text fill="#000000" stroke="none" font-family="Arial" font-size="13px" font-style="normal" font-weight="normal" text-decoration="none" x="638.5" y="1779.5">m.getExtensionResources(c)</text></g></g><g transform="translate(-22,-30) scale(1,1)"><path fill="none" stroke="#000000" d="M 662 1720 L 662 1744" stroke-miterlimit="10"/></g><g transform="translate(-22,-30) scale(1,1)"><path fill="#000000" stroke="none" d="M 657.790482243984 1733.837325142376 L 662 1744 L 666.209517756016 1733.837325142376"/></g><g transform="translate(-22,-30) scale(1,1)"><path fill="none" stroke="#000000" d="M 657.790482243984 1733.837325142376 L 662 1744 L 666.209517756016 1733.837325142376 L 657.790482243984 1733.837325142376" stroke-miterlimit="10"/></g><g transform="translate(-22,-30) scale(1,1)"><path fill="#adadff" stroke="none" d="M 336 1688 L 485 1688 L 495 1698 L 495 1724 L 336 1724 L 336 1688"/></g><g transform="translate(-22,-30) scale(1,1)"><path fill="none" stroke="#000000" d="M 336 1688 L 485 1688 L 495 1698 L 495 1724 L 336 1724 L 336 1688 L 336 1688" stroke-miterlimit="10"/></g><g transform="translate(-22,-30) scale(1,1)"><path fill="none" stroke="#000000" d="M 485 1688 L 485 1698 L 495 1698 L 485 1688" stroke-miterlimit="10"/></g><g transform="translate(-22,-30) scale(1,1)"><g><path fill="none" stroke="none"/><text fill="#000000" stroke="none" font-family="Arial" font-size="13px" font-style="normal" font-weight="normal" text-decoration="none" x="341" y="1706">data structure of storing</text><text fill="#000000" stroke="none" font-family="Arial" font-size="13px" font-style="normal" font-weight="normal" text-decoration="none" x="341" y="1719">data, e.g pods/attach</text></g></g><g transform="translate(-22,-30) scale(1,1)"><path fill="none" stroke="#000000" d="M 567 1705 L 497 1705" stroke-miterlimit="10" stroke-dasharray="3"/></g><g transform="translate(-22,-30) scale(1,1)"><rect fill="#ffffff" stroke="none" x="496" y="2000" width="568" height="45"/></g><g transform="translate(-22,-30) scale(1,1)"><path fill="none" stroke="#000000" d="M 496 2000 L 1064 2000 L 1064 2045 L 496 2045 L 496 2000 Z Z" stroke-miterlimit="10"/></g><g transform="translate(-22,-30) scale(1,1)"><g><path fill="none" stroke="none"/><text fill="#000000" stroke="none" font-family="Arial" font-size="13px" font-style="normal" font-weight="normal" text-decoration="none" x="547.5" y="2022.5">apiResource, err := a.registerResourceHandlers(path, a.group.Storage[path], ws,</text><text fill="#000000" stroke="none" font-family="Arial" font-size="13px" font-style="normal" font-weight="normal" text-decoration="none" x="740" y="2035.5">proxyHandler)</text></g></g><g transform="translate(-22,-30) scale(1,1)"><path fill="none" stroke="#000000" d="M 463 2032 L 496 2032" stroke-miterlimit="10"/></g><g transform="translate(-22,-30) scale(1,1)"><path fill="#000000" stroke="none" d="M 485.83732514237585 2036.2095177560159 L 496 2032 L 485.83732514237585 2027.7904822439841"/></g><g transform="translate(-22,-30) scale(1,1)"><path fill="none" stroke="#000000" d="M 485.83732514237585 2036.2095177560159 L 496 2032 L 485.83732514237585 2027.7904822439841 L 485.83732514237585 2036.2095177560159" stroke-miterlimit="10"/></g><g transform="translate(-22,-30) scale(1,1)"><path fill="#adadff" stroke="none" d="M 488 2064 L 709 2064 L 719 2074 L 719 2103 L 488 2103 L 488 2064"/></g><g transform="translate(-22,-30) scale(1,1)"><path fill="none" stroke="#000000" d="M 488 2064 L 709 2064 L 719 2074 L 719 2103 L 488 2103 L 488 2064 L 488 2064" stroke-miterlimit="10"/></g><g transform="translate(-22,-30) scale(1,1)"><path fill="none" stroke="#000000" d="M 709 2064 L 709 2074 L 719 2074 L 709 2064" stroke-miterlimit="10"/></g><g transform="translate(-22,-30) scale(1,1)"><g><path fill="none" stroke="none"/><text fill="#000000" stroke="none" font-family="Arial" font-size="13px" font-style="normal" font-weight="normal" text-decoration="none" x="493" y="2082">install handler for every action of</text><text fill="#000000" stroke="none" font-family="Arial" font-size="13px" font-style="normal" font-weight="normal" text-decoration="none" x="493" y="2095">every resource******</text></g></g><g transform="translate(-22,-30) scale(1,1)"><path fill="none" stroke="#000000" d="M 712 2046 L 664 2063" stroke-miterlimit="10" stroke-dasharray="3"/></g><g transform="translate(-22,-30) scale(1,1)"><rect fill="#ffffff" stroke="none" x="872" y="1592" width="149" height="32"/></g><g transform="translate(-22,-30) scale(1,1)"><path fill="none" stroke="#000000" d="M 872 1592 L 1021 1592 L 1021 1624 L 872 1624 L 872 1592 Z Z" stroke-miterlimit="10"/></g><g transform="translate(-22,-30) scale(1,1)"><g><path fill="none" stroke="none"/><text fill="#000000" stroke="none" font-family="Arial" font-size="13px" font-style="normal" font-weight="normal" text-decoration="none" x="881.5" y="1614.5">m.InstallSwaggerAPI()</text></g></g><g transform="translate(-22,-30) scale(1,1)"><path fill="none" stroke="#000000" d="M 758 1544 L 758 1593 M 758 1593 A 8 8 0 0 0 766 1601 L 872 1601" stroke-miterlimit="10"/></g><g transform="translate(-22,-30) scale(1,1)"><path fill="#000000" stroke="none" d="M 861.8373251423759 1605.2095177560159 L 872 1601 L 861.8373251423758 1596.7904822439841"/></g><g transform="translate(-22,-30) scale(1,1)"><path fill="none" stroke="#000000" d="M 861.8373251423759 1605.2095177560159 L 872 1601 L 861.8373251423758 1596.7904822439841 L 861.8373251423759 1605.2095177560159" stroke-miterlimit="10"/></g><g transform="translate(-22,-30) scale(1,1)"><rect fill="#ffffff" stroke="none" x="872" y="1694" width="218" height="32"/></g><g transform="translate(-22,-30) scale(1,1)"><path fill="none" stroke="#000000" d="M 872 1694 L 1090 1694 L 1090 1726 L 872 1726 L 872 1694 Z Z" stroke-miterlimit="10"/></g><g transform="translate(-22,-30) scale(1,1)"><g><path fill="none" stroke="none"/><text fill="#000000" stroke="none" font-family="Arial" font-size="13px" font-style="normal" font-weight="normal" text-decoration="none" x="881.5" y="1716.5">m.NewBootstrapController().Start()</text></g></g><g transform="translate(-22,-30) scale(1,1)"><path fill="none" stroke="#000000" d="M 932 1624 L 932 1694" stroke-miterlimit="10"/></g><g transform="translate(-22,-30) scale(1,1)"><path fill="#000000" stroke="none" d="M 927.790482243984 1683.837325142376 L 932 1694 L 936.209517756016 1683.837325142376"/></g><g transform="translate(-22,-30) scale(1,1)"><path fill="none" stroke="#000000" d="M 927.790482243984 1683.837325142376 L 932 1694 L 936.209517756016 1683.837325142376 L 927.790482243984 1683.837325142376" stroke-miterlimit="10"/></g><g transform="translate(-22,-30) scale(1,1)"><rect fill="#ffffff" stroke="none" x="104" y="1424" width="182" height="32"/></g><g transform="translate(-22,-30) scale(1,1)"><path fill="none" stroke="#000000" d="M 104 1424 L 286 1424 L 286 1456 L 104 1456 L 104 1424 Z Z" stroke-miterlimit="10"/></g><g transform="translate(-22,-30) scale(1,1)"><g><path fill="none" stroke="none"/><text fill="#000000" stroke="none" font-family="Arial" font-size="13px" font-style="normal" font-weight="normal" text-decoration="none" x="113.5" y="1446.5">m.Run(s.ServerRunOptions)</text></g></g><g transform="translate(-22,-30) scale(1,1)"><path fill="none" stroke="#000000" d="M 616 1392 L 616 1424 M 616 1424 A 8 8 0 0 1 608 1432 L 286 1432" stroke-miterlimit="10"/></g><g transform="translate(-22,-30) scale(1,1)"><path fill="#000000" stroke="none" d="M 296.16267485762415 1427.7904822439841 L 286 1432 L 296.16267485762415 1436.2095177560159"/></g><g transform="translate(-22,-30) scale(1,1)"><path fill="none" stroke="#000000" d="M 296.16267485762415 1427.7904822439841 L 286 1432 L 296.16267485762415 1436.2095177560159 L 296.16267485762415 1427.7904822439841" stroke-miterlimit="10"/></g><g transform="translate(-22,-30) scale(1,1)"><rect fill="#ffffff" stroke="none" x="32" y="1518" width="299" height="34"/></g><g transform="translate(-22,-30) scale(1,1)"><path fill="none" stroke="#000000" d="M 32 1518 L 331 1518 L 331 1552 L 32 1552 L 32 1518 Z Z" stroke-miterlimit="10"/></g><g transform="translate(-22,-30) scale(1,1)"><g><path fill="none" stroke="none"/><text fill="#000000" stroke="none" font-family="Arial" font-size="13px" font-style="normal" font-weight="normal" text-decoration="none" x="101" y="1540.5">util.GenerateSelfSignedCert</text></g></g><g transform="translate(-22,-30) scale(1,1)"><path fill="none" stroke="#000000" d="M 178 1456 L 178 1518" stroke-miterlimit="10"/></g><g transform="translate(-22,-30) scale(1,1)"><path fill="#000000" stroke="none" d="M 173.790482243984 1507.837325142376 L 178 1518 L 182.209517756016 1507.837325142376"/></g><g transform="translate(-22,-30) scale(1,1)"><path fill="none" stroke="#000000" d="M 173.790482243984 1507.837325142376 L 178 1518 L 182.209517756016 1507.837325142376 L 173.790482243984 1507.837325142376" stroke-miterlimit="10"/></g><g transform="translate(-22,-30) scale(1,1)"><rect fill="#ffffff" stroke="none" x="32" y="1622" width="216" height="32"/></g><g transform="translate(-22,-30) scale(1,1)"><path fill="none" stroke="#000000" d="M 32 1622 L 248 1622 L 248 1654 L 32 1654 L 32 1622 Z Z" stroke-miterlimit="10"/></g><g transform="translate(-22,-30) scale(1,1)"><g><path fill="none" stroke="none"/><text fill="#000000" stroke="none" font-family="Arial" font-size="13px" font-style="normal" font-weight="normal" text-decoration="none" x="41.5" y="1644.5">secureServer.ListenAndServeTLS</text></g></g><g transform="translate(-22,-30) scale(1,1)"><path fill="none" stroke="#000000" d="M 151 1552 L 151 1622" stroke-miterlimit="10"/></g><g transform="translate(-22,-30) scale(1,1)"><path fill="#000000" stroke="none" d="M 146.790482243984 1611.837325142376 L 151 1622 L 155.209517756016 1611.837325142376"/></g><g transform="translate(-22,-30) scale(1,1)"><path fill="none" stroke="#000000" d="M 146.790482243984 1611.837325142376 L 151 1622 L 155.209517756016 1611.837325142376 L 146.790482243984 1611.837325142376" stroke-miterlimit="10"/></g><g transform="translate(-22,-30) scale(1,1)"><rect fill="#ffffff" stroke="none" x="32" y="1724" width="145" height="32"/></g><g transform="translate(-22,-30) scale(1,1)"><path fill="none" stroke="#000000" d="M 32 1724 L 177 1724 L 177 1756 L 32 1756 L 32 1724 Z Z" stroke-miterlimit="10"/></g><g transform="translate(-22,-30) scale(1,1)"><g><path fill="none" stroke="none"/><text fill="#000000" stroke="none" font-family="Arial" font-size="13px" font-style="normal" font-weight="normal" text-decoration="none" x="41.5" y="1746.5">http.ListenAndServe()</text></g></g><g transform="translate(-22,-30) scale(1,1)"><path fill="none" stroke="#000000" d="M 119 1654 L 119 1724" stroke-miterlimit="10"/></g><g transform="translate(-22,-30) scale(1,1)"><path fill="#000000" stroke="none" d="M 114.79048224398402 1713.837325142376 L 119 1724 L 123.20951775601598 1713.837325142376"/></g><g transform="translate(-22,-30) scale(1,1)"><path fill="none" stroke="#000000" d="M 114.79048224398402 1713.837325142376 L 119 1724 L 123.20951775601598 1713.837325142376 L 114.79048224398402 1713.837325142376" stroke-miterlimit="10"/></g><g transform="translate(-22,-30) scale(1,1)"><path fill="#adadff" stroke="none" d="M 1630 728 L 1718 728 L 1728 738 L 1728 777 L 1630 777 L 1630 728"/></g><g transform="translate(-22,-30) scale(1,1)"><path fill="none" stroke="#000000" d="M 1630 728 L 1718 728 L 1728 738 L 1728 777 L 1630 777 L 1630 728 L 1630 728" stroke-miterlimit="10"/></g><g transform="translate(-22,-30) scale(1,1)"><path fill="none" stroke="#000000" d="M 1718 728 L 1718 738 L 1728 738 L 1718 728" stroke-miterlimit="10"/></g><g transform="translate(-22,-30) scale(1,1)"><g><path fill="none" stroke="none"/><text fill="#000000" stroke="none" font-family="Arial" font-size="13px" font-style="normal" font-weight="normal" text-decoration="none" x="1635" y="746">init etcd store</text><text fill="#000000" stroke="none" font-family="Arial" font-size="13px" font-style="normal" font-weight="normal" text-decoration="none" x="1635" y="759">path and</text><text fill="#000000" stroke="none" font-family="Arial" font-size="13px" font-style="normal" font-weight="normal" text-decoration="none" x="1635" y="772">storage</text></g></g><g transform="translate(-22,-30) scale(1,1)"><path fill="none" stroke="#000000" d="M 1561 752 L 1629 752" stroke-miterlimit="10" stroke-dasharray="3"/></g></g></svg>