<svg version="1.1" xmlns="http://www.w3.org/2000/svg" xmlns:xlink="http://www.w3.org/1999/xlink" width="2213" height="1409"><defs/><g><g transform="translate(2,-6) scale(1,1)"><rect fill="#ffffff" stroke="none" x="600" y="136" width="74" height="32"/></g><g transform="translate(2,-6) scale(1,1)"><path fill="none" stroke="#000000" d="M 600 136 L 674 136 L 674 168 L 600 168 L 600 136 Z Z" stroke-miterlimit="10"/></g><g transform="translate(2,-6) scale(1,1)"><g><path fill="none" stroke="none"/><text fill="#000000" stroke="none" font-family="Arial" font-size="13px" font-style="normal" font-weight="normal" text-decoration="none" x="628.5" y="158.5">init</text></g></g><g transform="translate(2,-6) scale(1,1)"><rect fill="#ffffff" stroke="none" x="544" y="280" width="170" height="32"/></g><g transform="translate(2,-6) scale(1,1)"><path fill="none" stroke="#000000" d="M 544 280 L 714 280 L 714 312 L 544 312 L 544 280 Z Z" stroke-miterlimit="10"/></g><g transform="translate(2,-6) scale(1,1)"><g><path fill="none" stroke="none"/><text fill="#000000" stroke="none" font-family="Arial" font-size="13px" font-style="normal" font-weight="normal" text-decoration="none" x="553.5" y="302.5">RegisterAlgorithmProvider</text></g></g><g transform="translate(2,-6) scale(1,1)"><path fill="none" stroke="#000000" d="M 632 168 L 632 280" stroke-miterlimit="10"/></g><g transform="translate(2,-6) scale(1,1)"><path fill="#000000" stroke="none" d="M 627.790482243984 269.83732514237585 L 632 280 L 636.209517756016 269.83732514237585"/></g><g transform="translate(2,-6) scale(1,1)"><path fill="none" stroke="#000000" d="M 627.790482243984 269.83732514237585 L 632 280 L 636.209517756016 269.83732514237585 L 627.790482243984 269.83732514237585" stroke-miterlimit="10"/></g><g transform="translate(2,-6) scale(1,1)"><rect fill="#ffffff" stroke="none" x="312" y="272" width="120" height="32"/></g><g transform="translate(2,-6) scale(1,1)"><path fill="none" stroke="#000000" d="M 312 272 L 432 272 L 432 304 L 312 304 L 312 272 Z Z" stroke-miterlimit="10"/></g><g transform="translate(2,-6) scale(1,1)"><g><path fill="none" stroke="none"/><text fill="#000000" stroke="none" font-family="Arial" font-size="13px" font-style="normal" font-weight="normal" text-decoration="none" x="321.5" y="294.5">defaultPredicates</text></g></g><g transform="translate(2,-6) scale(1,1)"><path fill="none" stroke="#000000" d="M 544 300 L 432 300" stroke-miterlimit="10"/></g><g transform="translate(2,-6) scale(1,1)"><path fill="#000000" stroke="none" d="M 442.16267485762415 295.790482243984 L 432 300 L 442.16267485762415 304.209517756016"/></g><g transform="translate(2,-6) scale(1,1)"><path fill="none" stroke="#000000" d="M 442.16267485762415 295.790482243984 L 432 300 L 442.16267485762415 304.209517756016 L 442.16267485762415 295.790482243984" stroke-miterlimit="10"/></g><g transform="translate(2,-6) scale(1,1)"><rect fill="#ffffff" stroke="none" x="776" y="280" width="109" height="32"/></g><g transform="translate(2,-6) scale(1,1)"><path fill="none" stroke="#000000" d="M 776 280 L 885 280 L 885 312 L 776 312 L 776 280 Z Z" stroke-miterlimit="10"/></g><g transform="translate(2,-6) scale(1,1)"><g><path fill="none" stroke="none"/><text fill="#000000" stroke="none" font-family="Arial" font-size="13px" font-style="normal" font-weight="normal" text-decoration="none" x="785.5" y="302.5">defaultPriorities</text></g></g><g transform="translate(2,-6) scale(1,1)"><path fill="none" stroke="#000000" d="M 714 296 L 776 296" stroke-miterlimit="10"/></g><g transform="translate(2,-6) scale(1,1)"><path fill="#000000" stroke="none" d="M 765.8373251423759 300.209517756016 L 776 296 L 765.8373251423758 291.790482243984"/></g><g transform="translate(2,-6) scale(1,1)"><path fill="none" stroke="#000000" d="M 765.8373251423759 300.209517756016 L 776 296 L 765.8373251423758 291.790482243984 L 765.8373251423759 300.209517756016" stroke-miterlimit="10"/></g><g transform="translate(2,-6) scale(1,1)"><rect fill="#ffffff" stroke="none" x="312" y="374" width="181" height="32"/></g><g transform="translate(2,-6) scale(1,1)"><path fill="none" stroke="#000000" d="M 312 374 L 493 374 L 493 406 L 312 406 L 312 374 Z Z" stroke-miterlimit="10"/></g><g transform="translate(2,-6) scale(1,1)"><g><path fill="none" stroke="none"/><text fill="#000000" stroke="none" font-family="Arial" font-size="13px" font-style="normal" font-weight="normal" text-decoration="none" x="321.5" y="396.5">factory.RegisterFitPredicate</text></g></g><g transform="translate(2,-6) scale(1,1)"><path fill="none" stroke="#000000" d="M 361 304 L 361 374" stroke-miterlimit="10"/></g><g transform="translate(2,-6) scale(1,1)"><path fill="#000000" stroke="none" d="M 356.790482243984 363.83732514237585 L 361 374 L 365.209517756016 363.83732514237585"/></g><g transform="translate(2,-6) scale(1,1)"><path fill="none" stroke="#000000" d="M 356.790482243984 363.83732514237585 L 361 374 L 365.209517756016 363.83732514237585 L 356.790482243984 363.83732514237585" stroke-miterlimit="10"/></g><g transform="translate(2,-6) scale(1,1)"><rect fill="#ffffff" stroke="none" x="312" y="476" width="181" height="32"/></g><g transform="translate(2,-6) scale(1,1)"><path fill="none" stroke="#000000" d="M 312 476 L 493 476 L 493 508 L 312 508 L 312 476 Z Z" stroke-miterlimit="10"/></g><g transform="translate(2,-6) scale(1,1)"><g><path fill="none" stroke="none"/><text fill="#000000" stroke="none" font-family="Arial" font-size="13px" font-style="normal" font-weight="normal" text-decoration="none" x="321.5" y="498.5">RegisterFitPredicateFactory</text></g></g><g transform="translate(2,-6) scale(1,1)"><path fill="none" stroke="#000000" d="M 385 406 L 385 476" stroke-miterlimit="10"/></g><g transform="translate(2,-6) scale(1,1)"><path fill="#000000" stroke="none" d="M 380.790482243984 465.83732514237585 L 385 476 L 389.209517756016 465.83732514237585"/></g><g transform="translate(2,-6) scale(1,1)"><path fill="none" stroke="#000000" d="M 380.790482243984 465.83732514237585 L 385 476 L 389.209517756016 465.83732514237585 L 380.790482243984 465.83732514237585" stroke-miterlimit="10"/></g><g transform="translate(2,-6) scale(1,1)"><path fill="#ffffff" stroke="none" d="M 48 360 L 223 360 L 233 370 L 233 409 L 48 409 L 48 360"/></g><g transform="translate(2,-6) scale(1,1)"><path fill="none" stroke="#000000" d="M 48 360 L 223 360 L 233 370 L 233 409 L 48 409 L 48 360 L 48 360" stroke-miterlimit="10"/></g><g transform="translate(2,-6) scale(1,1)"><path fill="none" stroke="#000000" d="M 223 360 L 223 370 L 233 370 L 223 360" stroke-miterlimit="10"/></g><g transform="translate(2,-6) scale(1,1)"><g><path fill="none" stroke="none"/><text fill="#000000" stroke="none" font-family="Arial" font-size="13px" font-style="normal" font-weight="normal" text-decoration="none" x="53" y="378">predicates.PodFitsHostPorts</text><text fill="#000000" stroke="none" font-family="Arial" font-size="13px" font-style="normal" font-weight="normal" text-decoration="none" x="53" y="391">predicates.NoDiskConflict</text><text fill="#000000" stroke="none" font-family="Arial" font-size="13px" font-style="normal" font-weight="normal" text-decoration="none" x="53" y="404">predicates.PodFitsHost</text></g></g><g transform="translate(2,-6) scale(1,1)"><path fill="none" stroke="#000000" d="M 311 388 L 235 387" stroke-miterlimit="10" stroke-dasharray="3"/></g><g transform="translate(2,-6) scale(1,1)"><path fill="#ffffff" stroke="none" d="M 16 464 L 252 464 L 262 474 L 262 513 L 16 513 L 16 464"/></g><g transform="translate(2,-6) scale(1,1)"><path fill="none" stroke="#000000" d="M 16 464 L 252 464 L 262 474 L 262 513 L 16 513 L 16 464 L 16 464" stroke-miterlimit="10"/></g><g transform="translate(2,-6) scale(1,1)"><path fill="none" stroke="#000000" d="M 252 464 L 252 474 L 262 474 L 252 464" stroke-miterlimit="10"/></g><g transform="translate(2,-6) scale(1,1)"><g><path fill="none" stroke="none"/><text fill="#000000" stroke="none" font-family="Arial" font-size="13px" font-style="normal" font-weight="normal" text-decoration="none" x="21" y="482">predicates.NewResourceFitPredicate</text><text fill="#000000" stroke="none" font-family="Arial" font-size="13px" font-style="normal" font-weight="normal" text-decoration="none" x="21" y="495">predicates.NewVolumeZonePredicate</text><text fill="#000000" stroke="none" font-family="Arial" font-size="13px" font-style="normal" font-weight="normal" text-decoration="none" x="21" y="508">predicates.NewSelectorMatchPredicate</text></g></g><g transform="translate(2,-6) scale(1,1)"><path fill="none" stroke="#000000" d="M 311 491 L 264 490" stroke-miterlimit="10" stroke-dasharray="3"/></g><g transform="translate(2,-6) scale(1,1)"><rect fill="#ffffff" stroke="none" x="816" y="368" width="207" height="32"/></g><g transform="translate(2,-6) scale(1,1)"><path fill="none" stroke="#000000" d="M 816 368 L 1023 368 L 1023 400 L 816 400 L 816 368 Z Z" stroke-miterlimit="10"/></g><g transform="translate(2,-6) scale(1,1)"><g><path fill="none" stroke="none"/><text fill="#000000" stroke="none" font-family="Arial" font-size="13px" font-style="normal" font-weight="normal" text-decoration="none" x="828" y="390.5">factory.RegisterPriorityFunction</text></g></g><g transform="translate(2,-6) scale(1,1)"><path fill="none" stroke="#000000" d="M 832 312 L 832 368" stroke-miterlimit="10"/></g><g transform="translate(2,-6) scale(1,1)"><path fill="#000000" stroke="none" d="M 827.790482243984 357.83732514237585 L 832 368 L 836.209517756016 357.83732514237585"/></g><g transform="translate(2,-6) scale(1,1)"><path fill="none" stroke="#000000" d="M 827.790482243984 357.83732514237585 L 832 368 L 836.209517756016 357.83732514237585 L 827.790482243984 357.83732514237585" stroke-miterlimit="10"/></g><g transform="translate(2,-6) scale(1,1)"><rect fill="#ffffff" stroke="none" x="808" y="470" width="238" height="32"/></g><g transform="translate(2,-6) scale(1,1)"><path fill="none" stroke="#000000" d="M 808 470 L 1046 470 L 1046 502 L 808 502 L 808 470 Z Z" stroke-miterlimit="10"/></g><g transform="translate(2,-6) scale(1,1)"><g><path fill="none" stroke="none"/><text fill="#000000" stroke="none" font-family="Arial" font-size="13px" font-style="normal" font-weight="normal" text-decoration="none" x="820" y="492.5">factory.RegisterPriorityConfigFactory</text></g></g><g transform="translate(2,-6) scale(1,1)"><path fill="none" stroke="#000000" d="M 899 400 L 899 470" stroke-miterlimit="10"/></g><g transform="translate(2,-6) scale(1,1)"><path fill="#000000" stroke="none" d="M 894.790482243984 459.83732514237585 L 899 470 L 903.209517756016 459.83732514237585"/></g><g transform="translate(2,-6) scale(1,1)"><path fill="none" stroke="#000000" d="M 894.790482243984 459.83732514237585 L 899 470 L 903.209517756016 459.83732514237585 L 894.790482243984 459.83732514237585" stroke-miterlimit="10"/></g><g transform="translate(2,-6) scale(1,1)"><path fill="#ffffff" stroke="none" d="M 1096 456 L 1312 456 L 1322 466 L 1322 504 L 1096 504 L 1096 456"/></g><g transform="translate(2,-6) scale(1,1)"><path fill="none" stroke="#000000" d="M 1096 456 L 1312 456 L 1322 466 L 1322 504 L 1096 504 L 1096 456 L 1096 456" stroke-miterlimit="10"/></g><g transform="translate(2,-6) scale(1,1)"><path fill="none" stroke="#000000" d="M 1312 456 L 1312 466 L 1322 466 L 1312 456" stroke-miterlimit="10"/></g><g transform="translate(2,-6) scale(1,1)"><g><path fill="none" stroke="none"/><text fill="#000000" stroke="none" font-family="Arial" font-size="13px" font-style="normal" font-weight="normal" text-decoration="none" x="1101" y="474">priorities.NewSelectorSpreadPriority</text></g></g><g transform="translate(2,-6) scale(1,1)"><path fill="none" stroke="#000000" d="M 1047 483 L 1095 482" stroke-miterlimit="10" stroke-dasharray="3"/></g><g transform="translate(2,-6) scale(1,1)"><rect fill="#ffffff" stroke="none" x="528" y="536" width="202" height="32"/></g><g transform="translate(2,-6) scale(1,1)"><path fill="none" stroke="#000000" d="M 528 536 L 730 536 L 730 568 L 528 568 L 528 536 Z Z" stroke-miterlimit="10"/></g><g transform="translate(2,-6) scale(1,1)"><g><path fill="none" stroke="none"/><text fill="#000000" stroke="none" font-family="Arial" font-size="13px" font-style="normal" font-weight="normal" text-decoration="none" x="537.5" y="558.5">factory.RegisterPriorityFunction</text></g></g><g transform="translate(2,-6) scale(1,1)"><path fill="none" stroke="#000000" d="M 640 312 L 640 536" stroke-miterlimit="10"/></g><g transform="translate(2,-6) scale(1,1)"><path fill="#000000" stroke="none" d="M 635.790482243984 525.8373251423759 L 640 536 L 644.209517756016 525.8373251423759"/></g><g transform="translate(2,-6) scale(1,1)"><path fill="none" stroke="#000000" d="M 635.790482243984 525.8373251423759 L 640 536 L 644.209517756016 525.8373251423759 L 635.790482243984 525.8373251423759" stroke-miterlimit="10"/></g><g transform="translate(2,-6) scale(1,1)"><path fill="#ffffff" stroke="none" d="M 800 528 L 946 528 L 956 538 L 956 576 L 800 576 L 800 528"/></g><g transform="translate(2,-6) scale(1,1)"><path fill="none" stroke="#000000" d="M 800 528 L 946 528 L 956 538 L 956 576 L 800 576 L 800 528 L 800 528" stroke-miterlimit="10"/></g><g transform="translate(2,-6) scale(1,1)"><path fill="none" stroke="#000000" d="M 946 528 L 946 538 L 956 538 L 946 528" stroke-miterlimit="10"/></g><g transform="translate(2,-6) scale(1,1)"><g><path fill="none" stroke="none"/><text fill="#000000" stroke="none" font-family="Arial" font-size="13px" font-style="normal" font-weight="normal" text-decoration="none" x="805" y="546">scheduler.EqualPriority,</text><text fill="#000000" stroke="none" font-family="Arial" font-size="13px" font-style="normal" font-weight="normal" text-decoration="none" x="805" y="559">score 1 for every node</text></g></g><g transform="translate(2,-6) scale(1,1)"><path fill="none" stroke="#000000" d="M 731 552 L 799 552" stroke-miterlimit="10" stroke-dasharray="3"/></g><g transform="translate(2,-6) scale(1,1)"><rect fill="#ffffff" stroke="none" x="528" y="638" width="233" height="32"/></g><g transform="translate(2,-6) scale(1,1)"><path fill="none" stroke="#000000" d="M 528 638 L 761 638 L 761 670 L 528 670 L 528 638 Z Z" stroke-miterlimit="10"/></g><g transform="translate(2,-6) scale(1,1)"><g><path fill="none" stroke="none"/><text fill="#000000" stroke="none" font-family="Arial" font-size="13px" font-style="normal" font-weight="normal" text-decoration="none" x="537.5" y="660.5">factory.RegisterPriorityConfigFactory</text></g></g><g transform="translate(2,-6) scale(1,1)"><path fill="none" stroke="#000000" d="M 610 568 L 610 638" stroke-miterlimit="10"/></g><g transform="translate(2,-6) scale(1,1)"><path fill="#000000" stroke="none" d="M 605.790482243984 627.8373251423759 L 610 638 L 614.209517756016 627.8373251423759"/></g><g transform="translate(2,-6) scale(1,1)"><path fill="none" stroke="#000000" d="M 605.790482243984 627.8373251423759 L 610 638 L 614.209517756016 627.8373251423759 L 605.790482243984 627.8373251423759" stroke-miterlimit="10"/></g><g transform="translate(2,-6) scale(1,1)"><rect fill="#ffffff" stroke="none" x="864" y="632" width="227" height="32"/></g><g transform="translate(2,-6) scale(1,1)"><path fill="none" stroke="#000000" d="M 864 632 L 1091 632 L 1091 664 L 864 664 L 864 632 Z Z" stroke-miterlimit="10"/></g><g transform="translate(2,-6) scale(1,1)"><g><path fill="none" stroke="none"/><text fill="#000000" stroke="none" font-family="Arial" font-size="13px" font-style="normal" font-weight="normal" text-decoration="none" x="873.5" y="654.5">priorities.NewSelectorSpreadPriority</text></g></g><g transform="translate(2,-6) scale(1,1)"><path fill="none" stroke="#000000" d="M 761 648 L 864 648" stroke-miterlimit="10"/></g><g transform="translate(2,-6) scale(1,1)"><path fill="#000000" stroke="none" d="M 853.8373251423759 652.209517756016 L 864 648 L 853.8373251423758 643.790482243984"/></g><g transform="translate(2,-6) scale(1,1)"><path fill="none" stroke="#000000" d="M 853.8373251423759 652.209517756016 L 864 648 L 853.8373251423758 643.790482243984 L 853.8373251423759 652.209517756016" stroke-miterlimit="10"/></g><g transform="translate(2,-6) scale(1,1)"><rect fill="#ffffff" stroke="none" x="1136" y="624" width="246" height="32"/></g><g transform="translate(2,-6) scale(1,1)"><path fill="none" stroke="#000000" d="M 1136 624 L 1382 624 L 1382 656 L 1136 656 L 1136 624 Z Z" stroke-miterlimit="10"/></g><g transform="translate(2,-6) scale(1,1)"><g><path fill="none" stroke="none"/><text fill="#000000" stroke="none" font-family="Arial" font-size="13px" font-style="normal" font-weight="normal" text-decoration="none" x="1145.5" y="646.5">selectorSpread.CalculateSpreadPriority</text></g></g><g transform="translate(2,-6) scale(1,1)"><path fill="none" stroke="#000000" d="M 1091 640 L 1136 640" stroke-miterlimit="10"/></g><g transform="translate(2,-6) scale(1,1)"><path fill="#000000" stroke="none" d="M 1125.837325142376 644.209517756016 L 1136 640 L 1125.837325142376 635.790482243984"/></g><g transform="translate(2,-6) scale(1,1)"><path fill="none" stroke="#000000" d="M 1125.837325142376 644.209517756016 L 1136 640 L 1125.837325142376 635.790482243984 L 1125.837325142376 644.209517756016" stroke-miterlimit="10"/></g><g transform="translate(2,-6) scale(1,1)"><path fill="#ffffff" stroke="none" d="M 1056 544 L 1293 544 L 1303 554 L 1303 595 L 1056 595 L 1056 544"/></g><g transform="translate(2,-6) scale(1,1)"><path fill="none" stroke="#000000" d="M 1056 544 L 1293 544 L 1303 554 L 1303 595 L 1056 595 L 1056 544 L 1056 544" stroke-miterlimit="10"/></g><g transform="translate(2,-6) scale(1,1)"><path fill="none" stroke="#000000" d="M 1293 544 L 1293 554 L 1303 554 L 1293 544" stroke-miterlimit="10"/></g><g transform="translate(2,-6) scale(1,1)"><g><path fill="none" stroke="none"/><text fill="#000000" stroke="none" font-family="Arial" font-size="13px" font-style="normal" font-weight="normal" text-decoration="none" x="1061" y="562">minimizing the number of pods</text><text fill="#000000" stroke="none" font-family="Arial" font-size="13px" font-style="normal" font-weight="normal" text-decoration="none" x="1061" y="575">(belonging to the same service) on the</text><text fill="#000000" stroke="none" font-family="Arial" font-size="13px" font-style="normal" font-weight="normal" text-decoration="none" x="1061" y="588">same node</text></g></g><g transform="translate(2,-6) scale(1,1)"><path fill="none" stroke="#000000" d="M 1021 631 L 1110 597" stroke-miterlimit="10" stroke-dasharray="3"/></g><g transform="translate(2,-6) scale(1,1)"><rect fill="#ffffff" stroke="none" x="1464" y="622" width="203" height="32"/></g><g transform="translate(2,-6) scale(1,1)"><path fill="none" stroke="#000000" d="M 1464 622 L 1667 622 L 1667 654 L 1464 654 L 1464 622 Z Z" stroke-miterlimit="10"/></g><g transform="translate(2,-6) scale(1,1)"><g><path fill="none" stroke="none"/><text fill="#000000" stroke="none" font-family="Arial" font-size="13px" font-style="normal" font-weight="normal" text-decoration="none" x="1473.5" y="644.5">s.serviceLister.GetPodServices</text></g></g><g transform="translate(2,-6) scale(1,1)"><path fill="none" stroke="#000000" d="M 1382 640 L 1464 640" stroke-miterlimit="10"/></g><g transform="translate(2,-6) scale(1,1)"><path fill="#000000" stroke="none" d="M 1453.837325142376 644.209517756016 L 1464 640 L 1453.837325142376 635.790482243984"/></g><g transform="translate(2,-6) scale(1,1)"><path fill="none" stroke="#000000" d="M 1453.837325142376 644.209517756016 L 1464 640 L 1453.837325142376 635.790482243984 L 1453.837325142376 644.209517756016" stroke-miterlimit="10"/></g><g transform="translate(2,-6) scale(1,1)"><rect fill="#ffffff" stroke="none" x="1464" y="724" width="225" height="32"/></g><g transform="translate(2,-6) scale(1,1)"><path fill="none" stroke="#000000" d="M 1464 724 L 1689 724 L 1689 756 L 1464 756 L 1464 724 Z Z" stroke-miterlimit="10"/></g><g transform="translate(2,-6) scale(1,1)"><g><path fill="none" stroke="none"/><text fill="#000000" stroke="none" font-family="Arial" font-size="13px" font-style="normal" font-weight="normal" text-decoration="none" x="1473.5" y="746.5">s.controllerLister.GetPodControllers</text></g></g><g transform="translate(2,-6) scale(1,1)"><path fill="none" stroke="#000000" d="M 1546 654 L 1546 724" stroke-miterlimit="10"/></g><g transform="translate(2,-6) scale(1,1)"><path fill="#000000" stroke="none" d="M 1541.7904822439841 713.8373251423759 L 1546 724 L 1550.2095177560159 713.8373251423759"/></g><g transform="translate(2,-6) scale(1,1)"><path fill="none" stroke="#000000" d="M 1541.7904822439841 713.8373251423759 L 1546 724 L 1550.2095177560159 713.8373251423759 L 1541.7904822439841 713.8373251423759" stroke-miterlimit="10"/></g><g transform="translate(2,-6) scale(1,1)"><rect fill="#ffffff" stroke="none" x="1464" y="800" width="360" height="45"/></g><g transform="translate(2,-6) scale(1,1)"><path fill="none" stroke="#000000" d="M 1464 800 L 1824 800 L 1824 845 L 1464 845 L 1464 800 Z Z" stroke-miterlimit="10"/></g><g transform="translate(2,-6) scale(1,1)"><g><path fill="none" stroke="none"/><text fill="#000000" stroke="none" font-family="Arial" font-size="13px" font-style="normal" font-weight="normal" text-decoration="none" x="1509" y="822.5">filter out only the pods that belong to the same</text><text fill="#000000" stroke="none" font-family="Arial" font-size="13px" font-style="normal" font-weight="normal" text-decoration="none" x="1610.5" y="835.5">namespace</text></g></g><g transform="translate(2,-6) scale(1,1)"><path fill="none" stroke="#000000" d="M 1555 756 L 1555 800" stroke-miterlimit="10"/></g><g transform="translate(2,-6) scale(1,1)"><path fill="#000000" stroke="none" d="M 1550.7904822439841 789.8373251423759 L 1555 800 L 1559.2095177560159 789.8373251423759"/></g><g transform="translate(2,-6) scale(1,1)"><path fill="none" stroke="#000000" d="M 1550.7904822439841 789.8373251423759 L 1555 800 L 1559.2095177560159 789.8373251423759 L 1550.7904822439841 789.8373251423759" stroke-miterlimit="10"/></g><g transform="translate(2,-6) scale(1,1)"><rect fill="#ffffff" stroke="none" x="1464" y="915" width="200" height="32"/></g><g transform="translate(2,-6) scale(1,1)"><path fill="none" stroke="#000000" d="M 1464 915 L 1664 915 L 1664 947 L 1464 947 L 1464 915 Z Z" stroke-miterlimit="10"/></g><g transform="translate(2,-6) scale(1,1)"><g><path fill="none" stroke="none"/><text fill="#000000" stroke="none" font-family="Arial" font-size="13px" font-style="normal" font-weight="normal" text-decoration="none" x="1485" y="937.5">Count similar pods by node</text></g></g><g transform="translate(2,-6) scale(1,1)"><path fill="none" stroke="#000000" d="M 1551 845 L 1551 915" stroke-miterlimit="10"/></g><g transform="translate(2,-6) scale(1,1)"><path fill="#000000" stroke="none" d="M 1546.7904822439841 904.8373251423759 L 1551 915 L 1555.2095177560159 904.8373251423759"/></g><g transform="translate(2,-6) scale(1,1)"><path fill="none" stroke="#000000" d="M 1546.7904822439841 904.8373251423759 L 1551 915 L 1555.2095177560159 904.8373251423759 L 1546.7904822439841 904.8373251423759" stroke-miterlimit="10"/></g><g transform="translate(2,-6) scale(1,1)"><rect fill="#ffffff" stroke="none" x="1456" y="992" width="224" height="32"/></g><g transform="translate(2,-6) scale(1,1)"><path fill="none" stroke="#000000" d="M 1456 992 L 1680 992 L 1680 1024 L 1456 1024 L 1456 992 Z Z" stroke-miterlimit="10"/></g><g transform="translate(2,-6) scale(1,1)"><g><path fill="none" stroke="none"/><text fill="#000000" stroke="none" font-family="Arial" font-size="13px" font-style="normal" font-weight="normal" text-decoration="none" x="1489" y="1014.5">Count similar pods by zone</text></g></g><g transform="translate(2,-6) scale(1,1)"><path fill="none" stroke="#000000" d="M 1545 947 L 1545 992" stroke-miterlimit="10"/></g><g transform="translate(2,-6) scale(1,1)"><path fill="#000000" stroke="none" d="M 1540.7904822439841 981.8373251423759 L 1545 992 L 1549.2095177560159 981.8373251423759"/></g><g transform="translate(2,-6) scale(1,1)"><path fill="none" stroke="#000000" d="M 1540.7904822439841 981.8373251423759 L 1545 992 L 1549.2095177560159 981.8373251423759 L 1540.7904822439841 981.8373251423759" stroke-miterlimit="10"/></g><g transform="translate(2,-6) scale(1,1)"><path fill="#ffffff" stroke="none" d="M 1752 992 L 1879 992 L 1889 1002 L 1889 1028 L 1752 1028 L 1752 992"/></g><g transform="translate(2,-6) scale(1,1)"><path fill="none" stroke="#000000" d="M 1752 992 L 1879 992 L 1889 1002 L 1889 1028 L 1752 1028 L 1752 992 L 1752 992" stroke-miterlimit="10"/></g><g transform="translate(2,-6) scale(1,1)"><path fill="none" stroke="#000000" d="M 1879 992 L 1879 1002 L 1889 1002 L 1879 992" stroke-miterlimit="10"/></g><g transform="translate(2,-6) scale(1,1)"><g><path fill="none" stroke="none"/><text fill="#000000" stroke="none" font-family="Arial" font-size="13px" font-style="normal" font-weight="normal" text-decoration="none" x="1757" y="1010">region and zone are</text><text fill="#000000" stroke="none" font-family="Arial" font-size="13px" font-style="normal" font-weight="normal" text-decoration="none" x="1757" y="1023">labels of a node</text></g></g><g transform="translate(2,-6) scale(1,1)"><path fill="none" stroke="#000000" d="M 1681 1009 L 1751 1009" stroke-miterlimit="10" stroke-dasharray="3"/></g><g transform="translate(2,-6) scale(1,1)"><rect fill="#ffffff" stroke="none" x="1456" y="1094" width="745" height="58"/></g><g transform="translate(2,-6) scale(1,1)"><path fill="none" stroke="#000000" d="M 1456 1094 L 2201 1094 L 2201 1152 L 1456 1152 L 1456 1094 Z Z" stroke-miterlimit="10"/></g><g transform="translate(2,-6) scale(1,1)"><g><path fill="none" stroke="none"/><text fill="#000000" stroke="none" font-family="Arial" font-size="13px" font-style="normal" font-weight="normal" text-decoration="none" x="1562.5" y="1116.5">fScore := maxPriority * (float32(maxCountByNodeName-countsByNodeName[node.Name]) /</text><text fill="#000000" stroke="none" font-family="Arial" font-size="13px" font-style="normal" font-weight="normal" text-decoration="none" x="1733.5" y="1129.5">float32(maxCountByNodeName))</text></g></g><g transform="translate(2,-6) scale(1,1)"><path fill="none" stroke="#000000" d="M 1547 1024 L 1547 1094" stroke-miterlimit="10"/></g><g transform="translate(2,-6) scale(1,1)"><path fill="#000000" stroke="none" d="M 1542.7904822439841 1083.837325142376 L 1547 1094 L 1551.2095177560159 1083.837325142376"/></g><g transform="translate(2,-6) scale(1,1)"><path fill="none" stroke="#000000" d="M 1542.7904822439841 1083.837325142376 L 1547 1094 L 1551.2095177560159 1083.837325142376 L 1542.7904822439841 1083.837325142376" stroke-miterlimit="10"/></g><g transform="translate(2,-6) scale(1,1)"><rect fill="#ffffff" stroke="none" x="1456" y="1248" width="637" height="58"/></g><g transform="translate(2,-6) scale(1,1)"><path fill="none" stroke="#000000" d="M 1456 1248 L 2093 1248 L 2093 1306 L 1456 1306 L 1456 1248 Z Z" stroke-miterlimit="10"/></g><g transform="translate(2,-6) scale(1,1)"><g><path fill="none" stroke="none"/><text fill="#000000" stroke="none" font-family="Arial" font-size="13px" font-style="normal" font-weight="normal" text-decoration="none" x="1545" y="1270.5">zoneScore := maxPriority * (float32(maxCountByZone-countsByZone[zoneId]) /</text><text fill="#000000" stroke="none" font-family="Arial" font-size="13px" font-style="normal" font-weight="normal" text-decoration="none" x="1697" y="1283.5">float32(maxCountByZone))</text></g></g><g transform="translate(2,-6) scale(1,1)"><path fill="none" stroke="#000000" d="M 1582 1152 L 1582 1248" stroke-miterlimit="10"/></g><g transform="translate(2,-6) scale(1,1)"><path fill="#000000" stroke="none" d="M 1577.7904822439841 1237.837325142376 L 1582 1248 L 1586.2095177560159 1237.837325142376"/></g><g transform="translate(2,-6) scale(1,1)"><path fill="none" stroke="#000000" d="M 1577.7904822439841 1237.837325142376 L 1582 1248 L 1586.2095177560159 1237.837325142376 L 1577.7904822439841 1237.837325142376" stroke-miterlimit="10"/></g><g transform="translate(2,-6) scale(1,1)"><rect fill="#ffffff" stroke="none" x="1496" y="1360" width="439" height="45"/></g><g transform="translate(2,-6) scale(1,1)"><path fill="none" stroke="#000000" d="M 1496 1360 L 1935 1360 L 1935 1405 L 1496 1405 L 1496 1360 Z Z" stroke-miterlimit="10"/></g><g transform="translate(2,-6) scale(1,1)"><g><path fill="none" stroke="none"/><text fill="#000000" stroke="none" font-family="Arial" font-size="13px" font-style="normal" font-weight="normal" text-decoration="none" x="1540.5" y="1382.5">fScore = (fScore * (1.0 - zoneWeighting)) + (zoneWeighting *</text><text fill="#000000" stroke="none" font-family="Arial" font-size="13px" font-style="normal" font-weight="normal" text-decoration="none" x="1682.5" y="1395.5">zoneScore)</text></g></g><g transform="translate(2,-6) scale(1,1)"><path fill="none" stroke="#000000" d="M 1541 1306 L 1541 1360" stroke-miterlimit="10"/></g><g transform="translate(2,-6) scale(1,1)"><path fill="#000000" stroke="none" d="M 1536.7904822439841 1349.837325142376 L 1541 1360 L 1545.2095177560159 1349.837325142376"/></g><g transform="translate(2,-6) scale(1,1)"><path fill="none" stroke="#000000" d="M 1536.7904822439841 1349.837325142376 L 1541 1360 L 1545.2095177560159 1349.837325142376 L 1536.7904822439841 1349.837325142376" stroke-miterlimit="10"/></g><g transform="translate(2,-6) scale(1,1)"><rect fill="#ffffff" stroke="none" x="1104" y="240" width="211" height="32"/></g><g transform="translate(2,-6) scale(1,1)"><path fill="none" stroke="#000000" d="M 1104 240 L 1315 240 L 1315 272 L 1104 272 L 1104 240 Z Z" stroke-miterlimit="10"/></g><g transform="translate(2,-6) scale(1,1)"><g><path fill="none" stroke="none"/><text fill="#000000" stroke="none" font-family="Arial" font-size="13px" font-style="normal" font-weight="normal" text-decoration="none" x="1115.5" y="262.5">priorities.LeastRequestedPriority</text></g></g><g transform="translate(2,-6) scale(1,1)"><path fill="none" stroke="#000000" d="M 944 368 L 944 256 M 944 256 A 8 8 0 0 1 952 248 L 1104 248" stroke-miterlimit="10"/></g><g transform="translate(2,-6) scale(1,1)"><path fill="#000000" stroke="none" d="M 1093.837325142376 252.209517756016 L 1104 248 L 1093.837325142376 243.790482243984"/></g><g transform="translate(2,-6) scale(1,1)"><path fill="none" stroke="#000000" d="M 1093.837325142376 252.209517756016 L 1104 248 L 1093.837325142376 243.790482243984 L 1093.837325142376 252.209517756016" stroke-miterlimit="10"/></g><g transform="translate(2,-6) scale(1,1)"><rect fill="#ffffff" stroke="none" x="1112" y="352" width="238" height="32"/></g><g transform="translate(2,-6) scale(1,1)"><path fill="none" stroke="#000000" d="M 1112 352 L 1350 352 L 1350 384 L 1112 384 L 1112 352 Z Z" stroke-miterlimit="10"/></g><g transform="translate(2,-6) scale(1,1)"><g><path fill="none" stroke="none"/><text fill="#000000" stroke="none" font-family="Arial" font-size="13px" font-style="normal" font-weight="normal" text-decoration="none" x="1121.5" y="374.5">priorities.BalancedResourceAllocation</text></g></g><g transform="translate(2,-6) scale(1,1)"><path fill="none" stroke="#000000" d="M 1023 368 L 1112 368" stroke-miterlimit="10"/></g><g transform="translate(2,-6) scale(1,1)"><path fill="#000000" stroke="none" d="M 1101.837325142376 372.209517756016 L 1112 368 L 1101.837325142376 363.790482243984"/></g><g transform="translate(2,-6) scale(1,1)"><path fill="none" stroke="#000000" d="M 1101.837325142376 372.209517756016 L 1112 368 L 1101.837325142376 363.790482243984 L 1101.837325142376 372.209517756016" stroke-miterlimit="10"/></g><g transform="translate(2,-6) scale(1,1)"><rect fill="#ffffff" stroke="none" x="1368" y="240" width="192" height="32"/></g><g transform="translate(2,-6) scale(1,1)"><path fill="none" stroke="#000000" d="M 1368 240 L 1560 240 L 1560 272 L 1368 272 L 1368 240 Z Z" stroke-miterlimit="10"/></g><g transform="translate(2,-6) scale(1,1)"><g><path fill="none" stroke="none"/><text fill="#000000" stroke="none" font-family="Arial" font-size="13px" font-style="normal" font-weight="normal" text-decoration="none" x="1377.5" y="262.5">calculateResourceOccupancy</text></g></g><g transform="translate(2,-6) scale(1,1)"><path fill="none" stroke="#000000" d="M 1315 272 L 1368 272" stroke-miterlimit="10"/></g><g transform="translate(2,-6) scale(1,1)"><path fill="#000000" stroke="none" d="M 1357.837325142376 276.209517756016 L 1368 272 L 1357.837325142376 267.790482243984"/></g><g transform="translate(2,-6) scale(1,1)"><path fill="none" stroke="#000000" d="M 1357.837325142376 276.209517756016 L 1368 272 L 1357.837325142376 267.790482243984 L 1357.837325142376 276.209517756016" stroke-miterlimit="10"/></g><g transform="translate(2,-6) scale(1,1)"><path fill="#ffffff" stroke="none" d="M 1056 147 L 1405 147 L 1415 157 L 1415 196 L 1056 196 L 1056 147"/></g><g transform="translate(2,-6) scale(1,1)"><path fill="none" stroke="#000000" d="M 1056 147 L 1405 147 L 1415 157 L 1415 196 L 1056 196 L 1056 147 L 1056 147" stroke-miterlimit="10"/></g><g transform="translate(2,-6) scale(1,1)"><path fill="none" stroke="#000000" d="M 1405 147 L 1405 157 L 1415 157 L 1405 147" stroke-miterlimit="10"/></g><g transform="translate(2,-6) scale(1,1)"><g><path fill="none" stroke="none"/><text fill="#000000" stroke="none" font-family="Arial" font-size="13px" font-style="normal" font-weight="normal" text-decoration="none" x="1061" y="165">cpu((capacity - sum(requested)) * 10 / capacity) +</text><text fill="#000000" stroke="none" font-family="Arial" font-size="13px" font-style="normal" font-weight="normal" text-decoration="none" x="1061" y="178">memory((capacity - sum(requested)) * 10 / capacity) / 2</text></g></g><g transform="translate(2,-6) scale(1,1)"><path fill="none" stroke="#000000" d="M 1214 239 L 1228 198" stroke-miterlimit="10" stroke-dasharray="3"/></g><g transform="translate(2,-6) scale(1,1)"><path fill="#ffffff" stroke="none" d="M 1464 101 L 1749 101 L 1759 111 L 1759 169 L 1464 169 L 1464 101"/></g><g transform="translate(2,-6) scale(1,1)"><path fill="none" stroke="#000000" d="M 1464 101 L 1749 101 L 1759 111 L 1759 169 L 1464 169 L 1464 101 L 1464 101" stroke-miterlimit="10"/></g><g transform="translate(2,-6) scale(1,1)"><path fill="none" stroke="#000000" d="M 1749 101 L 1749 111 L 1759 111 L 1749 101" stroke-miterlimit="10"/></g><g transform="translate(2,-6) scale(1,1)"><g><path fill="none" stroke="none"/><text fill="#000000" stroke="none" font-family="Arial" font-size="13px" font-style="normal" font-weight="normal" text-decoration="none" x="1469" y="119">schedulerapi.HostPriority{</text></g></g><g transform="translate(2,-6) scale(1,1)"><g><path fill="none" stroke="none"/><text fill="#000000" stroke="none" font-family="Arial" font-size="13px" font-style="normal" font-weight="normal" text-decoration="none" x="1469" y="134">		Host:  node.Name,</text></g></g><g transform="translate(2,-6) scale(1,1)"><g><path fill="none" stroke="none"/><text fill="#000000" stroke="none" font-family="Arial" font-size="13px" font-style="normal" font-weight="normal" text-decoration="none" x="1469" y="149">		Score: int((cpuScore + memoryScore) / 2),</text></g></g><g transform="translate(2,-6) scale(1,1)"><g><path fill="none" stroke="none"/><text fill="#000000" stroke="none" font-family="Arial" font-size="13px" font-style="normal" font-weight="normal" text-decoration="none" x="1469" y="164">	}</text></g></g><g transform="translate(2,-6) scale(1,1)"><path fill="none" stroke="#000000" d="M 1485 239 L 1568 171" stroke-miterlimit="10" stroke-dasharray="3"/></g><g transform="translate(2,-6) scale(1,1)"><rect fill="#ffffff" stroke="none" x="1400" y="362" width="232" height="32"/></g><g transform="translate(2,-6) scale(1,1)"><path fill="none" stroke="#000000" d="M 1400 362 L 1632 362 L 1632 394 L 1400 394 L 1400 362 Z Z" stroke-miterlimit="10"/></g><g transform="translate(2,-6) scale(1,1)"><g><path fill="none" stroke="none"/><text fill="#000000" stroke="none" font-family="Arial" font-size="13px" font-style="normal" font-weight="normal" text-decoration="none" x="1412" y="384.5">loat64(requested) / float64(capacity)</text></g></g><g transform="translate(2,-6) scale(1,1)"><path fill="none" stroke="#000000" d="M 1350 384 L 1400 384" stroke-miterlimit="10"/></g><g transform="translate(2,-6) scale(1,1)"><path fill="#000000" stroke="none" d="M 1389.837325142376 388.209517756016 L 1400 384 L 1389.837325142376 379.790482243984"/></g><g transform="translate(2,-6) scale(1,1)"><path fill="none" stroke="#000000" d="M 1389.837325142376 388.209517756016 L 1400 384 L 1389.837325142376 379.790482243984 L 1389.837325142376 388.209517756016" stroke-miterlimit="10"/></g><g transform="translate(2,-6) scale(1,1)"><rect fill="#ffffff" stroke="none" x="1392" y="448" width="280" height="32"/></g><g transform="translate(2,-6) scale(1,1)"><path fill="none" stroke="#000000" d="M 1392 448 L 1672 448 L 1672 480 L 1392 480 L 1392 448 Z Z" stroke-miterlimit="10"/></g><g transform="translate(2,-6) scale(1,1)"><g><path fill="none" stroke="none"/><text fill="#000000" stroke="none" font-family="Arial" font-size="13px" font-style="normal" font-weight="normal" text-decoration="none" x="1413" y="470.5">math.Abs(cpuFraction - memoryFraction)</text></g></g><g transform="translate(2,-6) scale(1,1)"><path fill="none" stroke="#000000" d="M 1494 394 L 1494 448" stroke-miterlimit="10"/></g><g transform="translate(2,-6) scale(1,1)"><path fill="#000000" stroke="none" d="M 1489.7904822439841 437.83732514237585 L 1494 448 L 1498.2095177560159 437.83732514237585"/></g><g transform="translate(2,-6) scale(1,1)"><path fill="none" stroke="#000000" d="M 1489.7904822439841 437.83732514237585 L 1494 448 L 1498.2095177560159 437.83732514237585 L 1489.7904822439841 437.83732514237585" stroke-miterlimit="10"/></g><g transform="translate(2,-6) scale(1,1)"><rect fill="#ffffff" stroke="none" x="568" y="744" width="137" height="32"/></g><g transform="translate(2,-6) scale(1,1)"><path fill="none" stroke="#000000" d="M 568 744 L 705 744 L 705 776 L 568 776 L 568 744 Z Z" stroke-miterlimit="10"/></g><g transform="translate(2,-6) scale(1,1)"><g><path fill="none" stroke="none"/><text fill="#000000" stroke="none" font-family="Arial" font-size="13px" font-style="normal" font-weight="normal" text-decoration="none" x="577.5" y="766.5">RegisterFitPredicate</text></g></g><g transform="translate(2,-6) scale(1,1)"><path fill="none" stroke="#000000" d="M 605 670 L 605 744" stroke-miterlimit="10"/></g><g transform="translate(2,-6) scale(1,1)"><path fill="#000000" stroke="none" d="M 600.790482243984 733.8373251423759 L 605 744 L 609.209517756016 733.8373251423759"/></g><g transform="translate(2,-6) scale(1,1)"><path fill="none" stroke="#000000" d="M 600.790482243984 733.8373251423759 L 605 744 L 609.209517756016 733.8373251423759 L 600.790482243984 733.8373251423759" stroke-miterlimit="10"/></g><g transform="translate(2,-6) scale(1,1)"><rect fill="#ffffff" stroke="none" x="568" y="846" width="186" height="32"/></g><g transform="translate(2,-6) scale(1,1)"><path fill="none" stroke="#000000" d="M 568 846 L 754 846 L 754 878 L 568 878 L 568 846 Z Z" stroke-miterlimit="10"/></g><g transform="translate(2,-6) scale(1,1)"><g><path fill="none" stroke="none"/><text fill="#000000" stroke="none" font-family="Arial" font-size="13px" font-style="normal" font-weight="normal" text-decoration="none" x="577.5" y="868.5">predicates.PodFitsHostPorts</text></g></g><g transform="translate(2,-6) scale(1,1)"><path fill="none" stroke="#000000" d="M 623 776 L 623 846" stroke-miterlimit="10"/></g><g transform="translate(2,-6) scale(1,1)"><path fill="#000000" stroke="none" d="M 618.790482243984 835.8373251423759 L 623 846 L 627.209517756016 835.8373251423759"/></g><g transform="translate(2,-6) scale(1,1)"><path fill="none" stroke="#000000" d="M 618.790482243984 835.8373251423759 L 623 846 L 627.209517756016 835.8373251423759 L 618.790482243984 835.8373251423759" stroke-miterlimit="10"/></g><g transform="translate(2,-6) scale(1,1)"><path fill="#ffffff" stroke="none" d="M 144 776 L 320 776 L 330 786 L 330 812 L 144 812 L 144 776"/></g><g transform="translate(2,-6) scale(1,1)"><path fill="none" stroke="#000000" d="M 144 776 L 320 776 L 330 786 L 330 812 L 144 812 L 144 776 L 144 776" stroke-miterlimit="10"/></g><g transform="translate(2,-6) scale(1,1)"><path fill="none" stroke="#000000" d="M 320 776 L 320 786 L 330 786 L 320 776" stroke-miterlimit="10"/></g><g transform="translate(2,-6) scale(1,1)"><g><path fill="none" stroke="none"/><text fill="#000000" stroke="none" font-family="Arial" font-size="13px" font-style="normal" font-weight="normal" text-decoration="none" x="149" y="794">registered as PodFitsPorts,</text><text fill="#000000" stroke="none" font-family="Arial" font-size="13px" font-style="normal" font-weight="normal" text-decoration="none" x="149" y="807">for 1.0 compatibility</text></g></g><g transform="translate(2,-6) scale(1,1)"><path fill="none" stroke="#000000" d="M 567 847 L 332 809" stroke-miterlimit="10" stroke-dasharray="3"/></g><g transform="translate(2,-6) scale(1,1)"><g><path fill="none" stroke="none"/><text fill="#000000" stroke="none" font-family="Arial" font-size="13px" font-style="normal" font-weight="normal" text-decoration="none" x="13" y="34">An AlgorithmProvier registers functions for predicate and propertize</text></g></g></g></svg>