<svg version="1.1" xmlns="http://www.w3.org/2000/svg" xmlns:xlink="http://www.w3.org/1999/xlink" width="1655" height="2308"><defs/><g><g transform="translate(-70,-30) scale(1,1)"><rect fill="#ffffff" stroke="none" x="863" y="40" width="74" height="32"/></g><g transform="translate(-70,-30) scale(1,1)"><path fill="none" stroke="#000000" d="M 863 40 L 937 40 L 937 72 L 863 72 L 863 40 Z Z" stroke-miterlimit="10"/></g><g transform="translate(-70,-30) scale(1,1)"><g><path fill="none" stroke="none"/><text fill="#000000" stroke="none" font-family="Arial" font-size="13px" font-style="normal" font-weight="normal" text-decoration="none" x="891.5" y="62.5">init</text></g></g><g transform="translate(-70,-30) scale(1,1)"><rect fill="#ffffff" stroke="none" x="863" y="104" width="74" height="32"/></g><g transform="translate(-70,-30) scale(1,1)"><path fill="none" stroke="#000000" d="M 863 104 L 937 104 L 937 136 L 863 136 L 863 104 Z Z" stroke-miterlimit="10"/></g><g transform="translate(-70,-30) scale(1,1)"><g><path fill="none" stroke="none"/><text fill="#000000" stroke="none" font-family="Arial" font-size="13px" font-style="normal" font-weight="normal" text-decoration="none" x="886" y="126.5">main</text></g></g><g transform="translate(-70,-30) scale(1,1)"><path fill="none" stroke="#000000" d="M 896 72 L 896 104" stroke-miterlimit="10"/></g><g transform="translate(-70,-30) scale(1,1)"><path fill="#000000" stroke="none" d="M 891.790482243984 93.83732514237585 L 896 104 L 900.209517756016 93.83732514237585"/></g><g transform="translate(-70,-30) scale(1,1)"><path fill="none" stroke="#000000" d="M 891.790482243984 93.83732514237585 L 896 104 L 900.209517756016 93.83732514237585 L 891.790482243984 93.83732514237585" stroke-miterlimit="10"/></g><g transform="translate(-70,-30) scale(1,1)"><path fill="#ffffff" stroke="none" d="M 976 40 L 1293 40 L 1303 50 L 1303 76 L 976 76 L 976 40"/></g><g transform="translate(-70,-30) scale(1,1)"><path fill="none" stroke="#000000" d="M 976 40 L 1293 40 L 1303 50 L 1303 76 L 976 76 L 976 40 L 976 40" stroke-miterlimit="10"/></g><g transform="translate(-70,-30) scale(1,1)"><path fill="none" stroke="#000000" d="M 1293 40 L 1293 50 L 1303 50 L 1293 40" stroke-miterlimit="10"/></g><g transform="translate(-70,-30) scale(1,1)"><g><path fill="none" stroke="none"/><text fill="#000000" stroke="none" font-family="Arial" font-size="13px" font-style="normal" font-weight="normal" text-decoration="none" x="981" y="58">	mux.Handle(fmt.Sprintf("/healthz/%v", check.Name()),</text><text fill="#000000" stroke="none" font-family="Arial" font-size="13px" font-style="normal" font-weight="normal" text-decoration="none" x="981" y="71">adaptCheckToHandler(check.Check))</text></g></g><g transform="translate(-70,-30) scale(1,1)"><path fill="none" stroke="#000000" d="M 938 56 L 975 57" stroke-miterlimit="10" stroke-dasharray="3"/></g><g transform="translate(-70,-30) scale(1,1)"><rect fill="#ffffff" stroke="none" x="807" y="174" width="186" height="32"/></g><g transform="translate(-70,-30) scale(1,1)"><path fill="none" stroke="#000000" d="M 807 174 L 993 174 L 993 206 L 807 206 L 807 174 Z Z" stroke-miterlimit="10"/></g><g transform="translate(-70,-30) scale(1,1)"><g><path fill="none" stroke="none"/><text fill="#000000" stroke="none" font-family="Arial" font-size="13px" font-style="normal" font-weight="normal" text-decoration="none" x="816.5" y="196.5">options.NewSchedulerServer</text></g></g><g transform="translate(-70,-30) scale(1,1)"><path fill="none" stroke="#000000" d="M 896 136 L 896 174" stroke-miterlimit="10"/></g><g transform="translate(-70,-30) scale(1,1)"><path fill="#000000" stroke="none" d="M 891.790482243984 163.83732514237585 L 896 174 L 900.209517756016 163.83732514237585"/></g><g transform="translate(-70,-30) scale(1,1)"><path fill="none" stroke="#000000" d="M 891.790482243984 163.83732514237585 L 896 174 L 900.209517756016 163.83732514237585 L 891.790482243984 163.83732514237585" stroke-miterlimit="10"/></g><g transform="translate(-70,-30) scale(1,1)"><rect fill="#ffffff" stroke="none" x="863" y="240" width="74" height="32"/></g><g transform="translate(-70,-30) scale(1,1)"><path fill="none" stroke="#000000" d="M 863 240 L 937 240 L 937 272 L 863 272 L 863 240 Z Z" stroke-miterlimit="10"/></g><g transform="translate(-70,-30) scale(1,1)"><g><path fill="none" stroke="none"/><text fill="#000000" stroke="none" font-family="Arial" font-size="13px" font-style="normal" font-weight="normal" text-decoration="none" x="876" y="262.5">app.Run</text></g></g><g transform="translate(-70,-30) scale(1,1)"><path fill="none" stroke="#000000" d="M 896 206 L 896 240" stroke-miterlimit="10"/></g><g transform="translate(-70,-30) scale(1,1)"><path fill="#000000" stroke="none" d="M 891.790482243984 229.83732514237585 L 896 240 L 900.209517756016 229.83732514237585"/></g><g transform="translate(-70,-30) scale(1,1)"><path fill="none" stroke="#000000" d="M 891.790482243984 229.83732514237585 L 896 240 L 900.209517756016 229.83732514237585 L 891.790482243984 229.83732514237585" stroke-miterlimit="10"/></g><g transform="translate(-70,-30) scale(1,1)"><path fill="#ffffff" stroke="none" d="M 1056 160 L 1254 160 L 1264 170 L 1264 209 L 1056 209 L 1056 160"/></g><g transform="translate(-70,-30) scale(1,1)"><path fill="none" stroke="#000000" d="M 1056 160 L 1254 160 L 1264 170 L 1264 209 L 1056 209 L 1056 160 L 1056 160" stroke-miterlimit="10"/></g><g transform="translate(-70,-30) scale(1,1)"><path fill="none" stroke="#000000" d="M 1254 160 L 1254 170 L 1264 170 L 1254 160" stroke-miterlimit="10"/></g><g transform="translate(-70,-30) scale(1,1)"><g><path fill="none" stroke="none"/><text fill="#000000" stroke="none" font-family="Arial" font-size="13px" font-style="normal" font-weight="normal" text-decoration="none" x="1061" y="178">port, address, algorithmProvider,</text><text fill="#000000" stroke="none" font-family="Arial" font-size="13px" font-style="normal" font-weight="normal" text-decoration="none" x="1061" y="191">QPS,Burst, Scheduler,</text><text fill="#000000" stroke="none" font-family="Arial" font-size="13px" font-style="normal" font-weight="normal" text-decoration="none" x="1061" y="204">LeaderElection</text></g></g><g transform="translate(-70,-30) scale(1,1)"><path fill="none" stroke="#000000" d="M 994 188 L 1055 187" stroke-miterlimit="10" stroke-dasharray="3"/></g><g transform="translate(-70,-30) scale(1,1)"><rect fill="#ffffff" stroke="none" x="848" y="304" width="147" height="32"/></g><g transform="translate(-70,-30) scale(1,1)"><path fill="none" stroke="#000000" d="M 848 304 L 995 304 L 995 336 L 848 336 L 848 304 Z Z" stroke-miterlimit="10"/></g><g transform="translate(-70,-30) scale(1,1)"><g><path fill="none" stroke="none"/><text fill="#000000" stroke="none" font-family="Arial" font-size="13px" font-style="normal" font-weight="normal" text-decoration="none" x="857.5" y="326.5">BuildConfigFromFlags</text></g></g><g transform="translate(-70,-30) scale(1,1)"><path fill="none" stroke="#000000" d="M 893 272 L 893 304" stroke-miterlimit="10"/></g><g transform="translate(-70,-30) scale(1,1)"><path fill="#000000" stroke="none" d="M 888.790482243984 293.83732514237585 L 893 304 L 897.209517756016 293.83732514237585"/></g><g transform="translate(-70,-30) scale(1,1)"><path fill="none" stroke="#000000" d="M 888.790482243984 293.83732514237585 L 893 304 L 897.209517756016 293.83732514237585 L 888.790482243984 293.83732514237585" stroke-miterlimit="10"/></g><g transform="translate(-70,-30) scale(1,1)"><rect fill="#ffffff" stroke="none" x="832" y="432" width="150" height="32"/></g><g transform="translate(-70,-30) scale(1,1)"><path fill="none" stroke="#000000" d="M 832 432 L 982 432 L 982 464 L 832 464 L 832 432 Z Z" stroke-miterlimit="10"/></g><g transform="translate(-70,-30) scale(1,1)"><g><path fill="none" stroke="none"/><text fill="#000000" stroke="none" font-family="Arial" font-size="13px" font-style="normal" font-weight="normal" text-decoration="none" x="841.5" y="454.5">client.New(kubeconfig)</text></g></g><g transform="translate(-70,-30) scale(1,1)"><path fill="none" stroke="#000000" d="M 907 392 L 907 432" stroke-miterlimit="10"/></g><g transform="translate(-70,-30) scale(1,1)"><path fill="#000000" stroke="none" d="M 902.790482243984 421.83732514237585 L 907 432 L 911.209517756016 421.83732514237585"/></g><g transform="translate(-70,-30) scale(1,1)"><path fill="none" stroke="#000000" d="M 902.790482243984 421.83732514237585 L 907 432 L 911.209517756016 421.83732514237585 L 902.790482243984 421.83732514237585" stroke-miterlimit="10"/></g><g transform="translate(-70,-30) scale(1,1)"><rect fill="#ffffff" stroke="none" x="832" y="360" width="152" height="32"/></g><g transform="translate(-70,-30) scale(1,1)"><path fill="none" stroke="#000000" d="M 832 360 L 984 360 L 984 392 L 832 392 L 832 360 Z Z" stroke-miterlimit="10"/></g><g transform="translate(-70,-30) scale(1,1)"><g><path fill="none" stroke="none"/><text fill="#000000" stroke="none" font-family="Arial" font-size="13px" font-style="normal" font-weight="normal" text-decoration="none" x="853" y="382.5">set QPS and Burst</text></g></g><g transform="translate(-70,-30) scale(1,1)"><path fill="none" stroke="#000000" d="M 937 336 L 937 360" stroke-miterlimit="10"/></g><g transform="translate(-70,-30) scale(1,1)"><path fill="#000000" stroke="none" d="M 932.790482243984 349.83732514237585 L 937 360 L 941.209517756016 349.83732514237585"/></g><g transform="translate(-70,-30) scale(1,1)"><path fill="none" stroke="#000000" d="M 932.790482243984 349.83732514237585 L 937 360 L 941.209517756016 349.83732514237585 L 932.790482243984 349.83732514237585" stroke-miterlimit="10"/></g><g transform="translate(-70,-30) scale(1,1)"><rect fill="#ffffff" stroke="none" x="1024" y="416" width="151" height="32"/></g><g transform="translate(-70,-30) scale(1,1)"><path fill="none" stroke="#000000" d="M 1024 416 L 1175 416 L 1175 448 L 1024 448 L 1024 416 Z Z" stroke-miterlimit="10"/></g><g transform="translate(-70,-30) scale(1,1)"><g><path fill="none" stroke="none"/><text fill="#000000" stroke="none" font-family="Arial" font-size="13px" font-style="normal" font-weight="normal" text-decoration="none" x="1033.5" y="438.5">server.ListenAndServe</text></g></g><g transform="translate(-70,-30) scale(1,1)"><path fill="none" stroke="#000000" d="M 982 464 L 1016 464 M 1016 464 A 8 8 0 0 0 1024 456 L 1024 448" stroke-miterlimit="10"/></g><g transform="translate(-70,-30) scale(1,1)"><path fill="#000000" stroke="none" d="M 1028.2095177560159 458.16267485762415 L 1024 448 L 1019.790482243984 458.16267485762415"/></g><g transform="translate(-70,-30) scale(1,1)"><path fill="none" stroke="#000000" d="M 1028.2095177560159 458.16267485762415 L 1024 448 L 1019.790482243984 458.16267485762415 L 1028.2095177560159 458.16267485762415" stroke-miterlimit="10"/></g><g transform="translate(-70,-30) scale(1,1)"><rect fill="#ffffff" stroke="none" x="840" y="504" width="125" height="32"/></g><g transform="translate(-70,-30) scale(1,1)"><path fill="none" stroke="#000000" d="M 840 504 L 965 504 L 965 536 L 840 536 L 840 504 Z Z" stroke-miterlimit="10"/></g><g transform="translate(-70,-30) scale(1,1)"><g><path fill="none" stroke="none"/><text fill="#000000" stroke="none" font-family="Arial" font-size="13px" font-style="normal" font-weight="normal" text-decoration="none" x="849.5" y="526.5">NewConfigFactory</text></g></g><g transform="translate(-70,-30) scale(1,1)"><path fill="none" stroke="#000000" d="M 912 464 L 912 504" stroke-miterlimit="10"/></g><g transform="translate(-70,-30) scale(1,1)"><path fill="#000000" stroke="none" d="M 907.790482243984 493.83732514237585 L 912 504 L 916.209517756016 493.83732514237585"/></g><g transform="translate(-70,-30) scale(1,1)"><path fill="none" stroke="#000000" d="M 907.790482243984 493.83732514237585 L 912 504 L 916.209517756016 493.83732514237585 L 907.790482243984 493.83732514237585" stroke-miterlimit="10"/></g><g transform="translate(-70,-30) scale(1,1)"><rect fill="#ffffff" stroke="none" x="864" y="568" width="100" height="32"/></g><g transform="translate(-70,-30) scale(1,1)"><path fill="none" stroke="#000000" d="M 864 568 L 964 568 L 964 600 L 864 600 L 864 568 Z Z" stroke-miterlimit="10"/></g><g transform="translate(-70,-30) scale(1,1)"><g><path fill="none" stroke="none"/><text fill="#000000" stroke="none" font-family="Arial" font-size="13px" font-style="normal" font-weight="normal" text-decoration="none" x="873.5" y="590.5">ConfigFactory</text></g></g><g transform="translate(-70,-30) scale(1,1)"><path fill="none" stroke="#000000" d="M 890 536 L 890 568" stroke-miterlimit="10"/></g><g transform="translate(-70,-30) scale(1,1)"><path fill="#000000" stroke="none" d="M 885.790482243984 557.8373251423759 L 890 568 L 894.209517756016 557.8373251423759"/></g><g transform="translate(-70,-30) scale(1,1)"><path fill="none" stroke="#000000" d="M 885.790482243984 557.8373251423759 L 890 568 L 894.209517756016 557.8373251423759 L 885.790482243984 557.8373251423759" stroke-miterlimit="10"/></g><g transform="translate(-70,-30) scale(1,1)"><path fill="#ffffff" stroke="none" d="M 1056 480 L 1285 480 L 1295 490 L 1295 555 L 1056 555 L 1056 480"/></g><g transform="translate(-70,-30) scale(1,1)"><path fill="none" stroke="#000000" d="M 1056 480 L 1285 480 L 1295 490 L 1295 555 L 1056 555 L 1056 480 L 1056 480" stroke-miterlimit="10"/></g><g transform="translate(-70,-30) scale(1,1)"><path fill="none" stroke="#000000" d="M 1285 480 L 1285 490 L 1295 490 L 1285 480" stroke-miterlimit="10"/></g><g transform="translate(-70,-30) scale(1,1)"><g><path fill="none" stroke="none"/><text fill="#000000" stroke="none" font-family="Arial" font-size="13px" font-style="normal" font-weight="normal" text-decoration="none" x="1061" y="498">Client, PodQueue, ScheduledPodLister,</text><text fill="#000000" stroke="none" font-family="Arial" font-size="13px" font-style="normal" font-weight="normal" text-decoration="none" x="1061" y="511">NodeLister, PVLister, PVCLister,</text><text fill="#000000" stroke="none" font-family="Arial" font-size="13px" font-style="normal" font-weight="normal" text-decoration="none" x="1061" y="524">ServiceLister, ControllerLister,</text><text fill="#000000" stroke="none" font-family="Arial" font-size="13px" font-style="normal" font-weight="normal" text-decoration="none" x="1061" y="537">StopEverything, SchedulerName</text></g></g><g transform="translate(-70,-30) scale(1,1)"><path fill="none" stroke="#000000" d="M 965 571 L 1055 548" stroke-miterlimit="10" stroke-dasharray="3"/></g><g transform="translate(-70,-30) scale(1,1)"><rect fill="#ffffff" stroke="none" x="1024" y="568" width="190" height="32"/></g><g transform="translate(-70,-30) scale(1,1)"><path fill="none" stroke="#000000" d="M 1024 568 L 1214 568 L 1214 600 L 1024 600 L 1024 568 Z Z" stroke-miterlimit="10"/></g><g transform="translate(-70,-30) scale(1,1)"><g><path fill="none" stroke="none"/><text fill="#000000" stroke="none" font-family="Arial" font-size="13px" font-style="normal" font-weight="normal" text-decoration="none" x="1033.5" y="590.5">scheduler.NewSimpleModeler</text></g></g><g transform="translate(-70,-30) scale(1,1)"><path fill="none" stroke="#000000" d="M 964 584 L 1024 584" stroke-miterlimit="10"/></g><g transform="translate(-70,-30) scale(1,1)"><path fill="#000000" stroke="none" d="M 1013.8373251423759 588.209517756016 L 1024 584 L 1013.8373251423758 579.790482243984"/></g><g transform="translate(-70,-30) scale(1,1)"><path fill="none" stroke="#000000" d="M 1013.8373251423759 588.209517756016 L 1024 584 L 1013.8373251423758 579.790482243984 L 1013.8373251423759 588.209517756016" stroke-miterlimit="10"/></g><g transform="translate(-70,-30) scale(1,1)"><rect fill="#ffffff" stroke="none" x="1032" y="680" width="156" height="32"/></g><g transform="translate(-70,-30) scale(1,1)"><path fill="none" stroke="#000000" d="M 1032 680 L 1188 680 L 1188 712 L 1032 712 L 1032 680 Z Z" stroke-miterlimit="10"/></g><g transform="translate(-70,-30) scale(1,1)"><g><path fill="none" stroke="none"/><text fill="#000000" stroke="none" font-family="Arial" font-size="13px" font-style="normal" font-weight="normal" text-decoration="none" x="1041.5" y="702.5">framework.NewInformer</text></g></g><g transform="translate(-70,-30) scale(1,1)"><path fill="none" stroke="#000000" d="M 1110 600 L 1110 680" stroke-miterlimit="10"/></g><g transform="translate(-70,-30) scale(1,1)"><path fill="#000000" stroke="none" d="M 1105.7904822439841 669.8373251423759 L 1110 680 L 1114.2095177560159 669.8373251423759"/></g><g transform="translate(-70,-30) scale(1,1)"><path fill="none" stroke="#000000" d="M 1105.7904822439841 669.8373251423759 L 1110 680 L 1114.2095177560159 669.8373251423759 L 1105.7904822439841 669.8373251423759" stroke-miterlimit="10"/></g><g transform="translate(-70,-30) scale(1,1)"><rect fill="#ffffff" stroke="none" x="1232" y="672" width="239" height="32"/></g><g transform="translate(-70,-30) scale(1,1)"><path fill="none" stroke="#000000" d="M 1232 672 L 1471 672 L 1471 704 L 1232 704 L 1232 672 Z Z" stroke-miterlimit="10"/></g><g transform="translate(-70,-30) scale(1,1)"><g><path fill="none" stroke="none"/><text fill="#000000" stroke="none" font-family="Arial" font-size="13px" font-style="normal" font-weight="normal" text-decoration="none" x="1241.5" y="694.5">createAssignedNonTerminatedPodLW</text></g></g><g transform="translate(-70,-30) scale(1,1)"><path fill="none" stroke="#000000" d="M 1188 696 L 1232 696" stroke-miterlimit="10"/></g><g transform="translate(-70,-30) scale(1,1)"><path fill="#000000" stroke="none" d="M 1221.837325142376 700.209517756016 L 1232 696 L 1221.837325142376 691.790482243984"/></g><g transform="translate(-70,-30) scale(1,1)"><path fill="none" stroke="#000000" d="M 1221.837325142376 700.209517756016 L 1232 696 L 1221.837325142376 691.790482243984 L 1221.837325142376 700.209517756016" stroke-miterlimit="10"/></g><g transform="translate(-70,-30) scale(1,1)"><path fill="#ffffff" stroke="none" d="M 1248 736 L 1456 736 L 1466 746 L 1466 785 L 1248 785 L 1248 736"/></g><g transform="translate(-70,-30) scale(1,1)"><path fill="none" stroke="#000000" d="M 1248 736 L 1456 736 L 1466 746 L 1466 785 L 1248 785 L 1248 736 L 1248 736" stroke-miterlimit="10"/></g><g transform="translate(-70,-30) scale(1,1)"><path fill="none" stroke="#000000" d="M 1456 736 L 1456 746 L 1466 746 L 1456 736" stroke-miterlimit="10"/></g><g transform="translate(-70,-30) scale(1,1)"><g><path fill="none" stroke="none"/><text fill="#000000" stroke="none" font-family="Arial" font-size="13px" font-style="normal" font-weight="normal" text-decoration="none" x="1253" y="754">spec.nodeName!="",</text><text fill="#000000" stroke="none" font-family="Arial" font-size="13px" font-style="normal" font-weight="normal" text-decoration="none" x="1253" y="767">status.phase!=api.PodSucceeded,</text><text fill="#000000" stroke="none" font-family="Arial" font-size="13px" font-style="normal" font-weight="normal" text-decoration="none" x="1253" y="780">status.phase!=api.PodFailed</text></g></g><g transform="translate(-70,-30) scale(1,1)"><path fill="none" stroke="#000000" d="M 1352 705 L 1355 735" stroke-miterlimit="10" stroke-dasharray="3"/></g><g transform="translate(-70,-30) scale(1,1)"><rect fill="#ffffff" stroke="none" x="1256" y="848" width="188" height="32"/></g><g transform="translate(-70,-30) scale(1,1)"><path fill="none" stroke="#000000" d="M 1256 848 L 1444 848 L 1444 880 L 1256 880 L 1256 848 Z Z" stroke-miterlimit="10"/></g><g transform="translate(-70,-30) scale(1,1)"><g><path fill="none" stroke="none"/><text fill="#000000" stroke="none" font-family="Arial" font-size="13px" font-style="normal" font-weight="normal" text-decoration="none" x="1265.5" y="870.5">ResourceEventHandlerFuncs</text></g></g><g transform="translate(-70,-30) scale(1,1)"><path fill="none" stroke="#000000" d="M 1188 692 L 1192 692 M 1192 692 A 8 8 0 0 1 1200 700 L 1200 840 M 1200 840 A 8 8 0 0 0 1208 848 L 1256 848" stroke-miterlimit="10"/></g><g transform="translate(-70,-30) scale(1,1)"><path fill="#000000" stroke="none" d="M 1245.837325142376 852.209517756016 L 1256 848 L 1245.837325142376 843.790482243984"/></g><g transform="translate(-70,-30) scale(1,1)"><path fill="none" stroke="#000000" d="M 1245.837325142376 852.209517756016 L 1256 848 L 1245.837325142376 843.790482243984 L 1245.837325142376 852.209517756016" stroke-miterlimit="10"/></g><g transform="translate(-70,-30) scale(1,1)"><rect fill="#ffffff" stroke="none" x="1232" y="904" width="74" height="32"/></g><g transform="translate(-70,-30) scale(1,1)"><path fill="none" stroke="#000000" d="M 1232 904 L 1306 904 L 1306 936 L 1232 936 L 1232 904 Z Z" stroke-miterlimit="10"/></g><g transform="translate(-70,-30) scale(1,1)"><g><path fill="none" stroke="none"/><text fill="#000000" stroke="none" font-family="Arial" font-size="13px" font-style="normal" font-weight="normal" text-decoration="none" x="1243" y="926.5">AddFunc</text></g></g><g transform="translate(-70,-30) scale(1,1)"><path fill="none" stroke="#000000" d="M 1332 880 L 1332 912 M 1332 912 A 8 8 0 0 1 1324 920 L 1306 920" stroke-miterlimit="10"/></g><g transform="translate(-70,-30) scale(1,1)"><path fill="#000000" stroke="none" d="M 1316.162674857624 915.790482243984 L 1306 920 L 1316.162674857624 924.209517756016"/></g><g transform="translate(-70,-30) scale(1,1)"><path fill="none" stroke="#000000" d="M 1316.162674857624 915.790482243984 L 1306 920 L 1316.162674857624 924.209517756016 L 1316.162674857624 915.790482243984" stroke-miterlimit="10"/></g><g transform="translate(-70,-30) scale(1,1)"><rect fill="#ffffff" stroke="none" x="1408" y="904" width="85" height="32"/></g><g transform="translate(-70,-30) scale(1,1)"><path fill="none" stroke="#000000" d="M 1408 904 L 1493 904 L 1493 936 L 1408 936 L 1408 904 Z Z" stroke-miterlimit="10"/></g><g transform="translate(-70,-30) scale(1,1)"><g><path fill="none" stroke="none"/><text fill="#000000" stroke="none" font-family="Arial" font-size="13px" font-style="normal" font-weight="normal" text-decoration="none" x="1417.5" y="926.5">DeleteFunc</text></g></g><g transform="translate(-70,-30) scale(1,1)"><path fill="none" stroke="#000000" d="M 1349 880 L 1349 912 M 1349 912 A 8 8 0 0 0 1357 920 L 1408 920" stroke-miterlimit="10"/></g><g transform="translate(-70,-30) scale(1,1)"><path fill="#000000" stroke="none" d="M 1397.837325142376 924.209517756016 L 1408 920 L 1397.837325142376 915.790482243984"/></g><g transform="translate(-70,-30) scale(1,1)"><path fill="none" stroke="#000000" d="M 1397.837325142376 924.209517756016 L 1408 920 L 1397.837325142376 915.790482243984 L 1397.837325142376 924.209517756016" stroke-miterlimit="10"/></g><g transform="translate(-70,-30) scale(1,1)"><rect fill="#ffffff" stroke="none" x="1312" y="992" width="79" height="32"/></g><g transform="translate(-70,-30) scale(1,1)"><path fill="none" stroke="#000000" d="M 1312 992 L 1391 992 L 1391 1024 L 1312 1024 L 1312 992 Z Z" stroke-miterlimit="10"/></g><g transform="translate(-70,-30) scale(1,1)"><g><path fill="none" stroke="none"/><text fill="#000000" stroke="none" font-family="Arial" font-size="13px" font-style="normal" font-weight="normal" text-decoration="none" x="1321.5" y="1014.5">ForgetPod</text></g></g><g transform="translate(-70,-30) scale(1,1)"><path fill="none" stroke="#000000" d="M 1456 936 L 1456 1000 M 1456 1000 A 8 8 0 0 1 1448 1008 L 1391 1008" stroke-miterlimit="10"/></g><g transform="translate(-70,-30) scale(1,1)"><path fill="#000000" stroke="none" d="M 1401.162674857624 1003.790482243984 L 1391 1008 L 1401.162674857624 1012.209517756016"/></g><g transform="translate(-70,-30) scale(1,1)"><path fill="none" stroke="#000000" d="M 1401.162674857624 1003.790482243984 L 1391 1008 L 1401.162674857624 1012.209517756016 L 1401.162674857624 1003.790482243984" stroke-miterlimit="10"/></g><g transform="translate(-70,-30) scale(1,1)"><path fill="none" stroke="#000000" d="M 1261 936 L 1261 1000 M 1261 1000 A 8 8 0 0 0 1269 1008 L 1312 1008" stroke-miterlimit="10"/></g><g transform="translate(-70,-30) scale(1,1)"><path fill="#000000" stroke="none" d="M 1301.837325142376 1012.209517756016 L 1312 1008 L 1301.837325142376 1003.790482243984"/></g><g transform="translate(-70,-30) scale(1,1)"><path fill="none" stroke="#000000" d="M 1301.837325142376 1012.209517756016 L 1312 1008 L 1301.837325142376 1003.790482243984 L 1301.837325142376 1012.209517756016" stroke-miterlimit="10"/></g><g transform="translate(-70,-30) scale(1,1)"><rect fill="#ffffff" stroke="none" x="872" y="760" width="92" height="32"/></g><g transform="translate(-70,-30) scale(1,1)"><path fill="none" stroke="#000000" d="M 872 760 L 964 760 L 964 792 L 872 792 L 872 760 Z Z" stroke-miterlimit="10"/></g><g transform="translate(-70,-30) scale(1,1)"><g><path fill="none" stroke="none"/><text fill="#000000" stroke="none" font-family="Arial" font-size="13px" font-style="normal" font-weight="normal" text-decoration="none" x="881.5" y="782.5">createConfig</text></g></g><g transform="translate(-70,-30) scale(1,1)"><path fill="none" stroke="#000000" d="M 917 600 L 917 760" stroke-miterlimit="10"/></g><g transform="translate(-70,-30) scale(1,1)"><path fill="#000000" stroke="none" d="M 912.790482243984 749.8373251423759 L 917 760 L 921.209517756016 749.8373251423759"/></g><g transform="translate(-70,-30) scale(1,1)"><path fill="none" stroke="#000000" d="M 912.790482243984 749.8373251423759 L 917 760 L 921.209517756016 749.8373251423759 L 912.790482243984 749.8373251423759" stroke-miterlimit="10"/></g><g transform="translate(-70,-30) scale(1,1)"><path fill="#ffffff" stroke="none" d="M 1056 328 L 1309 328 L 1319 338 L 1319 364 L 1056 364 L 1056 328"/></g><g transform="translate(-70,-30) scale(1,1)"><path fill="none" stroke="#000000" d="M 1056 328 L 1309 328 L 1319 338 L 1319 364 L 1056 364 L 1056 328 L 1056 328" stroke-miterlimit="10"/></g><g transform="translate(-70,-30) scale(1,1)"><path fill="none" stroke="#000000" d="M 1309 328 L 1309 338 L 1319 338 L 1309 328" stroke-miterlimit="10"/></g><g transform="translate(-70,-30) scale(1,1)"><g><path fill="none" stroke="none"/><text fill="#000000" stroke="none" font-family="Arial" font-size="13px" font-style="normal" font-weight="normal" text-decoration="none" x="1061" y="346">query per second, to set the limit of rest api</text><text fill="#000000" stroke="none" font-family="Arial" font-size="13px" font-style="normal" font-weight="normal" text-decoration="none" x="1061" y="359">accepting concurrent request</text></g></g><g transform="translate(-70,-30) scale(1,1)"><path fill="none" stroke="#000000" d="M 985 368 L 1055 360" stroke-miterlimit="10" stroke-dasharray="3"/></g><g transform="translate(-70,-30) scale(1,1)"><rect fill="#ffffff" stroke="none" x="416" y="758" width="214" height="32"/></g><g transform="translate(-70,-30) scale(1,1)"><path fill="none" stroke="#000000" d="M 416 758 L 630 758 L 630 790 L 416 790 L 416 758 Z Z" stroke-miterlimit="10"/></g><g transform="translate(-70,-30) scale(1,1)"><g><path fill="none" stroke="none"/><text fill="#000000" stroke="none" font-family="Arial" font-size="13px" font-style="normal" font-weight="normal" text-decoration="none" x="425.5" y="780.5">ioutil.ReadFile(s.PolicyConfigFile)</text></g></g><g transform="translate(-70,-30) scale(1,1)"><path fill="none" stroke="#000000" d="M 872 774 L 630 774" stroke-miterlimit="10"/></g><g transform="translate(-70,-30) scale(1,1)"><path fill="#000000" stroke="none" d="M 640.1626748576241 769.790482243984 L 630 774 L 640.1626748576241 778.209517756016"/></g><g transform="translate(-70,-30) scale(1,1)"><path fill="none" stroke="#000000" d="M 640.1626748576241 769.790482243984 L 630 774 L 640.1626748576241 778.209517756016 L 640.1626748576241 769.790482243984" stroke-miterlimit="10"/></g><g transform="translate(-70,-30) scale(1,1)"><path fill="#ffffff" stroke="none" d="M 496 857.5 L 579.5 832 L 663 857.5 L 579.5 883 L 496 857.5"/></g><g transform="translate(-70,-30) scale(1,1)"><path fill="none" stroke="#000000" d="M 496 857.5 L 579.5 832 L 663 857.5 L 579.5 883 L 496 857.5 L 496 857.5" stroke-miterlimit="10"/></g><g transform="translate(-70,-30) scale(1,1)"><g><path fill="none" stroke="none"/><text fill="#000000" stroke="none" font-family="Arial" font-size="13px" font-style="normal" font-weight="normal" text-decoration="none" x="567.5" y="857.5">load</text><text fill="#000000" stroke="none" font-family="Arial" font-size="13px" font-style="normal" font-weight="normal" text-decoration="none" x="551.5" y="870.5">success?</text></g></g><g transform="translate(-70,-30) scale(1,1)"><rect fill="#ffffff" stroke="none" x="424" y="936" width="127" height="32"/></g><g transform="translate(-70,-30) scale(1,1)"><path fill="none" stroke="#000000" d="M 424 936 L 551 936 L 551 968 L 424 968 L 424 936 Z Z" stroke-miterlimit="10"/></g><g transform="translate(-70,-30) scale(1,1)"><g><path fill="none" stroke="none"/><text fill="#000000" stroke="none" font-family="Arial" font-size="13px" font-style="normal" font-weight="normal" text-decoration="none" x="433.5" y="958.5">DecodeInto(policy)</text></g></g><g transform="translate(-70,-30) scale(1,1)"><path fill="none" stroke="#000000" d="M 536 883 L 536 936" stroke-miterlimit="10"/></g><g transform="translate(-70,-30) scale(1,1)"><path fill="#000000" stroke="none" d="M 531.790482243984 925.8373251423759 L 536 936 L 540.209517756016 925.8373251423759"/></g><g transform="translate(-70,-30) scale(1,1)"><path fill="none" stroke="#000000" d="M 531.790482243984 925.8373251423759 L 536 936 L 540.209517756016 925.8373251423759 L 531.790482243984 925.8373251423759" stroke-miterlimit="10"/></g><g transform="translate(-70,-30) scale(1,1)"><rect fill="#ffffff" stroke="none" x="616" y="928" width="143" height="32"/></g><g transform="translate(-70,-30) scale(1,1)"><path fill="none" stroke="#000000" d="M 616 928 L 759 928 L 759 960 L 616 960 L 616 928 Z Z" stroke-miterlimit="10"/></g><g transform="translate(-70,-30) scale(1,1)"><g><path fill="none" stroke="none"/><text fill="#000000" stroke="none" font-family="Arial" font-size="13px" font-style="normal" font-weight="normal" text-decoration="none" x="625.5" y="950.5">GetAlgorithmProvider</text></g></g><g transform="translate(-70,-30) scale(1,1)"><path fill="none" stroke="#000000" d="M 560 883 L 560 945 M 560 945 A 8 8 0 0 0 568 953 L 616 953" stroke-miterlimit="10"/></g><g transform="translate(-70,-30) scale(1,1)"><path fill="#000000" stroke="none" d="M 605.8373251423759 957.209517756016 L 616 953 L 605.8373251423758 948.790482243984"/></g><g transform="translate(-70,-30) scale(1,1)"><path fill="none" stroke="#000000" d="M 605.8373251423759 957.209517756016 L 616 953 L 605.8373251423758 948.790482243984 L 605.8373251423759 957.209517756016" stroke-miterlimit="10"/></g><g transform="translate(-70,-30) scale(1,1)"><path fill="none" stroke="#000000" d="M 529 790 L 529 832" stroke-miterlimit="10"/></g><g transform="translate(-70,-30) scale(1,1)"><path fill="#000000" stroke="none" d="M 524.790482243984 821.8373251423759 L 529 832 L 533.209517756016 821.8373251423759"/></g><g transform="translate(-70,-30) scale(1,1)"><path fill="none" stroke="#000000" d="M 524.790482243984 821.8373251423759 L 529 832 L 533.209517756016 821.8373251423759 L 524.790482243984 821.8373251423759" stroke-miterlimit="10"/></g><g transform="translate(-70,-30) scale(1,1)"><rect fill="#ffffff" stroke="none" x="424" y="1038" width="207" height="32"/></g><g transform="translate(-70,-30) scale(1,1)"><path fill="none" stroke="#000000" d="M 424 1038 L 631 1038 L 631 1070 L 424 1070 L 424 1038 Z Z" stroke-miterlimit="10"/></g><g transform="translate(-70,-30) scale(1,1)"><g><path fill="none" stroke="none"/><text fill="#000000" stroke="none" font-family="Arial" font-size="13px" font-style="normal" font-weight="normal" text-decoration="none" x="433.5" y="1060.5">configFactory.CreateFromConfig</text></g></g><g transform="translate(-70,-30) scale(1,1)"><path fill="none" stroke="#000000" d="M 475 968 L 475 1038" stroke-miterlimit="10"/></g><g transform="translate(-70,-30) scale(1,1)"><path fill="#000000" stroke="none" d="M 470.790482243984 1027.837325142376 L 475 1038 L 479.209517756016 1027.837325142376"/></g><g transform="translate(-70,-30) scale(1,1)"><path fill="none" stroke="#000000" d="M 470.790482243984 1027.837325142376 L 475 1038 L 479.209517756016 1027.837325142376 L 470.790482243984 1027.837325142376" stroke-miterlimit="10"/></g><g transform="translate(-70,-30) scale(1,1)"><rect fill="#ffffff" stroke="none" x="664" y="1030" width="218" height="32"/></g><g transform="translate(-70,-30) scale(1,1)"><path fill="none" stroke="#000000" d="M 664 1030 L 882 1030 L 882 1062 L 664 1062 L 664 1030 Z Z" stroke-miterlimit="10"/></g><g transform="translate(-70,-30) scale(1,1)"><g><path fill="none" stroke="none"/><text fill="#000000" stroke="none" font-family="Arial" font-size="13px" font-style="normal" font-weight="normal" text-decoration="none" x="673.5" y="1052.5">configFactory.CreateFromProvider</text></g></g><g transform="translate(-70,-30) scale(1,1)"><path fill="none" stroke="#000000" d="M 673 960 L 673 1030" stroke-miterlimit="10"/></g><g transform="translate(-70,-30) scale(1,1)"><path fill="#000000" stroke="none" d="M 668.790482243984 1019.8373251423759 L 673 1030 L 677.209517756016 1019.8373251423759"/></g><g transform="translate(-70,-30) scale(1,1)"><path fill="none" stroke="#000000" d="M 668.790482243984 1019.8373251423759 L 673 1030 L 677.209517756016 1019.8373251423759 L 668.790482243984 1019.8373251423759" stroke-miterlimit="10"/></g><g transform="translate(-70,-30) scale(1,1)"><rect fill="#ffffff" stroke="none" x="424" y="1136" width="352" height="32"/></g><g transform="translate(-70,-30) scale(1,1)"><path fill="none" stroke="#000000" d="M 424 1136 L 776 1136 L 776 1168 L 424 1168 L 424 1136 Z Z" stroke-miterlimit="10"/></g><g transform="translate(-70,-30) scale(1,1)"><g><path fill="none" stroke="none"/><text fill="#000000" stroke="none" font-family="Arial" font-size="13px" font-style="normal" font-weight="normal" text-decoration="none" x="509" y="1158.5">get predicateKeys, priorityKeys</text></g></g><g transform="translate(-70,-30) scale(1,1)"><path fill="none" stroke="#000000" d="M 507 1070 L 507 1136" stroke-miterlimit="10"/></g><g transform="translate(-70,-30) scale(1,1)"><path fill="#000000" stroke="none" d="M 502.790482243984 1125.837325142376 L 507 1136 L 511.209517756016 1125.837325142376"/></g><g transform="translate(-70,-30) scale(1,1)"><path fill="none" stroke="#000000" d="M 502.790482243984 1125.837325142376 L 507 1136 L 511.209517756016 1125.837325142376 L 502.790482243984 1125.837325142376" stroke-miterlimit="10"/></g><g transform="translate(-70,-30) scale(1,1)"><path fill="none" stroke="#000000" d="M 750 1062 L 750 1136" stroke-miterlimit="10"/></g><g transform="translate(-70,-30) scale(1,1)"><path fill="#000000" stroke="none" d="M 745.790482243984 1125.837325142376 L 750 1136 L 754.209517756016 1125.837325142376"/></g><g transform="translate(-70,-30) scale(1,1)"><path fill="none" stroke="#000000" d="M 745.790482243984 1125.837325142376 L 750 1136 L 754.209517756016 1125.837325142376 L 745.790482243984 1125.837325142376" stroke-miterlimit="10"/></g><g transform="translate(-70,-30) scale(1,1)"><rect fill="#ffffff" stroke="none" x="488" y="1238" width="117" height="32"/></g><g transform="translate(-70,-30) scale(1,1)"><path fill="none" stroke="#000000" d="M 488 1238 L 605 1238 L 605 1270 L 488 1270 L 488 1238 Z Z" stroke-miterlimit="10"/></g><g transform="translate(-70,-30) scale(1,1)"><g><path fill="none" stroke="none"/><text fill="#000000" stroke="none" font-family="Arial" font-size="13px" font-style="normal" font-weight="normal" text-decoration="none" x="497.5" y="1260.5">CreateFromKeys</text></g></g><g transform="translate(-70,-30) scale(1,1)"><path fill="none" stroke="#000000" d="M 567 1168 L 567 1238" stroke-miterlimit="10"/></g><g transform="translate(-70,-30) scale(1,1)"><path fill="#000000" stroke="none" d="M 562.790482243984 1227.837325142376 L 567 1238 L 571.209517756016 1227.837325142376"/></g><g transform="translate(-70,-30) scale(1,1)"><path fill="none" stroke="#000000" d="M 562.790482243984 1227.837325142376 L 567 1238 L 571.209517756016 1227.837325142376 L 562.790482243984 1227.837325142376" stroke-miterlimit="10"/></g><g transform="translate(-70,-30) scale(1,1)"><rect fill="#ffffff" stroke="none" x="240" y="1240" width="164" height="32"/></g><g transform="translate(-70,-30) scale(1,1)"><path fill="none" stroke="#000000" d="M 240 1240 L 404 1240 L 404 1272 L 240 1272 L 240 1240 Z Z" stroke-miterlimit="10"/></g><g transform="translate(-70,-30) scale(1,1)"><g><path fill="none" stroke="none"/><text fill="#000000" stroke="none" font-family="Arial" font-size="13px" font-style="normal" font-weight="normal" text-decoration="none" x="249.5" y="1262.5">getFitPredicateFunctions</text></g></g><g transform="translate(-70,-30) scale(1,1)"><path fill="none" stroke="#000000" d="M 488 1256 L 404 1256" stroke-miterlimit="10"/></g><g transform="translate(-70,-30) scale(1,1)"><path fill="#000000" stroke="none" d="M 414.16267485762415 1251.7904822439841 L 404 1256 L 414.16267485762415 1260.2095177560159"/></g><g transform="translate(-70,-30) scale(1,1)"><path fill="none" stroke="#000000" d="M 414.16267485762415 1251.7904822439841 L 404 1256 L 414.16267485762415 1260.2095177560159 L 414.16267485762415 1251.7904822439841" stroke-miterlimit="10"/></g><g transform="translate(-70,-30) scale(1,1)"><rect fill="#ffffff" stroke="none" x="240" y="1342" width="172" height="32"/></g><g transform="translate(-70,-30) scale(1,1)"><path fill="none" stroke="#000000" d="M 240 1342 L 412 1342 L 412 1374 L 240 1374 L 240 1342 Z Z" stroke-miterlimit="10"/></g><g transform="translate(-70,-30) scale(1,1)"><g><path fill="none" stroke="none"/><text fill="#000000" stroke="none" font-family="Arial" font-size="13px" font-style="normal" font-weight="normal" text-decoration="none" x="249.5" y="1364.5">getPriorityFunctionConfigs</text></g></g><g transform="translate(-70,-30) scale(1,1)"><path fill="none" stroke="#000000" d="M 306 1272 L 306 1342" stroke-miterlimit="10"/></g><g transform="translate(-70,-30) scale(1,1)"><path fill="#000000" stroke="none" d="M 301.790482243984 1331.837325142376 L 306 1342 L 310.209517756016 1331.837325142376"/></g><g transform="translate(-70,-30) scale(1,1)"><path fill="none" stroke="#000000" d="M 301.790482243984 1331.837325142376 L 306 1342 L 310.209517756016 1331.837325142376 L 301.790482243984 1331.837325142376" stroke-miterlimit="10"/></g><g transform="translate(-70,-30) scale(1,1)"><rect fill="#ffffff" stroke="none" x="240" y="1444" width="554" height="45"/></g><g transform="translate(-70,-30) scale(1,1)"><path fill="none" stroke="#000000" d="M 240 1444 L 794 1444 L 794 1489 L 240 1489 L 240 1444 Z Z" stroke-miterlimit="10"/></g><g transform="translate(-70,-30) scale(1,1)"><g><path fill="none" stroke="none"/><text fill="#000000" stroke="none" font-family="Arial" font-size="13px" font-style="normal" font-weight="normal" text-decoration="none" x="257" y="1466.5">cache.NewReflector(f.createUnassignedNonTerminatedPodLW(), &amp;api.Pod{}, f.PodQueue,</text><text fill="#000000" stroke="none" font-family="Arial" font-size="13px" font-style="normal" font-weight="normal" text-decoration="none" x="511.5" y="1479.5">0)</text></g></g><g transform="translate(-70,-30) scale(1,1)"><path fill="none" stroke="#000000" d="M 310 1374 L 310 1444" stroke-miterlimit="10"/></g><g transform="translate(-70,-30) scale(1,1)"><path fill="#000000" stroke="none" d="M 305.790482243984 1433.837325142376 L 310 1444 L 314.209517756016 1433.837325142376"/></g><g transform="translate(-70,-30) scale(1,1)"><path fill="none" stroke="#000000" d="M 305.790482243984 1433.837325142376 L 310 1444 L 314.209517756016 1433.837325142376 L 305.790482243984 1433.837325142376" stroke-miterlimit="10"/></g><g transform="translate(-70,-30) scale(1,1)"><path fill="#ffffff" stroke="none" d="M 703 1444 L 925 1444 L 935 1454 L 935 1480 L 703 1480 L 703 1444"/></g><g transform="translate(-70,-30) scale(1,1)"><path fill="none" stroke="#000000" d="M 703 1444 L 925 1444 L 935 1454 L 935 1480 L 703 1480 L 703 1444 L 703 1444" stroke-miterlimit="10"/></g><g transform="translate(-70,-30) scale(1,1)"><path fill="none" stroke="#000000" d="M 925 1444 L 925 1454 L 935 1454 L 925 1444" stroke-miterlimit="10"/></g><g transform="translate(-70,-30) scale(1,1)"><g><path fill="none" stroke="none"/><text fill="#000000" stroke="none" font-family="Arial" font-size="13px" font-style="normal" font-weight="normal" text-decoration="none" x="708" y="1462">Watch and queue pods that need</text><text fill="#000000" stroke="none" font-family="Arial" font-size="13px" font-style="normal" font-weight="normal" text-decoration="none" x="708" y="1475">scheduling and put to podQueue</text></g></g><g transform="translate(-70,-30) scale(1,1)"><path fill="none" stroke="#000000" d="M 795 1462 L 819 1462" stroke-miterlimit="10" stroke-dasharray="3"/></g><g transform="translate(-70,-30) scale(1,1)"><rect fill="#ffffff" stroke="none" x="240" y="1559" width="320" height="45"/></g><g transform="translate(-70,-30) scale(1,1)"><path fill="none" stroke="#000000" d="M 240 1559 L 560 1559 L 560 1604 L 240 1604 L 240 1559 Z Z" stroke-miterlimit="10"/></g><g transform="translate(-70,-30) scale(1,1)"><g><path fill="none" stroke="none"/><text fill="#000000" stroke="none" font-family="Arial" font-size="13px" font-style="normal" font-weight="normal" text-decoration="none" x="305" y="1581.5">go f.scheduledPodPopulator.Run</text></g></g><g transform="translate(-70,-30) scale(1,1)"><path fill="none" stroke="#000000" d="M 387 1489 L 387 1559" stroke-miterlimit="10"/></g><g transform="translate(-70,-30) scale(1,1)"><path fill="#000000" stroke="none" d="M 382.790482243984 1548.837325142376 L 387 1559 L 391.209517756016 1548.837325142376"/></g><g transform="translate(-70,-30) scale(1,1)"><path fill="none" stroke="#000000" d="M 382.790482243984 1548.837325142376 L 387 1559 L 391.209517756016 1548.837325142376 L 382.790482243984 1548.837325142376" stroke-miterlimit="10"/></g><g transform="translate(-70,-30) scale(1,1)"><path fill="#ffffff" stroke="none" d="M 630 1559 L 813 1559 L 823 1569 L 823 1599 L 630 1599 L 630 1559"/></g><g transform="translate(-70,-30) scale(1,1)"><path fill="none" stroke="#000000" d="M 630 1559 L 813 1559 L 823 1569 L 823 1599 L 630 1599 L 630 1559 L 630 1559" stroke-miterlimit="10"/></g><g transform="translate(-70,-30) scale(1,1)"><path fill="none" stroke="#000000" d="M 813 1559 L 813 1569 L 823 1569 L 813 1559" stroke-miterlimit="10"/></g><g transform="translate(-70,-30) scale(1,1)"><g><path fill="none" stroke="none"/><text fill="#000000" stroke="none" font-family="Arial" font-size="13px" font-style="normal" font-weight="normal" text-decoration="none" x="635" y="1577">Begin populating scheduled</text><text fill="#000000" stroke="none" font-family="Arial" font-size="13px" font-style="normal" font-weight="normal" text-decoration="none" x="635" y="1590">pods</text></g></g><g transform="translate(-70,-30) scale(1,1)"><path fill="none" stroke="#000000" d="M 561 1580 L 629 1580" stroke-miterlimit="10" stroke-dasharray="3"/></g><g transform="translate(-70,-30) scale(1,1)"><rect fill="#ffffff" stroke="none" x="232" y="1674" width="606" height="45"/></g><g transform="translate(-70,-30) scale(1,1)"><path fill="none" stroke="#000000" d="M 232 1674 L 838 1674 L 838 1719 L 232 1719 L 232 1674 Z Z" stroke-miterlimit="10"/></g><g transform="translate(-70,-30) scale(1,1)"><g><path fill="none" stroke="none"/><text fill="#000000" stroke="none" font-family="Arial" font-size="13px" font-style="normal" font-weight="normal" text-decoration="none" x="328" y="1696.5">cache.NewReflector(f.createNodeLW(), &amp;api.Node{}, f.NodeLister.Store,</text><text fill="#000000" stroke="none" font-family="Arial" font-size="13px" font-style="normal" font-weight="normal" text-decoration="none" x="450.5" y="1709.5">0).RunUntil(f.StopEverything)</text></g></g><g transform="translate(-70,-30) scale(1,1)"><path fill="none" stroke="#000000" d="M 360 1604 L 360 1674" stroke-miterlimit="10"/></g><g transform="translate(-70,-30) scale(1,1)"><path fill="#000000" stroke="none" d="M 355.790482243984 1663.837325142376 L 360 1674 L 364.209517756016 1663.837325142376"/></g><g transform="translate(-70,-30) scale(1,1)"><path fill="none" stroke="#000000" d="M 355.790482243984 1663.837325142376 L 360 1674 L 364.209517756016 1663.837325142376 L 355.790482243984 1663.837325142376" stroke-miterlimit="10"/></g><g transform="translate(-70,-30) scale(1,1)"><path fill="#ffffff" stroke="none" d="M 688 1608 L 776 1608 L 786 1618 L 786 1656 L 688 1656 L 688 1608"/></g><g transform="translate(-70,-30) scale(1,1)"><path fill="none" stroke="#000000" d="M 688 1608 L 776 1608 L 786 1618 L 786 1656 L 688 1656 L 688 1608 L 688 1608" stroke-miterlimit="10"/></g><g transform="translate(-70,-30) scale(1,1)"><path fill="none" stroke="#000000" d="M 776 1608 L 776 1618 L 786 1618 L 776 1608" stroke-miterlimit="10"/></g><g transform="translate(-70,-30) scale(1,1)"><g><path fill="none" stroke="none"/><text fill="#000000" stroke="none" font-family="Arial" font-size="13px" font-style="normal" font-weight="normal" text-decoration="none" x="693" y="1626">Watch nodes.</text></g></g><g transform="translate(-70,-30) scale(1,1)"><path fill="none" stroke="#000000" d="M 608 1673 L 687 1648" stroke-miterlimit="10" stroke-dasharray="3"/></g><g transform="translate(-70,-30) scale(1,1)"><rect fill="#ffffff" stroke="none" x="144" y="1776" width="740" height="45"/></g><g transform="translate(-70,-30) scale(1,1)"><path fill="none" stroke="#000000" d="M 144 1776 L 884 1776 L 884 1821 L 144 1821 L 144 1776 Z Z" stroke-miterlimit="10"/></g><g transform="translate(-70,-30) scale(1,1)"><g><path fill="none" stroke="none"/><text fill="#000000" stroke="none" font-family="Arial" font-size="13px" font-style="normal" font-weight="normal" text-decoration="none" x="240" y="1798.5">cache.NewReflector(f.createPersistentVolumeLW(), &amp;api.PersistentVolume{}, f.PVLister.Store,</text><text fill="#000000" stroke="none" font-family="Arial" font-size="13px" font-style="normal" font-weight="normal" text-decoration="none" x="429.5" y="1811.5">0).RunUntil(f.StopEverything)</text></g></g><g transform="translate(-70,-30) scale(1,1)"><path fill="none" stroke="#000000" d="M 379 1719 L 379 1776" stroke-miterlimit="10"/></g><g transform="translate(-70,-30) scale(1,1)"><path fill="#000000" stroke="none" d="M 374.790482243984 1765.837325142376 L 379 1776 L 383.209517756016 1765.837325142376"/></g><g transform="translate(-70,-30) scale(1,1)"><path fill="none" stroke="#000000" d="M 374.790482243984 1765.837325142376 L 379 1776 L 383.209517756016 1765.837325142376 L 374.790482243984 1765.837325142376" stroke-miterlimit="10"/></g><g transform="translate(-70,-30) scale(1,1)"><rect fill="#ffffff" stroke="none" x="128" y="1904" width="815" height="45"/></g><g transform="translate(-70,-30) scale(1,1)"><path fill="none" stroke="#000000" d="M 128 1904 L 943 1904 L 943 1949 L 128 1949 L 128 1904 Z Z" stroke-miterlimit="10"/></g><g transform="translate(-70,-30) scale(1,1)"><g><path fill="none" stroke="none"/><text fill="#000000" stroke="none" font-family="Arial" font-size="13px" font-style="normal" font-weight="normal" text-decoration="none" x="224" y="1926.5">cache.NewReflector(f.createPersistentVolumeClaimLW(), &amp;api.PersistentVolumeClaim{}, f.PVCLister.Store,</text><text fill="#000000" stroke="none" font-family="Arial" font-size="13px" font-style="normal" font-weight="normal" text-decoration="none" x="451" y="1939.5">0).RunUntil(f.StopEverything)</text></g></g><g transform="translate(-70,-30) scale(1,1)"><path fill="none" stroke="#000000" d="M 335 1821 L 335 1904" stroke-miterlimit="10"/></g><g transform="translate(-70,-30) scale(1,1)"><path fill="#000000" stroke="none" d="M 330.790482243984 1893.837325142376 L 335 1904 L 339.209517756016 1893.837325142376"/></g><g transform="translate(-70,-30) scale(1,1)"><path fill="none" stroke="#000000" d="M 330.790482243984 1893.837325142376 L 335 1904 L 339.209517756016 1893.837325142376 L 330.790482243984 1893.837325142376" stroke-miterlimit="10"/></g><g transform="translate(-70,-30) scale(1,1)"><rect fill="#ffffff" stroke="none" x="232" y="2016" width="648" height="45"/></g><g transform="translate(-70,-30) scale(1,1)"><path fill="none" stroke="#000000" d="M 232 2016 L 880 2016 L 880 2061 L 232 2061 L 232 2016 Z Z" stroke-miterlimit="10"/></g><g transform="translate(-70,-30) scale(1,1)"><g><path fill="none" stroke="none"/><text fill="#000000" stroke="none" font-family="Arial" font-size="13px" font-style="normal" font-weight="normal" text-decoration="none" x="328" y="2038.5">cache.NewReflector(f.createServiceLW(), &amp;api.Service{}, f.ServiceLister.Store,</text><text fill="#000000" stroke="none" font-family="Arial" font-size="13px" font-style="normal" font-weight="normal" text-decoration="none" x="471.5" y="2051.5">0).RunUntil(f.StopEverything)</text></g></g><g transform="translate(-70,-30) scale(1,1)"><path fill="none" stroke="#000000" d="M 347 1949 L 347 2016" stroke-miterlimit="10"/></g><g transform="translate(-70,-30) scale(1,1)"><path fill="#000000" stroke="none" d="M 342.790482243984 2005.837325142376 L 347 2016 L 351.209517756016 2005.837325142376"/></g><g transform="translate(-70,-30) scale(1,1)"><path fill="none" stroke="#000000" d="M 342.790482243984 2005.837325142376 L 347 2016 L 351.209517756016 2005.837325142376 L 342.790482243984 2005.837325142376" stroke-miterlimit="10"/></g><g transform="translate(-70,-30) scale(1,1)"><rect fill="#ffffff" stroke="none" x="112" y="2104" width="749" height="45"/></g><g transform="translate(-70,-30) scale(1,1)"><path fill="none" stroke="#000000" d="M 112 2104 L 861 2104 L 861 2149 L 112 2149 L 112 2104 Z Z" stroke-miterlimit="10"/></g><g transform="translate(-70,-30) scale(1,1)"><g><path fill="none" stroke="none"/><text fill="#000000" stroke="none" font-family="Arial" font-size="13px" font-style="normal" font-weight="normal" text-decoration="none" x="208" y="2126.5">	cache.NewReflector(f.createControllerLW(), &amp;api.ReplicationController{}, f.ControllerLister.Store,</text><text fill="#000000" stroke="none" font-family="Arial" font-size="13px" font-style="normal" font-weight="normal" text-decoration="none" x="402" y="2139.5">0).RunUntil(f.StopEverything)</text></g></g><g transform="translate(-70,-30) scale(1,1)"><path fill="none" stroke="#000000" d="M 316 2061 L 316 2104" stroke-miterlimit="10"/></g><g transform="translate(-70,-30) scale(1,1)"><path fill="#000000" stroke="none" d="M 311.790482243984 2093.837325142376 L 316 2104 L 320.209517756016 2093.837325142376"/></g><g transform="translate(-70,-30) scale(1,1)"><path fill="none" stroke="#000000" d="M 311.790482243984 2093.837325142376 L 316 2104 L 320.209517756016 2093.837325142376 L 311.790482243984 2093.837325142376" stroke-miterlimit="10"/></g><g transform="translate(-70,-30) scale(1,1)"><rect fill="#ffffff" stroke="none" x="80" y="2208" width="592" height="32"/></g><g transform="translate(-70,-30) scale(1,1)"><path fill="none" stroke="#000000" d="M 80 2208 L 672 2208 L 672 2240 L 80 2240 L 80 2208 Z Z" stroke-miterlimit="10"/></g><g transform="translate(-70,-30) scale(1,1)"><g><path fill="none" stroke="none"/><text fill="#000000" stroke="none" font-family="Arial" font-size="13px" font-style="normal" font-weight="normal" text-decoration="none" x="114" y="2230.5">scheduler.NewGenericScheduler(predicateFuncs, priorityConfigs, extenders, f.PodLister, r)</text></g></g><g transform="translate(-70,-30) scale(1,1)"><path fill="none" stroke="#000000" d="M 321 2149 L 321 2208" stroke-miterlimit="10"/></g><g transform="translate(-70,-30) scale(1,1)"><path fill="#000000" stroke="none" d="M 316.790482243984 2197.837325142376 L 321 2208 L 325.209517756016 2197.837325142376"/></g><g transform="translate(-70,-30) scale(1,1)"><path fill="none" stroke="#000000" d="M 316.790482243984 2197.837325142376 L 321 2208 L 325.209517756016 2197.837325142376 L 316.790482243984 2197.837325142376" stroke-miterlimit="10"/></g><g transform="translate(-70,-30) scale(1,1)"><rect fill="#ffffff" stroke="none" x="240" y="2296" width="116" height="32"/></g><g transform="translate(-70,-30) scale(1,1)"><path fill="none" stroke="#000000" d="M 240 2296 L 356 2296 L 356 2328 L 240 2328 L 240 2296 Z Z" stroke-miterlimit="10"/></g><g transform="translate(-70,-30) scale(1,1)"><g><path fill="none" stroke="none"/><text fill="#000000" stroke="none" font-family="Arial" font-size="13px" font-style="normal" font-weight="normal" text-decoration="none" x="249.5" y="2318.5">scheduler.Config</text></g></g><g transform="translate(-70,-30) scale(1,1)"><path fill="none" stroke="#000000" d="M 320 2240 L 320 2296" stroke-miterlimit="10"/></g><g transform="translate(-70,-30) scale(1,1)"><path fill="#000000" stroke="none" d="M 315.790482243984 2285.837325142376 L 320 2296 L 324.209517756016 2285.837325142376"/></g><g transform="translate(-70,-30) scale(1,1)"><path fill="none" stroke="#000000" d="M 315.790482243984 2285.837325142376 L 320 2296 L 324.209517756016 2285.837325142376 L 315.790482243984 2285.837325142376" stroke-miterlimit="10"/></g><g transform="translate(-70,-30) scale(1,1)"><rect fill="#ffffff" stroke="none" x="960" y="1048" width="89" height="32"/></g><g transform="translate(-70,-30) scale(1,1)"><path fill="none" stroke="#000000" d="M 960 1048 L 1049 1048 L 1049 1080 L 960 1080 L 960 1048 Z Z" stroke-miterlimit="10"/></g><g transform="translate(-70,-30) scale(1,1)"><g><path fill="none" stroke="none"/><text fill="#000000" stroke="none" font-family="Arial" font-size="13px" font-style="normal" font-weight="normal" text-decoration="none" x="969.5" y="1070.5">sched.Run()</text></g></g><g transform="translate(-70,-30) scale(1,1)"><path fill="none" stroke="#000000" d="M 964 790 L 997 790 M 997 790 A 8 8 0 0 1 1005 798 L 1005 1048" stroke-miterlimit="10"/></g><g transform="translate(-70,-30) scale(1,1)"><path fill="#000000" stroke="none" d="M 1000.790482243984 1037.837325142376 L 1005 1048 L 1009.209517756016 1037.837325142376"/></g><g transform="translate(-70,-30) scale(1,1)"><path fill="none" stroke="#000000" d="M 1000.790482243984 1037.837325142376 L 1005 1048 L 1009.209517756016 1037.837325142376 L 1000.790482243984 1037.837325142376" stroke-miterlimit="10"/></g><g transform="translate(-70,-30) scale(1,1)"><rect fill="#ffffff" stroke="none" x="960" y="1150" width="182" height="32"/></g><g transform="translate(-70,-30) scale(1,1)"><path fill="none" stroke="#000000" d="M 960 1150 L 1142 1150 L 1142 1182 L 960 1182 L 960 1150 Z Z" stroke-miterlimit="10"/></g><g transform="translate(-70,-30) scale(1,1)"><g><path fill="none" stroke="none"/><text fill="#000000" stroke="none" font-family="Arial" font-size="13px" font-style="normal" font-weight="normal" text-decoration="none" x="969.5" y="1172.5">s.config.Algorithm.Schedule</text></g></g><g transform="translate(-70,-30) scale(1,1)"><path fill="none" stroke="#000000" d="M 996 1080 L 996 1150" stroke-miterlimit="10"/></g><g transform="translate(-70,-30) scale(1,1)"><path fill="#000000" stroke="none" d="M 991.790482243984 1139.837325142376 L 996 1150 L 1000.209517756016 1139.837325142376"/></g><g transform="translate(-70,-30) scale(1,1)"><path fill="none" stroke="#000000" d="M 991.790482243984 1139.837325142376 L 996 1150 L 1000.209517756016 1139.837325142376 L 991.790482243984 1139.837325142376" stroke-miterlimit="10"/></g><g transform="translate(-70,-30) scale(1,1)"><rect fill="#ffffff" stroke="none" x="1288" y="1152" width="177" height="32"/></g><g transform="translate(-70,-30) scale(1,1)"><path fill="none" stroke="#000000" d="M 1288 1152 L 1465 1152 L 1465 1184 L 1288 1184 L 1288 1152 Z Z" stroke-miterlimit="10"/></g><g transform="translate(-70,-30) scale(1,1)"><g><path fill="none" stroke="none"/><text fill="#000000" stroke="none" font-family="Arial" font-size="13px" font-style="normal" font-weight="normal" text-decoration="none" x="1297.5" y="1174.5">genericScheduler.Schedule</text></g></g><g transform="translate(-70,-30) scale(1,1)"><path fill="none" stroke="#000000" d="M 1142 1168 L 1288 1168" stroke-miterlimit="10"/></g><g transform="translate(-70,-30) scale(1,1)"><path fill="#000000" stroke="none" d="M 1277.837325142376 1172.2095177560159 L 1288 1168 L 1277.837325142376 1163.7904822439841"/></g><g transform="translate(-70,-30) scale(1,1)"><path fill="none" stroke="#000000" d="M 1277.837325142376 1172.2095177560159 L 1288 1168 L 1277.837325142376 1163.7904822439841 L 1277.837325142376 1172.2095177560159" stroke-miterlimit="10"/></g><g transform="translate(-70,-30) scale(1,1)"><rect fill="#ffffff" stroke="none" x="1288" y="1254" width="209" height="32"/></g><g transform="translate(-70,-30) scale(1,1)"><path fill="none" stroke="#000000" d="M 1288 1254 L 1497 1254 L 1497 1286 L 1288 1286 L 1288 1254 Z Z" stroke-miterlimit="10"/></g><g transform="translate(-70,-30) scale(1,1)"><g><path fill="none" stroke="none"/><text fill="#000000" stroke="none" font-family="Arial" font-size="13px" font-style="normal" font-weight="normal" text-decoration="none" x="1297.5" y="1276.5">predicates.MapPodsToMachines</text></g></g><g transform="translate(-70,-30) scale(1,1)"><path fill="none" stroke="#000000" d="M 1359 1184 L 1359 1254" stroke-miterlimit="10"/></g><g transform="translate(-70,-30) scale(1,1)"><path fill="#000000" stroke="none" d="M 1354.7904822439841 1243.837325142376 L 1359 1254 L 1363.2095177560159 1243.837325142376"/></g><g transform="translate(-70,-30) scale(1,1)"><path fill="none" stroke="#000000" d="M 1354.7904822439841 1243.837325142376 L 1359 1254 L 1363.2095177560159 1243.837325142376 L 1354.7904822439841 1243.837325142376" stroke-miterlimit="10"/></g><g transform="translate(-70,-30) scale(1,1)"><path fill="#ffffff" stroke="none" d="M 1567 1254 L 1704 1254 L 1714 1264 L 1714 1302 L 1567 1302 L 1567 1254"/></g><g transform="translate(-70,-30) scale(1,1)"><path fill="none" stroke="#000000" d="M 1567 1254 L 1704 1254 L 1714 1264 L 1714 1302 L 1567 1302 L 1567 1254 L 1567 1254" stroke-miterlimit="10"/></g><g transform="translate(-70,-30) scale(1,1)"><path fill="none" stroke="#000000" d="M 1704 1254 L 1704 1264 L 1714 1264 L 1704 1254" stroke-miterlimit="10"/></g><g transform="translate(-70,-30) scale(1,1)"><g><path fill="none" stroke="none"/><text fill="#000000" stroke="none" font-family="Arial" font-size="13px" font-style="normal" font-weight="normal" text-decoration="none" x="1572" y="1272">hashmap of</text><text fill="#000000" stroke="none" font-family="Arial" font-size="13px" font-style="normal" font-weight="normal" text-decoration="none" x="1572" y="1285">hostname:existingPod</text></g></g><g transform="translate(-70,-30) scale(1,1)"><path fill="none" stroke="#000000" d="M 1498 1273 L 1566 1276" stroke-miterlimit="10" stroke-dasharray="3"/></g><g transform="translate(-70,-30) scale(1,1)"><rect fill="#ffffff" stroke="none" x="1288" y="1356" width="118" height="32"/></g><g transform="translate(-70,-30) scale(1,1)"><path fill="none" stroke="#000000" d="M 1288 1356 L 1406 1356 L 1406 1388 L 1288 1388 L 1288 1356 Z Z" stroke-miterlimit="10"/></g><g transform="translate(-70,-30) scale(1,1)"><g><path fill="none" stroke="none"/><text fill="#000000" stroke="none" font-family="Arial" font-size="13px" font-style="normal" font-weight="normal" text-decoration="none" x="1297.5" y="1378.5">findNodesThatFit</text></g></g><g transform="translate(-70,-30) scale(1,1)"><path fill="none" stroke="#000000" d="M 1372 1286 L 1372 1356" stroke-miterlimit="10"/></g><g transform="translate(-70,-30) scale(1,1)"><path fill="#000000" stroke="none" d="M 1367.7904822439841 1345.837325142376 L 1372 1356 L 1376.2095177560159 1345.837325142376"/></g><g transform="translate(-70,-30) scale(1,1)"><path fill="none" stroke="#000000" d="M 1367.7904822439841 1345.837325142376 L 1372 1356 L 1376.2095177560159 1345.837325142376 L 1367.7904822439841 1345.837325142376" stroke-miterlimit="10"/></g><g transform="translate(-70,-30) scale(1,1)"><rect fill="#ffffff" stroke="none" x="1288" y="1458" width="107" height="32"/></g><g transform="translate(-70,-30) scale(1,1)"><path fill="none" stroke="#000000" d="M 1288 1458 L 1395 1458 L 1395 1490 L 1288 1490 L 1288 1458 Z Z" stroke-miterlimit="10"/></g><g transform="translate(-70,-30) scale(1,1)"><g><path fill="none" stroke="none"/><text fill="#000000" stroke="none" font-family="Arial" font-size="13px" font-style="normal" font-weight="normal" text-decoration="none" x="1297.5" y="1480.5">PrioritizeNodes</text></g></g><g transform="translate(-70,-30) scale(1,1)"><path fill="none" stroke="#000000" d="M 1336 1388 L 1336 1458" stroke-miterlimit="10"/></g><g transform="translate(-70,-30) scale(1,1)"><path fill="#000000" stroke="none" d="M 1331.7904822439841 1447.837325142376 L 1336 1458 L 1340.2095177560159 1447.837325142376"/></g><g transform="translate(-70,-30) scale(1,1)"><path fill="none" stroke="#000000" d="M 1331.7904822439841 1447.837325142376 L 1336 1458 L 1340.2095177560159 1447.837325142376 L 1331.7904822439841 1447.837325142376" stroke-miterlimit="10"/></g><g transform="translate(-70,-30) scale(1,1)"><g><path fill="none" stroke="none"/><text fill="#000000" stroke="none" font-family="Arial" font-size="13px" font-style="normal" font-weight="normal" text-decoration="none" x="269" y="138">Scheduler create scheduler instance during start, watch</text><text fill="#000000" stroke="none" font-family="Arial" font-size="13px" font-style="normal" font-weight="normal" text-decoration="none" x="269" y="151">pod changes by rest client and schedule pod request</text></g></g></g></svg>