<svg version="1.1" xmlns="http://www.w3.org/2000/svg" xmlns:xlink="http://www.w3.org/1999/xlink" width="2340" height="1820"><defs/><g><g transform="translate(-182,-54) scale(1,1)"><rect fill="#ffffff" stroke="none" x="544" y="64" width="169" height="32"/></g><g transform="translate(-182,-54) scale(1,1)"><path fill="none" stroke="#000000" d="M 544 64 L 713 64 L 713 96 L 544 96 L 544 64 Z Z" stroke-miterlimit="10"/></g><g transform="translate(-182,-54) scale(1,1)"><g><path fill="none" stroke="none"/><text fill="#000000" stroke="none" font-family="Arial" font-size="13px" font-style="normal" font-weight="normal" text-decoration="none" x="553.5" y="86.5">options.NewProxyConfig()</text></g></g><g transform="translate(-182,-54) scale(1,1)"><rect fill="#ffffff" stroke="none" x="800" y="64" width="128" height="32"/></g><g transform="translate(-182,-54) scale(1,1)"><path fill="none" stroke="#000000" d="M 800 64 L 928 64 L 928 96 L 800 96 L 800 64 Z Z" stroke-miterlimit="10"/></g><g transform="translate(-182,-54) scale(1,1)"><g><path fill="none" stroke="none"/><text fill="#000000" stroke="none" font-family="Arial" font-size="13px" font-style="normal" font-weight="normal" text-decoration="none" x="809.5" y="86.5">ProxyServerConfig</text></g></g><g transform="translate(-182,-54) scale(1,1)"><path fill="none" stroke="#000000" d="M 713 96 L 800 96" stroke-miterlimit="10"/></g><g transform="translate(-182,-54) scale(1,1)"><path fill="#000000" stroke="none" d="M 789.8373251423759 100.20951775601598 L 800 96 L 789.8373251423758 91.79048224398402"/></g><g transform="translate(-182,-54) scale(1,1)"><path fill="none" stroke="#000000" d="M 789.8373251423759 100.20951775601598 L 800 96 L 789.8373251423758 91.79048224398402 L 789.8373251423759 100.20951775601598" stroke-miterlimit="10"/></g><g transform="translate(-182,-54) scale(1,1)"><path fill="#ffffff" stroke="none" d="M 998 64 L 1269 64 L 1279 74 L 1279 117 L 998 117 L 998 64"/></g><g transform="translate(-182,-54) scale(1,1)"><path fill="none" stroke="#000000" d="M 998 64 L 1269 64 L 1279 74 L 1279 117 L 998 117 L 998 64 L 998 64" stroke-miterlimit="10"/></g><g transform="translate(-182,-54) scale(1,1)"><path fill="none" stroke="#000000" d="M 1269 64 L 1269 74 L 1279 74 L 1269 64" stroke-miterlimit="10"/></g><g transform="translate(-182,-54) scale(1,1)"><g><path fill="none" stroke="none"/><text fill="#000000" stroke="none" font-family="Arial" font-size="13px" font-style="normal" font-weight="normal" text-decoration="none" x="1003" y="82">KubeAPIQPS:       5.0,</text></g></g><g transform="translate(-182,-54) scale(1,1)"><g><path fill="none" stroke="none"/><text fill="#000000" stroke="none" font-family="Arial" font-size="13px" font-style="normal" font-weight="normal" text-decoration="none" x="1003" y="97">		KubeAPIBurst:     10,</text></g></g><g transform="translate(-182,-54) scale(1,1)"><g><path fill="none" stroke="none"/><text fill="#000000" stroke="none" font-family="Arial" font-size="13px" font-style="normal" font-weight="normal" text-decoration="none" x="1003" y="112">		ConfigSyncPeriod: 15 * time.Minute,</text></g></g><g transform="translate(-182,-54) scale(1,1)"><path fill="none" stroke="#000000" d="M 929 83 L 997 85" stroke-miterlimit="10" stroke-dasharray="3"/></g><g transform="translate(-182,-54) scale(1,1)"><rect fill="#ffffff" stroke="none" x="576" y="152" width="225" height="32"/></g><g transform="translate(-182,-54) scale(1,1)"><path fill="none" stroke="#000000" d="M 576 152 L 801 152 L 801 184 L 576 184 L 576 152 Z Z" stroke-miterlimit="10"/></g><g transform="translate(-182,-54) scale(1,1)"><g><path fill="none" stroke="none"/><text fill="#000000" stroke="none" font-family="Arial" font-size="13px" font-style="normal" font-weight="normal" text-decoration="none" x="585.5" y="174.5">app.NewProxyServerDefault(config)</text></g></g><g transform="translate(-182,-54) scale(1,1)"><path fill="none" stroke="#000000" d="M 613 96 L 613 152" stroke-miterlimit="10"/></g><g transform="translate(-182,-54) scale(1,1)"><path fill="#000000" stroke="none" d="M 608.790482243984 141.83732514237585 L 613 152 L 617.209517756016 141.83732514237585"/></g><g transform="translate(-182,-54) scale(1,1)"><path fill="none" stroke="#000000" d="M 608.790482243984 141.83732514237585 L 613 152 L 617.209517756016 141.83732514237585 L 608.790482243984 141.83732514237585" stroke-miterlimit="10"/></g><g transform="translate(-182,-54) scale(1,1)"><rect fill="#ffffff" stroke="none" x="840" y="160" width="332" height="45"/></g><g transform="translate(-182,-54) scale(1,1)"><path fill="none" stroke="#000000" d="M 840 160 L 1172 160 L 1172 205 L 840 205 L 840 160 Z Z" stroke-miterlimit="10"/></g><g transform="translate(-182,-54) scale(1,1)"><g><path fill="none" stroke="none"/><text fill="#000000" stroke="none" font-family="Arial" font-size="13px" font-style="normal" font-weight="normal" text-decoration="none" x="876.5" y="182.5">iptInterface := utiliptables.New(execer, dbus,</text><text fill="#000000" stroke="none" font-family="Arial" font-size="13px" font-style="normal" font-weight="normal" text-decoration="none" x="981" y="195.5">protocol)</text></g></g><g transform="translate(-182,-54) scale(1,1)"><path fill="none" stroke="#000000" d="M 801 184 L 840 184" stroke-miterlimit="10"/></g><g transform="translate(-182,-54) scale(1,1)"><path fill="#000000" stroke="none" d="M 829.8373251423759 188.209517756016 L 840 184 L 829.8373251423758 179.790482243984"/></g><g transform="translate(-182,-54) scale(1,1)"><path fill="none" stroke="#000000" d="M 829.8373251423759 188.209517756016 L 840 184 L 829.8373251423758 179.790482243984 L 829.8373251423759 188.209517756016" stroke-miterlimit="10"/></g><g transform="translate(-182,-54) scale(1,1)"><rect fill="#ffffff" stroke="none" x="856" y="248" width="240" height="32"/></g><g transform="translate(-182,-54) scale(1,1)"><path fill="none" stroke="#000000" d="M 856 248 L 1096 248 L 1096 280 L 856 280 L 856 248 Z Z" stroke-miterlimit="10"/></g><g transform="translate(-182,-54) scale(1,1)"><g><path fill="none" stroke="none"/><text fill="#000000" stroke="none" font-family="Arial" font-size="13px" font-style="normal" font-weight="normal" text-decoration="none" x="911" y="270.5">check iptables version</text></g></g><g transform="translate(-182,-54) scale(1,1)"><path fill="none" stroke="#000000" d="M 939 205 L 939 248" stroke-miterlimit="10"/></g><g transform="translate(-182,-54) scale(1,1)"><path fill="#000000" stroke="none" d="M 934.790482243984 237.83732514237585 L 939 248 L 943.209517756016 237.83732514237585"/></g><g transform="translate(-182,-54) scale(1,1)"><path fill="none" stroke="#000000" d="M 934.790482243984 237.83732514237585 L 939 248 L 943.209517756016 237.83732514237585 L 934.790482243984 237.83732514237585" stroke-miterlimit="10"/></g><g transform="translate(-182,-54) scale(1,1)"><rect fill="#ffffff" stroke="none" x="864" y="336" width="177" height="32"/></g><g transform="translate(-182,-54) scale(1,1)"><path fill="none" stroke="#000000" d="M 864 336 L 1041 336 L 1041 368 L 864 368 L 864 336 Z Z" stroke-miterlimit="10"/></g><g transform="translate(-182,-54) scale(1,1)"><g><path fill="none" stroke="none"/><text fill="#000000" stroke="none" font-family="Arial" font-size="13px" font-style="normal" font-weight="normal" text-decoration="none" x="873.5" y="358.5">unner.connectToFirewallD()</text></g></g><g transform="translate(-182,-54) scale(1,1)"><path fill="none" stroke="#000000" d="M 953 280 L 953 336" stroke-miterlimit="10"/></g><g transform="translate(-182,-54) scale(1,1)"><path fill="#000000" stroke="none" d="M 948.790482243984 325.83732514237585 L 953 336 L 957.209517756016 325.83732514237585"/></g><g transform="translate(-182,-54) scale(1,1)"><path fill="none" stroke="#000000" d="M 948.790482243984 325.83732514237585 L 953 336 L 957.209517756016 325.83732514237585 L 948.790482243984 325.83732514237585" stroke-miterlimit="10"/></g><g transform="translate(-182,-54) scale(1,1)"><rect fill="#ffffff" stroke="none" x="1080" y="336" width="167" height="32"/></g><g transform="translate(-182,-54) scale(1,1)"><path fill="none" stroke="#000000" d="M 1080 336 L 1247 336 L 1247 368 L 1080 368 L 1080 336 Z Z" stroke-miterlimit="10"/></g><g transform="translate(-182,-54) scale(1,1)"><g><path fill="none" stroke="none"/><text fill="#000000" stroke="none" font-family="Arial" font-size="13px" font-style="normal" font-weight="normal" text-decoration="none" x="1089.5" y="358.5">runner.dbus.SystemBus()</text></g></g><g transform="translate(-182,-54) scale(1,1)"><path fill="none" stroke="#000000" d="M 1041 368 L 1080 368" stroke-miterlimit="10"/></g><g transform="translate(-182,-54) scale(1,1)"><path fill="#000000" stroke="none" d="M 1069.837325142376 372.209517756016 L 1080 368 L 1069.837325142376 363.790482243984"/></g><g transform="translate(-182,-54) scale(1,1)"><path fill="none" stroke="#000000" d="M 1069.837325142376 372.209517756016 L 1080 368 L 1069.837325142376 363.790482243984 L 1069.837325142376 372.209517756016" stroke-miterlimit="10"/></g><g transform="translate(-182,-54) scale(1,1)"><rect fill="#ffffff" stroke="none" x="928" y="408" width="390" height="45"/></g><g transform="translate(-182,-54) scale(1,1)"><path fill="none" stroke="#000000" d="M 928 408 L 1318 408 L 1318 453 L 928 453 L 928 408 Z Z" stroke-miterlimit="10"/></g><g transform="translate(-182,-54) scale(1,1)"><g><path fill="none" stroke="none"/><text fill="#000000" stroke="none" font-family="Arial" font-size="13px" font-style="normal" font-weight="normal" text-decoration="none" x="952" y="430.5">bus.BusObject().Call("org.freedesktop.DBus.AddMatch", 0,</text><text fill="#000000" stroke="none" font-family="Arial" font-size="13px" font-style="normal" font-weight="normal" text-decoration="none" x="1110.5" y="443.5">rule)</text></g></g><g transform="translate(-182,-54) scale(1,1)"><path fill="none" stroke="#000000" d="M 1147 368 L 1147 408" stroke-miterlimit="10"/></g><g transform="translate(-182,-54) scale(1,1)"><path fill="#000000" stroke="none" d="M 1142.7904822439841 397.83732514237585 L 1147 408 L 1151.2095177560159 397.83732514237585"/></g><g transform="translate(-182,-54) scale(1,1)"><path fill="none" stroke="#000000" d="M 1142.7904822439841 397.83732514237585 L 1147 408 L 1151.2095177560159 397.83732514237585 L 1142.7904822439841 397.83732514237585" stroke-miterlimit="10"/></g><g transform="translate(-182,-54) scale(1,1)"><rect fill="#ffffff" stroke="none" x="928" y="496" width="290" height="45"/></g><g transform="translate(-182,-54) scale(1,1)"><path fill="none" stroke="#000000" d="M 928 496 L 1218 496 L 1218 541 L 928 541 L 928 496 Z Z" stroke-miterlimit="10"/></g><g transform="translate(-182,-54) scale(1,1)"><g><path fill="none" stroke="none"/><text fill="#000000" stroke="none" font-family="Arial" font-size="13px" font-style="normal" font-weight="normal" text-decoration="none" x="948.5" y="518.5">runner.signal = make(chan *godbus.Signal,</text><text fill="#000000" stroke="none" font-family="Arial" font-size="13px" font-style="normal" font-weight="normal" text-decoration="none" x="1064" y="531.5">10)</text></g></g><g transform="translate(-182,-54) scale(1,1)"><path fill="none" stroke="#000000" d="M 1058 453 L 1058 496" stroke-miterlimit="10"/></g><g transform="translate(-182,-54) scale(1,1)"><path fill="#000000" stroke="none" d="M 1053.7904822439841 485.83732514237585 L 1058 496 L 1062.2095177560159 485.83732514237585"/></g><g transform="translate(-182,-54) scale(1,1)"><path fill="none" stroke="#000000" d="M 1053.7904822439841 485.83732514237585 L 1058 496 L 1062.2095177560159 485.83732514237585 L 1053.7904822439841 485.83732514237585" stroke-miterlimit="10"/></g><g transform="translate(-182,-54) scale(1,1)"><rect fill="#ffffff" stroke="none" x="936" y="584" width="162" height="32"/></g><g transform="translate(-182,-54) scale(1,1)"><path fill="none" stroke="#000000" d="M 936 584 L 1098 584 L 1098 616 L 936 616 L 936 584 Z Z" stroke-miterlimit="10"/></g><g transform="translate(-182,-54) scale(1,1)"><g><path fill="none" stroke="none"/><text fill="#000000" stroke="none" font-family="Arial" font-size="13px" font-style="normal" font-weight="normal" text-decoration="none" x="945.5" y="606.5">bus.Signal(runner.signal)</text></g></g><g transform="translate(-182,-54) scale(1,1)"><path fill="none" stroke="#000000" d="M 1018 541 L 1018 584" stroke-miterlimit="10"/></g><g transform="translate(-182,-54) scale(1,1)"><path fill="#000000" stroke="none" d="M 1013.790482243984 573.8373251423759 L 1018 584 L 1022.209517756016 573.8373251423759"/></g><g transform="translate(-182,-54) scale(1,1)"><path fill="none" stroke="#000000" d="M 1013.790482243984 573.8373251423759 L 1018 584 L 1022.209517756016 573.8373251423759 L 1013.790482243984 573.8373251423759" stroke-miterlimit="10"/></g><g transform="translate(-182,-54) scale(1,1)"><rect fill="#ffffff" stroke="none" x="936" y="656" width="196" height="32"/></g><g transform="translate(-182,-54) scale(1,1)"><path fill="none" stroke="#000000" d="M 936 656 L 1132 656 L 1132 688 L 936 688 L 936 656 Z Z" stroke-miterlimit="10"/></g><g transform="translate(-182,-54) scale(1,1)"><g><path fill="none" stroke="none"/><text fill="#000000" stroke="none" font-family="Arial" font-size="13px" font-style="normal" font-weight="normal" text-decoration="none" x="945.5" y="678.5">runner.dbusSignalHandler(bus)</text></g></g><g transform="translate(-182,-54) scale(1,1)"><path fill="none" stroke="#000000" d="M 1002 616 L 1002 656" stroke-miterlimit="10"/></g><g transform="translate(-182,-54) scale(1,1)"><path fill="#000000" stroke="none" d="M 997.790482243984 645.8373251423759 L 1002 656 L 1006.209517756016 645.8373251423759"/></g><g transform="translate(-182,-54) scale(1,1)"><path fill="none" stroke="#000000" d="M 997.790482243984 645.8373251423759 L 1002 656 L 1006.209517756016 645.8373251423759 L 997.790482243984 645.8373251423759" stroke-miterlimit="10"/></g><g transform="translate(-182,-54) scale(1,1)"><rect fill="#ffffff" stroke="none" x="1312" y="352" width="128" height="32"/></g><g transform="translate(-182,-54) scale(1,1)"><path fill="none" stroke="#000000" d="M 1312 352 L 1440 352 L 1440 384 L 1312 384 L 1312 352 Z Z" stroke-miterlimit="10"/></g><g transform="translate(-182,-54) scale(1,1)"><g><path fill="none" stroke="none"/><text fill="#000000" stroke="none" font-family="Arial" font-size="13px" font-style="normal" font-weight="normal" text-decoration="none" x="1321.5" y="374.5">SystemBusPrivate</text></g></g><g transform="translate(-182,-54) scale(1,1)"><path fill="none" stroke="#000000" d="M 1247 368 L 1312 368" stroke-miterlimit="10"/></g><g transform="translate(-182,-54) scale(1,1)"><path fill="#000000" stroke="none" d="M 1301.837325142376 372.209517756016 L 1312 368 L 1301.837325142376 363.790482243984"/></g><g transform="translate(-182,-54) scale(1,1)"><path fill="none" stroke="#000000" d="M 1301.837325142376 372.209517756016 L 1312 368 L 1301.837325142376 363.790482243984 L 1301.837325142376 372.209517756016" stroke-miterlimit="10"/></g><g transform="translate(-182,-54) scale(1,1)"><rect fill="#ffffff" stroke="none" x="1472" y="352" width="146" height="32"/></g><g transform="translate(-182,-54) scale(1,1)"><path fill="none" stroke="#000000" d="M 1472 352 L 1618 352 L 1618 384 L 1472 384 L 1472 352 Z Z" stroke-miterlimit="10"/></g><g transform="translate(-182,-54) scale(1,1)"><g><path fill="none" stroke="none"/><text fill="#000000" stroke="none" font-family="Arial" font-size="13px" font-style="normal" font-weight="normal" text-decoration="none" x="1507" y="374.5">Dial(address)</text></g></g><g transform="translate(-182,-54) scale(1,1)"><path fill="none" stroke="#000000" d="M 1440 384 L 1472 384" stroke-miterlimit="10"/></g><g transform="translate(-182,-54) scale(1,1)"><path fill="#000000" stroke="none" d="M 1461.837325142376 388.209517756016 L 1472 384 L 1461.837325142376 379.790482243984"/></g><g transform="translate(-182,-54) scale(1,1)"><path fill="none" stroke="#000000" d="M 1461.837325142376 388.209517756016 L 1472 384 L 1461.837325142376 379.790482243984 L 1461.837325142376 388.209517756016" stroke-miterlimit="10"/></g><g transform="translate(-182,-54) scale(1,1)"><rect fill="#ffffff" stroke="none" x="1336" y="432" width="99" height="32"/></g><g transform="translate(-182,-54) scale(1,1)"><path fill="none" stroke="#000000" d="M 1336 432 L 1435 432 L 1435 464 L 1336 464 L 1336 432 Z Z" stroke-miterlimit="10"/></g><g transform="translate(-182,-54) scale(1,1)"><g><path fill="none" stroke="none"/><text fill="#000000" stroke="none" font-family="Arial" font-size="13px" font-style="normal" font-weight="normal" text-decoration="none" x="1345.5" y="454.5">conn.Auth(nil)</text></g></g><g transform="translate(-182,-54) scale(1,1)"><path fill="none" stroke="#000000" d="M 1373 384 L 1373 432" stroke-miterlimit="10"/></g><g transform="translate(-182,-54) scale(1,1)"><path fill="#000000" stroke="none" d="M 1368.7904822439841 421.83732514237585 L 1373 432 L 1377.2095177560159 421.83732514237585"/></g><g transform="translate(-182,-54) scale(1,1)"><path fill="none" stroke="#000000" d="M 1368.7904822439841 421.83732514237585 L 1373 432 L 1377.2095177560159 421.83732514237585 L 1368.7904822439841 421.83732514237585" stroke-miterlimit="10"/></g><g transform="translate(-182,-54) scale(1,1)"><rect fill="#ffffff" stroke="none" x="1336" y="534" width="88" height="32"/></g><g transform="translate(-182,-54) scale(1,1)"><path fill="none" stroke="#000000" d="M 1336 534 L 1424 534 L 1424 566 L 1336 566 L 1336 534 Z Z" stroke-miterlimit="10"/></g><g transform="translate(-182,-54) scale(1,1)"><g><path fill="none" stroke="none"/><text fill="#000000" stroke="none" font-family="Arial" font-size="13px" font-style="normal" font-weight="normal" text-decoration="none" x="1345.5" y="556.5">conn.Hello()</text></g></g><g transform="translate(-182,-54) scale(1,1)"><path fill="none" stroke="#000000" d="M 1376 464 L 1376 534" stroke-miterlimit="10"/></g><g transform="translate(-182,-54) scale(1,1)"><path fill="#000000" stroke="none" d="M 1371.7904822439841 523.8373251423759 L 1376 534 L 1380.2095177560159 523.8373251423759"/></g><g transform="translate(-182,-54) scale(1,1)"><path fill="none" stroke="#000000" d="M 1371.7904822439841 523.8373251423759 L 1376 534 L 1380.2095177560159 523.8373251423759 L 1371.7904822439841 523.8373251423759" stroke-miterlimit="10"/></g><g transform="translate(-182,-54) scale(1,1)"><rect fill="#ffffff" stroke="none" x="592" y="224" width="160" height="32"/></g><g transform="translate(-182,-54) scale(1,1)"><path fill="none" stroke="#000000" d="M 592 224 L 752 224 L 752 256 L 592 256 L 592 224 Z Z" stroke-miterlimit="10"/></g><g transform="translate(-182,-54) scale(1,1)"><g><path fill="none" stroke="none"/><text fill="#000000" stroke="none" font-family="Arial" font-size="13px" font-style="normal" font-weight="normal" text-decoration="none" x="601.5" y="246.5">oom.NewOOMAdjuster()</text></g></g><g transform="translate(-182,-54) scale(1,1)"><path fill="none" stroke="#000000" d="M 629 184 L 629 224" stroke-miterlimit="10"/></g><g transform="translate(-182,-54) scale(1,1)"><path fill="#000000" stroke="none" d="M 624.790482243984 213.83732514237585 L 629 224 L 633.209517756016 213.83732514237585"/></g><g transform="translate(-182,-54) scale(1,1)"><path fill="none" stroke="#000000" d="M 624.790482243984 213.83732514237585 L 629 224 L 633.209517756016 213.83732514237585 L 624.790482243984 213.83732514237585" stroke-miterlimit="10"/></g><g transform="translate(-182,-54) scale(1,1)"><path fill="#ffffff" stroke="none" d="M 456 345.5 L 642.5 320 L 829 345.5 L 642.5 371 L 456 345.5"/></g><g transform="translate(-182,-54) scale(1,1)"><path fill="none" stroke="#000000" d="M 456 345.5 L 642.5 320 L 829 345.5 L 642.5 371 L 456 345.5 L 456 345.5" stroke-miterlimit="10"/></g><g transform="translate(-182,-54) scale(1,1)"><g><path fill="none" stroke="none"/><text fill="#000000" stroke="none" font-family="Arial" font-size="13px" font-style="normal" font-weight="normal" text-decoration="none" x="553" y="352">config.ResourceContainer != ""</text></g></g><g transform="translate(-182,-54) scale(1,1)"><path fill="none" stroke="#000000" d="M 657 256 L 657 320" stroke-miterlimit="10"/></g><g transform="translate(-182,-54) scale(1,1)"><path fill="#000000" stroke="none" d="M 652.790482243984 309.83732514237585 L 657 320 L 661.209517756016 309.83732514237585"/></g><g transform="translate(-182,-54) scale(1,1)"><path fill="none" stroke="#000000" d="M 652.790482243984 309.83732514237585 L 657 320 L 661.209517756016 309.83732514237585 L 652.790482243984 309.83732514237585" stroke-miterlimit="10"/></g><g transform="translate(-182,-54) scale(1,1)"><rect fill="#ffffff" stroke="none" x="520" y="432" width="341" height="32"/></g><g transform="translate(-182,-54) scale(1,1)"><path fill="none" stroke="#000000" d="M 520 432 L 861 432 L 861 464 L 520 464 L 520 432 Z Z" stroke-miterlimit="10"/></g><g transform="translate(-182,-54) scale(1,1)"><g><path fill="none" stroke="none"/><text fill="#000000" stroke="none" font-family="Arial" font-size="13px" font-style="normal" font-weight="normal" text-decoration="none" x="529.5" y="454.5">util.RunInResourceContainer(config.ResourceContainer)</text></g></g><g transform="translate(-182,-54) scale(1,1)"><path fill="none" stroke="#000000" d="M 648 371 L 648 432" stroke-miterlimit="10"/></g><g transform="translate(-182,-54) scale(1,1)"><path fill="#000000" stroke="none" d="M 643.790482243984 421.83732514237585 L 648 432 L 652.209517756016 421.83732514237585"/></g><g transform="translate(-182,-54) scale(1,1)"><path fill="none" stroke="#000000" d="M 643.790482243984 421.83732514237585 L 648 432 L 652.209517756016 421.83732514237585 L 643.790482243984 421.83732514237585" stroke-miterlimit="10"/></g><g transform="translate(-182,-54) scale(1,1)"><path fill="#ffffff" stroke="none" d="M 328 416 L 416 416 L 426 426 L 426 465 L 328 465 L 328 416"/></g><g transform="translate(-182,-54) scale(1,1)"><path fill="none" stroke="#000000" d="M 328 416 L 416 416 L 426 426 L 426 465 L 328 465 L 328 416 L 328 416" stroke-miterlimit="10"/></g><g transform="translate(-182,-54) scale(1,1)"><path fill="none" stroke="#000000" d="M 416 416 L 416 426 L 426 426 L 416 416" stroke-miterlimit="10"/></g><g transform="translate(-182,-54) scale(1,1)"><g><path fill="none" stroke="none"/><text fill="#000000" stroke="none" font-family="Arial" font-size="13px" font-style="normal" font-weight="normal" text-decoration="none" x="333" y="434">update cgroup</text><text fill="#000000" stroke="none" font-family="Arial" font-size="13px" font-style="normal" font-weight="normal" text-decoration="none" x="333" y="447">settings</text></g></g><g transform="translate(-182,-54) scale(1,1)"><path fill="none" stroke="#000000" d="M 519 444 L 428 442" stroke-miterlimit="10" stroke-dasharray="3"/></g><g transform="translate(-182,-54) scale(1,1)"><rect fill="#ffffff" stroke="none" x="512" y="504" width="384" height="45"/></g><g transform="translate(-182,-54) scale(1,1)"><path fill="none" stroke="#000000" d="M 512 504 L 896 504 L 896 549 L 512 549 L 512 504 Z Z" stroke-miterlimit="10"/></g><g transform="translate(-182,-54) scale(1,1)"><g><path fill="none" stroke="none"/><text fill="#000000" stroke="none" font-family="Arial" font-size="13px" font-style="normal" font-weight="normal" text-decoration="none" x="653" y="526.5">kubeconfig, err :=</text><text fill="#000000" stroke="none" font-family="Arial" font-size="13px" font-style="normal" font-weight="normal" text-decoration="none" x="537.5" y="539.5">clientcmd.NewNonInteractiveDeferredLoadingClientConfig</text></g></g><g transform="translate(-182,-54) scale(1,1)"><path fill="none" stroke="#000000" d="M 658 464 L 658 504" stroke-miterlimit="10"/></g><g transform="translate(-182,-54) scale(1,1)"><path fill="#000000" stroke="none" d="M 653.790482243984 493.83732514237585 L 658 504 L 662.209517756016 493.83732514237585"/></g><g transform="translate(-182,-54) scale(1,1)"><path fill="none" stroke="#000000" d="M 653.790482243984 493.83732514237585 L 658 504 L 662.209517756016 493.83732514237585 L 653.790482243984 493.83732514237585" stroke-miterlimit="10"/></g><g transform="translate(-182,-54) scale(1,1)"><rect fill="#ffffff" stroke="none" x="520" y="592" width="256" height="32"/></g><g transform="translate(-182,-54) scale(1,1)"><path fill="none" stroke="#000000" d="M 520 592 L 776 592 L 776 624 L 520 624 L 520 592 Z Z" stroke-miterlimit="10"/></g><g transform="translate(-182,-54) scale(1,1)"><g><path fill="none" stroke="none"/><text fill="#000000" stroke="none" font-family="Arial" font-size="13px" font-style="normal" font-weight="normal" text-decoration="none" x="531.5" y="614.5">client, err := kubeclient.New(kubeconfig)</text></g></g><g transform="translate(-182,-54) scale(1,1)"><path fill="none" stroke="#000000" d="M 636 549 L 636 592" stroke-miterlimit="10"/></g><g transform="translate(-182,-54) scale(1,1)"><path fill="#000000" stroke="none" d="M 631.790482243984 581.8373251423759 L 636 592 L 640.209517756016 581.8373251423759"/></g><g transform="translate(-182,-54) scale(1,1)"><path fill="none" stroke="#000000" d="M 631.790482243984 581.8373251423759 L 636 592 L 640.209517756016 581.8373251423759 L 631.790482243984 581.8373251423759" stroke-miterlimit="10"/></g><g transform="translate(-182,-54) scale(1,1)"><rect fill="#ffffff" stroke="none" x="520" y="694" width="448" height="45"/></g><g transform="translate(-182,-54) scale(1,1)"><path fill="none" stroke="#000000" d="M 520 694 L 968 694 L 968 739 L 520 739 L 520 694 Z Z" stroke-miterlimit="10"/></g><g transform="translate(-182,-54) scale(1,1)"><g><path fill="none" stroke="none"/><text fill="#000000" stroke="none" font-family="Arial" font-size="13px" font-style="normal" font-weight="normal" text-decoration="none" x="566" y="716.5">getProxyMode(string(config.Mode), client.Nodes(), hostname,</text><text fill="#000000" stroke="none" font-family="Arial" font-size="13px" font-style="normal" font-weight="normal" text-decoration="none" x="709.5" y="729.5">iptInterface)</text></g></g><g transform="translate(-182,-54) scale(1,1)"><path fill="none" stroke="#000000" d="M 626 672 L 626 694" stroke-miterlimit="10"/></g><g transform="translate(-182,-54) scale(1,1)"><path fill="#000000" stroke="none" d="M 621.790482243984 683.8373251423759 L 626 694 L 630.209517756016 683.8373251423759"/></g><g transform="translate(-182,-54) scale(1,1)"><path fill="none" stroke="#000000" d="M 621.790482243984 683.8373251423759 L 626 694 L 630.209517756016 683.8373251423759 L 621.790482243984 683.8373251423759" stroke-miterlimit="10"/></g><g transform="translate(-182,-54) scale(1,1)"><rect fill="#ffffff" stroke="none" x="504" y="832" width="134" height="32"/></g><g transform="translate(-182,-54) scale(1,1)"><path fill="none" stroke="#000000" d="M 504 832 L 638 832 L 638 864 L 504 864 L 504 832 Z Z" stroke-miterlimit="10"/></g><g transform="translate(-182,-54) scale(1,1)"><g><path fill="none" stroke="none"/><text fill="#000000" stroke="none" font-family="Arial" font-size="13px" font-style="normal" font-weight="normal" text-decoration="none" x="513.5" y="854.5">iptables.NewProxier</text></g></g><g transform="translate(-182,-54) scale(1,1)"><path fill="none" stroke="#000000" d="M 680 739 L 680 784" stroke-miterlimit="10"/></g><g transform="translate(-182,-54) scale(1,1)"><path fill="#000000" stroke="none" d="M 675.790482243984 773.8373251423759 L 680 784 L 684.209517756016 773.8373251423759"/></g><g transform="translate(-182,-54) scale(1,1)"><path fill="none" stroke="#000000" d="M 675.790482243984 773.8373251423759 L 680 784 L 684.209517756016 773.8373251423759 L 675.790482243984 773.8373251423759" stroke-miterlimit="10"/></g><g transform="translate(-182,-54) scale(1,1)"><rect fill="#ffffff" stroke="none" x="456" y="911" width="183" height="58"/></g><g transform="translate(-182,-54) scale(1,1)"><path fill="none" stroke="#000000" d="M 456 911 L 639 911 L 639 969 L 456 969 L 456 911 Z Z" stroke-miterlimit="10"/></g><g transform="translate(-182,-54) scale(1,1)"><g><path fill="none" stroke="none"/><text fill="#000000" stroke="none" font-family="Arial" font-size="13px" font-style="normal" font-weight="normal" text-decoration="none" x="477.5" y="933.5">proxier = proxierIptables</text></g></g><g transform="translate(-182,-54) scale(1,1)"><path fill="none" stroke="#000000" d="M 587 864 L 587 911" stroke-miterlimit="10"/></g><g transform="translate(-182,-54) scale(1,1)"><path fill="#000000" stroke="none" d="M 582.790482243984 900.8373251423759 L 587 911 L 591.209517756016 900.8373251423759"/></g><g transform="translate(-182,-54) scale(1,1)"><path fill="none" stroke="#000000" d="M 582.790482243984 900.8373251423759 L 587 911 L 591.209517756016 900.8373251423759 L 582.790482243984 900.8373251423759" stroke-miterlimit="10"/></g><g transform="translate(-182,-54) scale(1,1)"><rect fill="#ffffff" stroke="none" x="688" y="824" width="213" height="32"/></g><g transform="translate(-182,-54) scale(1,1)"><path fill="none" stroke="#000000" d="M 688 824 L 901 824 L 901 856 L 688 856 L 688 824 Z Z" stroke-miterlimit="10"/></g><g transform="translate(-182,-54) scale(1,1)"><g><path fill="none" stroke="none"/><text fill="#000000" stroke="none" font-family="Arial" font-size="13px" font-style="normal" font-weight="normal" text-decoration="none" x="697.5" y="846.5">userspace.NewLoadBalancerRR()</text></g></g><g transform="translate(-182,-54) scale(1,1)"><path fill="none" stroke="#000000" d="M 743 813 L 752 813 M 752 813 A 8 8 0 0 1 760 821 L 760 824" stroke-miterlimit="10"/></g><g transform="translate(-182,-54) scale(1,1)"><path fill="#000000" stroke="none" d="M 755.790482243984 813.8373251423759 L 760 824 L 764.209517756016 813.8373251423759"/></g><g transform="translate(-182,-54) scale(1,1)"><path fill="none" stroke="#000000" d="M 755.790482243984 813.8373251423759 L 760 824 L 764.209517756016 813.8373251423759 L 755.790482243984 813.8373251423759" stroke-miterlimit="10"/></g><g transform="translate(-182,-54) scale(1,1)"><path fill="#ffffff" stroke="none" d="M 616 798.5 L 679.5 784 L 743 798.5 L 679.5 813 L 616 798.5"/></g><g transform="translate(-182,-54) scale(1,1)"><path fill="none" stroke="#000000" d="M 616 798.5 L 679.5 784 L 743 798.5 L 679.5 813 L 616 798.5 L 616 798.5" stroke-miterlimit="10"/></g><g transform="translate(-182,-54) scale(1,1)"><g><path fill="none" stroke="none"/><text fill="#000000" stroke="none" font-family="Arial" font-size="13px" font-style="normal" font-weight="normal" text-decoration="none" x="647.5" y="805">proxyMode</text></g></g><g transform="translate(-182,-54) scale(1,1)"><path fill="none" stroke="#000000" d="M 616 813 L 568 813 M 568 813 A 8 8 0 0 0 560 821 L 560 832" stroke-miterlimit="10"/></g><g transform="translate(-182,-54) scale(1,1)"><path fill="#000000" stroke="none" d="M 555.790482243984 821.8373251423759 L 560 832 L 564.209517756016 821.8373251423759"/></g><g transform="translate(-182,-54) scale(1,1)"><path fill="none" stroke="#000000" d="M 555.790482243984 821.8373251423759 L 560 832 L 564.209517756016 821.8373251423759 L 555.790482243984 821.8373251423759" stroke-miterlimit="10"/></g><g transform="translate(-182,-54) scale(1,1)"><rect fill="#ffffff" stroke="none" x="688" y="888" width="210" height="45"/></g><g transform="translate(-182,-54) scale(1,1)"><path fill="none" stroke="#000000" d="M 688 888 L 898 888 L 898 933 L 688 933 L 688 888 Z Z" stroke-miterlimit="10"/></g><g transform="translate(-182,-54) scale(1,1)"><g><path fill="none" stroke="none"/><text fill="#000000" stroke="none" font-family="Arial" font-size="13px" font-style="normal" font-weight="normal" text-decoration="none" x="737" y="910.5">endpointsHandler =</text><text fill="#000000" stroke="none" font-family="Arial" font-size="13px" font-style="normal" font-weight="normal" text-decoration="none" x="755.5" y="923.5">loadBalancer</text></g></g><g transform="translate(-182,-54) scale(1,1)"><path fill="none" stroke="#000000" d="M 774 856 L 774 888" stroke-miterlimit="10"/></g><g transform="translate(-182,-54) scale(1,1)"><path fill="#000000" stroke="none" d="M 769.790482243984 877.8373251423759 L 774 888 L 778.209517756016 877.8373251423759"/></g><g transform="translate(-182,-54) scale(1,1)"><path fill="none" stroke="#000000" d="M 769.790482243984 877.8373251423759 L 774 888 L 778.209517756016 877.8373251423759 L 769.790482243984 877.8373251423759" stroke-miterlimit="10"/></g><g transform="translate(-182,-54) scale(1,1)"><rect fill="#ffffff" stroke="none" x="688" y="992" width="293" height="45"/></g><g transform="translate(-182,-54) scale(1,1)"><path fill="none" stroke="#000000" d="M 688 992 L 981 992 L 981 1037 L 688 1037 L 688 992 Z Z" stroke-miterlimit="10"/></g><g transform="translate(-182,-54) scale(1,1)"><g><path fill="none" stroke="none"/><text fill="#000000" stroke="none" font-family="Arial" font-size="13px" font-style="normal" font-weight="normal" text-decoration="none" x="764.5" y="1014.5">proxierUserspace, err :=</text><text fill="#000000" stroke="none" font-family="Arial" font-size="13px" font-style="normal" font-weight="normal" text-decoration="none" x="769.5" y="1027.5">userspace.NewProxier</text></g></g><g transform="translate(-182,-54) scale(1,1)"><path fill="none" stroke="#000000" d="M 754 933 L 754 992" stroke-miterlimit="10"/></g><g transform="translate(-182,-54) scale(1,1)"><path fill="#000000" stroke="none" d="M 749.790482243984 981.8373251423759 L 754 992 L 758.209517756016 981.8373251423759"/></g><g transform="translate(-182,-54) scale(1,1)"><path fill="none" stroke="#000000" d="M 749.790482243984 981.8373251423759 L 754 992 L 758.209517756016 981.8373251423759 L 749.790482243984 981.8373251423759" stroke-miterlimit="10"/></g><g transform="translate(-182,-54) scale(1,1)"><rect fill="#ffffff" stroke="none" x="688" y="1064" width="200" height="45"/></g><g transform="translate(-182,-54) scale(1,1)"><path fill="none" stroke="#000000" d="M 688 1064 L 888 1064 L 888 1109 L 688 1109 L 688 1064 Z Z" stroke-miterlimit="10"/></g><g transform="translate(-182,-54) scale(1,1)"><g><path fill="none" stroke="none"/><text fill="#000000" stroke="none" font-family="Arial" font-size="13px" font-style="normal" font-weight="normal" text-decoration="none" x="710" y="1086.5">proxier = proxierUserspace</text></g></g><g transform="translate(-182,-54) scale(1,1)"><path fill="none" stroke="#000000" d="M 769 1037 L 769 1064" stroke-miterlimit="10"/></g><g transform="translate(-182,-54) scale(1,1)"><path fill="#000000" stroke="none" d="M 764.790482243984 1053.837325142376 L 769 1064 L 773.209517756016 1053.837325142376"/></g><g transform="translate(-182,-54) scale(1,1)"><path fill="none" stroke="#000000" d="M 764.790482243984 1053.837325142376 L 769 1064 L 773.209517756016 1053.837325142376 L 764.790482243984 1053.837325142376" stroke-miterlimit="10"/></g><g transform="translate(-182,-54) scale(1,1)"><rect fill="#ffffff" stroke="none" x="424" y="1000" width="224" height="32"/></g><g transform="translate(-182,-54) scale(1,1)"><path fill="none" stroke="#000000" d="M 424 1000 L 648 1000 L 648 1032 L 424 1032 L 424 1000 Z Z" stroke-miterlimit="10"/></g><g transform="translate(-182,-54) scale(1,1)"><g><path fill="none" stroke="none"/><text fill="#000000" stroke="none" font-family="Arial" font-size="13px" font-style="normal" font-weight="normal" text-decoration="none" x="435.5" y="1022.5">endpointsHandler = proxierIptables</text></g></g><g transform="translate(-182,-54) scale(1,1)"><path fill="none" stroke="#000000" d="M 520 969 L 520 1000" stroke-miterlimit="10"/></g><g transform="translate(-182,-54) scale(1,1)"><path fill="#000000" stroke="none" d="M 515.790482243984 989.8373251423759 L 520 1000 L 524.209517756016 989.8373251423759"/></g><g transform="translate(-182,-54) scale(1,1)"><path fill="none" stroke="#000000" d="M 515.790482243984 989.8373251423759 L 520 1000 L 524.209517756016 989.8373251423759 L 515.790482243984 989.8373251423759" stroke-miterlimit="10"/></g><g transform="translate(-182,-54) scale(1,1)"><rect fill="#ffffff" stroke="none" x="520" y="1168" width="261" height="32"/></g><g transform="translate(-182,-54) scale(1,1)"><path fill="none" stroke="#000000" d="M 520 1168 L 781 1168 L 781 1200 L 520 1200 L 520 1168 Z Z" stroke-miterlimit="10"/></g><g transform="translate(-182,-54) scale(1,1)"><g><path fill="none" stroke="none"/><text fill="#000000" stroke="none" font-family="Arial" font-size="13px" font-style="normal" font-weight="normal" text-decoration="none" x="529.5" y="1190.5">iptInterface.AddReloadFunc(proxier.Sync)</text></g></g><g transform="translate(-182,-54) scale(1,1)"><path fill="none" stroke="#000000" d="M 763 1109 L 763 1168" stroke-miterlimit="10"/></g><g transform="translate(-182,-54) scale(1,1)"><path fill="#000000" stroke="none" d="M 758.790482243984 1157.837325142376 L 763 1168 L 767.209517756016 1157.837325142376"/></g><g transform="translate(-182,-54) scale(1,1)"><path fill="none" stroke="#000000" d="M 758.790482243984 1157.837325142376 L 763 1168 L 767.209517756016 1157.837325142376 L 758.790482243984 1157.837325142376" stroke-miterlimit="10"/></g><g transform="translate(-182,-54) scale(1,1)"><path fill="none" stroke="#000000" d="M 547 1032 L 547 1168" stroke-miterlimit="10"/></g><g transform="translate(-182,-54) scale(1,1)"><path fill="#000000" stroke="none" d="M 542.790482243984 1157.837325142376 L 547 1168 L 551.209517756016 1157.837325142376"/></g><g transform="translate(-182,-54) scale(1,1)"><path fill="none" stroke="#000000" d="M 542.790482243984 1157.837325142376 L 547 1168 L 551.209517756016 1157.837325142376 L 542.790482243984 1157.837325142376" stroke-miterlimit="10"/></g><g transform="translate(-182,-54) scale(1,1)"><rect fill="#ffffff" stroke="none" x="520" y="1224" width="204" height="32"/></g><g transform="translate(-182,-54) scale(1,1)"><path fill="none" stroke="#000000" d="M 520 1224 L 724 1224 L 724 1256 L 520 1256 L 520 1224 Z Z" stroke-miterlimit="10"/></g><g transform="translate(-182,-54) scale(1,1)"><g><path fill="none" stroke="none"/><text fill="#000000" stroke="none" font-family="Arial" font-size="13px" font-style="normal" font-weight="normal" text-decoration="none" x="529.5" y="1246.5">proxyconfig.NewServiceConfig()</text></g></g><g transform="translate(-182,-54) scale(1,1)"><path fill="none" stroke="#000000" d="M 625 1200 L 625 1224" stroke-miterlimit="10"/></g><g transform="translate(-182,-54) scale(1,1)"><path fill="#000000" stroke="none" d="M 620.790482243984 1213.837325142376 L 625 1224 L 629.209517756016 1213.837325142376"/></g><g transform="translate(-182,-54) scale(1,1)"><path fill="none" stroke="#000000" d="M 620.790482243984 1213.837325142376 L 625 1224 L 629.209517756016 1213.837325142376 L 620.790482243984 1213.837325142376" stroke-miterlimit="10"/></g><g transform="translate(-182,-54) scale(1,1)"><rect fill="#ffffff" stroke="none" x="520" y="1280" width="241" height="32"/></g><g transform="translate(-182,-54) scale(1,1)"><path fill="none" stroke="#000000" d="M 520 1280 L 761 1280 L 761 1312 L 520 1312 L 520 1280 Z Z" stroke-miterlimit="10"/></g><g transform="translate(-182,-54) scale(1,1)"><g><path fill="none" stroke="none"/><text fill="#000000" stroke="none" font-family="Arial" font-size="13px" font-style="normal" font-weight="normal" text-decoration="none" x="529.5" y="1302.5">serviceConfig.RegisterHandler(proxier)</text></g></g><g transform="translate(-182,-54) scale(1,1)"><path fill="none" stroke="#000000" d="M 603 1256 L 603 1280" stroke-miterlimit="10"/></g><g transform="translate(-182,-54) scale(1,1)"><path fill="#000000" stroke="none" d="M 598.790482243984 1269.837325142376 L 603 1280 L 607.209517756016 1269.837325142376"/></g><g transform="translate(-182,-54) scale(1,1)"><path fill="none" stroke="#000000" d="M 598.790482243984 1269.837325142376 L 603 1280 L 607.209517756016 1269.837325142376 L 598.790482243984 1269.837325142376" stroke-miterlimit="10"/></g><g transform="translate(-182,-54) scale(1,1)"><rect fill="#ffffff" stroke="none" x="520" y="1352" width="218" height="32"/></g><g transform="translate(-182,-54) scale(1,1)"><path fill="none" stroke="#000000" d="M 520 1352 L 738 1352 L 738 1384 L 520 1384 L 520 1352 Z Z" stroke-miterlimit="10"/></g><g transform="translate(-182,-54) scale(1,1)"><g><path fill="none" stroke="none"/><text fill="#000000" stroke="none" font-family="Arial" font-size="13px" font-style="normal" font-weight="normal" text-decoration="none" x="529.5" y="1374.5">proxyconfig.NewEndpointsConfig()</text></g></g><g transform="translate(-182,-54) scale(1,1)"><path fill="none" stroke="#000000" d="M 617 1312 L 617 1352" stroke-miterlimit="10"/></g><g transform="translate(-182,-54) scale(1,1)"><path fill="#000000" stroke="none" d="M 612.790482243984 1341.837325142376 L 617 1352 L 621.209517756016 1341.837325142376"/></g><g transform="translate(-182,-54) scale(1,1)"><path fill="none" stroke="#000000" d="M 612.790482243984 1341.837325142376 L 617 1352 L 621.209517756016 1341.837325142376 L 612.790482243984 1341.837325142376" stroke-miterlimit="10"/></g><g transform="translate(-182,-54) scale(1,1)"><rect fill="#ffffff" stroke="none" x="520" y="1424" width="316" height="32"/></g><g transform="translate(-182,-54) scale(1,1)"><path fill="none" stroke="#000000" d="M 520 1424 L 836 1424 L 836 1456 L 520 1456 L 520 1424 Z Z" stroke-miterlimit="10"/></g><g transform="translate(-182,-54) scale(1,1)"><g><path fill="none" stroke="none"/><text fill="#000000" stroke="none" font-family="Arial" font-size="13px" font-style="normal" font-weight="normal" text-decoration="none" x="529.5" y="1446.5">endpointsConfig.RegisterHandler(endpointsHandler)</text></g></g><g transform="translate(-182,-54) scale(1,1)"><path fill="none" stroke="#000000" d="M 608 1384 L 608 1424" stroke-miterlimit="10"/></g><g transform="translate(-182,-54) scale(1,1)"><path fill="#000000" stroke="none" d="M 603.790482243984 1413.837325142376 L 608 1424 L 612.209517756016 1413.837325142376"/></g><g transform="translate(-182,-54) scale(1,1)"><path fill="none" stroke="#000000" d="M 603.790482243984 1413.837325142376 L 608 1424 L 612.209517756016 1413.837325142376 L 603.790482243984 1413.837325142376" stroke-miterlimit="10"/></g><g transform="translate(-182,-54) scale(1,1)"><rect fill="#ffffff" stroke="none" x="528" y="1504" width="178" height="32"/></g><g transform="translate(-182,-54) scale(1,1)"><path fill="none" stroke="#000000" d="M 528 1504 L 706 1504 L 706 1536 L 528 1536 L 528 1504 Z Z" stroke-miterlimit="10"/></g><g transform="translate(-182,-54) scale(1,1)"><g><path fill="none" stroke="none"/><text fill="#000000" stroke="none" font-family="Arial" font-size="13px" font-style="normal" font-weight="normal" text-decoration="none" x="537.5" y="1526.5">proxyconfig.NewSourceAPI</text></g></g><g transform="translate(-182,-54) scale(1,1)"><path fill="none" stroke="#000000" d="M 648 1456 L 648 1504" stroke-miterlimit="10"/></g><g transform="translate(-182,-54) scale(1,1)"><path fill="#000000" stroke="none" d="M 643.790482243984 1493.837325142376 L 648 1504 L 652.209517756016 1493.837325142376"/></g><g transform="translate(-182,-54) scale(1,1)"><path fill="none" stroke="#000000" d="M 643.790482243984 1493.837325142376 L 648 1504 L 652.209517756016 1493.837325142376 L 643.790482243984 1493.837325142376" stroke-miterlimit="10"/></g><g transform="translate(-182,-54) scale(1,1)"><rect fill="#ffffff" stroke="none" x="528" y="1606" width="116" height="32"/></g><g transform="translate(-182,-54) scale(1,1)"><path fill="none" stroke="#000000" d="M 528 1606 L 644 1606 L 644 1638 L 528 1638 L 528 1606 Z Z" stroke-miterlimit="10"/></g><g transform="translate(-182,-54) scale(1,1)"><g><path fill="none" stroke="none"/><text fill="#000000" stroke="none" font-family="Arial" font-size="13px" font-style="normal" font-weight="normal" text-decoration="none" x="537.5" y="1628.5">NewProxyServer</text></g></g><g transform="translate(-182,-54) scale(1,1)"><path fill="none" stroke="#000000" d="M 600 1536 L 600 1606" stroke-miterlimit="10"/></g><g transform="translate(-182,-54) scale(1,1)"><path fill="#000000" stroke="none" d="M 595.790482243984 1595.837325142376 L 600 1606 L 604.209517756016 1595.837325142376"/></g><g transform="translate(-182,-54) scale(1,1)"><path fill="none" stroke="#000000" d="M 595.790482243984 1595.837325142376 L 600 1606 L 604.209517756016 1595.837325142376 L 595.790482243984 1595.837325142376" stroke-miterlimit="10"/></g><g transform="translate(-182,-54) scale(1,1)"><rect fill="#ffffff" stroke="none" x="512" y="640" width="229" height="32"/></g><g transform="translate(-182,-54) scale(1,1)"><path fill="none" stroke="#000000" d="M 512 640 L 741 640 L 741 672 L 512 672 L 512 640 Z Z" stroke-miterlimit="10"/></g><g transform="translate(-182,-54) scale(1,1)"><g><path fill="none" stroke="none"/><text fill="#000000" stroke="none" font-family="Arial" font-size="13px" font-style="normal" font-weight="normal" text-decoration="none" x="521.5" y="662.5">proxyconfig.EndpointsConfigHandler</text></g></g><g transform="translate(-182,-54) scale(1,1)"><path fill="none" stroke="#000000" d="M 689 624 L 689 640" stroke-miterlimit="10"/></g><g transform="translate(-182,-54) scale(1,1)"><path fill="#000000" stroke="none" d="M 684.790482243984 629.8373251423759 L 689 640 L 693.209517756016 629.8373251423759"/></g><g transform="translate(-182,-54) scale(1,1)"><path fill="none" stroke="#000000" d="M 684.790482243984 629.8373251423759 L 689 640 L 693.209517756016 629.8373251423759 L 684.790482243984 629.8373251423759" stroke-miterlimit="10"/></g><g transform="translate(-182,-54) scale(1,1)"><rect fill="#ffffff" stroke="none" x="208" y="632" width="290" height="45"/></g><g transform="translate(-182,-54) scale(1,1)"><path fill="none" stroke="#000000" d="M 208 632 L 498 632 L 498 677 L 208 677 L 208 632 Z Z" stroke-miterlimit="10"/></g><g transform="translate(-182,-54) scale(1,1)"><g><path fill="none" stroke="none"/><text fill="#000000" stroke="none" font-family="Arial" font-size="13px" font-style="normal" font-weight="normal" text-decoration="none" x="265" y="654.5">OnEndpointsUpdate(endpoints</text><text fill="#000000" stroke="none" font-family="Arial" font-size="13px" font-style="normal" font-weight="normal" text-decoration="none" x="307.5" y="667.5">[]api.Endpoints)</text></g></g><g transform="translate(-182,-54) scale(1,1)"><path fill="none" stroke="#000000" d="M 448 1000 L 448 677" stroke-miterlimit="10"/></g><g transform="translate(-182,-54) scale(1,1)"><path fill="#000000" stroke="none" d="M 452.209517756016 687.1626748576241 L 448 677 L 443.790482243984 687.1626748576241"/></g><g transform="translate(-182,-54) scale(1,1)"><path fill="none" stroke="#000000" d="M 452.209517756016 687.1626748576241 L 448 677 L 443.790482243984 687.1626748576241 L 452.209517756016 687.1626748576241" stroke-miterlimit="10"/></g><g transform="translate(-182,-54) scale(1,1)"><rect fill="#ffffff" stroke="none" x="208" y="747" width="165" height="32"/></g><g transform="translate(-182,-54) scale(1,1)"><path fill="none" stroke="#000000" d="M 208 747 L 373 747 L 373 779 L 208 779 L 208 747 Z Z" stroke-miterlimit="10"/></g><g transform="translate(-182,-54) scale(1,1)"><g><path fill="none" stroke="none"/><text fill="#000000" stroke="none" font-family="Arial" font-size="13px" font-style="normal" font-weight="normal" text-decoration="none" x="217.5" y="769.5">proxier.syncProxyRules()</text></g></g><g transform="translate(-182,-54) scale(1,1)"><path fill="none" stroke="#000000" d="M 314 677 L 314 747" stroke-miterlimit="10"/></g><g transform="translate(-182,-54) scale(1,1)"><path fill="#000000" stroke="none" d="M 309.790482243984 736.8373251423759 L 314 747 L 318.209517756016 736.8373251423759"/></g><g transform="translate(-182,-54) scale(1,1)"><path fill="none" stroke="#000000" d="M 309.790482243984 736.8373251423759 L 314 747 L 318.209517756016 736.8373251423759 L 309.790482243984 736.8373251423759" stroke-miterlimit="10"/></g><g transform="translate(-182,-54) scale(1,1)"><rect fill="#ffffff" stroke="none" x="192" y="856" width="204" height="45"/></g><g transform="translate(-182,-54) scale(1,1)"><path fill="none" stroke="#000000" d="M 192 856 L 396 856 L 396 901 L 192 901 L 192 856 Z Z" stroke-miterlimit="10"/></g><g transform="translate(-182,-54) scale(1,1)"><g><path fill="none" stroke="none"/><text fill="#000000" stroke="none" font-family="Arial" font-size="13px" font-style="normal" font-weight="normal" text-decoration="none" x="214.5" y="878.5">proxier.iptables.EnsureRule</text></g></g><g transform="translate(-182,-54) scale(1,1)"><path fill="none" stroke="#000000" d="M 274 779 L 274 856" stroke-miterlimit="10"/></g><g transform="translate(-182,-54) scale(1,1)"><path fill="#000000" stroke="none" d="M 269.790482243984 845.8373251423759 L 274 856 L 278.209517756016 845.8373251423759"/></g><g transform="translate(-182,-54) scale(1,1)"><path fill="none" stroke="#000000" d="M 269.790482243984 845.8373251423759 L 274 856 L 278.209517756016 845.8373251423759 L 269.790482243984 845.8373251423759" stroke-miterlimit="10"/></g><g transform="translate(-182,-54) scale(1,1)"><rect fill="#ffffff" stroke="none" x="888" y="1144" width="571" height="45"/></g><g transform="translate(-182,-54) scale(1,1)"><path fill="none" stroke="#000000" d="M 888 1144 L 1459 1144 L 1459 1189 L 888 1189 L 888 1144 Z Z" stroke-miterlimit="10"/></g><g transform="translate(-182,-54) scale(1,1)"><g><path fill="none" stroke="none"/><text fill="#000000" stroke="none" font-family="Arial" font-size="13px" font-style="normal" font-weight="normal" text-decoration="none" x="946" y="1166.5">createProxier(loadBalancer, listenIP, iptables, hostIP, proxyPorts, syncPeriod,</text><text fill="#000000" stroke="none" font-family="Arial" font-size="13px" font-style="normal" font-weight="normal" text-decoration="none" x="1127" y="1179.5">udpIdleTimeout)</text></g></g><g transform="translate(-182,-54) scale(1,1)"><path fill="none" stroke="#000000" d="M 976 1037 L 976 1144" stroke-miterlimit="10"/></g><g transform="translate(-182,-54) scale(1,1)"><path fill="#000000" stroke="none" d="M 971.790482243984 1133.837325142376 L 976 1144 L 980.209517756016 1133.837325142376"/></g><g transform="translate(-182,-54) scale(1,1)"><path fill="none" stroke="#000000" d="M 971.790482243984 1133.837325142376 L 976 1144 L 980.209517756016 1133.837325142376 L 971.790482243984 1133.837325142376" stroke-miterlimit="10"/></g><g transform="translate(-182,-54) scale(1,1)"><rect fill="#ffffff" stroke="none" x="1040" y="1240" width="82" height="32"/></g><g transform="translate(-182,-54) scale(1,1)"><path fill="none" stroke="#000000" d="M 1040 1240 L 1122 1240 L 1122 1272 L 1040 1272 L 1040 1240 Z Z" stroke-miterlimit="10"/></g><g transform="translate(-182,-54) scale(1,1)"><g><path fill="none" stroke="none"/><text fill="#000000" stroke="none" font-family="Arial" font-size="13px" font-style="normal" font-weight="normal" text-decoration="none" x="1049.5" y="1262.5">iptablesInit</text></g></g><g transform="translate(-182,-54) scale(1,1)"><path fill="none" stroke="#000000" d="M 1091 1189 L 1091 1240" stroke-miterlimit="10"/></g><g transform="translate(-182,-54) scale(1,1)"><path fill="#000000" stroke="none" d="M 1086.7904822439841 1229.837325142376 L 1091 1240 L 1095.2095177560159 1229.837325142376"/></g><g transform="translate(-182,-54) scale(1,1)"><path fill="none" stroke="#000000" d="M 1086.7904822439841 1229.837325142376 L 1091 1240 L 1095.2095177560159 1229.837325142376 L 1086.7904822439841 1229.837325142376" stroke-miterlimit="10"/></g><g transform="translate(-182,-54) scale(1,1)"><rect fill="#ffffff" stroke="none" x="1040" y="1342" width="96" height="32"/></g><g transform="translate(-182,-54) scale(1,1)"><path fill="none" stroke="#000000" d="M 1040 1342 L 1136 1342 L 1136 1374 L 1040 1374 L 1040 1342 Z Z" stroke-miterlimit="10"/></g><g transform="translate(-182,-54) scale(1,1)"><g><path fill="none" stroke="none"/><text fill="#000000" stroke="none" font-family="Arial" font-size="13px" font-style="normal" font-weight="normal" text-decoration="none" x="1049.5" y="1364.5">iptablesFlush</text></g></g><g transform="translate(-182,-54) scale(1,1)"><path fill="none" stroke="#000000" d="M 1073 1272 L 1073 1342" stroke-miterlimit="10"/></g><g transform="translate(-182,-54) scale(1,1)"><path fill="#000000" stroke="none" d="M 1068.7904822439841 1331.837325142376 L 1073 1342 L 1077.2095177560159 1331.837325142376"/></g><g transform="translate(-182,-54) scale(1,1)"><path fill="none" stroke="#000000" d="M 1068.7904822439841 1331.837325142376 L 1073 1342 L 1077.2095177560159 1331.837325142376 L 1068.7904822439841 1331.837325142376" stroke-miterlimit="10"/></g><g transform="translate(-182,-54) scale(1,1)"><rect fill="#ffffff" stroke="none" x="960" y="896" width="121" height="32"/></g><g transform="translate(-182,-54) scale(1,1)"><path fill="none" stroke="#000000" d="M 960 896 L 1081 896 L 1081 928 L 960 928 L 960 896 Z Z" stroke-miterlimit="10"/></g><g transform="translate(-182,-54) scale(1,1)"><g><path fill="none" stroke="none"/><text fill="#000000" stroke="none" font-family="Arial" font-size="13px" font-style="normal" font-weight="normal" text-decoration="none" x="969.5" y="918.5">OnServiceUpdate</text></g></g><g transform="translate(-182,-54) scale(1,1)"><path fill="none" stroke="#000000" d="M 898 912 L 960 912" stroke-miterlimit="10"/></g><g transform="translate(-182,-54) scale(1,1)"><path fill="#000000" stroke="none" d="M 949.8373251423759 916.209517756016 L 960 912 L 949.8373251423758 907.790482243984"/></g><g transform="translate(-182,-54) scale(1,1)"><path fill="none" stroke="#000000" d="M 949.8373251423759 916.209517756016 L 960 912 L 949.8373251423758 907.790482243984 L 949.8373251423759 916.209517756016" stroke-miterlimit="10"/></g><g transform="translate(-182,-54) scale(1,1)"><rect fill="#ffffff" stroke="none" x="1344" y="1032" width="211" height="32"/></g><g transform="translate(-182,-54) scale(1,1)"><path fill="none" stroke="#000000" d="M 1344 1032 L 1555 1032 L 1555 1064 L 1344 1064 L 1344 1032 Z Z" stroke-miterlimit="10"/></g><g transform="translate(-182,-54) scale(1,1)"><g><path fill="none" stroke="none"/><text fill="#000000" stroke="none" font-family="Arial" font-size="13px" font-style="normal" font-weight="normal" text-decoration="none" x="1353.5" y="1054.5">proxier.proxyPorts.AllocateNext()</text></g></g><g transform="translate(-182,-54) scale(1,1)"><path fill="none" stroke="#000000" d="M 1056 928 L 1056 1032 M 1056 1032 A 8 8 0 0 0 1064 1040 L 1344 1040" stroke-miterlimit="10"/></g><g transform="translate(-182,-54) scale(1,1)"><path fill="#000000" stroke="none" d="M 1333.837325142376 1044.2095177560159 L 1344 1040 L 1333.837325142376 1035.7904822439841"/></g><g transform="translate(-182,-54) scale(1,1)"><path fill="none" stroke="#000000" d="M 1333.837325142376 1044.2095177560159 L 1344 1040 L 1333.837325142376 1035.7904822439841 L 1333.837325142376 1044.2095177560159" stroke-miterlimit="10"/></g><g transform="translate(-182,-54) scale(1,1)"><rect fill="#ffffff" stroke="none" x="1288" y="888" width="108" height="32"/></g><g transform="translate(-182,-54) scale(1,1)"><path fill="none" stroke="#000000" d="M 1288 888 L 1396 888 L 1396 920 L 1288 920 L 1288 888 Z Z" stroke-miterlimit="10"/></g><g transform="translate(-182,-54) scale(1,1)"><g><path fill="none" stroke="none"/><text fill="#000000" stroke="none" font-family="Arial" font-size="13px" font-style="normal" font-weight="normal" text-decoration="none" x="1297.5" y="910.5">closeOnePortal</text></g></g><g transform="translate(-182,-54) scale(1,1)"><path fill="none" stroke="#000000" d="M 1081 910 L 1288 910" stroke-miterlimit="10"/></g><g transform="translate(-182,-54) scale(1,1)"><path fill="#000000" stroke="none" d="M 1277.837325142376 914.209517756016 L 1288 910 L 1277.837325142376 905.790482243984"/></g><g transform="translate(-182,-54) scale(1,1)"><path fill="none" stroke="#000000" d="M 1277.837325142376 914.209517756016 L 1288 910 L 1277.837325142376 905.790482243984 L 1277.837325142376 914.209517756016" stroke-miterlimit="10"/></g><g transform="translate(-182,-54) scale(1,1)"><rect fill="#ffffff" stroke="none" x="1456" y="888" width="158" height="32"/></g><g transform="translate(-182,-54) scale(1,1)"><path fill="none" stroke="#000000" d="M 1456 888 L 1614 888 L 1614 920 L 1456 920 L 1456 888 Z Z" stroke-miterlimit="10"/></g><g transform="translate(-182,-54) scale(1,1)"><g><path fill="none" stroke="none"/><text fill="#000000" stroke="none" font-family="Arial" font-size="13px" font-style="normal" font-weight="normal" text-decoration="none" x="1465.5" y="910.5">proxier.releaseNodePort</text></g></g><g transform="translate(-182,-54) scale(1,1)"><path fill="none" stroke="#000000" d="M 1396 904 L 1456 904" stroke-miterlimit="10"/></g><g transform="translate(-182,-54) scale(1,1)"><path fill="#000000" stroke="none" d="M 1445.837325142376 908.209517756016 L 1456 904 L 1445.837325142376 899.790482243984"/></g><g transform="translate(-182,-54) scale(1,1)"><path fill="none" stroke="#000000" d="M 1445.837325142376 908.209517756016 L 1456 904 L 1445.837325142376 899.790482243984 L 1445.837325142376 908.209517756016" stroke-miterlimit="10"/></g><g transform="translate(-182,-54) scale(1,1)"><rect fill="#ffffff" stroke="none" x="1456" y="960" width="174" height="32"/></g><g transform="translate(-182,-54) scale(1,1)"><path fill="none" stroke="#000000" d="M 1456 960 L 1630 960 L 1630 992 L 1456 992 L 1456 960 Z Z" stroke-miterlimit="10"/></g><g transform="translate(-182,-54) scale(1,1)"><g><path fill="none" stroke="none"/><text fill="#000000" stroke="none" font-family="Arial" font-size="13px" font-style="normal" font-weight="normal" text-decoration="none" x="1465.5" y="982.5">proxier.iptables.DeleteRule</text></g></g><g transform="translate(-182,-54) scale(1,1)"><path fill="none" stroke="#000000" d="M 1520 920 L 1520 960" stroke-miterlimit="10"/></g><g transform="translate(-182,-54) scale(1,1)"><path fill="#000000" stroke="none" d="M 1515.7904822439841 949.8373251423759 L 1520 960 L 1524.2095177560159 949.8373251423759"/></g><g transform="translate(-182,-54) scale(1,1)"><path fill="none" stroke="#000000" d="M 1515.7904822439841 949.8373251423759 L 1520 960 L 1524.2095177560159 949.8373251423759 L 1515.7904822439841 949.8373251423759" stroke-miterlimit="10"/></g><g transform="translate(-182,-54) scale(1,1)"><rect fill="#ffffff" stroke="none" x="1344" y="1096" width="168" height="32"/></g><g transform="translate(-182,-54) scale(1,1)"><path fill="none" stroke="#000000" d="M 1344 1096 L 1512 1096 L 1512 1128 L 1344 1128 L 1344 1096 Z Z" stroke-miterlimit="10"/></g><g transform="translate(-182,-54) scale(1,1)"><g><path fill="none" stroke="none"/><text fill="#000000" stroke="none" font-family="Arial" font-size="13px" font-style="normal" font-weight="normal" text-decoration="none" x="1353.5" y="1118.5">proxier.addServiceOnPort</text></g></g><g transform="translate(-182,-54) scale(1,1)"><path fill="none" stroke="#000000" d="M 1445 1064 L 1445 1096" stroke-miterlimit="10"/></g><g transform="translate(-182,-54) scale(1,1)"><path fill="#000000" stroke="none" d="M 1440.7904822439841 1085.837325142376 L 1445 1096 L 1449.2095177560159 1085.837325142376"/></g><g transform="translate(-182,-54) scale(1,1)"><path fill="none" stroke="#000000" d="M 1440.7904822439841 1085.837325142376 L 1445 1096 L 1449.2095177560159 1085.837325142376 L 1440.7904822439841 1085.837325142376" stroke-miterlimit="10"/></g><g transform="translate(-182,-54) scale(1,1)"><rect fill="#ffffff" stroke="none" x="1560" y="1096" width="330" height="45"/></g><g transform="translate(-182,-54) scale(1,1)"><path fill="none" stroke="#000000" d="M 1560 1096 L 1890 1096 L 1890 1141 L 1560 1141 L 1560 1096 Z Z" stroke-miterlimit="10"/></g><g transform="translate(-182,-54) scale(1,1)"><g><path fill="none" stroke="none"/><text fill="#000000" stroke="none" font-family="Arial" font-size="13px" font-style="normal" font-weight="normal" text-decoration="none" x="1601.5" y="1118.5">newProxySocket(protocol, proxier.listenIP,</text><text fill="#000000" stroke="none" font-family="Arial" font-size="13px" font-style="normal" font-weight="normal" text-decoration="none" x="1695" y="1131.5">proxyPort)</text></g></g><g transform="translate(-182,-54) scale(1,1)"><path fill="none" stroke="#000000" d="M 1512 1128 L 1560 1128" stroke-miterlimit="10"/></g><g transform="translate(-182,-54) scale(1,1)"><path fill="#000000" stroke="none" d="M 1549.837325142376 1132.2095177560159 L 1560 1128 L 1549.837325142376 1123.7904822439841"/></g><g transform="translate(-182,-54) scale(1,1)"><path fill="none" stroke="#000000" d="M 1549.837325142376 1132.2095177560159 L 1560 1128 L 1549.837325142376 1123.7904822439841 L 1549.837325142376 1132.2095177560159" stroke-miterlimit="10"/></g><g transform="translate(-182,-54) scale(1,1)"><rect fill="#ffffff" stroke="none" x="1560" y="1192" width="216" height="32"/></g><g transform="translate(-182,-54) scale(1,1)"><path fill="none" stroke="#000000" d="M 1560 1192 L 1776 1192 L 1776 1224 L 1560 1224 L 1560 1192 Z Z" stroke-miterlimit="10"/></g><g transform="translate(-182,-54) scale(1,1)"><g><path fill="none" stroke="none"/><text fill="#000000" stroke="none" font-family="Arial" font-size="13px" font-style="normal" font-weight="normal" text-decoration="none" x="1570.5" y="1214.5">proxier.setServiceInfo(service, si)</text></g></g><g transform="translate(-182,-54) scale(1,1)"><path fill="none" stroke="#000000" d="M 1641 1141 L 1641 1192" stroke-miterlimit="10"/></g><g transform="translate(-182,-54) scale(1,1)"><path fill="#000000" stroke="none" d="M 1636.7904822439841 1181.837325142376 L 1641 1192 L 1645.2095177560159 1181.837325142376"/></g><g transform="translate(-182,-54) scale(1,1)"><path fill="none" stroke="#000000" d="M 1636.7904822439841 1181.837325142376 L 1641 1192 L 1645.2095177560159 1181.837325142376 L 1636.7904822439841 1181.837325142376" stroke-miterlimit="10"/></g><g transform="translate(-182,-54) scale(1,1)"><rect fill="#ffffff" stroke="none" x="1560" y="1248" width="228" height="45"/></g><g transform="translate(-182,-54) scale(1,1)"><path fill="none" stroke="#000000" d="M 1560 1248 L 1788 1248 L 1788 1293 L 1560 1293 L 1560 1248 Z Z" stroke-miterlimit="10"/></g><g transform="translate(-182,-54) scale(1,1)"><g><path fill="none" stroke="none"/><text fill="#000000" stroke="none" font-family="Arial" font-size="13px" font-style="normal" font-weight="normal" text-decoration="none" x="1593" y="1270.5">sock.ProxyLoop(service, si,</text><text fill="#000000" stroke="none" font-family="Arial" font-size="13px" font-style="normal" font-weight="normal" text-decoration="none" x="1652.5" y="1283.5">proxier)</text></g></g><g transform="translate(-182,-54) scale(1,1)"><path fill="none" stroke="#000000" d="M 1647 1224 L 1647 1248" stroke-miterlimit="10"/></g><g transform="translate(-182,-54) scale(1,1)"><path fill="#000000" stroke="none" d="M 1642.7904822439841 1237.837325142376 L 1647 1248 L 1651.2095177560159 1237.837325142376"/></g><g transform="translate(-182,-54) scale(1,1)"><path fill="none" stroke="#000000" d="M 1642.7904822439841 1237.837325142376 L 1647 1248 L 1651.2095177560159 1237.837325142376 L 1642.7904822439841 1237.837325142376" stroke-miterlimit="10"/></g><g transform="translate(-182,-54) scale(1,1)"><rect fill="#ffffff" stroke="none" x="1600" y="1352" width="82" height="32"/></g><g transform="translate(-182,-54) scale(1,1)"><path fill="none" stroke="#000000" d="M 1600 1352 L 1682 1352 L 1682 1384 L 1600 1384 L 1600 1352 Z Z" stroke-miterlimit="10"/></g><g transform="translate(-182,-54) scale(1,1)"><g><path fill="none" stroke="none"/><text fill="#000000" stroke="none" font-family="Arial" font-size="13px" font-style="normal" font-weight="normal" text-decoration="none" x="1609.5" y="1374.5">tryConnect</text></g></g><g transform="translate(-182,-54) scale(1,1)"><path fill="none" stroke="#000000" d="M 1645 1293 L 1645 1352" stroke-miterlimit="10"/></g><g transform="translate(-182,-54) scale(1,1)"><path fill="#000000" stroke="none" d="M 1640.7904822439841 1341.837325142376 L 1645 1352 L 1649.2095177560159 1341.837325142376"/></g><g transform="translate(-182,-54) scale(1,1)"><path fill="none" stroke="#000000" d="M 1640.7904822439841 1341.837325142376 L 1645 1352 L 1649.2095177560159 1341.837325142376 L 1640.7904822439841 1341.837325142376" stroke-miterlimit="10"/></g><g transform="translate(-182,-54) scale(1,1)"><rect fill="#ffffff" stroke="none" x="1744" y="1344" width="269" height="45"/></g><g transform="translate(-182,-54) scale(1,1)"><path fill="none" stroke="#000000" d="M 1744 1344 L 2013 1344 L 2013 1389 L 1744 1389 L 1744 1344 Z Z" stroke-miterlimit="10"/></g><g transform="translate(-182,-54) scale(1,1)"><g><path fill="none" stroke="none"/><text fill="#000000" stroke="none" font-family="Arial" font-size="13px" font-style="normal" font-weight="normal" text-decoration="none" x="1753.5" y="1366.5">proxier.loadBalancer.NextEndpoint(service,</text><text fill="#000000" stroke="none" font-family="Arial" font-size="13px" font-style="normal" font-weight="normal" text-decoration="none" x="1854" y="1379.5">srcAddr)</text></g></g><g transform="translate(-182,-54) scale(1,1)"><path fill="none" stroke="#000000" d="M 1682 1384 L 1744 1384" stroke-miterlimit="10"/></g><g transform="translate(-182,-54) scale(1,1)"><path fill="#000000" stroke="none" d="M 1733.837325142376 1388.2095177560159 L 1744 1384 L 1733.837325142376 1379.7904822439841"/></g><g transform="translate(-182,-54) scale(1,1)"><path fill="none" stroke="#000000" d="M 1733.837325142376 1388.2095177560159 L 1744 1384 L 1733.837325142376 1379.7904822439841 L 1733.837325142376 1388.2095177560159" stroke-miterlimit="10"/></g><g transform="translate(-182,-54) scale(1,1)"><path fill="#ffffff" stroke="none" d="M 1920 1240 L 2008 1240 L 2018 1250 L 2018 1288 L 1920 1288 L 1920 1240"/></g><g transform="translate(-182,-54) scale(1,1)"><path fill="none" stroke="#000000" d="M 1920 1240 L 2008 1240 L 2018 1250 L 2018 1288 L 1920 1288 L 1920 1240 L 1920 1240" stroke-miterlimit="10"/></g><g transform="translate(-182,-54) scale(1,1)"><path fill="none" stroke="#000000" d="M 2008 1240 L 2008 1250 L 2018 1250 L 2008 1240" stroke-miterlimit="10"/></g><g transform="translate(-182,-54) scale(1,1)"><g><path fill="none" stroke="none"/><text fill="#000000" stroke="none" font-family="Arial" font-size="13px" font-style="normal" font-weight="normal" text-decoration="none" x="1925" y="1258">roundrobin.go</text></g></g><g transform="translate(-182,-54) scale(1,1)"><path fill="none" stroke="#000000" d="M 1899 1343 L 1946 1290" stroke-miterlimit="10" stroke-dasharray="3"/></g><g transform="translate(-182,-54) scale(1,1)"><path fill="#ffffff" stroke="none" d="M 2064 1369.5 L 2161.5 1355 L 2259 1369.5 L 2161.5 1384 L 2064 1369.5"/></g><g transform="translate(-182,-54) scale(1,1)"><path fill="none" stroke="#000000" d="M 2064 1369.5 L 2161.5 1355 L 2259 1369.5 L 2161.5 1384 L 2064 1369.5 L 2064 1369.5" stroke-miterlimit="10"/></g><g transform="translate(-182,-54) scale(1,1)"><g><path fill="none" stroke="none"/><text fill="#000000" stroke="none" font-family="Arial" font-size="13px" font-style="normal" font-weight="normal" text-decoration="none" x="2112.5" y="1376">isSessionAffinity</text></g></g><g transform="translate(-182,-54) scale(1,1)"><path fill="none" stroke="#000000" d="M 2013 1384 L 2064 1384" stroke-miterlimit="10"/></g><g transform="translate(-182,-54) scale(1,1)"><path fill="#000000" stroke="none" d="M 2053.837325142376 1388.2095177560159 L 2064 1384 L 2053.837325142376 1379.7904822439841"/></g><g transform="translate(-182,-54) scale(1,1)"><path fill="none" stroke="#000000" d="M 2053.837325142376 1388.2095177560159 L 2064 1384 L 2053.837325142376 1379.7904822439841 L 2053.837325142376 1388.2095177560159" stroke-miterlimit="10"/></g><g transform="translate(-182,-54) scale(1,1)"><rect fill="#ffffff" stroke="none" x="2024" y="1424" width="202" height="32"/></g><g transform="translate(-182,-54) scale(1,1)"><path fill="none" stroke="#000000" d="M 2024 1424 L 2226 1424 L 2226 1456 L 2024 1456 L 2024 1424 Z Z" stroke-miterlimit="10"/></g><g transform="translate(-182,-54) scale(1,1)"><g><path fill="none" stroke="none"/><text fill="#000000" stroke="none" font-family="Arial" font-size="13px" font-style="normal" font-weight="normal" text-decoration="none" x="2033.5" y="1446.5">state.affinity.affinityMap[ipaddr]</text></g></g><g transform="translate(-182,-54) scale(1,1)"><path fill="none" stroke="#000000" d="M 2160 1384 L 2160 1424" stroke-miterlimit="10"/></g><g transform="translate(-182,-54) scale(1,1)"><path fill="#000000" stroke="none" d="M 2155.790482243984 1413.837325142376 L 2160 1424 L 2164.209517756016 1413.837325142376"/></g><g transform="translate(-182,-54) scale(1,1)"><path fill="none" stroke="#000000" d="M 2155.790482243984 1413.837325142376 L 2160 1424 L 2164.209517756016 1413.837325142376 L 2155.790482243984 1413.837325142376" stroke-miterlimit="10"/></g><g transform="translate(-182,-54) scale(1,1)"><rect fill="#ffffff" stroke="none" x="2256" y="1424" width="256" height="32"/></g><g transform="translate(-182,-54) scale(1,1)"><path fill="none" stroke="#000000" d="M 2256 1424 L 2512 1424 L 2512 1456 L 2256 1456 L 2256 1424 Z Z" stroke-miterlimit="10"/></g><g transform="translate(-182,-54) scale(1,1)"><g><path fill="none" stroke="none"/><text fill="#000000" stroke="none" font-family="Arial" font-size="13px" font-style="normal" font-weight="normal" text-decoration="none" x="2269" y="1446.5">endpoint := state.endpoints[state.index]</text></g></g><g transform="translate(-182,-54) scale(1,1)"><path fill="none" stroke="#000000" d="M 2259 1384 L 2344 1384 M 2344 1384 A 8 8 0 0 1 2352 1392 L 2352 1424" stroke-miterlimit="10"/></g><g transform="translate(-182,-54) scale(1,1)"><path fill="#000000" stroke="none" d="M 2347.790482243984 1413.837325142376 L 2352 1424 L 2356.209517756016 1413.837325142376"/></g><g transform="translate(-182,-54) scale(1,1)"><path fill="none" stroke="#000000" d="M 2347.790482243984 1413.837325142376 L 2352 1424 L 2356.209517756016 1413.837325142376 L 2347.790482243984 1413.837325142376" stroke-miterlimit="10"/></g><g transform="translate(-182,-54) scale(1,1)"><path fill="#ffffff" stroke="none" d="M 2256 1518.5 L 2353.5 1504 L 2451 1518.5 L 2353.5 1533 L 2256 1518.5"/></g><g transform="translate(-182,-54) scale(1,1)"><path fill="none" stroke="#000000" d="M 2256 1518.5 L 2353.5 1504 L 2451 1518.5 L 2353.5 1533 L 2256 1518.5 L 2256 1518.5" stroke-miterlimit="10"/></g><g transform="translate(-182,-54) scale(1,1)"><g><path fill="none" stroke="none"/><text fill="#000000" stroke="none" font-family="Arial" font-size="13px" font-style="normal" font-weight="normal" text-decoration="none" x="2304.5" y="1525">isSessionAffinity</text></g></g><g transform="translate(-182,-54) scale(1,1)"><path fill="none" stroke="#000000" d="M 2360 1456 L 2360 1504" stroke-miterlimit="10"/></g><g transform="translate(-182,-54) scale(1,1)"><path fill="#000000" stroke="none" d="M 2355.790482243984 1493.837325142376 L 2360 1504 L 2364.209517756016 1493.837325142376"/></g><g transform="translate(-182,-54) scale(1,1)"><path fill="none" stroke="#000000" d="M 2355.790482243984 1493.837325142376 L 2360 1504 L 2364.209517756016 1493.837325142376 L 2355.790482243984 1493.837325142376" stroke-miterlimit="10"/></g><g transform="translate(-182,-54) scale(1,1)"><rect fill="#ffffff" stroke="none" x="2232" y="1568" width="272" height="45"/></g><g transform="translate(-182,-54) scale(1,1)"><path fill="none" stroke="#000000" d="M 2232 1568 L 2504 1568 L 2504 1613 L 2232 1613 L 2232 1568 Z Z" stroke-miterlimit="10"/></g><g transform="translate(-182,-54) scale(1,1)"><g><path fill="none" stroke="none"/><text fill="#000000" stroke="none" font-family="Arial" font-size="13px" font-style="normal" font-weight="normal" text-decoration="none" x="2249" y="1590.5">state.affinity.affinityMap[ipaddr] = affinity</text></g></g><g transform="translate(-182,-54) scale(1,1)"><path fill="none" stroke="#000000" d="M 2336 1533 L 2336 1568" stroke-miterlimit="10"/></g><g transform="translate(-182,-54) scale(1,1)"><path fill="#000000" stroke="none" d="M 2331.790482243984 1557.837325142376 L 2336 1568 L 2340.209517756016 1557.837325142376"/></g><g transform="translate(-182,-54) scale(1,1)"><path fill="none" stroke="#000000" d="M 2331.790482243984 1557.837325142376 L 2336 1568 L 2340.209517756016 1557.837325142376 L 2331.790482243984 1557.837325142376" stroke-miterlimit="10"/></g><g transform="translate(-182,-54) scale(1,1)"><rect fill="#ffffff" stroke="none" x="1728" y="1424" width="260" height="45"/></g><g transform="translate(-182,-54) scale(1,1)"><path fill="none" stroke="#000000" d="M 1728 1424 L 1988 1424 L 1988 1469 L 1728 1469 L 1728 1424 Z Z" stroke-miterlimit="10"/></g><g transform="translate(-182,-54) scale(1,1)"><g><path fill="none" stroke="none"/><text fill="#000000" stroke="none" font-family="Arial" font-size="13px" font-style="normal" font-weight="normal" text-decoration="none" x="1740" y="1446.5">outConn, err := net.DialTimeout(protocol,</text><text fill="#000000" stroke="none" font-family="Arial" font-size="13px" font-style="normal" font-weight="normal" text-decoration="none" x="1794" y="1459.5">endpoint, dialTimeout)</text></g></g><g transform="translate(-182,-54) scale(1,1)"><path fill="none" stroke="#000000" d="M 1896 1389 L 1896 1424" stroke-miterlimit="10"/></g><g transform="translate(-182,-54) scale(1,1)"><path fill="#000000" stroke="none" d="M 1891.7904822439841 1413.837325142376 L 1896 1424 L 1900.2095177560159 1413.837325142376"/></g><g transform="translate(-182,-54) scale(1,1)"><path fill="none" stroke="#000000" d="M 1891.7904822439841 1413.837325142376 L 1896 1424 L 1900.2095177560159 1413.837325142376 L 1891.7904822439841 1413.837325142376" stroke-miterlimit="10"/></g><g transform="translate(-182,-54) scale(1,1)"><g><path fill="none" stroke="none"/><text fill="#000070" stroke="none" font-family="Arial" font-size="16px" font-style="normal" font-weight="normal" text-decoration="none" x="2109" y="1221">Here the kube-proxy creates</text><text fill="#000070" stroke="none" font-family="Arial" font-size="16px" font-style="normal" font-weight="normal" text-decoration="none" x="2109" y="1237">server socket, listens on</text><text fill="#000070" stroke="none" font-family="Arial" font-size="16px" font-style="normal" font-weight="normal" text-decoration="none" x="2109" y="1253">services port, choose next</text><text fill="#000070" stroke="none" font-family="Arial" font-size="16px" font-style="normal" font-weight="normal" text-decoration="none" x="2109" y="1269">endpoint by roundrobin policy</text><text fill="#000070" stroke="none" font-family="Arial" font-size="16px" font-style="normal" font-weight="normal" text-decoration="none" x="2109" y="1285">and dial to the endpoint by</text><text fill="#000070" stroke="none" font-family="Arial" font-size="16px" font-style="normal" font-weight="normal" text-decoration="none" x="2109" y="1301">socket connect, then establish</text><text fill="#000070" stroke="none" font-family="Arial" font-size="16px" font-style="normal" font-weight="normal" text-decoration="none" x="2109" y="1317">proxyTCP by copying bytes</text></g></g><g transform="translate(-182,-54) scale(1,1)"><rect fill="#ffffff" stroke="none" x="1912" y="1536" width="82" height="32"/></g><g transform="translate(-182,-54) scale(1,1)"><path fill="none" stroke="#000000" d="M 1912 1536 L 1994 1536 L 1994 1568 L 1912 1568 L 1912 1536 Z Z" stroke-miterlimit="10"/></g><g transform="translate(-182,-54) scale(1,1)"><g><path fill="none" stroke="none"/><text fill="#000000" stroke="none" font-family="Arial" font-size="13px" font-style="normal" font-weight="normal" text-decoration="none" x="1921.5" y="1558.5">dialParallel</text></g></g><g transform="translate(-182,-54) scale(1,1)"><path fill="none" stroke="#000000" d="M 1864 1469 L 1864 1536 M 1864 1536 A 8 8 0 0 0 1872 1544 L 1912 1544" stroke-miterlimit="10"/></g><g transform="translate(-182,-54) scale(1,1)"><path fill="#000000" stroke="none" d="M 1901.837325142376 1548.2095177560159 L 1912 1544 L 1901.837325142376 1539.7904822439841"/></g><g transform="translate(-182,-54) scale(1,1)"><path fill="none" stroke="#000000" d="M 1901.837325142376 1548.2095177560159 L 1912 1544 L 1901.837325142376 1539.7904822439841 L 1901.837325142376 1548.2095177560159" stroke-miterlimit="10"/></g><g transform="translate(-182,-54) scale(1,1)"><rect fill="#ffffff" stroke="none" x="1736" y="1536" width="74" height="32"/></g><g transform="translate(-182,-54) scale(1,1)"><path fill="none" stroke="#000000" d="M 1736 1536 L 1810 1536 L 1810 1568 L 1736 1568 L 1736 1536 Z Z" stroke-miterlimit="10"/></g><g transform="translate(-182,-54) scale(1,1)"><g><path fill="none" stroke="none"/><text fill="#000000" stroke="none" font-family="Arial" font-size="13px" font-style="normal" font-weight="normal" text-decoration="none" x="1746.5" y="1558.5">dialSerial</text></g></g><g transform="translate(-182,-54) scale(1,1)"><path fill="none" stroke="#000000" d="M 1864 1469 L 1864 1536 M 1864 1536 A 8 8 0 0 1 1856 1544 L 1810 1544" stroke-miterlimit="10"/></g><g transform="translate(-182,-54) scale(1,1)"><path fill="#000000" stroke="none" d="M 1820.162674857624 1539.7904822439841 L 1810 1544 L 1820.162674857624 1548.2095177560159"/></g><g transform="translate(-182,-54) scale(1,1)"><path fill="none" stroke="#000000" d="M 1820.162674857624 1539.7904822439841 L 1810 1544 L 1820.162674857624 1548.2095177560159 L 1820.162674857624 1539.7904822439841" stroke-miterlimit="10"/></g><g transform="translate(-182,-54) scale(1,1)"><rect fill="#ffffff" stroke="none" x="1736" y="1638" width="75" height="32"/></g><g transform="translate(-182,-54) scale(1,1)"><path fill="none" stroke="#000000" d="M 1736 1638 L 1811 1638 L 1811 1670 L 1736 1670 L 1736 1638 Z Z" stroke-miterlimit="10"/></g><g transform="translate(-182,-54) scale(1,1)"><g><path fill="none" stroke="none"/><text fill="#000000" stroke="none" font-family="Arial" font-size="13px" font-style="normal" font-weight="normal" text-decoration="none" x="1745.5" y="1660.5">dialSingle</text></g></g><g transform="translate(-182,-54) scale(1,1)"><path fill="none" stroke="#000000" d="M 1766 1568 L 1766 1638" stroke-miterlimit="10"/></g><g transform="translate(-182,-54) scale(1,1)"><path fill="#000000" stroke="none" d="M 1761.7904822439841 1627.837325142376 L 1766 1638 L 1770.2095177560159 1627.837325142376"/></g><g transform="translate(-182,-54) scale(1,1)"><path fill="none" stroke="#000000" d="M 1761.7904822439841 1627.837325142376 L 1766 1638 L 1770.2095177560159 1627.837325142376 L 1761.7904822439841 1627.837325142376" stroke-miterlimit="10"/></g><g transform="translate(-182,-54) scale(1,1)"><rect fill="#ffffff" stroke="none" x="1592" y="1832" width="74" height="32"/></g><g transform="translate(-182,-54) scale(1,1)"><path fill="none" stroke="#000000" d="M 1592 1832 L 1666 1832 L 1666 1864 L 1592 1864 L 1592 1832 Z Z" stroke-miterlimit="10"/></g><g transform="translate(-182,-54) scale(1,1)"><g><path fill="none" stroke="none"/><text fill="#000000" stroke="none" font-family="Arial" font-size="13px" font-style="normal" font-weight="normal" text-decoration="none" x="1605.5" y="1854.5">dialUDP</text></g></g><g transform="translate(-182,-54) scale(1,1)"><path fill="none" stroke="#000000" d="M 1792 1718 L 1637 1718 M 1637 1718 A 8 8 0 0 0 1629 1726 L 1629 1832" stroke-miterlimit="10"/></g><g transform="translate(-182,-54) scale(1,1)"><path fill="#000000" stroke="none" d="M 1624.7904822439841 1821.837325142376 L 1629 1832 L 1633.2095177560159 1821.837325142376"/></g><g transform="translate(-182,-54) scale(1,1)"><path fill="none" stroke="#000000" d="M 1624.7904822439841 1821.837325142376 L 1629 1832 L 1633.2095177560159 1821.837325142376 L 1624.7904822439841 1821.837325142376" stroke-miterlimit="10"/></g><g transform="translate(-182,-54) scale(1,1)"><rect fill="#ffffff" stroke="none" x="1696" y="1824" width="74" height="32"/></g><g transform="translate(-182,-54) scale(1,1)"><path fill="none" stroke="#000000" d="M 1696 1824 L 1770 1824 L 1770 1856 L 1696 1856 L 1696 1824 Z Z" stroke-miterlimit="10"/></g><g transform="translate(-182,-54) scale(1,1)"><g><path fill="none" stroke="none"/><text fill="#000000" stroke="none" font-family="Arial" font-size="13px" font-style="normal" font-weight="normal" text-decoration="none" x="1716.5" y="1846.5">dialIP</text></g></g><g transform="translate(-182,-54) scale(1,1)"><path fill="none" stroke="#000000" d="M 1848 1773 L 1848 1832 M 1848 1832 A 8 8 0 0 1 1840 1840 L 1770 1840" stroke-miterlimit="10"/></g><g transform="translate(-182,-54) scale(1,1)"><path fill="#000000" stroke="none" d="M 1780.162674857624 1835.7904822439841 L 1770 1840 L 1780.162674857624 1844.2095177560159"/></g><g transform="translate(-182,-54) scale(1,1)"><path fill="none" stroke="#000000" d="M 1780.162674857624 1835.7904822439841 L 1770 1840 L 1780.162674857624 1844.2095177560159 L 1780.162674857624 1835.7904822439841" stroke-miterlimit="10"/></g><g transform="translate(-182,-54) scale(1,1)"><rect fill="#ffffff" stroke="none" x="1888" y="1832" width="74" height="32"/></g><g transform="translate(-182,-54) scale(1,1)"><path fill="none" stroke="#000000" d="M 1888 1832 L 1962 1832 L 1962 1864 L 1888 1864 L 1888 1832 Z Z" stroke-miterlimit="10"/></g><g transform="translate(-182,-54) scale(1,1)"><g><path fill="none" stroke="none"/><text fill="#000000" stroke="none" font-family="Arial" font-size="13px" font-style="normal" font-weight="normal" text-decoration="none" x="1902" y="1854.5">dialUnix</text></g></g><g transform="translate(-182,-54) scale(1,1)"><path fill="none" stroke="#000000" d="M 1848 1773 L 1848 1840 M 1848 1840 A 8 8 0 0 0 1856 1848 L 1888 1848" stroke-miterlimit="10"/></g><g transform="translate(-182,-54) scale(1,1)"><path fill="#000000" stroke="none" d="M 1877.837325142376 1852.2095177560159 L 1888 1848 L 1877.837325142376 1843.7904822439841"/></g><g transform="translate(-182,-54) scale(1,1)"><path fill="none" stroke="#000000" d="M 1877.837325142376 1852.2095177560159 L 1888 1848 L 1877.837325142376 1843.7904822439841 L 1877.837325142376 1852.2095177560159" stroke-miterlimit="10"/></g><g transform="translate(-182,-54) scale(1,1)"><rect fill="#ffffff" stroke="none" x="2008" y="1816" width="119" height="32"/></g><g transform="translate(-182,-54) scale(1,1)"><path fill="none" stroke="#000000" d="M 2008 1816 L 2127 1816 L 2127 1848 L 2008 1848 L 2008 1816 Z Z" stroke-miterlimit="10"/></g><g transform="translate(-182,-54) scale(1,1)"><g><path fill="none" stroke="none"/><text fill="#000000" stroke="none" font-family="Arial" font-size="13px" font-style="normal" font-weight="normal" text-decoration="none" x="2017.5" y="1838.5">testHookDialTCP</text></g></g><g transform="translate(-182,-54) scale(1,1)"><path fill="none" stroke="#000000" d="M 1905 1736 L 2072 1736 M 2072 1736 A 8 8 0 0 1 2080 1744 L 2080 1816" stroke-miterlimit="10"/></g><g transform="translate(-182,-54) scale(1,1)"><path fill="#000000" stroke="none" d="M 2075.790482243984 1805.837325142376 L 2080 1816 L 2084.209517756016 1805.837325142376"/></g><g transform="translate(-182,-54) scale(1,1)"><path fill="none" stroke="#000000" d="M 2075.790482243984 1805.837325142376 L 2080 1816 L 2084.209517756016 1805.837325142376 L 2075.790482243984 1805.837325142376" stroke-miterlimit="10"/></g><g transform="translate(-182,-54) scale(1,1)"><path fill="#ffffff" stroke="none" d="M 1792 1734.5 L 1848.5 1696 L 1905 1734.5 L 1848.5 1773 L 1792 1734.5"/></g><g transform="translate(-182,-54) scale(1,1)"><path fill="none" stroke="#000000" d="M 1792 1734.5 L 1848.5 1696 L 1905 1734.5 L 1848.5 1773 L 1792 1734.5 L 1792 1734.5" stroke-miterlimit="10"/></g><g transform="translate(-182,-54) scale(1,1)"><g><path fill="none" stroke="none"/><text fill="#000000" stroke="none" font-family="Arial" font-size="13px" font-style="normal" font-weight="normal" text-decoration="none" x="1830" y="1728">switch</text><text fill="#000000" stroke="none" font-family="Arial" font-size="13px" font-style="normal" font-weight="normal" text-decoration="none" x="1831" y="1741">ipaddr</text><text fill="#000000" stroke="none" font-family="Arial" font-size="13px" font-style="normal" font-weight="normal" text-decoration="none" x="1836" y="1754">type</text></g></g><g transform="translate(-182,-54) scale(1,1)"><path fill="none" stroke="#000000" d="M 1811 1670 L 1811 1696" stroke-miterlimit="10"/></g><g transform="translate(-182,-54) scale(1,1)"><path fill="#000000" stroke="none" d="M 1806.7904822439841 1685.837325142376 L 1811 1696 L 1815.2095177560159 1685.837325142376"/></g><g transform="translate(-182,-54) scale(1,1)"><path fill="none" stroke="#000000" d="M 1806.7904822439841 1685.837325142376 L 1811 1696 L 1815.2095177560159 1685.837325142376 L 1806.7904822439841 1685.837325142376" stroke-miterlimit="10"/></g><g transform="translate(-182,-54) scale(1,1)"><rect fill="#ffffff" stroke="none" x="1480" y="1472" width="220" height="45"/></g><g transform="translate(-182,-54) scale(1,1)"><path fill="none" stroke="#000000" d="M 1480 1472 L 1700 1472 L 1700 1517 L 1480 1517 L 1480 1472 Z Z" stroke-miterlimit="10"/></g><g transform="translate(-182,-54) scale(1,1)"><g><path fill="none" stroke="none"/><text fill="#000000" stroke="none" font-family="Arial" font-size="13px" font-style="normal" font-weight="normal" text-decoration="none" x="1489.5" y="1494.5">proxyTCP(inConn.(*net.TCPConn),</text><text fill="#000000" stroke="none" font-family="Arial" font-size="13px" font-style="normal" font-weight="normal" text-decoration="none" x="1516.5" y="1507.5">outConn.(*net.TCPConn))</text></g></g><g transform="translate(-182,-54) scale(1,1)"><path fill="none" stroke="#000000" d="M 1629 1384 L 1629 1472" stroke-miterlimit="10"/></g><g transform="translate(-182,-54) scale(1,1)"><path fill="#000000" stroke="none" d="M 1624.7904822439841 1461.837325142376 L 1629 1472 L 1633.2095177560159 1461.837325142376"/></g><g transform="translate(-182,-54) scale(1,1)"><path fill="none" stroke="#000000" d="M 1624.7904822439841 1461.837325142376 L 1629 1472 L 1633.2095177560159 1461.837325142376 L 1624.7904822439841 1461.837325142376" stroke-miterlimit="10"/></g><g transform="translate(-182,-54) scale(1,1)"><rect fill="#ffffff" stroke="none" x="1520" y="1552" width="81" height="32"/></g><g transform="translate(-182,-54) scale(1,1)"><path fill="none" stroke="#000000" d="M 1520 1552 L 1601 1552 L 1601 1584 L 1520 1584 L 1520 1552 Z Z" stroke-miterlimit="10"/></g><g transform="translate(-182,-54) scale(1,1)"><g><path fill="none" stroke="none"/><text fill="#000000" stroke="none" font-family="Arial" font-size="13px" font-style="normal" font-weight="normal" text-decoration="none" x="1529.5" y="1574.5">copyBytes</text></g></g><g transform="translate(-182,-54) scale(1,1)"><path fill="none" stroke="#000000" d="M 1562 1517 L 1562 1552" stroke-miterlimit="10"/></g><g transform="translate(-182,-54) scale(1,1)"><path fill="#000000" stroke="none" d="M 1557.7904822439841 1541.837325142376 L 1562 1552 L 1566.2095177560159 1541.837325142376"/></g><g transform="translate(-182,-54) scale(1,1)"><path fill="none" stroke="#000000" d="M 1557.7904822439841 1541.837325142376 L 1562 1552 L 1566.2095177560159 1541.837325142376 L 1557.7904822439841 1541.837325142376" stroke-miterlimit="10"/></g></g></svg>