<svg version="1.1" xmlns="http://www.w3.org/2000/svg" xmlns:xlink="http://www.w3.org/1999/xlink" width="1887" height="2137"><defs/><g><g transform="translate(-238,-30) scale(1,1)"><rect fill="#ffffff" stroke="none" x="488" y="40" width="180" height="32"/></g><g transform="translate(-238,-30) scale(1,1)"><path fill="none" stroke="#000000" d="M 488 40 L 668 40 L 668 72 L 488 72 L 488 40 Z Z" stroke-miterlimit="10"/></g><g transform="translate(-238,-30) scale(1,1)"><g><path fill="none" stroke="none"/><text fill="#000000" stroke="none" font-family="Arial" font-size="13px" font-style="normal" font-weight="normal" text-decoration="none" x="497.5" y="62.5">options.NewKubeletServer()</text></g></g><g transform="translate(-238,-30) scale(1,1)"><rect fill="#ffffff" stroke="none" x="512" y="128" width="74" height="32"/></g><g transform="translate(-238,-30) scale(1,1)"><path fill="none" stroke="#000000" d="M 512 128 L 586 128 L 586 160 L 512 160 L 512 128 Z Z" stroke-miterlimit="10"/></g><g transform="translate(-238,-30) scale(1,1)"><g><path fill="none" stroke="none"/><text fill="#000000" stroke="none" font-family="Arial" font-size="13px" font-style="normal" font-weight="normal" text-decoration="none" x="525" y="150.5">app.Run</text></g></g><g transform="translate(-238,-30) scale(1,1)"><path fill="none" stroke="#000000" d="M 561 72 L 561 128" stroke-miterlimit="10"/></g><g transform="translate(-238,-30) scale(1,1)"><path fill="#000000" stroke="none" d="M 556.790482243984 117.83732514237585 L 561 128 L 565.209517756016 117.83732514237585"/></g><g transform="translate(-238,-30) scale(1,1)"><path fill="none" stroke="#000000" d="M 556.790482243984 117.83732514237585 L 561 128 L 565.209517756016 117.83732514237585 L 556.790482243984 117.83732514237585" stroke-miterlimit="10"/></g><g transform="translate(-238,-30) scale(1,1)"><rect fill="#ffffff" stroke="none" x="744" y="200" width="92" height="32"/></g><g transform="translate(-238,-30) scale(1,1)"><path fill="none" stroke="#000000" d="M 744 200 L 836 200 L 836 232 L 744 232 L 744 200 Z Z" stroke-miterlimit="10"/></g><g transform="translate(-238,-30) scale(1,1)"><g><path fill="none" stroke="none"/><text fill="#000000" stroke="none" font-family="Arial" font-size="13px" font-style="normal" font-weight="normal" text-decoration="none" x="753.5" y="222.5">mount.New()</text></g></g><g transform="translate(-238,-30) scale(1,1)"><path fill="none" stroke="#000000" d="M 698 216 L 744 216" stroke-miterlimit="10"/></g><g transform="translate(-238,-30) scale(1,1)"><path fill="#000000" stroke="none" d="M 733.8373251423759 220.209517756016 L 744 216 L 733.8373251423758 211.790482243984"/></g><g transform="translate(-238,-30) scale(1,1)"><path fill="none" stroke="#000000" d="M 733.8373251423759 220.209517756016 L 744 216 L 733.8373251423758 211.790482243984 L 733.8373251423759 220.209517756016" stroke-miterlimit="10"/></g><g transform="translate(-238,-30) scale(1,1)"><rect fill="#ffffff" stroke="none" x="536" y="200" width="162" height="32"/></g><g transform="translate(-238,-30) scale(1,1)"><path fill="none" stroke="#000000" d="M 536 200 L 698 200 L 698 232 L 536 232 L 536 200 Z Z" stroke-miterlimit="10"/></g><g transform="translate(-238,-30) scale(1,1)"><g><path fill="none" stroke="none"/><text fill="#000000" stroke="none" font-family="Arial" font-size="13px" font-style="normal" font-weight="normal" text-decoration="none" x="545.5" y="222.5">UnsecuredKubeletConfig</text></g></g><g transform="translate(-238,-30) scale(1,1)"><path fill="none" stroke="#000000" d="M 560 160 L 560 200" stroke-miterlimit="10"/></g><g transform="translate(-238,-30) scale(1,1)"><path fill="#000000" stroke="none" d="M 555.790482243984 189.83732514237585 L 560 200 L 564.209517756016 189.83732514237585"/></g><g transform="translate(-238,-30) scale(1,1)"><path fill="none" stroke="#000000" d="M 555.790482243984 189.83732514237585 L 560 200 L 564.209517756016 189.83732514237585 L 555.790482243984 189.83732514237585" stroke-miterlimit="10"/></g><g transform="translate(-238,-30) scale(1,1)"><rect fill="#ffffff" stroke="none" x="744" y="302" width="347" height="58"/></g><g transform="translate(-238,-30) scale(1,1)"><path fill="none" stroke="#000000" d="M 744 302 L 1091 302 L 1091 360 L 744 360 L 744 302 Z Z" stroke-miterlimit="10"/></g><g transform="translate(-238,-30) scale(1,1)"><g><path fill="none" stroke="none"/><text fill="#000000" stroke="none" font-family="Arial" font-size="13px" font-style="normal" font-weight="normal" text-decoration="none" x="855" y="324.5">dockerExecHandler =</text><text fill="#000000" stroke="none" font-family="Arial" font-size="13px" font-style="normal" font-weight="normal" text-decoration="none" x="818" y="337.5">&amp;dockertools.NativeExecHandler{}</text></g></g><g transform="translate(-238,-30) scale(1,1)"><path fill="none" stroke="#000000" d="M 781 232 L 781 302" stroke-miterlimit="10"/></g><g transform="translate(-238,-30) scale(1,1)"><path fill="#000000" stroke="none" d="M 776.790482243984 291.83732514237585 L 781 302 L 785.209517756016 291.83732514237585"/></g><g transform="translate(-238,-30) scale(1,1)"><path fill="none" stroke="#000000" d="M 776.790482243984 291.83732514237585 L 781 302 L 785.209517756016 291.83732514237585 L 776.790482243984 291.83732514237585" stroke-miterlimit="10"/></g><g transform="translate(-238,-30) scale(1,1)"><rect fill="#ffffff" stroke="none" x="880" y="430" width="120" height="32"/></g><g transform="translate(-238,-30) scale(1,1)"><path fill="none" stroke="#000000" d="M 880 430 L 1000 430 L 1000 462 L 880 462 L 880 430 Z Z" stroke-miterlimit="10"/></g><g transform="translate(-238,-30) scale(1,1)"><g><path fill="none" stroke="none"/><text fill="#000000" stroke="none" font-family="Arial" font-size="13px" font-style="normal" font-weight="normal" text-decoration="none" x="889.5" y="452.5">parseReservation</text></g></g><g transform="translate(-238,-30) scale(1,1)"><path fill="none" stroke="#000000" d="M 936 360 L 936 430" stroke-miterlimit="10"/></g><g transform="translate(-238,-30) scale(1,1)"><path fill="#000000" stroke="none" d="M 931.790482243984 419.83732514237585 L 936 430 L 940.209517756016 419.83732514237585"/></g><g transform="translate(-238,-30) scale(1,1)"><path fill="none" stroke="#000000" d="M 931.790482243984 419.83732514237585 L 936 430 L 940.209517756016 419.83732514237585 L 931.790482243984 419.83732514237585" stroke-miterlimit="10"/></g><g transform="translate(-238,-30) scale(1,1)"><rect fill="#ffffff" stroke="none" x="880" y="532" width="100" height="32"/></g><g transform="translate(-238,-30) scale(1,1)"><path fill="none" stroke="#000000" d="M 880 532 L 980 532 L 980 564 L 880 564 L 880 532 Z Z" stroke-miterlimit="10"/></g><g transform="translate(-238,-30) scale(1,1)"><g><path fill="none" stroke="none"/><text fill="#000000" stroke="none" font-family="Arial" font-size="13px" font-style="normal" font-weight="normal" text-decoration="none" x="889.5" y="554.5">KubeletConfig</text></g></g><g transform="translate(-238,-30) scale(1,1)"><path fill="none" stroke="#000000" d="M 929 462 L 929 532" stroke-miterlimit="10"/></g><g transform="translate(-238,-30) scale(1,1)"><path fill="#000000" stroke="none" d="M 924.790482243984 521.8373251423759 L 929 532 L 933.209517756016 521.8373251423759"/></g><g transform="translate(-238,-30) scale(1,1)"><path fill="none" stroke="#000000" d="M 924.790482243984 521.8373251423759 L 929 532 L 933.209517756016 521.8373251423759 L 924.790482243984 521.8373251423759" stroke-miterlimit="10"/></g><g transform="translate(-238,-30) scale(1,1)"><rect fill="#ffffff" stroke="none" x="536" y="296" width="187" height="32"/></g><g transform="translate(-238,-30) scale(1,1)"><path fill="none" stroke="#000000" d="M 536 296 L 723 296 L 723 328 L 536 328 L 536 296 Z Z" stroke-miterlimit="10"/></g><g transform="translate(-238,-30) scale(1,1)"><g><path fill="none" stroke="none"/><text fill="#000000" stroke="none" font-family="Arial" font-size="13px" font-style="normal" font-weight="normal" text-decoration="none" x="545.5" y="318.5">CreateAPIServerClientConfig</text></g></g><g transform="translate(-238,-30) scale(1,1)"><path fill="none" stroke="#000000" d="M 573 232 L 573 296" stroke-miterlimit="10"/></g><g transform="translate(-238,-30) scale(1,1)"><path fill="#000000" stroke="none" d="M 568.790482243984 285.83732514237585 L 573 296 L 577.209517756016 285.83732514237585"/></g><g transform="translate(-238,-30) scale(1,1)"><path fill="none" stroke="#000000" d="M 568.790482243984 285.83732514237585 L 573 296 L 577.209517756016 285.83732514237585 L 568.790482243984 285.83732514237585" stroke-miterlimit="10"/></g><g transform="translate(-238,-30) scale(1,1)"><rect fill="#ffffff" stroke="none" x="536" y="398" width="286" height="58"/></g><g transform="translate(-238,-30) scale(1,1)"><path fill="none" stroke="#000000" d="M 536 398 L 822 398 L 822 456 L 536 456 L 536 398 Z Z" stroke-miterlimit="10"/></g><g transform="translate(-238,-30) scale(1,1)"><g><path fill="none" stroke="none"/><text fill="#000000" stroke="none" font-family="Arial" font-size="13px" font-style="normal" font-weight="normal" text-decoration="none" x="615.5" y="420.5">kcfg.KubeClient, err =</text><text fill="#000000" stroke="none" font-family="Arial" font-size="13px" font-style="normal" font-weight="normal" text-decoration="none" x="611" y="433.5">client.New(clientConfig)</text></g></g><g transform="translate(-238,-30) scale(1,1)"><path fill="none" stroke="#000000" d="M 611 328 L 611 398" stroke-miterlimit="10"/></g><g transform="translate(-238,-30) scale(1,1)"><path fill="#000000" stroke="none" d="M 606.790482243984 387.83732514237585 L 611 398 L 615.209517756016 387.83732514237585"/></g><g transform="translate(-238,-30) scale(1,1)"><path fill="none" stroke="#000000" d="M 606.790482243984 387.83732514237585 L 611 398 L 615.209517756016 387.83732514237585 L 606.790482243984 387.83732514237585" stroke-miterlimit="10"/></g><g transform="translate(-238,-30) scale(1,1)"><rect fill="#ffffff" stroke="none" x="496" y="496" width="333" height="58"/></g><g transform="translate(-238,-30) scale(1,1)"><path fill="none" stroke="#000000" d="M 496 496 L 829 496 L 829 554 L 496 554 L 496 496 Z Z" stroke-miterlimit="10"/></g><g transform="translate(-238,-30) scale(1,1)"><g><path fill="none" stroke="none"/><text fill="#000000" stroke="none" font-family="Arial" font-size="13px" font-style="normal" font-weight="normal" text-decoration="none" x="597" y="518.5">kcfg.EventClient, err =</text><text fill="#000000" stroke="none" font-family="Arial" font-size="13px" font-style="normal" font-weight="normal" text-decoration="none" x="573" y="531.5">client.New(&amp;eventClientConfig)</text></g></g><g transform="translate(-238,-30) scale(1,1)"><path fill="none" stroke="#000000" d="M 590 456 L 590 496" stroke-miterlimit="10"/></g><g transform="translate(-238,-30) scale(1,1)"><path fill="#000000" stroke="none" d="M 585.790482243984 485.83732514237585 L 590 496 L 594.209517756016 485.83732514237585"/></g><g transform="translate(-238,-30) scale(1,1)"><path fill="none" stroke="#000000" d="M 585.790482243984 485.83732514237585 L 590 496 L 594.209517756016 485.83732514237585 L 585.790482243984 485.83732514237585" stroke-miterlimit="10"/></g><g transform="translate(-238,-30) scale(1,1)"><rect fill="#ffffff" stroke="none" x="496" y="624" width="199" height="32"/></g><g transform="translate(-238,-30) scale(1,1)"><path fill="none" stroke="#000000" d="M 496 624 L 695 624 L 695 656 L 496 656 L 496 624 Z Z" stroke-miterlimit="10"/></g><g transform="translate(-238,-30) scale(1,1)"><g><path fill="none" stroke="none"/><text fill="#000000" stroke="none" font-family="Arial" font-size="13px" font-style="normal" font-weight="normal" text-decoration="none" x="505.5" y="646.5">cloudprovider.InitCloudProvider</text></g></g><g transform="translate(-238,-30) scale(1,1)"><path fill="none" stroke="#000000" d="M 565 554 L 565 624" stroke-miterlimit="10"/></g><g transform="translate(-238,-30) scale(1,1)"><path fill="#000000" stroke="none" d="M 560.790482243984 613.8373251423759 L 565 624 L 569.209517756016 613.8373251423759"/></g><g transform="translate(-238,-30) scale(1,1)"><path fill="none" stroke="#000000" d="M 560.790482243984 613.8373251423759 L 565 624 L 569.209517756016 613.8373251423759 L 560.790482243984 613.8373251423759" stroke-miterlimit="10"/></g><g transform="translate(-238,-30) scale(1,1)"><path fill="#ffffff" stroke="none" d="M 248 616 L 413 616 L 423 626 L 423 652 L 248 652 L 248 616"/></g><g transform="translate(-238,-30) scale(1,1)"><path fill="none" stroke="#000000" d="M 248 616 L 413 616 L 423 626 L 423 652 L 248 652 L 248 616 L 248 616" stroke-miterlimit="10"/></g><g transform="translate(-238,-30) scale(1,1)"><path fill="none" stroke="#000000" d="M 413 616 L 413 626 L 423 626 L 413 616" stroke-miterlimit="10"/></g><g transform="translate(-238,-30) scale(1,1)"><g><path fill="none" stroke="none"/><text fill="#000000" stroke="none" font-family="Arial" font-size="13px" font-style="normal" font-weight="normal" text-decoration="none" x="253" y="634">Register when k8s cluster</text><text fill="#000000" stroke="none" font-family="Arial" font-size="13px" font-style="normal" font-weight="normal" text-decoration="none" x="253" y="647">init, in provider code</text></g></g><g transform="translate(-238,-30) scale(1,1)"><path fill="none" stroke="#000000" d="M 495 638 L 425 636" stroke-miterlimit="10" stroke-dasharray="3"/></g><g transform="translate(-238,-30) scale(1,1)"><rect fill="#ffffff" stroke="none" x="496" y="712" width="193" height="32"/></g><g transform="translate(-238,-30) scale(1,1)"><path fill="none" stroke="#000000" d="M 496 712 L 689 712 L 689 744 L 496 744 L 496 712 Z Z" stroke-miterlimit="10"/></g><g transform="translate(-238,-30) scale(1,1)"><g><path fill="none" stroke="none"/><text fill="#000000" stroke="none" font-family="Arial" font-size="13px" font-style="normal" font-weight="normal" text-decoration="none" x="505.5" y="734.5">cadvisor.New(s.CAdvisorPort)</text></g></g><g transform="translate(-238,-30) scale(1,1)"><path fill="none" stroke="#000000" d="M 576 656 L 576 712" stroke-miterlimit="10"/></g><g transform="translate(-238,-30) scale(1,1)"><path fill="#000000" stroke="none" d="M 571.790482243984 701.8373251423759 L 576 712 L 580.209517756016 701.8373251423759"/></g><g transform="translate(-238,-30) scale(1,1)"><path fill="none" stroke="#000000" d="M 571.790482243984 701.8373251423759 L 576 712 L 580.209517756016 701.8373251423759 L 571.790482243984 701.8373251423759" stroke-miterlimit="10"/></g><g transform="translate(-238,-30) scale(1,1)"><rect fill="#ffffff" stroke="none" x="496" y="814" width="396" height="45"/></g><g transform="translate(-238,-30) scale(1,1)"><path fill="none" stroke="#000000" d="M 496 814 L 892 814 L 892 859 L 496 859 L 496 814 Z Z" stroke-miterlimit="10"/></g><g transform="translate(-238,-30) scale(1,1)"><g><path fill="none" stroke="none"/><text fill="#000000" stroke="none" font-family="Arial" font-size="13px" font-style="normal" font-weight="normal" text-decoration="none" x="576" y="836.5">cm.NewContainerManager(kcfg.Mounter,</text><text fill="#000000" stroke="none" font-family="Arial" font-size="13px" font-style="normal" font-weight="normal" text-decoration="none" x="625.5" y="849.5">kcfg.CAdvisorInterface)</text></g></g><g transform="translate(-238,-30) scale(1,1)"><path fill="none" stroke="#000000" d="M 574 744 L 574 814" stroke-miterlimit="10"/></g><g transform="translate(-238,-30) scale(1,1)"><path fill="#000000" stroke="none" d="M 569.790482243984 803.8373251423759 L 574 814 L 578.209517756016 803.8373251423759"/></g><g transform="translate(-238,-30) scale(1,1)"><path fill="none" stroke="#000000" d="M 569.790482243984 803.8373251423759 L 574 814 L 578.209517756016 803.8373251423759 L 569.790482243984 803.8373251423759" stroke-miterlimit="10"/></g><g transform="translate(-238,-30) scale(1,1)"><rect fill="#ffffff" stroke="none" x="496" y="929" width="331" height="45"/></g><g transform="translate(-238,-30) scale(1,1)"><path fill="none" stroke="#000000" d="M 496 929 L 827 929 L 827 974 L 496 974 L 496 929 Z Z" stroke-miterlimit="10"/></g><g transform="translate(-238,-30) scale(1,1)"><g><path fill="none" stroke="none"/><text fill="#000000" stroke="none" font-family="Arial" font-size="13px" font-style="normal" font-weight="normal" text-decoration="none" x="557" y="951.5">oomAdjuster.ApplyOOMScoreAdj(0,</text><text fill="#000000" stroke="none" font-family="Arial" font-size="13px" font-style="normal" font-weight="normal" text-decoration="none" x="612" y="964.5">s.OOMScoreAdj)</text></g></g><g transform="translate(-238,-30) scale(1,1)"><path fill="none" stroke="#000000" d="M 591 859 L 591 929" stroke-miterlimit="10"/></g><g transform="translate(-238,-30) scale(1,1)"><path fill="#000000" stroke="none" d="M 586.790482243984 918.8373251423759 L 591 929 L 595.209517756016 918.8373251423759"/></g><g transform="translate(-238,-30) scale(1,1)"><path fill="none" stroke="#000000" d="M 586.790482243984 918.8373251423759 L 591 929 L 595.209517756016 918.8373251423759 L 586.790482243984 918.8373251423759" stroke-miterlimit="10"/></g><g transform="translate(-238,-30) scale(1,1)"><rect fill="#ffffff" stroke="none" x="504" y="1032" width="119" height="32"/></g><g transform="translate(-238,-30) scale(1,1)"><path fill="none" stroke="#000000" d="M 504 1032 L 623 1032 L 623 1064 L 504 1064 L 504 1032 Z Z" stroke-miterlimit="10"/></g><g transform="translate(-238,-30) scale(1,1)"><g><path fill="none" stroke="none"/><text fill="#000000" stroke="none" font-family="Arial" font-size="13px" font-style="normal" font-weight="normal" text-decoration="none" x="513.5" y="1054.5">RunKubelet(kcfg)</text></g></g><g transform="translate(-238,-30) scale(1,1)"><path fill="none" stroke="#000000" d="M 581 974 L 581 1032" stroke-miterlimit="10"/></g><g transform="translate(-238,-30) scale(1,1)"><path fill="#000000" stroke="none" d="M 576.790482243984 1021.8373251423759 L 581 1032 L 585.209517756016 1021.8373251423759"/></g><g transform="translate(-238,-30) scale(1,1)"><path fill="none" stroke="#000000" d="M 576.790482243984 1021.8373251423759 L 581 1032 L 585.209517756016 1021.8373251423759 L 576.790482243984 1021.8373251423759" stroke-miterlimit="10"/></g><g transform="translate(-238,-30) scale(1,1)"><rect fill="#ffffff" stroke="none" x="704" y="1024" width="248" height="45"/></g><g transform="translate(-238,-30) scale(1,1)"><path fill="none" stroke="#000000" d="M 704 1024 L 952 1024 L 952 1069 L 704 1069 L 704 1024 Z Z" stroke-miterlimit="10"/></g><g transform="translate(-238,-30) scale(1,1)"><g><path fill="none" stroke="none"/><text fill="#000000" stroke="none" font-family="Arial" font-size="13px" font-style="normal" font-weight="normal" text-decoration="none" x="781" y="1046.5">instances, ok :=</text><text fill="#000000" stroke="none" font-family="Arial" font-size="13px" font-style="normal" font-weight="normal" text-decoration="none" x="762.5" y="1059.5">kcfg.Cloud.Instances()</text></g></g><g transform="translate(-238,-30) scale(1,1)"><path fill="none" stroke="#000000" d="M 623 1048 L 704 1048" stroke-miterlimit="10"/></g><g transform="translate(-238,-30) scale(1,1)"><path fill="#000000" stroke="none" d="M 693.8373251423759 1052.2095177560159 L 704 1048 L 693.8373251423758 1043.7904822439841"/></g><g transform="translate(-238,-30) scale(1,1)"><path fill="none" stroke="#000000" d="M 693.8373251423759 1052.2095177560159 L 704 1048 L 693.8373251423758 1043.7904822439841 L 693.8373251423759 1052.2095177560159" stroke-miterlimit="10"/></g><g transform="translate(-238,-30) scale(1,1)"><rect fill="#ffffff" stroke="none" x="696" y="1112" width="281" height="32"/></g><g transform="translate(-238,-30) scale(1,1)"><path fill="none" stroke="#000000" d="M 696 1112 L 977 1112 L 977 1144 L 696 1144 L 696 1112 Z Z" stroke-miterlimit="10"/></g><g transform="translate(-238,-30) scale(1,1)"><g><path fill="none" stroke="none"/><text fill="#000000" stroke="none" font-family="Arial" font-size="13px" font-style="normal" font-weight="normal" text-decoration="none" x="705.5" y="1134.5">instances.CurrentNodeName(kcfg.Hostname)</text></g></g><g transform="translate(-238,-30) scale(1,1)"><path fill="none" stroke="#000000" d="M 760 1069 L 760 1112" stroke-miterlimit="10"/></g><g transform="translate(-238,-30) scale(1,1)"><path fill="#000000" stroke="none" d="M 755.790482243984 1101.837325142376 L 760 1112 L 764.209517756016 1101.837325142376"/></g><g transform="translate(-238,-30) scale(1,1)"><path fill="none" stroke="#000000" d="M 755.790482243984 1101.837325142376 L 760 1112 L 764.209517756016 1101.837325142376 L 755.790482243984 1101.837325142376" stroke-miterlimit="10"/></g><g transform="translate(-238,-30) scale(1,1)"><rect fill="#ffffff" stroke="none" x="696" y="1214" width="162" height="32"/></g><g transform="translate(-238,-30) scale(1,1)"><path fill="none" stroke="#000000" d="M 696 1214 L 858 1214 L 858 1246 L 696 1246 L 696 1214 Z Z" stroke-miterlimit="10"/></g><g transform="translate(-238,-30) scale(1,1)"><g><path fill="none" stroke="none"/><text fill="#000000" stroke="none" font-family="Arial" font-size="13px" font-style="normal" font-weight="normal" text-decoration="none" x="705.5" y="1236.5">record.NewBroadcaster()</text></g></g><g transform="translate(-238,-30) scale(1,1)"><path fill="none" stroke="#000000" d="M 809 1144 L 809 1214" stroke-miterlimit="10"/></g><g transform="translate(-238,-30) scale(1,1)"><path fill="#000000" stroke="none" d="M 804.790482243984 1203.837325142376 L 809 1214 L 813.209517756016 1203.837325142376"/></g><g transform="translate(-238,-30) scale(1,1)"><path fill="none" stroke="#000000" d="M 804.790482243984 1203.837325142376 L 809 1214 L 813.209517756016 1203.837325142376 L 804.790482243984 1203.837325142376" stroke-miterlimit="10"/></g><g transform="translate(-238,-30) scale(1,1)"><rect fill="#ffffff" stroke="none" x="696" y="1316" width="576" height="45"/></g><g transform="translate(-238,-30) scale(1,1)"><path fill="none" stroke="#000000" d="M 696 1316 L 1272 1316 L 1272 1361 L 696 1361 L 696 1316 Z Z" stroke-miterlimit="10"/></g><g transform="translate(-238,-30) scale(1,1)"><g><path fill="none" stroke="none"/><text fill="#000000" stroke="none" font-family="Arial" font-size="13px" font-style="normal" font-weight="normal" text-decoration="none" x="758" y="1338.5">eventBroadcaster.NewRecorder(api.EventSource{Component: "kubelet", Host:</text><text fill="#000000" stroke="none" font-family="Arial" font-size="13px" font-style="normal" font-weight="normal" text-decoration="none" x="933.5" y="1351.5">kcfg.NodeName})</text></g></g><g transform="translate(-238,-30) scale(1,1)"><path fill="none" stroke="#000000" d="M 762 1246 L 762 1316" stroke-miterlimit="10"/></g><g transform="translate(-238,-30) scale(1,1)"><path fill="#000000" stroke="none" d="M 757.790482243984 1305.837325142376 L 762 1316 L 766.209517756016 1305.837325142376"/></g><g transform="translate(-238,-30) scale(1,1)"><path fill="none" stroke="#000000" d="M 757.790482243984 1305.837325142376 L 762 1316 L 766.209517756016 1305.837325142376 L 757.790482243984 1305.837325142376" stroke-miterlimit="10"/></g><g transform="translate(-238,-30) scale(1,1)"><rect fill="#ffffff" stroke="none" x="696" y="1431" width="384" height="32"/></g><g transform="translate(-238,-30) scale(1,1)"><path fill="none" stroke="#000000" d="M 696 1431 L 1080 1431 L 1080 1463 L 696 1463 L 696 1431 Z Z" stroke-miterlimit="10"/></g><g transform="translate(-238,-30) scale(1,1)"><g><path fill="none" stroke="none"/><text fill="#000000" stroke="none" font-family="Arial" font-size="13px" font-style="normal" font-weight="normal" text-decoration="none" x="711" y="1453.5">capabilities.Setup(kcfg.AllowPrivileged, privilegedSources, 0)</text></g></g><g transform="translate(-238,-30) scale(1,1)"><path fill="none" stroke="#000000" d="M 837 1361 L 837 1431" stroke-miterlimit="10"/></g><g transform="translate(-238,-30) scale(1,1)"><path fill="#000000" stroke="none" d="M 832.790482243984 1420.837325142376 L 837 1431 L 841.209517756016 1420.837325142376"/></g><g transform="translate(-238,-30) scale(1,1)"><path fill="none" stroke="#000000" d="M 832.790482243984 1420.837325142376 L 837 1431 L 841.209517756016 1420.837325142376 L 832.790482243984 1420.837325142376" stroke-miterlimit="10"/></g><g transform="translate(-238,-30) scale(1,1)"><rect fill="#ffffff" stroke="none" x="776" y="1528" width="142" height="32"/></g><g transform="translate(-238,-30) scale(1,1)"><path fill="none" stroke="#000000" d="M 776 1528 L 918 1528 L 918 1560 L 776 1560 L 776 1528 Z Z" stroke-miterlimit="10"/></g><g transform="translate(-238,-30) scale(1,1)"><g><path fill="none" stroke="none"/><text fill="#000000" stroke="none" font-family="Arial" font-size="13px" font-style="normal" font-weight="normal" text-decoration="none" x="785.5" y="1550.5">CreateAndInitKubelet</text></g></g><g transform="translate(-238,-30) scale(1,1)"><path fill="none" stroke="#000000" d="M 852 1463 L 852 1528" stroke-miterlimit="10"/></g><g transform="translate(-238,-30) scale(1,1)"><path fill="#000000" stroke="none" d="M 847.790482243984 1517.837325142376 L 852 1528 L 856.209517756016 1517.837325142376"/></g><g transform="translate(-238,-30) scale(1,1)"><path fill="none" stroke="#000000" d="M 847.790482243984 1517.837325142376 L 852 1528 L 856.209517756016 1517.837325142376 L 847.790482243984 1517.837325142376" stroke-miterlimit="10"/></g><g transform="translate(-238,-30) scale(1,1)"><rect fill="#ffffff" stroke="none" x="752" y="1616" width="174" height="32"/></g><g transform="translate(-238,-30) scale(1,1)"><path fill="none" stroke="#000000" d="M 752 1616 L 926 1616 L 926 1648 L 752 1648 L 752 1616 Z Z" stroke-miterlimit="10"/></g><g transform="translate(-238,-30) scale(1,1)"><g><path fill="none" stroke="none"/><text fill="#000000" stroke="none" font-family="Arial" font-size="13px" font-style="normal" font-weight="normal" text-decoration="none" x="761.5" y="1638.5">makePodSourceConfig(kc)</text></g></g><g transform="translate(-238,-30) scale(1,1)"><path fill="none" stroke="#000000" d="M 840 1560 L 840 1616" stroke-miterlimit="10"/></g><g transform="translate(-238,-30) scale(1,1)"><path fill="#000000" stroke="none" d="M 835.790482243984 1605.837325142376 L 840 1616 L 844.209517756016 1605.837325142376"/></g><g transform="translate(-238,-30) scale(1,1)"><path fill="none" stroke="#000000" d="M 835.790482243984 1605.837325142376 L 840 1616 L 844.209517756016 1605.837325142376 L 835.790482243984 1605.837325142376" stroke-miterlimit="10"/></g><g transform="translate(-238,-30) scale(1,1)"><rect fill="#ffffff" stroke="none" x="1272" y="1616" width="461" height="45"/></g><g transform="translate(-238,-30) scale(1,1)"><path fill="none" stroke="#000000" d="M 1272 1616 L 1733 1616 L 1733 1661 L 1272 1661 L 1272 1616 Z Z" stroke-miterlimit="10"/></g><g transform="translate(-238,-30) scale(1,1)"><g><path fill="none" stroke="none"/><text fill="#000000" stroke="none" font-family="Arial" font-size="13px" font-style="normal" font-weight="normal" text-decoration="none" x="1320.5" y="1638.5">config.NewPodConfig(config.PodConfigNotificationIncremental,</text><text fill="#000000" stroke="none" font-family="Arial" font-size="13px" font-style="normal" font-weight="normal" text-decoration="none" x="1465.5" y="1651.5">kc.Recorder)</text></g></g><g transform="translate(-238,-30) scale(1,1)"><path fill="none" stroke="#000000" d="M 926 1648 L 1272 1648" stroke-miterlimit="10"/></g><g transform="translate(-238,-30) scale(1,1)"><path fill="#000000" stroke="none" d="M 1261.837325142376 1652.2095177560159 L 1272 1648 L 1261.837325142376 1643.7904822439841"/></g><g transform="translate(-238,-30) scale(1,1)"><path fill="none" stroke="#000000" d="M 1261.837325142376 1652.2095177560159 L 1272 1648 L 1261.837325142376 1643.7904822439841 L 1261.837325142376 1652.2095177560159" stroke-miterlimit="10"/></g><g transform="translate(-238,-30) scale(1,1)"><rect fill="#adadff" stroke="none" x="1792" y="1616" width="241" height="45"/></g><g transform="translate(-238,-30) scale(1,1)"><path fill="none" stroke="#000000" d="M 1792 1616 L 2033 1616 L 2033 1661 L 1792 1661 L 1792 1616 Z Z" stroke-miterlimit="10"/></g><g transform="translate(-238,-30) scale(1,1)"><g><path fill="none" stroke="none"/><text fill="#000000" stroke="none" font-family="Arial" font-size="13px" font-style="normal" font-weight="normal" text-decoration="none" x="1812.5" y="1638.5">make(chan kubetypes.PodUpdate,</text><text fill="#000000" stroke="none" font-family="Arial" font-size="13px" font-style="normal" font-weight="normal" text-decoration="none" x="1903.5" y="1651.5">50)</text></g></g><g transform="translate(-238,-30) scale(1,1)"><path fill="none" stroke="#000000" d="M 1733 1661 L 1792 1661" stroke-miterlimit="10"/></g><g transform="translate(-238,-30) scale(1,1)"><path fill="#000000" stroke="none" d="M 1781.837325142376 1665.2095177560159 L 1792 1661 L 1781.837325142376 1656.7904822439841"/></g><g transform="translate(-238,-30) scale(1,1)"><path fill="none" stroke="#000000" d="M 1781.837325142376 1665.2095177560159 L 1792 1661 L 1781.837325142376 1656.7904822439841 L 1781.837325142376 1665.2095177560159" stroke-miterlimit="10"/></g><g transform="translate(-238,-30) scale(1,1)"><rect fill="#ffffff" stroke="none" x="1736" y="1696" width="259" height="45"/></g><g transform="translate(-238,-30) scale(1,1)"><path fill="none" stroke="#000000" d="M 1736 1696 L 1995 1696 L 1995 1741 L 1736 1741 L 1736 1696 Z Z" stroke-miterlimit="10"/></g><g transform="translate(-238,-30) scale(1,1)"><g><path fill="none" stroke="none"/><text fill="#000000" stroke="none" font-family="Arial" font-size="13px" font-style="normal" font-weight="normal" text-decoration="none" x="1773" y="1718.5">newPodStorage(updates, mode,</text><text fill="#000000" stroke="none" font-family="Arial" font-size="13px" font-style="normal" font-weight="normal" text-decoration="none" x="1840" y="1731.5">recorder)</text></g></g><g transform="translate(-238,-30) scale(1,1)"><path fill="none" stroke="#000000" d="M 1840 1661 L 1840 1696" stroke-miterlimit="10"/></g><g transform="translate(-238,-30) scale(1,1)"><path fill="#000000" stroke="none" d="M 1835.7904822439841 1685.837325142376 L 1840 1696 L 1844.2095177560159 1685.837325142376"/></g><g transform="translate(-238,-30) scale(1,1)"><path fill="none" stroke="#000000" d="M 1835.7904822439841 1685.837325142376 L 1840 1696 L 1844.2095177560159 1685.837325142376 L 1835.7904822439841 1685.837325142376" stroke-miterlimit="10"/></g><g transform="translate(-238,-30) scale(1,1)"><rect fill="#ffffff" stroke="none" x="1768" y="1784" width="88" height="32"/></g><g transform="translate(-238,-30) scale(1,1)"><path fill="none" stroke="#000000" d="M 1768 1784 L 1856 1784 L 1856 1816 L 1768 1816 L 1768 1784 Z Z" stroke-miterlimit="10"/></g><g transform="translate(-238,-30) scale(1,1)"><g><path fill="none" stroke="none"/><text fill="#000000" stroke="none" font-family="Arial" font-size="13px" font-style="normal" font-weight="normal" text-decoration="none" x="1777.5" y="1806.5">&amp;PodConfig</text></g></g><g transform="translate(-238,-30) scale(1,1)"><path fill="none" stroke="#000000" d="M 1808 1741 L 1808 1784" stroke-miterlimit="10"/></g><g transform="translate(-238,-30) scale(1,1)"><path fill="#000000" stroke="none" d="M 1803.7904822439841 1773.837325142376 L 1808 1784 L 1812.2095177560159 1773.837325142376"/></g><g transform="translate(-238,-30) scale(1,1)"><path fill="none" stroke="#000000" d="M 1803.7904822439841 1773.837325142376 L 1808 1784 L 1812.2095177560159 1773.837325142376 L 1803.7904822439841 1773.837325142376" stroke-miterlimit="10"/></g><g transform="translate(-238,-30) scale(1,1)"><rect fill="#ffffff" stroke="none" x="1072" y="1712" width="224" height="32"/></g><g transform="translate(-238,-30) scale(1,1)"><path fill="none" stroke="#000000" d="M 1072 1712 L 1296 1712 L 1296 1744 L 1072 1744 L 1072 1712 Z Z" stroke-miterlimit="10"/></g><g transform="translate(-238,-30) scale(1,1)"><g><path fill="none" stroke="none"/><text fill="#000000" stroke="none" font-family="Arial" font-size="13px" font-style="normal" font-weight="normal" text-decoration="none" x="1121" y="1734.5">config.NewSourceFile</text></g></g><g transform="translate(-238,-30) scale(1,1)"><path fill="none" stroke="#000000" d="M 1502 1661 L 1502 1736 M 1502 1736 A 8 8 0 0 1 1494 1744 L 1296 1744" stroke-miterlimit="10"/></g><g transform="translate(-238,-30) scale(1,1)"><path fill="#000000" stroke="none" d="M 1306.162674857624 1739.7904822439841 L 1296 1744 L 1306.162674857624 1748.2095177560159"/></g><g transform="translate(-238,-30) scale(1,1)"><path fill="none" stroke="#000000" d="M 1306.162674857624 1739.7904822439841 L 1296 1744 L 1306.162674857624 1748.2095177560159 L 1306.162674857624 1739.7904822439841" stroke-miterlimit="10"/></g><g transform="translate(-238,-30) scale(1,1)"><rect fill="#ffffff" stroke="none" x="1352" y="1712" width="149" height="32"/></g><g transform="translate(-238,-30) scale(1,1)"><path fill="none" stroke="#000000" d="M 1352 1712 L 1501 1712 L 1501 1744 L 1352 1744 L 1352 1712 Z Z" stroke-miterlimit="10"/></g><g transform="translate(-238,-30) scale(1,1)"><g><path fill="none" stroke="none"/><text fill="#000000" stroke="none" font-family="Arial" font-size="13px" font-style="normal" font-weight="normal" text-decoration="none" x="1361.5" y="1734.5">config.NewSourceURL</text></g></g><g transform="translate(-238,-30) scale(1,1)"><path fill="none" stroke="#000000" d="M 1421 1661 L 1421 1712" stroke-miterlimit="10"/></g><g transform="translate(-238,-30) scale(1,1)"><path fill="#000000" stroke="none" d="M 1416.7904822439841 1701.837325142376 L 1421 1712 L 1425.2095177560159 1701.837325142376"/></g><g transform="translate(-238,-30) scale(1,1)"><path fill="none" stroke="#000000" d="M 1416.7904822439841 1701.837325142376 L 1421 1712 L 1425.2095177560159 1701.837325142376 L 1416.7904822439841 1701.837325142376" stroke-miterlimit="10"/></g><g transform="translate(-238,-30) scale(1,1)"><rect fill="#ffffff" stroke="none" x="1512" y="1712" width="179" height="32"/></g><g transform="translate(-238,-30) scale(1,1)"><path fill="none" stroke="#000000" d="M 1512 1712 L 1691 1712 L 1691 1744 L 1512 1744 L 1512 1712 Z Z" stroke-miterlimit="10"/></g><g transform="translate(-238,-30) scale(1,1)"><g><path fill="none" stroke="none"/><text fill="#000000" stroke="none" font-family="Arial" font-size="13px" font-style="normal" font-weight="normal" text-decoration="none" x="1521.5" y="1734.5">config.NewSourceApiserver</text></g></g><g transform="translate(-238,-30) scale(1,1)"><path fill="none" stroke="#000000" d="M 1592 1661 L 1592 1712" stroke-miterlimit="10"/></g><g transform="translate(-238,-30) scale(1,1)"><path fill="#000000" stroke="none" d="M 1587.7904822439841 1701.837325142376 L 1592 1712 L 1596.2095177560159 1701.837325142376"/></g><g transform="translate(-238,-30) scale(1,1)"><path fill="none" stroke="#000000" d="M 1587.7904822439841 1701.837325142376 L 1592 1712 L 1596.2095177560159 1701.837325142376 L 1587.7904822439841 1701.837325142376" stroke-miterlimit="10"/></g><g transform="translate(-238,-30) scale(1,1)"><path fill="#ffffff" stroke="none" d="M 2016 1688 L 2104 1688 L 2114 1698 L 2114 1736 L 2016 1736 L 2016 1688"/></g><g transform="translate(-238,-30) scale(1,1)"><path fill="none" stroke="#000000" d="M 2016 1688 L 2104 1688 L 2114 1698 L 2114 1736 L 2016 1736 L 2016 1688 L 2016 1688" stroke-miterlimit="10"/></g><g transform="translate(-238,-30) scale(1,1)"><path fill="none" stroke="#000000" d="M 2104 1688 L 2104 1698 L 2114 1698 L 2104 1688" stroke-miterlimit="10"/></g><g transform="translate(-238,-30) scale(1,1)"><g><path fill="none" stroke="none"/><text fill="#000000" stroke="none" font-family="Arial" font-size="13px" font-style="normal" font-weight="normal" text-decoration="none" x="2021" y="1706">Memory store</text></g></g><g transform="translate(-238,-30) scale(1,1)"><path fill="none" stroke="#000000" d="M 1996 1714 L 2015 1714" stroke-miterlimit="10" stroke-dasharray="3"/></g><g transform="translate(-238,-30) scale(1,1)"><rect fill="#ffffff" stroke="none" x="968" y="1856" width="135" height="32"/></g><g transform="translate(-238,-30) scale(1,1)"><path fill="none" stroke="#000000" d="M 968 1856 L 1103 1856 L 1103 1888 L 968 1888 L 968 1856 Z Z" stroke-miterlimit="10"/></g><g transform="translate(-238,-30) scale(1,1)"><g><path fill="none" stroke="none"/><text fill="#000000" stroke="none" font-family="Arial" font-size="13px" font-style="normal" font-weight="normal" text-decoration="none" x="977.5" y="1878.5">s.extractFromPath()</text></g></g><g transform="translate(-238,-30) scale(1,1)"><rect fill="#ffffff" stroke="none" x="1064" y="1960" width="228" height="58"/></g><g transform="translate(-238,-30) scale(1,1)"><path fill="none" stroke="#000000" d="M 1064 1960 L 1292 1960 L 1292 2018 L 1064 2018 L 1064 1960 Z Z" stroke-miterlimit="10"/></g><g transform="translate(-238,-30) scale(1,1)"><g><path fill="none" stroke="none"/><text fill="#000000" stroke="none" font-family="Arial" font-size="13px" font-style="normal" font-weight="normal" text-decoration="none" x="1141.5" y="1982.5">s.updates &lt;-</text><text fill="#000000" stroke="none" font-family="Arial" font-size="13px" font-style="normal" font-weight="normal" text-decoration="none" x="1112" y="1995.5">kubetypes.PodUpdate{</text></g></g><g transform="translate(-238,-30) scale(1,1)"><path fill="none" stroke="#000000" d="M 1095 1888 L 1095 1960" stroke-miterlimit="10"/></g><g transform="translate(-238,-30) scale(1,1)"><path fill="#000000" stroke="none" d="M 1090.7904822439841 1949.837325142376 L 1095 1960 L 1099.2095177560159 1949.837325142376"/></g><g transform="translate(-238,-30) scale(1,1)"><path fill="none" stroke="#000000" d="M 1090.7904822439841 1949.837325142376 L 1095 1960 L 1099.2095177560159 1949.837325142376 L 1090.7904822439841 1949.837325142376" stroke-miterlimit="10"/></g><g transform="translate(-238,-30) scale(1,1)"><path fill="#ffff49" stroke="none" d="M 912 1912 L 1000 1912 L 1010 1922 L 1010 1960 L 912 1960 L 912 1912"/></g><g transform="translate(-238,-30) scale(1,1)"><path fill="none" stroke="#000000" d="M 912 1912 L 1000 1912 L 1010 1922 L 1010 1960 L 912 1960 L 912 1912 L 912 1912" stroke-miterlimit="10"/></g><g transform="translate(-238,-30) scale(1,1)"><path fill="none" stroke="#000000" d="M 1000 1912 L 1000 1922 L 1010 1922 L 1000 1912" stroke-miterlimit="10"/></g><g transform="translate(-238,-30) scale(1,1)"><g><path fill="none" stroke="none"/><text fill="#000000" stroke="none" font-family="Arial" font-size="13px" font-style="normal" font-weight="normal" text-decoration="none" x="917" y="1930">update the</text><text fill="#000000" stroke="none" font-family="Arial" font-size="13px" font-style="normal" font-weight="normal" text-decoration="none" x="917" y="1943">channel</text></g></g><g transform="translate(-238,-30) scale(1,1)"><path fill="none" stroke="#000000" d="M 1063 1961 L 1012 1948" stroke-miterlimit="10" stroke-dasharray="3"/></g><g transform="translate(-238,-30) scale(1,1)"><rect fill="#ffff49" stroke="none" x="1648" y="1832" width="152" height="40"/></g><g transform="translate(-238,-30) scale(1,1)"><path fill="none" stroke="#000000" d="M 1648 1832 L 1800 1832 L 1800 1872 L 1648 1872 L 1648 1832 Z Z" stroke-miterlimit="10"/></g><g transform="translate(-238,-30) scale(1,1)"><g><path fill="none" stroke="none"/><text fill="#000000" stroke="none" font-family="Arial" font-size="13px" font-style="normal" font-weight="normal" text-decoration="none" x="1659" y="1854.5">make(chan interface{})</text></g></g><g transform="translate(-238,-30) scale(1,1)"><path fill="none" stroke="#000000" d="M 1080 1744 L 1080 1832 M 1080 1832 A 8 8 0 0 0 1088 1840 L 1648 1840" stroke-miterlimit="10"/></g><g transform="translate(-238,-30) scale(1,1)"><path fill="#000000" stroke="none" d="M 1637.837325142376 1844.2095177560159 L 1648 1840 L 1637.837325142376 1835.7904822439841"/></g><g transform="translate(-238,-30) scale(1,1)"><path fill="none" stroke="#000000" d="M 1637.837325142376 1844.2095177560159 L 1648 1840 L 1637.837325142376 1835.7904822439841 L 1637.837325142376 1844.2095177560159" stroke-miterlimit="10"/></g><g transform="translate(-238,-30) scale(1,1)"><rect fill="#ffffff" stroke="none" x="1584" y="1912" width="200" height="32"/></g><g transform="translate(-238,-30) scale(1,1)"><path fill="none" stroke="#000000" d="M 1584 1912 L 1784 1912 L 1784 1944 L 1584 1944 L 1584 1912 Z Z" stroke-miterlimit="10"/></g><g transform="translate(-238,-30) scale(1,1)"><g><path fill="none" stroke="none"/><text fill="#000000" stroke="none" font-family="Arial" font-size="13px" font-style="normal" font-weight="normal" text-decoration="none" x="1598.5" y="1934.5">m.listen(source, newChannel)</text></g></g><g transform="translate(-238,-30) scale(1,1)"><path fill="none" stroke="#000000" d="M 1675 1872 L 1675 1912" stroke-miterlimit="10"/></g><g transform="translate(-238,-30) scale(1,1)"><path fill="#000000" stroke="none" d="M 1670.7904822439841 1901.837325142376 L 1675 1912 L 1679.2095177560159 1901.837325142376"/></g><g transform="translate(-238,-30) scale(1,1)"><path fill="none" stroke="#000000" d="M 1670.7904822439841 1901.837325142376 L 1675 1912 L 1679.2095177560159 1901.837325142376 L 1670.7904822439841 1901.837325142376" stroke-miterlimit="10"/></g><g transform="translate(-238,-30) scale(1,1)"><rect fill="#ffffff" stroke="none" x="1616" y="1968" width="74" height="32"/></g><g transform="translate(-238,-30) scale(1,1)"><path fill="none" stroke="#000000" d="M 1616 1968 L 1690 1968 L 1690 2000 L 1616 2000 L 1616 1968 Z Z" stroke-miterlimit="10"/></g><g transform="translate(-238,-30) scale(1,1)"><g><path fill="none" stroke="none"/><text fill="#000000" stroke="none" font-family="Arial" font-size="13px" font-style="normal" font-weight="normal" text-decoration="none" x="1635" y="1990.5">Merge</text></g></g><g transform="translate(-238,-30) scale(1,1)"><path fill="none" stroke="#000000" d="M 1665 1944 L 1665 1968" stroke-miterlimit="10"/></g><g transform="translate(-238,-30) scale(1,1)"><path fill="#000000" stroke="none" d="M 1660.7904822439841 1957.837325142376 L 1665 1968 L 1669.2095177560159 1957.837325142376"/></g><g transform="translate(-238,-30) scale(1,1)"><path fill="none" stroke="#000000" d="M 1660.7904822439841 1957.837325142376 L 1665 1968 L 1669.2095177560159 1957.837325142376 L 1660.7904822439841 1957.837325142376" stroke-miterlimit="10"/></g><g transform="translate(-238,-30) scale(1,1)"><path fill="#ffffff" stroke="none" d="M 1368 1952 L 1539 1952 L 1549 1962 L 1549 2000 L 1368 2000 L 1368 1952"/></g><g transform="translate(-238,-30) scale(1,1)"><path fill="none" stroke="#000000" d="M 1368 1952 L 1539 1952 L 1549 1962 L 1549 2000 L 1368 2000 L 1368 1952 L 1368 1952" stroke-miterlimit="10"/></g><g transform="translate(-238,-30) scale(1,1)"><path fill="none" stroke="#000000" d="M 1539 1952 L 1539 1962 L 1549 1962 L 1539 1952" stroke-miterlimit="10"/></g><g transform="translate(-238,-30) scale(1,1)"><g><path fill="none" stroke="none"/><text fill="#000000" stroke="none" font-family="Arial" font-size="13px" font-style="normal" font-weight="normal" text-decoration="none" x="1373" y="1970">pkg/kubelet/config/config.go</text></g></g><g transform="translate(-238,-30) scale(1,1)"><path fill="none" stroke="#000000" d="M 1615 1982 L 1551 1980" stroke-miterlimit="10" stroke-dasharray="3"/></g><g transform="translate(-238,-30) scale(1,1)"><rect fill="#ffffff" stroke="none" x="1560" y="2040" width="208" height="32"/></g><g transform="translate(-238,-30) scale(1,1)"><path fill="none" stroke="#000000" d="M 1560 2040 L 1768 2040 L 1768 2072 L 1560 2072 L 1560 2040 Z Z" stroke-miterlimit="10"/></g><g transform="translate(-238,-30) scale(1,1)"><g><path fill="none" stroke="none"/><text fill="#000000" stroke="none" font-family="Arial" font-size="13px" font-style="normal" font-weight="normal" text-decoration="none" x="1592" y="2062.5">s.merge(source, change)</text></g></g><g transform="translate(-238,-30) scale(1,1)"><path fill="none" stroke="#000000" d="M 1646 2000 L 1646 2040" stroke-miterlimit="10"/></g><g transform="translate(-238,-30) scale(1,1)"><path fill="#000000" stroke="none" d="M 1641.7904822439841 2029.837325142376 L 1646 2040 L 1650.2095177560159 2029.837325142376"/></g><g transform="translate(-238,-30) scale(1,1)"><path fill="none" stroke="#000000" d="M 1641.7904822439841 2029.837325142376 L 1646 2040 L 1650.2095177560159 2029.837325142376 L 1641.7904822439841 2029.837325142376" stroke-miterlimit="10"/></g><g transform="translate(-238,-30) scale(1,1)"><rect fill="#ffffff" stroke="none" x="1336" y="2032" width="270" height="45"/></g><g transform="translate(-238,-30) scale(1,1)"><path fill="none" stroke="#000000" d="M 1336 2032 L 1606 2032 L 1606 2077 L 1336 2077 L 1336 2032 Z Z" stroke-miterlimit="10"/></g><g transform="translate(-238,-30) scale(1,1)"><g><path fill="none" stroke="none"/><text fill="#000000" stroke="none" font-family="Arial" font-size="13px" font-style="normal" font-weight="normal" text-decoration="none" x="1363.5" y="2054.5">updatePodsFunc(update.Pods, pods,</text><text fill="#000000" stroke="none" font-family="Arial" font-size="13px" font-style="normal" font-weight="normal" text-decoration="none" x="1455" y="2067.5">pods)</text></g></g><g transform="translate(-238,-30) scale(1,1)"><path fill="none" stroke="#000000" d="M 1560 2072 L 1560 2077" stroke-miterlimit="10"/></g><g transform="translate(-238,-30) scale(1,1)"><path fill="#000000" stroke="none" d="M 1555.7904822439841 2066.837325142376 L 1560 2077 L 1564.2095177560159 2066.837325142376"/></g><g transform="translate(-238,-30) scale(1,1)"><path fill="none" stroke="#000000" d="M 1555.7904822439841 2066.837325142376 L 1560 2077 L 1564.2095177560159 2066.837325142376 L 1555.7904822439841 2066.837325142376" stroke-miterlimit="10"/></g><g transform="translate(-238,-30) scale(1,1)"><rect fill="#ffffff" stroke="none" x="1520" y="2112" width="319" height="45"/></g><g transform="translate(-238,-30) scale(1,1)"><path fill="none" stroke="#000000" d="M 1520 2112 L 1839 2112 L 1839 2157 L 1520 2157 L 1520 2112 Z Z" stroke-miterlimit="10"/></g><g transform="translate(-238,-30) scale(1,1)"><g><path fill="none" stroke="none"/><text fill="#000000" stroke="none" font-family="Arial" font-size="13px" font-style="normal" font-weight="normal" text-decoration="none" x="1639" y="2134.5">deliver update</text><text fill="#000000" stroke="none" font-family="Arial" font-size="13px" font-style="normal" font-weight="normal" text-decoration="none" x="1572" y="2147.5">notifications(&amp;kubetypes.PodUpdate)</text></g></g><g transform="translate(-238,-30) scale(1,1)"><path fill="none" stroke="#000000" d="M 1640 2072 L 1640 2112" stroke-miterlimit="10"/></g><g transform="translate(-238,-30) scale(1,1)"><path fill="#000000" stroke="none" d="M 1635.7904822439841 2101.837325142376 L 1640 2112 L 1644.2095177560159 2101.837325142376"/></g><g transform="translate(-238,-30) scale(1,1)"><path fill="none" stroke="#000000" d="M 1635.7904822439841 2101.837325142376 L 1640 2112 L 1644.2095177560159 2101.837325142376 L 1635.7904822439841 2101.837325142376" stroke-miterlimit="10"/></g><g transform="translate(-238,-30) scale(1,1)"><path fill="none" stroke="#000000" d="M 1460 1744 L 1460 1824 M 1460 1824 A 8 8 0 0 0 1468 1832 L 1648 1832" stroke-miterlimit="10"/></g><g transform="translate(-238,-30) scale(1,1)"><path fill="#000000" stroke="none" d="M 1637.837325142376 1836.2095177560159 L 1648 1832 L 1637.837325142376 1827.7904822439841"/></g><g transform="translate(-238,-30) scale(1,1)"><path fill="none" stroke="#000000" d="M 1637.837325142376 1836.2095177560159 L 1648 1832 L 1637.837325142376 1827.7904822439841 L 1637.837325142376 1836.2095177560159" stroke-miterlimit="10"/></g><g transform="translate(-238,-30) scale(1,1)"><path fill="none" stroke="#000000" d="M 1680 1744 L 1680 1832" stroke-miterlimit="10"/></g><g transform="translate(-238,-30) scale(1,1)"><path fill="#000000" stroke="none" d="M 1675.7904822439841 1821.837325142376 L 1680 1832 L 1684.2095177560159 1821.837325142376"/></g><g transform="translate(-238,-30) scale(1,1)"><path fill="none" stroke="#000000" d="M 1675.7904822439841 1821.837325142376 L 1680 1832 L 1684.2095177560159 1821.837325142376 L 1675.7904822439841 1821.837325142376" stroke-miterlimit="10"/></g><g transform="translate(-238,-30) scale(1,1)"><path fill="#ffffff" stroke="none" d="M 1096 2040 L 1272 2040 L 1282 2050 L 1282 2063 L 1096 2063 L 1096 2040"/></g><g transform="translate(-238,-30) scale(1,1)"><path fill="none" stroke="#000000" d="M 1096 2040 L 1272 2040 L 1282 2050 L 1282 2063 L 1096 2063 L 1096 2040 L 1096 2040" stroke-miterlimit="10"/></g><g transform="translate(-238,-30) scale(1,1)"><path fill="none" stroke="#000000" d="M 1272 2040 L 1272 2050 L 1282 2050 L 1272 2040" stroke-miterlimit="10"/></g><g transform="translate(-238,-30) scale(1,1)"><g><path fill="none" stroke="none"/><text fill="#000000" stroke="none" font-family="Arial" font-size="13px" font-style="normal" font-weight="normal" text-decoration="none" x="1101" y="2058">update Memory cache</text></g></g><g transform="translate(-238,-30) scale(1,1)"><path fill="none" stroke="#000000" d="M 1335 2053 L 1284 2053" stroke-miterlimit="10" stroke-dasharray="3"/></g><g transform="translate(-238,-30) scale(1,1)"><path fill="#adadff" stroke="none" d="M 1920 1968 L 2008 1968 L 2018 1978 L 2018 2017 L 1920 2017 L 1920 1968"/></g><g transform="translate(-238,-30) scale(1,1)"><path fill="none" stroke="#000000" d="M 1920 1968 L 2008 1968 L 2018 1978 L 2018 2017 L 1920 2017 L 1920 1968 L 1920 1968" stroke-miterlimit="10"/></g><g transform="translate(-238,-30) scale(1,1)"><path fill="none" stroke="#000000" d="M 2008 1968 L 2008 1978 L 2018 1978 L 2008 1968" stroke-miterlimit="10"/></g><g transform="translate(-238,-30) scale(1,1)"><g><path fill="none" stroke="none"/><text fill="#000000" stroke="none" font-family="Arial" font-size="13px" font-style="normal" font-weight="normal" text-decoration="none" x="1925" y="1986">update</text><text fill="#000000" stroke="none" font-family="Arial" font-size="13px" font-style="normal" font-weight="normal" text-decoration="none" x="1925" y="1999">podStorage,</text><text fill="#000000" stroke="none" font-family="Arial" font-size="13px" font-style="normal" font-weight="normal" text-decoration="none" x="1925" y="2012">e.g. etcd</text></g></g><g transform="translate(-238,-30) scale(1,1)"><path fill="none" stroke="#000000" d="M 1726 2111 L 1919 2017" stroke-miterlimit="10" stroke-dasharray="3"/></g><g transform="translate(-238,-30) scale(1,1)"><rect fill="#ffffff" stroke="none" x="1128" y="1856" width="133" height="32"/></g><g transform="translate(-238,-30) scale(1,1)"><path fill="none" stroke="#000000" d="M 1128 1856 L 1261 1856 L 1261 1888 L 1128 1888 L 1128 1856 Z Z" stroke-miterlimit="10"/></g><g transform="translate(-238,-30) scale(1,1)"><g><path fill="none" stroke="none"/><text fill="#000000" stroke="none" font-family="Arial" font-size="13px" font-style="normal" font-weight="normal" text-decoration="none" x="1137.5" y="1878.5">s.extractFromURL()</text></g></g><g transform="translate(-238,-30) scale(1,1)"><path fill="none" stroke="#000000" d="M 1360 1744 L 1360 1848 M 1360 1848 A 8 8 0 0 1 1352 1856 L 1261 1856" stroke-miterlimit="10"/></g><g transform="translate(-238,-30) scale(1,1)"><path fill="#000000" stroke="none" d="M 1271.162674857624 1851.7904822439841 L 1261 1856 L 1271.162674857624 1860.2095177560159"/></g><g transform="translate(-238,-30) scale(1,1)"><path fill="none" stroke="#000000" d="M 1271.162674857624 1851.7904822439841 L 1261 1856 L 1271.162674857624 1860.2095177560159 L 1271.162674857624 1851.7904822439841" stroke-miterlimit="10"/></g><g transform="translate(-238,-30) scale(1,1)"><path fill="none" stroke="#000000" d="M 1208 1888 L 1208 1960" stroke-miterlimit="10"/></g><g transform="translate(-238,-30) scale(1,1)"><path fill="#000000" stroke="none" d="M 1203.7904822439841 1949.837325142376 L 1208 1960 L 1212.2095177560159 1949.837325142376"/></g><g transform="translate(-238,-30) scale(1,1)"><path fill="none" stroke="#000000" d="M 1203.7904822439841 1949.837325142376 L 1208 1960 L 1212.2095177560159 1949.837325142376 L 1203.7904822439841 1949.837325142376" stroke-miterlimit="10"/></g><g transform="translate(-238,-30) scale(1,1)"><rect fill="#ffffff" stroke="none" x="1344" y="1864" width="187" height="32"/></g><g transform="translate(-238,-30) scale(1,1)"><path fill="none" stroke="#000000" d="M 1344 1864 L 1531 1864 L 1531 1896 L 1344 1896 L 1344 1864 Z Z" stroke-miterlimit="10"/></g><g transform="translate(-238,-30) scale(1,1)"><g><path fill="none" stroke="none"/><text fill="#000000" stroke="none" font-family="Arial" font-size="13px" font-style="normal" font-weight="normal" text-decoration="none" x="1353.5" y="1886.5">newSourceApiserverFromLW</text></g></g><g transform="translate(-238,-30) scale(1,1)"><path fill="none" stroke="#000000" d="M 1628 1744 L 1628 1872 M 1628 1872 A 8 8 0 0 1 1620 1880 L 1531 1880" stroke-miterlimit="10"/></g><g transform="translate(-238,-30) scale(1,1)"><path fill="#000000" stroke="none" d="M 1541.162674857624 1875.7904822439841 L 1531 1880 L 1541.162674857624 1884.2095177560159"/></g><g transform="translate(-238,-30) scale(1,1)"><path fill="none" stroke="#000000" d="M 1541.162674857624 1875.7904822439841 L 1531 1880 L 1541.162674857624 1884.2095177560159 L 1541.162674857624 1875.7904822439841" stroke-miterlimit="10"/></g><g transform="translate(-238,-30) scale(1,1)"><path fill="none" stroke="#000000" d="M 1344 1880 L 1288 1880 M 1288 1880 A 8 8 0 0 0 1280 1888 L 1280 1960" stroke-miterlimit="10"/></g><g transform="translate(-238,-30) scale(1,1)"><path fill="#000000" stroke="none" d="M 1275.7904822439841 1949.837325142376 L 1280 1960 L 1284.2095177560159 1949.837325142376"/></g><g transform="translate(-238,-30) scale(1,1)"><path fill="none" stroke="#000000" d="M 1275.7904822439841 1949.837325142376 L 1280 1960 L 1284.2095177560159 1949.837325142376 L 1275.7904822439841 1949.837325142376" stroke-miterlimit="10"/></g><g transform="translate(-238,-30) scale(1,1)"><path fill="none" stroke="#000000" d="M 1072 1728 L 1056 1728 M 1056 1728 A 8 8 0 0 0 1048 1736 L 1048 1856" stroke-miterlimit="10"/></g><g transform="translate(-238,-30) scale(1,1)"><path fill="#000000" stroke="none" d="M 1043.7904822439841 1845.837325142376 L 1048 1856 L 1052.2095177560159 1845.837325142376"/></g><g transform="translate(-238,-30) scale(1,1)"><path fill="none" stroke="#000000" d="M 1043.7904822439841 1845.837325142376 L 1048 1856 L 1052.2095177560159 1845.837325142376 L 1043.7904822439841 1845.837325142376" stroke-miterlimit="10"/></g><g transform="translate(-238,-30) scale(1,1)"><rect fill="#ffffff" stroke="none" x="760" y="1760" width="162" height="32"/></g><g transform="translate(-238,-30) scale(1,1)"><path fill="none" stroke="#000000" d="M 760 1760 L 922 1760 L 922 1792 L 760 1792 L 760 1760 Z Z" stroke-miterlimit="10"/></g><g transform="translate(-238,-30) scale(1,1)"><g><path fill="none" stroke="none"/><text fill="#000000" stroke="none" font-family="Arial" font-size="13px" font-style="normal" font-weight="normal" text-decoration="none" x="769.5" y="1782.5">kubelet.NewMainKubelet</text></g></g><g transform="translate(-238,-30) scale(1,1)"><path fill="none" stroke="#000000" d="M 797 1648 L 797 1760" stroke-miterlimit="10"/></g><g transform="translate(-238,-30) scale(1,1)"><path fill="#000000" stroke="none" d="M 792.790482243984 1749.837325142376 L 797 1760 L 801.209517756016 1749.837325142376"/></g><g transform="translate(-238,-30) scale(1,1)"><path fill="none" stroke="#000000" d="M 792.790482243984 1749.837325142376 L 797 1760 L 801.209517756016 1749.837325142376 L 792.790482243984 1749.837325142376" stroke-miterlimit="10"/></g><g transform="translate(-238,-30) scale(1,1)"><rect fill="#ffffff" stroke="none" x="760" y="1862" width="85" height="32"/></g><g transform="translate(-238,-30) scale(1,1)"><path fill="none" stroke="#000000" d="M 760 1862 L 845 1862 L 845 1894 L 760 1894 L 760 1862 Z Z" stroke-miterlimit="10"/></g><g transform="translate(-238,-30) scale(1,1)"><g><path fill="none" stroke="none"/><text fill="#000000" stroke="none" font-family="Arial" font-size="13px" font-style="normal" font-weight="normal" text-decoration="none" x="769.5" y="1884.5">k.BirthCry()</text></g></g><g transform="translate(-238,-30) scale(1,1)"><path fill="none" stroke="#000000" d="M 826 1792 L 826 1862" stroke-miterlimit="10"/></g><g transform="translate(-238,-30) scale(1,1)"><path fill="#000000" stroke="none" d="M 821.790482243984 1851.837325142376 L 826 1862 L 830.209517756016 1851.837325142376"/></g><g transform="translate(-238,-30) scale(1,1)"><path fill="none" stroke="#000000" d="M 821.790482243984 1851.837325142376 L 826 1862 L 830.209517756016 1851.837325142376 L 821.790482243984 1851.837325142376" stroke-miterlimit="10"/></g><g transform="translate(-238,-30) scale(1,1)"><rect fill="#ffffff" stroke="none" x="760" y="1964" width="172" height="32"/></g><g transform="translate(-238,-30) scale(1,1)"><path fill="none" stroke="#000000" d="M 760 1964 L 932 1964 L 932 1996 L 760 1996 L 760 1964 Z Z" stroke-miterlimit="10"/></g><g transform="translate(-238,-30) scale(1,1)"><g><path fill="none" stroke="none"/><text fill="#000000" stroke="none" font-family="Arial" font-size="13px" font-style="normal" font-weight="normal" text-decoration="none" x="769.5" y="1986.5">k.StartGarbageCollection()</text></g></g><g transform="translate(-238,-30) scale(1,1)"><path fill="none" stroke="#000000" d="M 794 1894 L 794 1964" stroke-miterlimit="10"/></g><g transform="translate(-238,-30) scale(1,1)"><path fill="#000000" stroke="none" d="M 789.790482243984 1953.837325142376 L 794 1964 L 798.209517756016 1953.837325142376"/></g><g transform="translate(-238,-30) scale(1,1)"><path fill="none" stroke="#000000" d="M 789.790482243984 1953.837325142376 L 794 1964 L 798.209517756016 1953.837325142376 L 789.790482243984 1953.837325142376" stroke-miterlimit="10"/></g></g></svg>